<svg width="299" height="220" viewBox="0 0 299 220" fill="none" xmlns="http://www.w3.org/2000/svg">
<g clip-path="url(#clip0_585_4866)">
<path d="M115.865 131.837C115.625 131.698 115.412 131.55 115.227 131.393V138.626C115.227 139.305 115.695 139.957 116.527 140.438L292.865 242.238C294.598 243.239 297.41 243.239 299.143 242.238L418.8 173.16C419.632 172.679 420.1 172.027 420.1 171.348V164.545C419.913 164.704 419.698 164.855 419.454 164.995L300.167 233.86C298.074 235.068 294.682 235.068 292.589 233.86L115.865 131.837Z" fill="#131415"/>
<path d="M116.515 127.838C115.66 128.331 115.227 128.976 115.215 129.623H115.227V129.84C115.303 130.432 115.732 131.01 116.515 131.462L293.239 233.485C294.973 234.486 297.784 234.486 299.518 233.485L418.805 164.62C419.618 164.151 420.05 163.544 420.1 162.929V162.833H420.105C420.116 162.169 419.683 161.503 418.805 160.996L242.081 58.9731C240.347 57.9722 237.536 57.9722 235.802 58.9731L116.515 127.838Z" fill="#131415"/>
<path d="M106.49 138.958L114.309 134.448V138.626C114.309 139.446 114.873 140.233 115.878 140.813L292.215 242.613C294.308 243.821 297.701 243.821 299.793 242.613L419.45 173.535C420.454 172.955 421.019 172.168 421.019 171.348V170.443L427.3 174.102C429.039 175.116 429.032 176.75 427.285 177.758L300.492 250.956C298.739 251.968 295.897 251.968 294.144 250.956L106.489 142.623C105.646 142.136 105.208 141.504 105.176 140.866L105.176 140.75H105.175C105.192 140.1 105.631 139.453 106.49 138.958Z" fill="#161D1A"/>
<path d="M428.602 177.676C428.412 177.839 428.191 177.993 427.942 178.137L301.148 251.335C299.033 252.556 295.603 252.556 293.488 251.335L105.832 143.002C105.585 142.859 105.366 142.705 105.176 142.544L105.176 146.67C105.177 147.357 105.649 148.016 106.491 148.502L293.777 256.622C295.53 257.634 298.371 257.634 300.124 256.622L427.288 183.21C428.129 182.724 428.602 182.065 428.602 181.378V177.676Z" fill="#161D1A"/>
<path opacity="0.75" fill-rule="evenodd" clip-rule="evenodd" d="M114.309 129.859C114.209 128.999 114.728 128.12 115.866 127.463L235.153 58.5982C237.246 57.3901 240.639 57.3901 242.731 58.5982L419.455 160.621C420.56 161.258 421.081 162.105 421.02 162.94V169.682L427.96 173.725C428.996 174.329 429.519 175.116 429.529 175.904H429.531V181.378C429.531 182.207 428.961 183.003 427.945 183.589L300.781 257.001C298.666 258.222 295.236 258.222 293.121 257.001L105.835 148.881C104.819 148.294 104.248 147.499 104.248 146.67L104.248 140.874C104.21 140.046 104.739 139.21 105.834 138.578L114.309 133.69V129.859ZM115.228 131.393C115.413 131.55 115.626 131.698 115.866 131.837L292.59 233.86C294.683 235.068 298.075 235.068 300.168 233.86L419.455 164.995C419.699 164.855 419.914 164.704 420.101 164.545V171.348C420.101 172.027 419.633 172.679 418.801 173.16L299.144 242.238C297.41 243.239 294.599 243.239 292.865 242.238L116.528 140.438C115.695 139.957 115.228 139.305 115.228 138.626V131.393ZM115.216 129.623C115.227 128.976 115.661 128.331 116.516 127.838L235.803 58.9731C237.537 57.9722 240.348 57.9722 242.082 58.9731L418.805 160.996C419.683 161.503 420.117 162.169 420.106 162.833H420.101V162.929C420.051 163.544 419.619 164.151 418.805 164.621L299.518 233.485C297.785 234.486 294.973 234.486 293.24 233.485L116.516 131.462C115.733 131.01 115.303 130.432 115.228 129.84V129.623H115.216ZM114.309 134.448L106.491 138.958C105.631 139.453 105.193 140.1 105.175 140.75H105.177L105.177 140.866C105.209 141.504 105.646 142.136 106.489 142.623L294.145 250.956C295.898 251.968 298.739 251.968 300.492 250.956L427.285 177.758C429.033 176.75 429.039 175.116 427.3 174.102L421.02 170.443V171.348C421.02 172.168 420.455 172.955 419.45 173.535L299.794 242.613C297.701 243.821 294.308 243.821 292.216 242.613L115.878 140.813C114.874 140.233 114.309 139.446 114.309 138.626V134.448ZM427.942 178.137C428.192 177.993 428.412 177.839 428.603 177.676V181.378C428.603 182.065 428.13 182.724 427.288 183.21L300.124 256.622C298.372 257.634 295.53 257.634 293.777 256.622L106.491 148.502C105.65 148.016 105.177 147.357 105.177 146.67L105.177 142.544C105.366 142.705 105.585 142.859 105.833 143.002L293.488 251.335C295.604 252.556 299.033 252.556 301.149 251.335L427.942 178.137Z" fill="#367859"/>
<g opacity="0.5">
<path d="M241.812 63.8814C242.742 64.4186 242.742 65.2896 241.812 65.8268C240.881 66.364 239.373 66.364 238.442 65.8268C237.512 65.2896 237.512 64.4186 238.442 63.8814C239.373 63.3442 240.881 63.3442 241.812 63.8814Z" fill="#367859"/>
<path d="M233.781 68.5064C234.711 69.0436 234.711 69.9146 233.781 70.4518C232.85 70.989 231.341 70.989 230.411 70.4518C229.48 69.9146 229.48 69.0436 230.411 68.5064C231.341 67.9692 232.85 67.9692 233.781 68.5064Z" fill="#367859"/>
<path d="M225.812 73.1314C226.742 73.6686 226.742 74.5396 225.812 75.0768C224.881 75.614 223.373 75.614 222.442 75.0768C221.512 74.5396 221.512 73.6686 222.442 73.1314C223.373 72.5942 224.881 72.5942 225.812 73.1314Z" fill="#367859"/>
<path d="M217.749 77.7252C218.68 78.2624 218.68 79.1333 217.749 79.6705C216.819 80.2077 215.31 80.2077 214.38 79.6705C213.449 79.1333 213.449 78.2624 214.38 77.7252C215.31 77.188 216.819 77.188 217.749 77.7252Z" fill="#367859"/>
<path d="M209.718 82.4127C210.649 82.9499 210.649 83.8208 209.718 84.358C208.788 84.8952 207.279 84.8952 206.348 84.358C205.418 83.8208 205.418 82.9499 206.348 82.4127C207.279 81.8755 208.788 81.8755 209.718 82.4127Z" fill="#367859"/>
<path d="M201.718 87.0064C202.649 87.5436 202.649 88.4146 201.718 88.9518C200.788 89.489 199.279 89.489 198.348 88.9518C197.418 88.4146 197.418 87.5436 198.348 87.0064C199.279 86.4692 200.788 86.4692 201.718 87.0064Z" fill="#367859"/>
<path d="M193.843 91.5377C194.774 92.0749 194.774 92.9458 193.843 93.483C192.913 94.0202 191.404 94.0202 190.473 93.483C189.543 92.9458 189.543 92.0749 190.473 91.5377C191.404 91.0005 192.913 91.0005 193.843 91.5377Z" fill="#367859"/>
<path d="M185.937 96.1002C186.867 96.6374 186.867 97.5083 185.937 98.0455C185.006 98.5827 183.498 98.5827 182.567 98.0455C181.637 97.5083 181.637 96.6374 182.567 96.1002C183.498 95.563 185.006 95.563 185.937 96.1002Z" fill="#367859"/>
<path d="M177.985 100.686C178.915 101.223 178.915 102.094 177.985 102.631C177.054 103.168 175.545 103.168 174.615 102.631C173.684 102.094 173.684 101.223 174.615 100.686C175.545 100.148 177.054 100.148 177.985 100.686Z" fill="#367859"/>
<path d="M170.078 105.342C171.009 105.879 171.009 106.75 170.078 107.287C169.148 107.824 167.639 107.824 166.709 107.287C165.778 106.75 165.778 105.879 166.709 105.342C167.639 104.805 169.148 104.805 170.078 105.342Z" fill="#367859"/>
<path d="M162.047 109.904C162.978 110.442 162.978 111.313 162.047 111.85C161.117 112.387 159.608 112.387 158.677 111.85C157.747 111.313 157.747 110.442 158.677 109.904C159.608 109.367 161.117 109.367 162.047 109.904Z" fill="#367859"/>
<path d="M153.922 114.592C154.853 115.129 154.853 116 153.922 116.537C152.992 117.074 151.483 117.074 150.552 116.537C149.622 116 149.622 115.129 150.552 114.592C151.483 114.055 152.992 114.055 153.922 114.592Z" fill="#367859"/>
<path d="M146.022 119.179C146.952 119.716 146.952 120.587 146.022 121.125C145.091 121.662 143.583 121.662 142.652 121.125C141.721 120.587 141.721 119.716 142.652 119.179C143.583 118.642 145.091 118.642 146.022 119.179Z" fill="#367859"/>
<path d="M138.116 123.742C139.046 124.279 139.046 125.15 138.116 125.687C137.185 126.224 135.676 126.224 134.746 125.687C133.815 125.15 133.815 124.279 134.746 123.742C135.676 123.205 137.185 123.205 138.116 123.742Z" fill="#367859"/>
<path d="M130.147 128.336C131.077 128.873 131.077 129.744 130.147 130.281C129.216 130.818 127.708 130.818 126.777 130.281C125.846 129.744 125.846 128.873 126.777 128.336C127.708 127.798 129.216 127.798 130.147 128.336Z" fill="#367859"/>
</g>
<path opacity="0.75" d="M231.236 57.4806C229.615 58.2292 228.729 60.2742 228.889 62.8565C230.093 63.8867 231.173 65.3117 231.958 67.0131C232.538 68.2697 232.899 69.5488 233.05 70.7679L232.305 70.8599C232.164 69.7208 231.826 68.5165 231.277 67.3275C230.319 65.2525 228.913 63.642 227.432 62.7079C225.947 61.7714 224.434 61.5381 223.205 62.1056C221.595 62.8488 220.711 64.8698 220.854 67.4256C222.085 68.4599 223.19 69.9058 223.989 71.6381C224.57 72.8947 224.93 74.1738 225.081 75.3929L224.337 75.4849C224.196 74.3458 223.857 73.1415 223.308 71.9525C222.35 69.8775 220.944 68.267 219.463 67.3329C217.978 66.3964 216.465 66.1631 215.236 66.7306C213.616 67.4788 212.73 69.5218 212.889 72.1018C214.08 73.1299 215.148 74.5451 215.927 76.2319C216.507 77.4885 216.868 78.7675 217.018 79.9866L216.274 80.0787C216.133 78.9395 215.795 77.7353 215.246 76.5462C214.288 74.4713 212.882 72.8608 211.4 71.9266C209.916 70.9902 208.403 70.7569 207.174 71.3243C205.538 72.0793 204.652 74.153 204.831 76.7664C206.033 77.7963 207.111 79.22 207.896 80.9194C208.476 82.176 208.836 83.455 208.987 84.6741L208.243 84.7662C208.102 83.627 207.764 82.4228 207.215 81.2337C206.257 79.1588 204.85 77.5483 203.369 76.6141C201.884 75.6777 200.371 75.4444 199.142 76.0118C197.534 76.7546 196.65 78.7733 196.792 81.3268C198.01 82.3593 199.103 83.7954 199.896 85.5131C200.476 86.7697 200.836 88.0488 200.987 89.2679L200.243 89.3599C200.102 88.2208 199.764 87.0165 199.215 85.8275C198.257 83.7525 196.85 82.142 195.369 81.2079C193.884 80.2714 192.371 80.0381 191.142 80.6056C189.57 81.3314 188.69 83.276 188.784 85.7472C190.055 86.7866 191.199 88.2642 192.021 90.0443C192.601 91.301 192.961 92.58 193.112 93.7991L192.368 93.8912C192.227 92.752 191.889 91.5478 191.34 90.3587C190.515 88.5736 189.359 87.1322 188.109 86.1695L188.057 86.1735L188.053 86.1267C187.869 85.9869 187.682 85.8576 187.494 85.7391C186.009 84.8027 184.496 84.5694 183.267 85.1368C181.683 85.8684 180.801 87.8381 180.911 90.3373C182.169 91.3752 183.3 92.8425 184.114 94.6068C184.695 95.8635 185.055 97.1425 185.206 98.3616L184.462 98.4537C184.321 97.3145 183.982 96.1103 183.433 94.9212C182.475 92.8463 181.069 91.2358 179.588 90.3016C178.103 89.3652 176.59 89.1319 175.361 89.6993C173.763 90.4371 172.88 92.4341 173.008 94.9634C174.246 95.9988 175.358 97.4508 176.162 99.1923C176.742 100.449 177.103 101.728 177.254 102.947L176.509 103.039C176.368 101.9 176.03 100.696 175.481 99.5067C174.523 97.4317 173.117 95.8212 171.636 94.8871C170.151 93.9506 168.638 93.7173 167.409 94.2848C165.804 95.0259 164.92 97.0375 165.057 99.583C166.313 100.621 167.442 102.086 168.256 103.849C168.836 105.105 169.197 106.384 169.347 107.603L168.603 107.695C168.462 106.556 168.124 105.352 167.575 104.163C166.617 102.088 165.211 100.477 163.73 99.5433C162.245 98.6069 160.732 98.3736 159.503 98.941C157.895 99.6833 157.011 101.7 157.152 104.251C158.357 105.282 159.438 106.708 160.225 108.411C160.805 109.668 161.165 110.947 161.316 112.166L160.572 112.258C160.431 111.119 160.093 109.914 159.544 108.725C158.586 106.65 157.179 105.04 155.698 104.106C154.214 103.169 152.7 102.936 151.471 103.504C149.822 104.265 148.934 106.369 149.134 109.015L149.117 109.016C150.286 110.04 151.333 111.438 152.1 113.099C152.68 114.355 153.04 115.634 153.191 116.853L152.447 116.945C152.306 115.806 151.968 114.602 151.419 113.413C150.461 111.338 149.054 109.727 147.573 108.793C146.089 107.857 144.575 107.624 143.346 108.191C141.757 108.925 140.875 110.903 140.991 113.412C142.251 114.451 143.384 115.919 144.199 117.686C144.779 118.943 145.14 120.222 145.291 121.441L144.546 121.533C144.406 120.394 144.067 119.189 143.518 118C142.56 115.925 141.154 114.315 139.673 113.381C138.188 112.444 136.675 112.211 135.446 112.778C133.861 113.51 132.98 115.48 133.09 117.979C134.347 119.017 135.478 120.484 136.293 122.248C136.873 123.505 137.234 124.784 137.385 126.003L136.64 126.095C136.499 124.956 136.161 123.752 135.612 122.563C134.654 120.488 133.248 118.877 131.767 117.943C130.282 117.007 128.769 116.773 127.54 117.341C125.937 118.081 125.053 120.088 125.188 122.628C126.419 123.663 127.524 125.109 128.324 126.842C128.904 128.099 129.265 129.378 129.416 130.597L128.671 130.689C128.531 129.55 128.192 128.346 127.643 127.157C126.685 125.082 125.279 123.471 123.798 122.537C122.313 121.601 120.8 121.367 119.571 121.935C117.921 122.696 117.034 124.8 117.233 127.446L116.485 127.503C116.275 124.719 117.191 122.207 119.257 121.254C120.793 120.544 122.581 120.883 124.198 121.903C124.274 121.951 124.35 122 124.425 122.051C124.447 119.62 125.374 117.515 127.225 116.66C128.762 115.951 130.55 116.289 132.167 117.309C132.222 117.344 132.277 117.379 132.332 117.416C132.372 115.016 133.299 112.944 135.132 112.097C136.668 111.388 138.456 111.727 140.073 112.746C140.126 112.78 140.179 112.814 140.232 112.849C140.267 110.44 141.194 108.359 143.032 107.51C144.568 106.801 146.356 107.139 147.973 108.159C148.102 108.24 148.23 108.326 148.357 108.416C148.328 105.9 149.255 103.701 151.157 102.823C152.693 102.113 154.481 102.452 156.098 103.471C156.195 103.533 156.292 103.596 156.388 103.663C156.407 101.227 157.334 99.116 159.188 98.2601C160.725 97.5508 162.513 97.8891 164.13 98.909C164.185 98.9436 164.239 98.9791 164.294 99.0154C164.311 96.5759 165.238 94.4608 167.095 93.6038C168.631 92.8945 170.419 93.2329 172.036 94.2527C172.106 94.2972 172.177 94.343 172.247 94.3901C172.273 91.9674 173.201 89.8707 175.047 89.0184C176.583 88.3091 178.371 88.6474 179.988 89.6673C180.043 89.7022 180.099 89.7379 180.154 89.7744C180.193 87.3743 181.12 85.302 182.953 84.4559C184.489 83.7466 186.277 84.0849 187.894 85.1048C187.94 85.1333 187.985 85.1623 188.03 85.1919C188.081 82.8136 189.008 80.7647 190.828 79.9246C192.364 79.2153 194.152 79.5537 195.769 80.5735C195.856 80.628 195.942 80.6846 196.028 80.7431C196.044 78.3033 196.972 76.1879 198.828 75.3309C200.364 74.6216 202.152 74.9599 203.769 75.9798C203.866 76.0409 203.963 76.1046 204.059 76.1707C204.046 73.6825 204.974 71.5139 206.859 70.6434C208.395 69.9341 210.184 70.2724 211.801 71.2923C211.908 71.36 212.015 71.4309 212.121 71.5048C212.127 69.0469 213.054 66.9117 214.922 66.0496C216.458 65.3403 218.246 65.6787 219.863 66.6985C219.939 66.7464 220.015 66.7958 220.09 66.8468C220.104 64.4028 221.032 62.2829 222.89 61.4246C224.427 60.7153 226.215 61.0537 227.832 62.0735C227.929 62.1346 228.025 62.1983 228.121 62.2644C228.125 59.8025 229.052 57.6628 230.922 56.7996C232.458 56.0903 234.246 56.4287 235.863 57.4485C237.484 58.4707 238.98 60.2011 239.989 62.3881C240.57 63.6447 240.93 64.9238 241.081 66.1429L240.337 66.2349C240.196 65.0958 239.857 63.8915 239.308 62.7025C238.35 60.6275 236.944 59.017 235.463 58.0829C233.978 57.1464 232.465 56.9131 231.236 57.4806Z" fill="#367859"/>
<path opacity="0.5" d="M114.791 135.3L148.562 154.796" stroke="#367859" stroke-width="0.75"/>
<rect opacity="0.75" width="11.4307" height="11.4307" rx="2" transform="matrix(0.866044 -0.499967 0.866044 0.499967 159.113 139.816)" fill="#161D1A" stroke="#367859" stroke-width="0.75"/>
<rect opacity="0.75" width="11.4307" height="11.4307" rx="2" transform="matrix(0.866044 -0.499967 0.866044 0.499967 239.943 186.522)" stroke="#367859" stroke-width="0.75"/>
<rect opacity="0.75" width="11.4307" height="11.4307" rx="2" transform="matrix(0.866044 -0.499967 0.866044 0.499967 211.943 170.522)" fill="#161D1A" stroke="#367859" stroke-width="0.75"/>
<rect opacity="0.75" width="11.4307" height="11.4307" rx="2" transform="matrix(0.866044 -0.499967 0.866044 0.499967 183.613 154.066)" fill="#161D1A" stroke="#367859" stroke-width="0.75"/>
<rect opacity="0.75" width="11.4307" height="11.4307" rx="2" transform="matrix(0.866044 -0.499967 0.866044 0.499967 269.006 203.522)" stroke="#367859" stroke-width="0.75"/>
<path d="M172.284 130.07L172.284 139.612H164.771M196.784 144.32V153.862H189.271M225.114 160.777V170.319H217.601" stroke="#367859" stroke-width="1.5" stroke-linecap="round" stroke-linejoin="round"/>
<g opacity="0.6">
<path d="M270.312 183.137C269.141 182.46 269.141 181.364 270.312 180.687L316.433 154.062C317.604 153.386 319.504 153.386 320.675 154.062C321.847 154.738 321.847 155.835 320.675 156.511L274.555 183.137C273.383 183.813 271.484 183.813 270.312 183.137Z" fill="#1C362A"/>
<path d="M182.562 130.387C181.391 129.71 181.391 128.614 182.562 127.937L197.34 119.406C197.997 119.027 198.805 119.027 199.462 119.406C200.876 120.222 200.876 122.263 199.462 123.08L186.805 130.387C185.633 131.063 183.734 131.063 182.562 130.387Z" fill="#1C362A"/>
<path d="M207.91 118.202C207.254 118.581 206.446 118.581 205.789 118.202C204.375 117.386 204.375 115.345 205.789 114.528L226.347 102.66C227.004 102.281 227.812 102.281 228.469 102.66C229.883 103.476 229.883 105.518 228.469 106.334L207.91 118.202Z" fill="#1C362A"/>
<path d="M234.796 101.457C235.453 101.835 236.261 101.835 236.917 101.457L255.561 90.6938C256.732 90.0175 256.732 88.9209 255.561 88.2446C254.389 87.5682 252.49 87.5682 251.318 88.2446L234.796 97.7825C233.382 98.5989 233.382 100.64 234.796 101.457Z" fill="#1C362A"/>
<path d="M207.062 144.637C205.891 143.96 205.891 142.864 207.062 142.187L231.91 127.843C232.566 127.464 233.375 127.464 234.031 127.843C235.445 128.659 235.445 130.7 234.031 131.517L211.305 144.637C210.133 145.313 208.234 145.313 207.062 144.637Z" fill="#1C362A"/>
<path d="M242.48 126.639C241.824 127.018 241.015 127.018 240.359 126.639C238.945 125.823 238.945 123.782 240.359 122.965L256.852 113.444C257.508 113.065 258.317 113.065 258.973 113.444C260.387 114.26 260.387 116.301 258.973 117.118L242.48 126.639Z" fill="#1C362A"/>
<path d="M265.301 112.24C265.957 112.619 266.766 112.619 267.422 112.24L280.061 104.944C281.232 104.267 281.232 103.171 280.061 102.495C278.889 101.818 276.99 101.818 275.818 102.495L265.301 108.566C263.887 109.382 263.887 111.424 265.301 112.24Z" fill="#1C362A"/>
<path d="M214.312 148.437C213.141 149.114 213.141 150.21 214.312 150.887C215.484 151.563 217.383 151.563 218.555 150.887L233.587 142.209C235.001 141.393 235.001 139.351 233.587 138.535C232.93 138.156 232.122 138.156 231.465 138.535L214.312 148.437Z" fill="#1C362A"/>
<path d="M239.914 133.657C238.5 134.474 238.5 136.515 239.914 137.331C240.571 137.71 241.379 137.71 242.035 137.331L258.861 127.618C260.032 126.942 260.032 125.845 258.861 125.169C257.689 124.493 255.79 124.493 254.618 125.169L239.914 133.657Z" fill="#1C362A"/>
<path d="M235.392 158.644C234.221 159.32 234.221 160.416 235.392 161.093C236.564 161.769 238.463 161.769 239.635 161.093L277.846 139.034C279.26 138.217 279.26 136.176 277.846 135.36C277.189 134.981 276.381 134.981 275.725 135.36L235.392 158.644Z" fill="#1C362A"/>
<path d="M284.174 130.482C282.759 131.299 282.759 133.34 284.174 134.156C284.83 134.535 285.638 134.535 286.295 134.156L308.391 121.4C309.562 120.724 309.562 119.627 308.391 118.951C307.219 118.275 305.32 118.275 304.148 118.951L284.174 130.482Z" fill="#1C362A"/>
<path d="M263.312 174.687C262.141 175.364 262.141 176.46 263.312 177.137C264.484 177.813 266.383 177.813 267.555 177.137L292.763 162.584C294.177 161.768 294.177 159.726 292.763 158.91C292.107 158.531 291.298 158.531 290.642 158.91L263.312 174.687Z" fill="#1C362A"/>
<path d="M299.091 154.032C297.677 154.849 297.677 156.89 299.091 157.706C299.747 158.085 300.556 158.085 301.212 157.706L336.311 137.444C337.482 136.768 337.482 135.671 336.311 134.995C335.139 134.318 333.24 134.318 332.068 134.995L299.091 154.032Z" fill="#1C362A"/>
<path d="M292.455 191.644C291.283 192.32 291.283 193.416 292.455 194.093C293.626 194.769 295.526 194.769 296.697 194.093L328.205 175.904C329.619 175.087 329.619 173.046 328.205 172.229C327.549 171.851 326.74 171.851 326.084 172.229L292.455 191.644Z" fill="#1C362A"/>
<path d="M334.533 167.352C333.119 168.168 333.119 170.21 334.533 171.026C335.189 171.405 335.998 171.405 336.654 171.026L365.453 154.4C366.625 153.724 366.625 152.627 365.453 151.951C364.282 151.275 362.382 151.275 361.211 151.951L334.533 167.352Z" fill="#1C362A"/>
</g>
<path d="M99.5 169.801L98.5 169.958L95.5938 172.114L94.7188 174.645L95.1562 176.864L100.75 180.176L101.031 180.958L101.844 182.989L200.656 240.833L215.906 243.145L217.125 242.926L217.281 241.676L207.031 229.864L148.156 196.051L147.906 192.989L115.562 174.114L112.594 172.676L111.25 173.083L110.156 174.02L108.188 172.989L106.719 172.676L105.219 173.02L99.5 169.801Z" fill="#161D1A"/>
<path opacity="0.75" fill-rule="evenodd" clip-rule="evenodd" d="M100.969 170.063L105.466 172.651C105.512 172.629 105.558 172.607 105.605 172.585C106.681 172.087 107.885 172.32 108.843 172.871L109.96 173.514C110.042 173.393 110.168 173.279 110.338 173.181L111.139 172.719C111.796 172.339 112.863 172.339 113.52 172.719L147.851 192.538C148.22 192.751 148.382 193.038 148.337 193.317H148.344V195.395C148.344 195.458 148.333 195.521 148.312 195.582L207.286 229.515C207.423 229.593 207.545 229.695 207.647 229.814L217.43 241.281C218.255 242.247 217.44 243.719 216.184 243.534L200.98 241.294C200.806 241.269 200.638 241.21 200.486 241.121L102.563 183.828C101.633 183.284 100.847 182.387 100.721 181.238C100.701 181.052 100.687 180.866 100.679 180.679L96.3283 178.134C95.4052 177.594 94.5826 176.686 94.541 175.507C94.5011 174.377 94.7678 173.222 95.3745 172.171C95.957 171.162 96.7795 170.377 97.7283 169.846C98.7849 169.255 100.018 169.516 100.969 170.063ZM147.765 196.132L146.635 196.784C145.979 197.163 144.916 197.164 144.258 196.787L120.775 183.336L118.608 184.757C118.172 185.158 117.141 185.283 116.468 184.9L110.354 181.416C110.033 181.233 109.853 180.984 109.853 180.724L109.853 174.318L108.469 173.521C107.647 173.049 106.707 172.901 105.92 173.266C104.518 173.915 103.295 174.988 102.463 176.429C101.604 177.917 101.293 179.57 101.467 181.156C101.559 181.997 102.145 182.714 102.942 183.181L200.267 240.124C199.841 238.026 200.149 235.769 201.304 233.77C202.436 231.81 204.187 230.43 206.167 229.736L147.765 196.132ZM117.874 184.416L117.861 184.424L117.867 184.428C117.758 184.597 117.362 184.664 117.114 184.522L110.999 181.039C110.854 180.955 110.772 180.842 110.772 180.724L110.771 174.806L144.669 194.375C144.814 194.459 144.979 194.524 145.155 194.571V196.506C145.064 196.485 144.979 196.453 144.905 196.41L120.221 182.271C119.347 181.77 117.862 182.132 117.873 182.843L117.896 184.331C117.896 184.361 117.888 184.39 117.874 184.416ZM118.806 183.804L120.106 182.952L119.574 182.647C119.283 182.48 118.788 182.601 118.791 182.838L118.806 183.804ZM110.771 173.931L110.771 173.879H110.764C110.759 173.762 110.833 173.645 110.988 173.556L111.788 173.094C112.087 172.921 112.572 172.921 112.871 173.094L147.201 192.913C147.5 193.085 147.5 193.365 147.201 193.538L146.401 194C146.102 194.172 145.617 194.172 145.318 194L110.988 174.181C110.866 174.11 110.794 174.022 110.771 173.931ZM145.986 196.409C145.96 196.424 145.933 196.437 145.905 196.45V194.659C146.321 194.653 146.733 194.558 147.051 194.375L147.425 194.159L147.425 195.395C147.425 195.512 147.344 195.625 147.201 195.708L145.986 196.409ZM207.032 230.254C204.964 230.805 203.108 232.145 201.953 234.145C200.786 236.167 200.561 238.475 201.143 240.56L216.293 242.792C216.864 242.876 217.234 242.207 216.86 241.768L207.076 230.301C207.062 230.285 207.047 230.269 207.032 230.254ZM100.594 170.713L104.697 173.074C103.542 173.791 102.541 174.795 101.813 176.054C101.127 177.243 100.759 178.53 100.685 179.814L96.707 177.486C95.9021 177.015 95.3195 176.302 95.2905 175.481C95.2555 174.487 95.4897 173.472 96.024 172.546C96.5371 171.658 97.2603 170.967 98.0944 170.501C98.8298 170.089 99.7652 170.236 100.594 170.713Z" fill="#367859"/>
</g>
<defs>
<clipPath id="clip0_585_4866">
<rect y="0.5" width="299" height="219" rx="8" fill="white"/>
</clipPath>
</defs>
</svg>
