<svg width="300" height="220" viewBox="0 0 300 220" fill="none" xmlns="http://www.w3.org/2000/svg">
<g clip-path="url(#clip0_585_3764)">
<path d="M305.752 92.9638L300.813 90.0625L293.589 85.9421L305.752 92.9638Z" fill="white"/>
<path d="M157.21 99.5886C156.66 99.928 156.355 100.129 156.273 100.198L156.109 100.335C155.163 101.126 153.963 102.131 152.912 103.662C151.818 105.254 150.881 107.425 150.592 110.518C152.018 110.936 153.356 111.489 154.548 112.178L261.149 173.746C261.176 173.753 261.203 173.761 261.231 173.769C261.247 173.774 261.264 173.779 261.281 173.784L261.271 173.816L262.711 174.648L262.72 174.653C263.746 175.32 264.559 176.349 265.005 177.81C266.077 173.135 268.908 168.817 273.53 165.542L273.545 165.532L351.616 120.384C351.403 120.134 351.119 119.904 350.772 119.704L239.754 55.6129C238.026 54.6154 235.235 54.6081 233.5 55.5994C225.89 59.9474 206.993 70.7513 189.787 80.6456C181.184 85.5928 173.004 90.3123 166.869 93.8835C163.802 95.6692 161.247 97.1673 159.407 98.263C158.486 98.8109 157.746 99.2574 157.21 99.5886Z" fill="white"/>
<path d="M80.6952 149.429L75.2748 146.299L54.3902 158.461C53.9357 158.725 53.589 159.04 53.3662 159.382L166.927 224.667C168.073 225.326 169.482 225.324 170.626 224.661L257.863 174.136L257.866 174.134C258.198 173.947 258.85 173.693 259.637 173.622L153.899 112.553C148.175 109.247 138.886 109.258 133.186 112.578L82.5508 142.063L88.0028 145.21C88.9594 145.762 88.9594 146.658 88.0028 147.21L84.1594 149.429C83.2028 149.981 81.6518 149.981 80.6952 149.429Z" fill="white"/>
<path d="M268.215 187.991C268.525 188.111 268.839 188.18 269.146 188.211C269.72 188.268 270.316 188.197 270.879 188.024C271.086 187.961 271.278 187.867 271.48 187.751L350.788 142.33C351.63 141.848 352.102 141.192 352.101 140.508L352.072 121.514C352.072 121.318 352.033 121.125 351.957 120.937L274.228 165.887C268.368 170.046 265.43 175.969 265.431 182.186C265.431 185.133 266.327 186.769 267.44 187.571C267.459 187.585 267.478 187.599 267.497 187.612C267.525 187.631 267.552 187.649 267.58 187.667L267.599 187.635L268.215 187.991Z" fill="white"/>
<path d="M53.0917 160.09C53.0817 160.16 53.0767 160.231 53.0767 160.303V178.995C53.0767 179.69 53.5562 180.357 54.4093 180.848L165.816 244.951C166.566 245.383 167.511 245.631 168.487 245.697V225.901C167.817 225.858 167.155 225.664 166.553 225.318L53.0917 160.09Z" fill="white"/>
<path d="M169.237 245.712C170.327 245.681 171.401 245.424 172.231 244.942L254.343 197.201C258.36 194.658 262.883 190.984 264.216 183.253C265.008 178.66 263.785 176.149 262.042 175.011L261.075 174.453L261.061 174.501C259.867 174.133 258.669 174.543 258.237 174.786L258.235 174.787L171.002 225.31C170.451 225.629 169.849 225.821 169.237 225.885V245.712Z" fill="white"/>
<path d="M258.296 211.316L255.171 209.511L256.994 208.455C257.476 208.176 258.296 208.375 258.296 208.771V211.316Z" fill="#FDF7F7"/>
<path d="M259.299 211.895L259.274 211.909C259.473 212.178 260.107 212.279 260.51 212.048L283.8 198.732C284.653 198.244 285.132 197.576 285.128 196.879L285.11 193.473C285.105 192.634 285.68 191.83 286.704 191.242L364.585 146.515C365.43 146.029 365.906 145.366 365.906 144.674L365.906 140.569C365.734 140.71 365.54 140.844 365.323 140.97L282.501 189.167C282.072 189.417 281.542 189.572 280.988 189.632L280.988 194.445C280.988 195.255 280.447 196.033 279.48 196.615L264.109 205.858C263.059 206.49 261.224 206.056 261.224 205.176V201.767C261.224 201.74 261.22 201.714 261.213 201.688L260.634 201.333C260.395 201.3 260.128 201.332 259.923 201.451L171.793 252.435C169.703 253.644 166.331 253.64 164.25 252.426L41.1577 180.597C40.9029 180.448 40.6792 180.288 40.4866 180.12L40.4866 183.81C40.4866 184.495 40.9528 185.151 41.7826 185.636L164.835 257.456C166.559 258.463 169.356 258.466 171.087 257.463L256.349 208.076C257.409 207.462 259.212 207.9 259.212 208.771V211.73C259.212 211.778 259.224 211.822 259.246 211.864L259.299 211.895Z" fill="#FDF7F7"/>
<path d="M259.848 200.852C259.646 200.899 259.452 200.971 259.278 201.072L171.148 252.056C169.416 253.058 166.622 253.054 164.898 252.048L41.8057 180.219C40.0865 179.216 40.076 177.592 41.7821 176.581L52.1581 170.434V178.995C52.1581 179.831 52.7348 180.633 53.7608 181.224L165.167 245.327C167.302 246.556 170.759 246.55 172.883 245.316L254.742 197.722L259.848 200.852Z" fill="#FDF7F7"/>
<path d="M261.592 201.041L255.456 197.28C259.189 194.858 263.212 191.418 264.81 184.85C265.178 186.296 265.86 187.281 266.723 187.903C266.893 188.026 267.071 188.134 267.255 188.23L267.223 188.284L279.689 195.495C279.48 195.77 279.188 196.023 278.822 196.243L263.452 205.486C262.974 205.773 262.14 205.576 262.14 205.176L262.14 201.767C262.14 201.549 262.026 201.357 261.839 201.203L261.844 201.195L261.775 201.153C261.719 201.113 261.658 201.076 261.592 201.041Z" fill="#FDF7F7"/>
<path d="M280.024 194.822C280.056 194.698 280.072 194.572 280.072 194.445L280.072 189.647C279.478 189.601 278.903 189.449 278.439 189.188L274.317 186.873L272.127 188.127C271.902 188.256 271.636 188.393 271.311 188.492C270.767 188.66 270.165 188.761 269.545 188.761L280.024 194.822Z" fill="#FDF7F7"/>
<path d="M279.075 188.803L274.971 186.498L351.435 142.707C352.451 142.125 353.021 141.333 353.02 140.508L353.004 129.929L354.343 130.687L364.735 136.97C365.462 137.41 365.87 137.962 365.958 138.527H365.906V139.223C365.751 139.725 365.341 140.205 364.676 140.592L281.854 188.789C281.089 189.234 279.853 189.241 279.075 188.803Z" fill="#FDF7F7"/>
<path opacity="0.5" d="M52.6523 174.677L67.3513 183.163M52.4385 164.961L79.4853 180.576M52.5879 169.935L72.616 181.497" stroke="#E89D9C" stroke-width="0.75"/>
<g opacity="0.6">
<path d="M221.283 85.0294C221.833 85.3467 222.51 85.3467 223.059 85.0294L241.133 74.5954C242.317 73.9118 242.317 72.2026 241.133 71.5189C240.583 71.2017 239.906 71.2017 239.357 71.5189L221.283 81.9529C220.099 82.6366 220.099 84.3458 221.283 85.0294Z" fill="#FBE9E9"/>
<path d="M215.954 89.1313C217.138 88.4476 217.138 86.7384 215.954 86.0548C215.404 85.7375 214.727 85.7375 214.178 86.0548L196.965 95.9918C195.781 96.6755 195.781 98.3847 196.965 99.0683C197.514 99.3856 198.191 99.3856 198.741 99.0683L215.954 89.1313Z" fill="#FBE9E9"/>
<path d="M191.636 103.17C192.82 102.487 192.82 100.777 191.636 100.094C191.086 99.7764 190.409 99.7764 189.86 100.094L179.096 106.308C177.911 106.991 177.911 108.701 179.096 109.384C179.645 109.701 180.322 109.701 180.872 109.384L191.636 103.17Z" fill="#FBE9E9"/>
<path d="M241.823 84.6807C242.373 84.9979 243.05 84.9979 243.599 84.6807L251.132 80.3322C252.316 79.6485 252.316 77.9393 251.132 77.2556C250.582 76.9384 249.905 76.9384 249.356 77.2556L241.823 81.6041C240.639 82.2878 240.639 83.997 241.823 84.6807Z" fill="#FBE9E9"/>
<path d="M236.494 88.7825C237.678 88.0989 237.678 86.3896 236.494 85.706C235.945 85.3887 235.268 85.3887 234.718 85.706L213.336 98.05C212.152 98.7337 212.152 100.443 213.336 101.127C213.885 101.444 214.562 101.444 215.112 101.127L236.494 88.7825Z" fill="#FBE9E9"/>
<path d="M208.007 105.228C209.191 104.545 209.191 102.835 208.007 102.152C207.457 101.835 206.78 101.835 206.231 102.152L189.095 112.044C187.91 112.728 187.91 114.437 189.095 115.121C189.644 115.438 190.321 115.438 190.871 115.121L208.007 105.228Z" fill="#FBE9E9"/>
<path d="M247.819 90.6029C247.27 90.2857 246.593 90.2857 246.043 90.6029L230.087 99.8148C228.902 100.498 228.902 102.208 230.087 102.891C230.636 103.209 231.313 103.209 231.863 102.891L247.819 93.6795C249.004 92.9958 249.004 91.2866 247.819 90.6029Z" fill="#FBE9E9"/>
<path d="M253.149 89.5776C253.698 89.8949 254.375 89.8949 254.925 89.5776L261.003 86.0689C262.187 85.3852 262.187 83.676 261.003 82.9923C260.453 82.6751 259.776 82.6751 259.226 82.9923L253.149 86.5011C251.964 87.1847 251.964 88.894 253.149 89.5776Z" fill="#FBE9E9"/>
<path d="M224.757 106.993C225.942 106.31 225.942 104.6 224.757 103.917C224.208 103.599 223.531 103.599 222.981 103.917L198.965 117.781C197.781 118.465 197.781 120.174 198.965 120.858C199.515 121.175 200.192 121.175 200.741 120.858L224.757 106.993Z" fill="#FBE9E9"/>
<path d="M218.034 122.383C219.218 121.7 219.218 119.99 218.034 119.307C217.484 118.989 216.807 118.989 216.258 119.307L208.964 123.517C207.78 124.201 207.78 125.91 208.964 126.594C209.514 126.911 210.191 126.911 210.74 126.594L218.034 122.383Z" fill="#FBE9E9"/>
<path d="M223.363 118.281C222.179 117.598 222.179 115.888 223.363 115.205L239.666 105.793C240.216 105.476 240.893 105.476 241.442 105.793C242.627 106.477 242.627 108.186 241.442 108.87L225.139 118.281C224.59 118.599 223.913 118.599 223.363 118.281Z" fill="#FBE9E9"/>
<path d="M246.771 104.768C247.321 105.085 247.998 105.085 248.548 104.768L271.001 91.8051C272.186 91.1214 272.186 89.4122 271.001 88.7285C270.452 88.4113 269.775 88.4113 269.225 88.7285L246.771 101.691C245.587 102.375 245.587 104.084 246.771 104.768Z" fill="#FBE9E9"/>
<path d="M237.974 122.463C239.158 121.779 239.158 120.07 237.974 119.387C237.424 119.069 236.747 119.069 236.198 119.387L218.995 129.318C217.811 130.001 217.811 131.711 218.995 132.394C219.544 132.711 220.221 132.711 220.771 132.394L233.07 125.294C233.072 125.293 233.072 125.289 233.07 125.287C233.067 125.285 233.067 125.281 233.07 125.28L236.61 123.236C236.614 123.234 236.618 123.234 236.622 123.236C236.626 123.238 236.631 123.238 236.635 123.236L237.974 122.463Z" fill="#FBE9E9"/>
<path d="M243.303 118.361C242.119 117.678 242.119 115.968 243.303 115.285L261.541 104.756C262.091 104.439 262.768 104.439 263.317 104.756C264.501 105.439 264.501 107.149 263.317 107.832L245.079 118.361C244.53 118.678 243.853 118.678 243.303 118.361Z" fill="#FBE9E9"/>
<path d="M268.646 103.73C269.196 104.048 269.873 104.048 270.422 103.73L281.032 97.6054C282.216 96.9218 282.216 95.2126 281.032 94.5289C280.483 94.2117 279.806 94.2117 279.256 94.5289L268.646 100.654C267.462 101.338 267.462 103.047 268.646 103.73Z" fill="#FBE9E9"/>
<path d="M240.332 132.556C241.516 131.872 241.516 130.163 240.332 129.479C239.782 129.162 239.105 129.162 238.556 129.479L228.898 135.055C227.713 135.739 227.713 137.448 228.898 138.131C229.447 138.449 230.124 138.449 230.674 138.131L240.332 132.556Z" fill="#FBE9E9"/>
<path d="M245.661 128.454C244.477 127.77 244.477 126.061 245.661 125.377L263.558 115.046C264.107 114.728 264.784 114.728 265.334 115.046C266.518 115.729 266.518 117.438 265.334 118.122L247.437 128.454C246.887 128.771 246.21 128.771 245.661 128.454Z" fill="#FBE9E9"/>
<path d="M270.663 114.02C271.213 114.337 271.89 114.337 272.439 114.02L290.935 103.343C292.119 102.659 292.119 100.95 290.935 100.266C290.385 99.9489 289.708 99.9489 289.159 100.266L270.663 110.944C269.479 111.627 269.479 113.337 270.663 114.02Z" fill="#FBE9E9"/>
<path d="M256.891 134.486C258.075 133.802 258.075 132.093 256.891 131.409C256.341 131.092 255.664 131.092 255.115 131.409L238.865 140.791C237.681 141.474 237.681 143.183 238.865 143.867C239.414 144.184 240.091 144.184 240.641 143.867L256.891 134.486Z" fill="#FBE9E9"/>
<path d="M262.22 130.384C261.036 129.7 261.036 127.991 262.22 127.308L281.91 115.94C282.46 115.623 283.137 115.623 283.686 115.94C284.87 116.624 284.87 118.333 283.686 119.017L263.996 130.384C263.447 130.701 262.77 130.701 262.22 130.384Z" fill="#FBE9E9"/>
<path d="M289.015 114.915C289.565 115.232 290.242 115.232 290.791 114.915L300.902 109.078C302.086 108.395 302.086 106.685 300.902 106.002C300.352 105.685 299.675 105.685 299.126 106.002L289.015 111.839C287.831 112.522 287.831 114.231 289.015 114.915Z" fill="#FBE9E9"/>
<path d="M273.943 136.115C275.127 135.431 275.127 133.722 273.943 133.038C273.394 132.721 272.717 132.721 272.167 133.038L248.799 146.528C247.615 147.212 247.615 148.921 248.799 149.605C249.349 149.922 250.026 149.922 250.575 149.605L273.943 136.115Z" fill="#FBE9E9"/>
<path d="M279.272 132.013C278.088 131.329 278.088 129.62 279.272 128.936L309.06 111.74C309.61 111.422 310.287 111.422 310.836 111.74C312.021 112.423 312.021 114.132 310.836 114.816L281.048 132.013C280.499 132.33 279.822 132.33 279.272 132.013Z" fill="#FBE9E9"/>
<path d="M286.132 137.492C285.583 137.175 284.906 137.175 284.356 137.492L258.767 152.265C257.582 152.948 257.582 154.658 258.767 155.341C259.316 155.659 259.993 155.659 260.543 155.341L286.132 140.569C287.316 139.885 287.316 138.176 286.132 137.492Z" fill="#FBE9E9"/>
<path d="M201.046 165.781C201.596 166.099 202.273 166.099 202.822 165.781L212.206 160.364C213.39 159.681 213.39 157.972 212.206 157.288C211.656 156.971 210.979 156.971 210.43 157.288L201.046 162.705C199.862 163.388 199.862 165.098 201.046 165.781Z" fill="#FBE9E9"/>
<path d="M195.741 169.87C196.925 169.186 196.925 167.477 195.741 166.793C195.191 166.476 194.514 166.476 193.965 166.793L172.653 179.097C171.468 179.78 171.468 181.489 172.653 182.173C173.202 182.49 173.879 182.49 174.429 182.173L195.741 169.87Z" fill="#FBE9E9"/>
<path d="M167.347 186.261C168.531 185.578 168.531 183.869 167.347 183.185C166.797 182.868 166.12 182.868 165.571 183.185L150.168 192.077C148.984 192.76 148.984 194.47 150.168 195.153C150.718 195.47 151.395 195.47 151.944 195.153L167.347 186.261Z" fill="#FBE9E9"/>
<path d="M205.33 174.781C205.879 175.098 206.556 175.098 207.106 174.781L222.141 166.101C223.325 165.417 223.325 163.708 222.141 163.024C221.591 162.707 220.914 162.707 220.365 163.024L205.33 171.704C204.145 172.388 204.145 174.097 205.33 174.781Z" fill="#FBE9E9"/>
<path d="M200.024 178.869C201.208 178.185 201.208 176.476 200.024 175.792C199.474 175.475 198.797 175.475 198.248 175.792L187.307 182.108C186.123 182.792 186.123 184.501 187.307 185.185C187.857 185.502 188.534 185.502 189.083 185.185L200.024 178.869Z" fill="#FBE9E9"/>
<path d="M182.001 189.273C183.185 188.59 183.185 186.88 182.001 186.197C181.452 185.88 180.775 185.88 180.225 186.197L160.104 197.813C158.919 198.497 158.919 200.206 160.104 200.889C160.653 201.207 161.33 201.207 161.88 200.889L182.001 189.273Z" fill="#FBE9E9"/>
<path d="M197.063 188.992C198.247 189.676 198.247 191.385 197.063 192.069L171.846 206.626C171.296 206.943 170.619 206.943 170.07 206.626C168.886 205.942 168.886 204.233 170.07 203.55L195.287 188.992C195.836 188.675 196.513 188.675 197.063 188.992Z" fill="#FBE9E9"/>
</g>
<rect opacity="0.62" width="73.7533" height="61.1762" rx="4" transform="matrix(0.866044 -0.499967 0.866044 0.499967 85.7471 158.612)" fill="#FDF7F7" stroke="#E89D9C" stroke-width="0.75"/>
<rect opacity="0.62" width="48.3958" height="35.3869" rx="4" transform="matrix(0.866044 -0.499967 0.866044 0.499967 108.16 158.16)" fill="white" stroke="#E89D9C" stroke-width="0.75"/>
<path opacity="0.75" d="M140.343 164.808L140.501 164.9C140.872 165.114 141.113 165.392 141.188 165.692C141.263 165.992 141.168 166.298 140.918 166.564C140.667 166.83 140.274 167.042 139.797 167.169C139.32 167.296 138.786 167.33 138.272 167.267C137.759 167.204 137.295 167.047 136.949 166.819C136.603 166.591 136.394 166.304 136.353 166.002C136.312 165.7 136.441 165.399 136.721 165.142C137.001 164.886 137.418 164.689 137.908 164.581M139.124 164.105L139.126 166.093H138.094" stroke="#E89D9C" stroke-width="0.75" stroke-linecap="round" stroke-linejoin="round"/>
<g opacity="0.5">
<path d="M143.005 131.628C143.252 131.486 143.252 131.255 143.005 131.113C142.759 130.971 142.36 130.971 142.114 131.113C141.868 131.255 141.868 131.486 142.114 131.628C142.36 131.77 142.759 131.77 143.005 131.628Z" fill="#E89D9C"/>
<path d="M139.389 133.201C139.635 133.343 139.635 133.574 139.389 133.716C139.143 133.858 138.744 133.858 138.497 133.716C138.251 133.574 138.251 133.343 138.497 133.201C138.744 133.059 139.143 133.059 139.389 133.201Z" fill="#E89D9C"/>
<path d="M121.307 144.155C121.553 144.012 121.553 143.782 121.307 143.64C121.061 143.498 120.662 143.498 120.415 143.64C120.169 143.782 120.169 144.012 120.415 144.155C120.662 144.297 121.061 144.297 121.307 144.155Z" fill="#E89D9C"/>
<path d="M99.6089 156.681C99.8551 156.539 99.8551 156.309 99.6089 156.166C99.3626 156.024 98.9634 156.024 98.7172 156.166C98.471 156.309 98.471 156.539 98.7172 156.681C98.9634 156.823 99.3626 156.823 99.6089 156.681Z" fill="#E89D9C"/>
<path d="M95.9923 158.769C96.2386 158.627 96.2386 158.396 95.9923 158.254C95.7461 158.112 95.3469 158.112 95.1007 158.254C94.8545 158.396 94.8545 158.627 95.1007 158.769C95.3469 158.911 95.7461 158.911 95.9923 158.769Z" fill="#E89D9C"/>
<path d="M103.225 154.079C103.471 154.221 103.471 154.452 103.225 154.594C102.979 154.736 102.58 154.736 102.333 154.594C102.087 154.452 102.087 154.221 102.333 154.079C102.58 153.937 102.979 153.937 103.225 154.079Z" fill="#E89D9C"/>
<path d="M106.841 152.506C107.088 152.364 107.088 152.133 106.841 151.991C106.595 151.849 106.196 151.849 105.95 151.991C105.704 152.133 105.704 152.364 105.95 152.506C106.196 152.648 106.595 152.648 106.841 152.506Z" fill="#E89D9C"/>
<path d="M110.458 149.903C110.704 150.046 110.704 150.276 110.458 150.418C110.212 150.56 109.813 150.56 109.566 150.418C109.32 150.276 109.32 150.046 109.566 149.903C109.813 149.761 110.212 149.761 110.458 149.903Z" fill="#E89D9C"/>
<path d="M114.074 148.33C114.32 148.188 114.32 147.958 114.074 147.816C113.828 147.673 113.429 147.673 113.183 147.816C112.936 147.958 112.936 148.188 113.183 148.33C113.429 148.472 113.828 148.472 114.074 148.33Z" fill="#E89D9C"/>
<path d="M117.691 145.728C117.937 145.87 117.937 146.101 117.691 146.243C117.445 146.385 117.045 146.385 116.799 146.243C116.553 146.101 116.553 145.87 116.799 145.728C117.045 145.586 117.445 145.586 117.691 145.728Z" fill="#E89D9C"/>
<path d="M124.923 141.553C125.17 141.695 125.17 141.925 124.923 142.067C124.677 142.209 124.278 142.209 124.032 142.067C123.785 141.925 123.785 141.695 124.032 141.553C124.278 141.41 124.677 141.41 124.923 141.553Z" fill="#E89D9C"/>
<path d="M128.54 139.979C128.786 139.837 128.786 139.607 128.54 139.465C128.294 139.323 127.894 139.323 127.648 139.465C127.402 139.607 127.402 139.837 127.648 139.979C127.894 140.122 128.294 140.122 128.54 139.979Z" fill="#E89D9C"/>
<path d="M132.156 137.377C132.402 137.519 132.402 137.749 132.156 137.892C131.91 138.034 131.511 138.034 131.264 137.892C131.018 137.749 131.018 137.519 131.264 137.377C131.511 137.235 131.91 137.235 132.156 137.377Z" fill="#E89D9C"/>
<path d="M135.772 135.804C136.019 135.662 136.019 135.431 135.772 135.289C135.526 135.147 135.127 135.147 134.881 135.289C134.635 135.431 134.635 135.662 134.881 135.804C135.127 135.946 135.526 135.946 135.772 135.804Z" fill="#E89D9C"/>
<path d="M146.622 129.026C146.868 129.168 146.868 129.399 146.622 129.541C146.376 129.683 145.976 129.683 145.73 129.541C145.484 129.399 145.484 129.168 145.73 129.026C145.976 128.884 146.376 128.884 146.622 129.026Z" fill="#E89D9C"/>
<path d="M150.238 127.453C150.484 127.311 150.484 127.08 150.238 126.938C149.992 126.796 149.593 126.796 149.346 126.938C149.1 127.08 149.1 127.311 149.346 127.453C149.593 127.595 149.992 127.595 150.238 127.453Z" fill="#E89D9C"/>
<path d="M150.239 131.113C150.485 131.256 150.485 131.486 150.239 131.628C149.993 131.77 149.593 131.77 149.347 131.628C149.101 131.486 149.101 131.256 149.347 131.113C149.593 130.971 149.993 130.971 150.239 131.113Z" fill="#E89D9C"/>
<path d="M146.623 133.716C146.869 133.574 146.869 133.343 146.623 133.201C146.376 133.059 145.977 133.059 145.731 133.201C145.485 133.343 145.485 133.574 145.731 133.716C145.977 133.858 146.376 133.858 146.623 133.716Z" fill="#E89D9C"/>
<path d="M106.842 156.167C107.088 156.309 107.088 156.539 106.842 156.681C106.596 156.823 106.197 156.823 105.951 156.681C105.704 156.539 105.704 156.309 105.951 156.167C106.197 156.024 106.596 156.024 106.842 156.167Z" fill="#E89D9C"/>
<path d="M103.226 158.769C103.472 158.627 103.472 158.397 103.226 158.254C102.98 158.112 102.58 158.112 102.334 158.254C102.088 158.397 102.088 158.627 102.334 158.769C102.58 158.911 102.98 158.911 103.226 158.769Z" fill="#E89D9C"/>
<path d="M99.6096 160.857C99.8559 160.715 99.8559 160.484 99.6096 160.342C99.3634 160.2 98.9642 160.2 98.718 160.342C98.4717 160.484 98.4717 160.715 98.718 160.857C98.9642 160.999 99.3634 160.999 99.6096 160.857Z" fill="#E89D9C"/>
<path d="M110.459 154.594C110.705 154.452 110.705 154.221 110.459 154.079C110.213 153.937 109.813 153.937 109.567 154.079C109.321 154.221 109.321 154.452 109.567 154.594C109.813 154.736 110.213 154.736 110.459 154.594Z" fill="#E89D9C"/>
<path d="M114.075 151.991C114.321 152.134 114.321 152.364 114.075 152.506C113.829 152.648 113.43 152.648 113.184 152.506C112.937 152.364 112.937 152.134 113.184 151.991C113.43 151.849 113.829 151.849 114.075 151.991Z" fill="#E89D9C"/>
<path d="M117.692 150.418C117.938 150.276 117.938 150.046 117.692 149.904C117.445 149.761 117.046 149.761 116.8 149.904C116.554 150.046 116.554 150.276 116.8 150.418C117.046 150.56 117.445 150.56 117.692 150.418Z" fill="#E89D9C"/>
<path d="M121.308 147.816C121.554 147.958 121.554 148.188 121.308 148.33C121.062 148.473 120.662 148.473 120.416 148.33C120.17 148.188 120.17 147.958 120.416 147.816C120.662 147.674 121.062 147.674 121.308 147.816Z" fill="#E89D9C"/>
<path d="M124.924 146.243C125.171 146.101 125.171 145.87 124.924 145.728C124.678 145.586 124.279 145.586 124.033 145.728C123.786 145.87 123.786 146.101 124.033 146.243C124.279 146.385 124.678 146.385 124.924 146.243Z" fill="#E89D9C"/>
<path d="M128.541 143.641C128.787 143.783 128.787 144.013 128.541 144.155C128.294 144.297 127.895 144.297 127.649 144.155C127.403 144.013 127.403 143.783 127.649 143.641C127.895 143.498 128.294 143.498 128.541 143.641Z" fill="#E89D9C"/>
<path d="M132.157 142.067C132.403 141.925 132.403 141.695 132.157 141.553C131.911 141.411 131.511 141.411 131.265 141.553C131.019 141.695 131.019 141.925 131.265 142.067C131.511 142.21 131.911 142.21 132.157 142.067Z" fill="#E89D9C"/>
<path d="M135.773 139.465C136.02 139.607 136.02 139.837 135.773 139.98C135.527 140.122 135.128 140.122 134.882 139.98C134.636 139.837 134.636 139.607 134.882 139.465C135.128 139.323 135.527 139.323 135.773 139.465Z" fill="#E89D9C"/>
<path d="M139.39 137.892C139.636 137.75 139.636 137.519 139.39 137.377C139.144 137.235 138.745 137.235 138.498 137.377C138.252 137.519 138.252 137.75 138.498 137.892C138.745 138.034 139.144 138.034 139.39 137.892Z" fill="#E89D9C"/>
<path d="M143.006 135.289C143.252 135.431 143.252 135.662 143.006 135.804C142.76 135.946 142.361 135.946 142.115 135.804C141.868 135.662 141.868 135.431 142.115 135.289C142.361 135.147 142.76 135.147 143.006 135.289Z" fill="#E89D9C"/>
<path d="M153.855 129.541C154.102 129.399 154.102 129.168 153.855 129.026C153.609 128.884 153.21 128.884 152.964 129.026C152.717 129.168 152.717 129.399 152.964 129.541C153.21 129.683 153.609 129.683 153.855 129.541Z" fill="#E89D9C"/>
<path d="M106.843 160.857C107.089 160.715 107.089 160.485 106.843 160.343C106.597 160.2 106.197 160.2 105.951 160.343C105.705 160.485 105.705 160.715 105.951 160.857C106.197 161 106.597 161 106.843 160.857Z" fill="#E89D9C"/>
<path d="M103.227 162.945C103.473 162.803 103.473 162.573 103.227 162.43C102.98 162.288 102.581 162.288 102.335 162.43C102.089 162.573 102.089 162.803 102.335 162.945C102.581 163.087 102.98 163.087 103.227 162.945Z" fill="#E89D9C"/>
<path d="M153.856 133.202C154.102 133.344 154.102 133.575 153.856 133.717C153.61 133.859 153.211 133.859 152.964 133.717C152.718 133.575 152.718 133.344 152.964 133.202C153.211 133.06 153.61 133.06 153.856 133.202Z" fill="#E89D9C"/>
<path d="M157.472 131.629C157.718 131.487 157.718 131.257 157.472 131.114C157.226 130.972 156.827 130.972 156.581 131.114C156.334 131.257 156.334 131.487 156.581 131.629C156.827 131.771 157.226 131.771 157.472 131.629Z" fill="#E89D9C"/>
<path d="M110.46 162.946C110.706 162.803 110.706 162.573 110.46 162.431C110.213 162.289 109.814 162.289 109.568 162.431C109.322 162.573 109.322 162.803 109.568 162.946C109.814 163.088 110.213 163.088 110.46 162.946Z" fill="#E89D9C"/>
<path d="M106.843 165.033C107.09 164.891 107.09 164.661 106.843 164.519C106.597 164.377 106.198 164.377 105.952 164.519C105.706 164.661 105.706 164.891 105.952 165.033C106.198 165.176 106.597 165.176 106.843 165.033Z" fill="#E89D9C"/>
<path d="M157.473 135.29C157.719 135.433 157.719 135.663 157.473 135.805C157.227 135.947 156.827 135.947 156.581 135.805C156.335 135.663 156.335 135.433 156.581 135.29C156.827 135.148 157.227 135.148 157.473 135.29Z" fill="#E89D9C"/>
<path d="M161.089 133.717C161.336 133.575 161.336 133.345 161.089 133.203C160.843 133.061 160.444 133.061 160.198 133.203C159.951 133.345 159.951 133.575 160.198 133.717C160.444 133.86 160.843 133.86 161.089 133.717Z" fill="#E89D9C"/>
<path d="M114.077 165.033C114.323 164.891 114.323 164.661 114.077 164.519C113.83 164.377 113.431 164.377 113.185 164.519C112.939 164.661 112.939 164.891 113.185 165.033C113.431 165.176 113.83 165.176 114.077 165.033Z" fill="#E89D9C"/>
<path d="M110.46 167.121C110.706 166.979 110.706 166.749 110.46 166.607C110.214 166.464 109.815 166.464 109.569 166.607C109.322 166.749 109.322 166.979 109.569 167.121C109.815 167.263 110.214 167.263 110.46 167.121Z" fill="#E89D9C"/>
<path d="M161.09 137.378C161.336 137.52 161.336 137.751 161.09 137.893C160.843 138.035 160.444 138.035 160.198 137.893C159.952 137.751 159.952 137.52 160.198 137.378C160.444 137.236 160.843 137.236 161.09 137.378Z" fill="#E89D9C"/>
<path d="M164.706 135.805C164.952 135.663 164.952 135.433 164.706 135.29C164.46 135.148 164.06 135.148 163.814 135.29C163.568 135.433 163.568 135.663 163.814 135.805C164.06 135.947 164.46 135.947 164.706 135.805Z" fill="#E89D9C"/>
<path d="M117.694 167.121C117.94 166.979 117.94 166.749 117.694 166.607C117.447 166.464 117.048 166.464 116.802 166.607C116.556 166.749 116.556 166.979 116.802 167.121C117.048 167.264 117.447 167.264 117.694 167.121Z" fill="#E89D9C"/>
<path d="M114.077 169.209C114.323 169.067 114.323 168.837 114.077 168.694C113.831 168.552 113.432 168.552 113.185 168.694C112.939 168.837 112.939 169.067 113.185 169.209C113.432 169.351 113.831 169.351 114.077 169.209Z" fill="#E89D9C"/>
<path d="M164.707 139.466C164.953 139.608 164.953 139.839 164.707 139.981C164.46 140.123 164.061 140.123 163.815 139.981C163.569 139.839 163.569 139.608 163.815 139.466C164.061 139.324 164.46 139.324 164.707 139.466Z" fill="#E89D9C"/>
<path d="M168.323 137.893C168.569 137.751 168.569 137.521 168.323 137.378C168.077 137.236 167.677 137.236 167.431 137.378C167.185 137.521 167.185 137.751 167.431 137.893C167.677 138.035 168.077 138.035 168.323 137.893Z" fill="#E89D9C"/>
<path d="M121.31 169.21C121.557 169.068 121.557 168.837 121.31 168.695C121.064 168.553 120.665 168.553 120.419 168.695C120.173 168.837 120.173 169.068 120.419 169.21C120.665 169.352 121.064 169.352 121.31 169.21Z" fill="#E89D9C"/>
<path d="M117.694 171.298C117.94 171.155 117.94 170.925 117.694 170.783C117.448 170.641 117.049 170.641 116.802 170.783C116.556 170.925 116.556 171.155 116.802 171.298C117.049 171.44 117.448 171.44 117.694 171.298Z" fill="#E89D9C"/>
<path d="M168.324 141.555C168.57 141.697 168.57 141.927 168.324 142.069C168.077 142.211 167.678 142.211 167.432 142.069C167.186 141.927 167.186 141.697 167.432 141.555C167.678 141.412 168.077 141.412 168.324 141.555Z" fill="#E89D9C"/>
<path d="M171.94 139.981C172.186 139.839 172.186 139.609 171.94 139.467C171.694 139.325 171.294 139.325 171.048 139.467C170.802 139.609 170.802 139.839 171.048 139.981C171.294 140.124 171.694 140.124 171.94 139.981Z" fill="#E89D9C"/>
<path d="M124.927 171.298C125.173 171.155 125.173 170.925 124.927 170.783C124.681 170.641 124.282 170.641 124.036 170.783C123.789 170.925 123.789 171.155 124.036 171.298C124.282 171.44 124.681 171.44 124.927 171.298Z" fill="#E89D9C"/>
<path d="M121.311 173.385C121.557 173.243 121.557 173.013 121.311 172.871C121.065 172.729 120.665 172.729 120.419 172.871C120.173 173.013 120.173 173.243 120.419 173.385C120.665 173.528 121.065 173.528 121.311 173.385Z" fill="#E89D9C"/>
<path d="M171.94 143.642C172.187 143.785 172.187 144.015 171.94 144.157C171.694 144.299 171.295 144.299 171.049 144.157C170.802 144.015 170.802 143.785 171.049 143.642C171.295 143.5 171.694 143.5 171.94 143.642Z" fill="#E89D9C"/>
<path d="M175.557 142.069C175.803 141.927 175.803 141.697 175.557 141.555C175.31 141.412 174.911 141.412 174.665 141.555C174.419 141.697 174.419 141.927 174.665 142.069C174.911 142.211 175.31 142.211 175.557 142.069Z" fill="#E89D9C"/>
<path d="M124.928 175.473C125.174 175.331 125.174 175.101 124.928 174.958C124.682 174.816 124.282 174.816 124.036 174.958C123.79 175.101 123.79 175.331 124.036 175.473C124.282 175.615 124.682 175.615 124.928 175.473Z" fill="#E89D9C"/>
<path d="M128.544 173.386C128.791 173.244 128.791 173.013 128.544 172.871C128.298 172.729 127.899 172.729 127.653 172.871C127.406 173.013 127.406 173.244 127.653 173.386C127.899 173.528 128.298 173.528 128.544 173.386Z" fill="#E89D9C"/>
<path d="M175.557 145.73C175.803 145.872 175.803 146.103 175.557 146.245C175.311 146.387 174.912 146.387 174.666 146.245C174.419 146.103 174.419 145.872 174.666 145.73C174.912 145.588 175.311 145.588 175.557 145.73Z" fill="#E89D9C"/>
<path d="M179.174 144.157C179.42 144.015 179.42 143.784 179.174 143.642C178.928 143.5 178.528 143.5 178.282 143.642C178.036 143.784 178.036 144.015 178.282 144.157C178.528 144.299 178.928 144.299 179.174 144.157Z" fill="#E89D9C"/>
<path d="M132.161 175.474C132.408 175.332 132.408 175.101 132.161 174.959C131.915 174.817 131.516 174.817 131.27 174.959C131.023 175.101 131.023 175.332 131.27 175.474C131.516 175.616 131.915 175.616 132.161 175.474Z" fill="#E89D9C"/>
<path d="M128.545 177.562C128.791 177.419 128.791 177.189 128.545 177.047C128.299 176.905 127.899 176.905 127.653 177.047C127.407 177.189 127.407 177.419 127.653 177.562C127.899 177.704 128.299 177.704 128.545 177.562Z" fill="#E89D9C"/>
<path d="M179.174 147.819C179.421 147.961 179.421 148.191 179.174 148.333C178.928 148.475 178.529 148.475 178.283 148.333C178.036 148.191 178.036 147.961 178.283 147.819C178.529 147.676 178.928 147.676 179.174 147.819Z" fill="#E89D9C"/>
<path d="M182.791 146.245C183.037 146.103 183.037 145.873 182.791 145.731C182.544 145.589 182.145 145.589 181.899 145.731C181.653 145.873 181.653 146.103 181.899 146.245C182.145 146.388 182.544 146.388 182.791 146.245Z" fill="#E89D9C"/>
<path d="M135.778 177.562C136.024 177.419 136.024 177.189 135.778 177.047C135.532 176.905 135.133 176.905 134.886 177.047C134.64 177.189 134.64 177.419 134.886 177.562C135.133 177.704 135.532 177.704 135.778 177.562Z" fill="#E89D9C"/>
<path d="M132.162 179.649C132.408 179.507 132.408 179.277 132.162 179.135C131.916 178.993 131.516 178.993 131.27 179.135C131.024 179.277 131.024 179.507 131.27 179.649C131.516 179.792 131.916 179.792 132.162 179.649Z" fill="#E89D9C"/>
<path d="M182.791 149.906C183.037 150.049 183.037 150.279 182.791 150.421C182.545 150.563 182.146 150.563 181.9 150.421C181.653 150.279 181.653 150.049 181.9 149.906C182.146 149.764 182.545 149.764 182.791 149.906Z" fill="#E89D9C"/>
<path d="M186.407 148.333C186.654 148.191 186.654 147.961 186.407 147.819C186.161 147.676 185.762 147.676 185.516 147.819C185.27 147.961 185.27 148.191 185.516 148.333C185.762 148.475 186.161 148.475 186.407 148.333Z" fill="#E89D9C"/>
<path d="M161.093 167.123C161.339 166.981 161.339 166.751 161.093 166.609C160.847 166.466 160.448 166.466 160.201 166.609C159.955 166.751 159.955 166.981 160.201 167.123C160.448 167.265 160.847 167.265 161.093 167.123Z" fill="#E89D9C"/>
<path d="M143.011 177.047C143.257 177.189 143.257 177.42 143.011 177.562C142.765 177.704 142.366 177.704 142.12 177.562C141.873 177.42 141.873 177.189 142.12 177.047C142.366 176.905 142.765 176.905 143.011 177.047Z" fill="#E89D9C"/>
<path d="M139.395 179.65C139.641 179.508 139.641 179.277 139.395 179.135C139.148 178.993 138.749 178.993 138.503 179.135C138.257 179.277 138.257 179.508 138.503 179.65C138.749 179.792 139.148 179.792 139.395 179.65Z" fill="#E89D9C"/>
<path d="M135.778 181.738C136.025 181.596 136.025 181.365 135.778 181.223C135.532 181.081 135.133 181.081 134.887 181.223C134.641 181.365 134.641 181.596 134.887 181.738C135.133 181.88 135.532 181.88 135.778 181.738Z" fill="#E89D9C"/>
<path d="M146.627 175.475C146.874 175.333 146.874 175.102 146.627 174.96C146.381 174.818 145.982 174.818 145.736 174.96C145.49 175.102 145.49 175.333 145.736 175.475C145.982 175.617 146.381 175.617 146.627 175.475Z" fill="#E89D9C"/>
<path d="M150.244 172.872C150.49 173.014 150.49 173.245 150.244 173.387C149.998 173.529 149.599 173.529 149.352 173.387C149.106 173.245 149.106 173.014 149.352 172.872C149.599 172.73 149.998 172.73 150.244 172.872Z" fill="#E89D9C"/>
<path d="M153.86 171.299C154.107 171.157 154.107 170.926 153.86 170.784C153.614 170.642 153.215 170.642 152.969 170.784C152.722 170.926 152.722 171.157 152.969 171.299C153.215 171.441 153.614 171.441 153.86 171.299Z" fill="#E89D9C"/>
<path d="M157.477 168.696C157.723 168.839 157.723 169.069 157.477 169.211C157.231 169.353 156.831 169.353 156.585 169.211C156.339 169.069 156.339 168.839 156.585 168.696C156.831 168.554 157.231 168.554 157.477 168.696Z" fill="#E89D9C"/>
<path d="M164.709 164.521C164.956 164.663 164.956 164.894 164.709 165.036C164.463 165.178 164.064 165.178 163.818 165.036C163.571 164.894 163.571 164.663 163.818 164.521C164.064 164.379 164.463 164.379 164.709 164.521Z" fill="#E89D9C"/>
<path d="M168.326 162.948C168.572 162.806 168.572 162.576 168.326 162.433C168.08 162.291 167.68 162.291 167.434 162.433C167.188 162.576 167.188 162.806 167.434 162.948C167.68 163.09 168.08 163.09 168.326 162.948Z" fill="#E89D9C"/>
<path d="M171.942 160.346C172.188 160.488 172.188 160.718 171.942 160.86C171.696 161.002 171.297 161.002 171.051 160.86C170.804 160.718 170.804 160.488 171.051 160.346C171.297 160.203 171.696 160.203 171.942 160.346Z" fill="#E89D9C"/>
<path d="M175.559 158.772C175.805 158.63 175.805 158.4 175.559 158.258C175.312 158.116 174.913 158.116 174.667 158.258C174.421 158.4 174.421 158.63 174.667 158.772C174.913 158.915 175.312 158.915 175.559 158.772Z" fill="#E89D9C"/>
<path d="M179.175 156.17C179.421 156.312 179.421 156.542 179.175 156.685C178.929 156.827 178.53 156.827 178.284 156.685C178.037 156.542 178.037 156.312 178.284 156.17C178.53 156.028 178.929 156.028 179.175 156.17Z" fill="#E89D9C"/>
<path d="M182.792 154.597C183.038 154.455 183.038 154.225 182.792 154.083C182.545 153.94 182.146 153.94 181.9 154.083C181.654 154.225 181.654 154.455 181.9 154.597C182.146 154.739 182.545 154.739 182.792 154.597Z" fill="#E89D9C"/>
<path d="M186.408 151.995C186.654 152.137 186.654 152.367 186.408 152.509C186.162 152.652 185.762 152.652 185.516 152.509C185.27 152.367 185.27 152.137 185.516 151.995C185.762 151.853 186.162 151.853 186.408 151.995Z" fill="#E89D9C"/>
<path d="M190.024 150.422C190.271 150.279 190.271 150.049 190.024 149.907C189.778 149.765 189.379 149.765 189.133 149.907C188.886 150.049 188.886 150.279 189.133 150.422C189.379 150.564 189.778 150.564 190.024 150.422Z" fill="#E89D9C"/>
<path d="M186.408 156.685C186.655 156.542 186.655 156.312 186.408 156.17C186.162 156.028 185.763 156.028 185.517 156.17C185.27 156.312 185.27 156.542 185.517 156.685C185.763 156.827 186.162 156.827 186.408 156.685Z" fill="#E89D9C"/>
<path d="M182.792 158.258C183.038 158.4 183.038 158.63 182.792 158.772C182.546 158.915 182.146 158.915 181.9 158.772C181.654 158.63 181.654 158.4 181.9 158.258C182.146 158.116 182.546 158.116 182.792 158.258Z" fill="#E89D9C"/>
<path d="M164.71 169.211C164.956 169.069 164.956 168.839 164.71 168.696C164.464 168.554 164.064 168.554 163.818 168.696C163.572 168.839 163.572 169.069 163.818 169.211C164.064 169.353 164.464 169.353 164.71 169.211Z" fill="#E89D9C"/>
<path d="M143.012 181.738C143.258 181.596 143.258 181.365 143.012 181.223C142.765 181.081 142.366 181.081 142.12 181.223C141.874 181.365 141.874 181.596 142.12 181.738C142.366 181.88 142.765 181.88 143.012 181.738Z" fill="#E89D9C"/>
<path d="M139.395 183.826C139.641 183.683 139.641 183.453 139.395 183.311C139.149 183.169 138.75 183.169 138.504 183.311C138.257 183.453 138.257 183.683 138.504 183.826C138.75 183.968 139.149 183.968 139.395 183.826Z" fill="#E89D9C"/>
<path d="M146.628 179.136C146.874 179.278 146.874 179.508 146.628 179.65C146.382 179.792 145.983 179.792 145.736 179.65C145.49 179.508 145.49 179.278 145.736 179.136C145.983 178.993 146.382 178.993 146.628 179.136Z" fill="#E89D9C"/>
<path d="M150.244 177.563C150.49 177.42 150.49 177.19 150.244 177.048C149.998 176.906 149.599 176.906 149.353 177.048C149.106 177.19 149.106 177.42 149.353 177.563C149.599 177.705 149.998 177.705 150.244 177.563Z" fill="#E89D9C"/>
<path d="M153.861 174.96C154.107 175.102 154.107 175.333 153.861 175.475C153.615 175.617 153.215 175.617 152.969 175.475C152.723 175.333 152.723 175.102 152.969 174.96C153.215 174.818 153.615 174.818 153.861 174.96Z" fill="#E89D9C"/>
<path d="M157.477 173.387C157.723 173.245 157.723 173.014 157.477 172.872C157.231 172.73 156.832 172.73 156.585 172.872C156.339 173.014 156.339 173.245 156.585 173.387C156.832 173.529 157.231 173.529 157.477 173.387Z" fill="#E89D9C"/>
<path d="M161.094 170.785C161.34 170.927 161.34 171.157 161.094 171.299C160.847 171.442 160.448 171.442 160.202 171.299C159.956 171.157 159.956 170.927 160.202 170.785C160.448 170.643 160.847 170.643 161.094 170.785Z" fill="#E89D9C"/>
<path d="M168.326 166.609C168.572 166.751 168.572 166.982 168.326 167.124C168.08 167.266 167.681 167.266 167.435 167.124C167.188 166.982 167.188 166.751 167.435 166.609C167.681 166.467 168.08 166.467 168.326 166.609Z" fill="#E89D9C"/>
<path d="M171.943 165.036C172.189 164.894 172.189 164.663 171.943 164.521C171.696 164.379 171.297 164.379 171.051 164.521C170.805 164.663 170.805 164.894 171.051 165.036C171.297 165.178 171.696 165.178 171.943 165.036Z" fill="#E89D9C"/>
<path d="M175.559 162.433C175.805 162.576 175.805 162.806 175.559 162.948C175.313 163.09 174.914 163.09 174.667 162.948C174.421 162.806 174.421 162.576 174.667 162.433C174.914 162.291 175.313 162.291 175.559 162.433Z" fill="#E89D9C"/>
<path d="M179.176 160.86C179.422 160.718 179.422 160.488 179.176 160.346C178.929 160.203 178.53 160.203 178.284 160.346C178.038 160.488 178.038 160.718 178.284 160.86C178.53 161.002 178.929 161.002 179.176 160.86Z" fill="#E89D9C"/>
<path d="M190.025 154.083C190.271 154.225 190.271 154.455 190.025 154.597C189.778 154.739 189.379 154.739 189.133 154.597C188.887 154.455 188.887 154.225 189.133 154.083C189.379 153.94 189.778 153.94 190.025 154.083Z" fill="#E89D9C"/>
<path d="M193.641 152.509C193.887 152.367 193.887 152.137 193.641 151.995C193.395 151.853 192.995 151.853 192.749 151.995C192.503 152.137 192.503 152.367 192.749 152.509C192.995 152.652 193.395 152.652 193.641 152.509Z" fill="#E89D9C"/>
</g>
<path opacity="0.5" d="M133.929 153.515C133.531 153.285 133.531 152.913 133.929 152.683L151.939 142.286C152.337 142.056 152.982 142.056 153.38 142.286C153.778 142.516 153.778 142.888 153.38 143.118L135.37 153.515C134.972 153.745 134.327 153.745 133.929 153.515Z" fill="#E89D9C"/>
<path opacity="0.25" d="M143.098 163.703C142.7 163.474 142.7 163.101 143.098 162.871L161.108 152.474C161.506 152.245 162.151 152.245 162.549 152.474C162.947 152.704 162.947 153.076 162.549 153.306L144.539 163.703C144.141 163.933 143.496 163.933 143.098 163.703Z" fill="#E89D9C"/>
<path opacity="0.5" d="M147.671 148.968C147.448 148.839 147.173 148.839 146.95 148.968L136.986 154.72C136.588 154.95 136.588 155.323 136.986 155.552C137.384 155.782 138.029 155.782 138.427 155.552L147.671 150.216C148.151 149.939 148.151 149.245 147.671 148.968Z" fill="#E89D9C"/>
<path fill-rule="evenodd" clip-rule="evenodd" d="M126.416 156.36C124.487 157.474 124.487 159.279 126.416 160.393C127.962 161.285 130.267 161.461 132.118 160.927C132.323 160.844 132.284 160.746 132.192 160.693C132.109 160.645 131.83 160.489 131.537 160.32C130.821 160.92 130.219 160.834 129.952 160.761C129.813 160.725 129.332 160.645 129.101 160.683C128.913 160.715 128.577 160.723 128.865 160.552C129.136 160.39 129.59 160.426 129.76 160.448C130.603 160.572 130.956 160.196 131.066 160.027C130.869 159.879 130.808 159.738 130.821 159.629C129.957 160.027 128.843 160.322 127.508 159.551C127.128 159.332 126.949 159.072 126.927 158.802C126.805 158.772 126.325 158.636 126.036 158.248C126.036 158.248 126.237 158.026 127.355 157.9C127.556 157.694 127.813 157.5 128.11 157.328C128.407 157.157 128.743 157.008 129.101 156.892C129.315 156.244 129.703 156.131 129.703 156.131C130.376 156.297 130.612 156.575 130.664 156.645C131.131 156.658 131.576 156.759 131.96 156.98C133.301 157.754 132.781 158.397 132.091 158.896C132.327 158.886 132.646 158.944 132.973 159.133C133.44 159.402 133.811 159.622 133.929 159.69C134.021 159.743 134.196 159.768 134.335 159.647C135.252 158.583 134.942 157.25 133.401 156.36C131.472 155.246 128.346 155.246 126.416 156.36Z" fill="#D85C5A"/>
<g opacity="0.62">
<mask id="path-13-inside-1_585_3764" fill="white">
<path fill-rule="evenodd" clip-rule="evenodd" d="M149.696 110.276C150.012 107.246 150.949 105.081 152.058 103.466C153.148 101.878 154.399 100.832 155.35 100.037L155.516 99.897C155.646 99.788 156.01 99.553 156.539 99.2266C157.08 98.8918 157.825 98.4426 158.747 97.8938C160.591 96.796 163.149 95.2963 166.217 93.5101C172.354 89.9377 180.535 85.2174 189.138 80.2699C206.346 70.375 225.244 59.5706 232.854 55.2225C234.95 54.025 238.32 54.0351 240.403 55.2379L351.421 119.329C352.425 119.908 352.99 120.694 352.991 121.513L353.002 129.107L365.395 136.599C366.611 137.335 367.085 138.331 366.822 139.269L366.822 144.674C366.822 145.509 366.248 146.309 365.228 146.895L287.347 191.622C286.498 192.11 286.022 192.776 286.026 193.471L286.044 196.877C286.049 197.718 285.471 198.525 284.441 199.114L261.151 212.43C260.284 212.926 258.929 212.724 258.462 212.161L254.522 209.887L171.733 257.842C169.643 259.052 166.268 259.049 164.186 257.834L41.1345 186.013C40.133 185.429 39.5704 184.636 39.5704 183.81L39.5703 178.599H39.6048C39.508 177.742 40.0157 176.866 41.1292 176.206L52.1378 169.684L52.158 169.696L52.158 160.303C52.158 159.473 52.7258 158.677 53.7378 158.087L74.6252 145.925L64.7566 140.227C63.8 139.675 63.8 138.78 64.7566 138.227L68.5999 136.009C69.5565 135.456 71.1075 135.456 72.0641 136.009L81.9012 141.688L132.533 112.204C137.159 109.511 144.007 108.867 149.696 110.276ZM156.273 100.198C156.355 100.129 156.66 99.928 157.21 99.5886C157.746 99.2574 158.486 98.8109 159.406 98.263C161.247 97.1673 163.802 95.6692 166.869 93.8835C173.004 90.3123 181.184 85.5929 189.787 80.6456C206.993 70.7513 225.89 59.9474 233.5 55.5994C235.235 54.6082 238.026 54.6154 239.754 55.6129L350.772 119.704C351.119 119.904 351.403 120.134 351.616 120.384L273.545 165.532L273.53 165.542C268.908 168.817 266.077 173.135 265.004 177.81C264.559 176.349 263.746 175.32 262.72 174.653L262.711 174.648L261.271 173.816L261.281 173.784C261.237 173.77 261.193 173.758 261.149 173.746L154.548 112.178C153.356 111.49 152.018 110.936 150.592 110.518C150.881 107.426 151.818 105.254 152.912 103.662C153.963 102.131 155.163 101.126 156.109 100.335L156.273 100.198ZM75.2748 146.3L80.6952 149.429C81.6518 149.981 83.2027 149.981 84.1594 149.429L88.0027 147.21C88.9593 146.658 88.9593 145.762 88.0027 145.21L82.5508 142.063L133.186 112.578C138.886 109.258 148.175 109.247 153.899 112.553L259.637 173.622C258.85 173.693 258.198 173.947 257.866 174.134L257.863 174.136L170.626 224.661C169.482 225.324 168.072 225.326 166.927 224.667L53.3662 159.383C53.589 159.04 53.9357 158.725 54.3902 158.461L75.2748 146.3ZM255.171 209.511L258.296 211.316V208.771C258.296 208.375 257.476 208.176 256.994 208.455L255.171 209.511ZM259.274 211.909L259.299 211.895L259.246 211.864C259.224 211.822 259.212 211.778 259.212 211.73V208.771C259.212 207.9 257.409 207.462 256.349 208.076L171.087 257.463C169.356 258.466 166.559 258.463 164.835 257.456L41.7826 185.636C40.9527 185.151 40.4866 184.495 40.4866 183.81L40.4865 180.12C40.6791 180.288 40.9029 180.448 41.1577 180.597L164.25 252.426C166.331 253.64 169.703 253.644 171.793 252.435L259.923 201.451C260.128 201.332 260.395 201.3 260.634 201.333L261.213 201.688C261.22 201.714 261.224 201.74 261.224 201.767V205.176C261.224 206.056 263.059 206.49 264.109 205.858L279.48 196.615C280.447 196.033 280.988 195.255 280.988 194.445L280.988 189.632C281.542 189.572 282.072 189.417 282.501 189.167L365.323 140.97C365.54 140.844 365.734 140.71 365.906 140.569L365.906 144.674C365.906 145.366 365.43 146.029 364.585 146.515L286.704 191.242C285.68 191.83 285.105 192.634 285.109 193.473L285.128 196.879C285.132 197.576 284.653 198.244 283.8 198.732L260.51 212.048C260.107 212.279 259.473 212.178 259.274 211.909ZM259.278 201.072C259.452 200.971 259.646 200.899 259.848 200.852L254.742 197.722L172.883 245.315C170.759 246.55 167.302 246.555 165.167 245.327L53.7608 181.223C52.7347 180.633 52.158 179.831 52.158 178.995V170.434L41.7821 176.581C40.076 177.592 40.0865 179.216 41.8057 180.219L164.898 252.048C166.622 253.054 169.416 253.058 171.148 252.056L259.278 201.072ZM255.456 197.28L261.592 201.041C261.658 201.076 261.719 201.113 261.775 201.153L261.844 201.195L261.839 201.203C262.026 201.357 262.14 201.548 262.14 201.767L262.14 205.176C262.14 205.576 262.974 205.773 263.452 205.486L278.822 196.243C279.188 196.023 279.48 195.77 279.689 195.495L267.223 188.284L267.255 188.23C267.071 188.134 266.893 188.026 266.723 187.903C265.86 187.281 265.178 186.296 264.81 184.85C263.212 191.418 259.189 194.858 255.456 197.28ZM280.072 194.445C280.072 194.572 280.056 194.698 280.024 194.822L269.545 188.761C270.165 188.761 270.767 188.66 271.311 188.492C271.635 188.393 271.902 188.256 272.127 188.127L274.317 186.873L278.439 189.188C278.903 189.449 279.478 189.601 280.072 189.647L280.072 194.445ZM269.146 188.211C268.839 188.18 268.525 188.111 268.215 187.991L267.599 187.635L267.58 187.667C267.552 187.649 267.525 187.631 267.497 187.612C267.478 187.599 267.459 187.585 267.44 187.571C266.327 186.769 265.431 185.133 265.431 182.186C265.43 175.969 268.368 170.046 274.228 165.887L351.957 120.937C352.033 121.125 352.072 121.318 352.072 121.514L352.101 140.508C352.102 141.192 351.63 141.848 350.788 142.33L271.48 187.751C271.278 187.867 271.086 187.961 270.879 188.024C270.316 188.197 269.72 188.268 269.146 188.211ZM274.971 186.498L279.075 188.803C279.853 189.241 281.089 189.234 281.854 188.789L364.676 140.592C365.341 140.205 365.751 139.725 365.906 139.223V138.527H365.958C365.87 137.962 365.462 137.41 364.735 136.97L353.004 129.877L353.02 140.508C353.021 141.333 352.451 142.125 351.435 142.707L274.971 186.498ZM53.0766 160.303C53.0766 160.231 53.0816 160.16 53.0916 160.09L166.553 225.318C167.155 225.664 167.817 225.858 168.487 225.901V245.697C167.511 245.631 166.566 245.383 165.816 244.951L54.4092 180.848C53.5561 180.357 53.0766 179.69 53.0766 178.995L53.0766 160.303ZM172.231 244.942C171.401 245.424 170.327 245.681 169.237 245.712V225.885C169.849 225.821 170.451 225.629 171.001 225.311L258.235 174.787L258.237 174.786C258.669 174.543 259.867 174.133 261.061 174.501L261.075 174.453L262.042 175.011C263.785 176.149 265.008 178.66 264.216 183.253C262.883 190.984 258.36 194.658 254.343 197.201L172.231 244.942Z"/>
</mask>
<path fill-rule="evenodd" clip-rule="evenodd" d="M149.696 110.276C150.012 107.246 150.949 105.081 152.058 103.466C153.148 101.878 154.399 100.832 155.35 100.037L155.516 99.897C155.646 99.788 156.01 99.553 156.539 99.2266C157.08 98.8918 157.825 98.4426 158.747 97.8938C160.591 96.796 163.149 95.2963 166.217 93.5101C172.354 89.9377 180.535 85.2174 189.138 80.2699C206.346 70.375 225.244 59.5706 232.854 55.2225C234.95 54.025 238.32 54.0351 240.403 55.2379L351.421 119.329C352.425 119.908 352.99 120.694 352.991 121.513L353.002 129.107L365.395 136.599C366.611 137.335 367.085 138.331 366.822 139.269L366.822 144.674C366.822 145.509 366.248 146.309 365.228 146.895L287.347 191.622C286.498 192.11 286.022 192.776 286.026 193.471L286.044 196.877C286.049 197.718 285.471 198.525 284.441 199.114L261.151 212.43C260.284 212.926 258.929 212.724 258.462 212.161L254.522 209.887L171.733 257.842C169.643 259.052 166.268 259.049 164.186 257.834L41.1345 186.013C40.133 185.429 39.5704 184.636 39.5704 183.81L39.5703 178.599H39.6048C39.508 177.742 40.0157 176.866 41.1292 176.206L52.1378 169.684L52.158 169.696L52.158 160.303C52.158 159.473 52.7258 158.677 53.7378 158.087L74.6252 145.925L64.7566 140.227C63.8 139.675 63.8 138.78 64.7566 138.227L68.5999 136.009C69.5565 135.456 71.1075 135.456 72.0641 136.009L81.9012 141.688L132.533 112.204C137.159 109.511 144.007 108.867 149.696 110.276ZM156.273 100.198C156.355 100.129 156.66 99.928 157.21 99.5886C157.746 99.2574 158.486 98.8109 159.406 98.263C161.247 97.1673 163.802 95.6692 166.869 93.8835C173.004 90.3123 181.184 85.5929 189.787 80.6456C206.993 70.7513 225.89 59.9474 233.5 55.5994C235.235 54.6082 238.026 54.6154 239.754 55.6129L350.772 119.704C351.119 119.904 351.403 120.134 351.616 120.384L273.545 165.532L273.53 165.542C268.908 168.817 266.077 173.135 265.004 177.81C264.559 176.349 263.746 175.32 262.72 174.653L262.711 174.648L261.271 173.816L261.281 173.784C261.237 173.77 261.193 173.758 261.149 173.746L154.548 112.178C153.356 111.49 152.018 110.936 150.592 110.518C150.881 107.426 151.818 105.254 152.912 103.662C153.963 102.131 155.163 101.126 156.109 100.335L156.273 100.198ZM75.2748 146.3L80.6952 149.429C81.6518 149.981 83.2027 149.981 84.1594 149.429L88.0027 147.21C88.9593 146.658 88.9593 145.762 88.0027 145.21L82.5508 142.063L133.186 112.578C138.886 109.258 148.175 109.247 153.899 112.553L259.637 173.622C258.85 173.693 258.198 173.947 257.866 174.134L257.863 174.136L170.626 224.661C169.482 225.324 168.072 225.326 166.927 224.667L53.3662 159.383C53.589 159.04 53.9357 158.725 54.3902 158.461L75.2748 146.3ZM255.171 209.511L258.296 211.316V208.771C258.296 208.375 257.476 208.176 256.994 208.455L255.171 209.511ZM259.274 211.909L259.299 211.895L259.246 211.864C259.224 211.822 259.212 211.778 259.212 211.73V208.771C259.212 207.9 257.409 207.462 256.349 208.076L171.087 257.463C169.356 258.466 166.559 258.463 164.835 257.456L41.7826 185.636C40.9527 185.151 40.4866 184.495 40.4866 183.81L40.4865 180.12C40.6791 180.288 40.9029 180.448 41.1577 180.597L164.25 252.426C166.331 253.64 169.703 253.644 171.793 252.435L259.923 201.451C260.128 201.332 260.395 201.3 260.634 201.333L261.213 201.688C261.22 201.714 261.224 201.74 261.224 201.767V205.176C261.224 206.056 263.059 206.49 264.109 205.858L279.48 196.615C280.447 196.033 280.988 195.255 280.988 194.445L280.988 189.632C281.542 189.572 282.072 189.417 282.501 189.167L365.323 140.97C365.54 140.844 365.734 140.71 365.906 140.569L365.906 144.674C365.906 145.366 365.43 146.029 364.585 146.515L286.704 191.242C285.68 191.83 285.105 192.634 285.109 193.473L285.128 196.879C285.132 197.576 284.653 198.244 283.8 198.732L260.51 212.048C260.107 212.279 259.473 212.178 259.274 211.909ZM259.278 201.072C259.452 200.971 259.646 200.899 259.848 200.852L254.742 197.722L172.883 245.315C170.759 246.55 167.302 246.555 165.167 245.327L53.7608 181.223C52.7347 180.633 52.158 179.831 52.158 178.995V170.434L41.7821 176.581C40.076 177.592 40.0865 179.216 41.8057 180.219L164.898 252.048C166.622 253.054 169.416 253.058 171.148 252.056L259.278 201.072ZM255.456 197.28L261.592 201.041C261.658 201.076 261.719 201.113 261.775 201.153L261.844 201.195L261.839 201.203C262.026 201.357 262.14 201.548 262.14 201.767L262.14 205.176C262.14 205.576 262.974 205.773 263.452 205.486L278.822 196.243C279.188 196.023 279.48 195.77 279.689 195.495L267.223 188.284L267.255 188.23C267.071 188.134 266.893 188.026 266.723 187.903C265.86 187.281 265.178 186.296 264.81 184.85C263.212 191.418 259.189 194.858 255.456 197.28ZM280.072 194.445C280.072 194.572 280.056 194.698 280.024 194.822L269.545 188.761C270.165 188.761 270.767 188.66 271.311 188.492C271.635 188.393 271.902 188.256 272.127 188.127L274.317 186.873L278.439 189.188C278.903 189.449 279.478 189.601 280.072 189.647L280.072 194.445ZM269.146 188.211C268.839 188.18 268.525 188.111 268.215 187.991L267.599 187.635L267.58 187.667C267.552 187.649 267.525 187.631 267.497 187.612C267.478 187.599 267.459 187.585 267.44 187.571C266.327 186.769 265.431 185.133 265.431 182.186C265.43 175.969 268.368 170.046 274.228 165.887L351.957 120.937C352.033 121.125 352.072 121.318 352.072 121.514L352.101 140.508C352.102 141.192 351.63 141.848 350.788 142.33L271.48 187.751C271.278 187.867 271.086 187.961 270.879 188.024C270.316 188.197 269.72 188.268 269.146 188.211ZM274.971 186.498L279.075 188.803C279.853 189.241 281.089 189.234 281.854 188.789L364.676 140.592C365.341 140.205 365.751 139.725 365.906 139.223V138.527H365.958C365.87 137.962 365.462 137.41 364.735 136.97L353.004 129.877L353.02 140.508C353.021 141.333 352.451 142.125 351.435 142.707L274.971 186.498ZM53.0766 160.303C53.0766 160.231 53.0816 160.16 53.0916 160.09L166.553 225.318C167.155 225.664 167.817 225.858 168.487 225.901V245.697C167.511 245.631 166.566 245.383 165.816 244.951L54.4092 180.848C53.5561 180.357 53.0766 179.69 53.0766 178.995L53.0766 160.303ZM172.231 244.942C171.401 245.424 170.327 245.681 169.237 245.712V225.885C169.849 225.821 170.451 225.629 171.001 225.311L258.235 174.787L258.237 174.786C258.669 174.543 259.867 174.133 261.061 174.501L261.075 174.453L262.042 175.011C263.785 176.149 265.008 178.66 264.216 183.253C262.883 190.984 258.36 194.658 254.343 197.201L172.231 244.942Z" fill="#FDF7F7" stroke="#E89D9C" stroke-width="1.5" mask="url(#path-13-inside-1_585_3764)"/>
</g>
</g>
<defs>
<clipPath id="clip0_585_3764">
<rect width="300" height="220" fill="white"/>
</clipPath>
</defs>
</svg>
