<svg width="300" height="220" viewBox="0 0 300 220" fill="none" xmlns="http://www.w3.org/2000/svg">
<g clip-path="url(#clip0_585_3778)">
<path d="M98.3725 209.191C98.118 209.045 97.8945 208.887 97.7019 208.72L97.7021 213.14C97.7022 213.82 98.1699 214.472 99.0025 214.953L208.003 277.879C209.737 278.88 212.548 278.88 214.282 277.879L302.336 227.049L379.627 182.112C379.816 181.825 379.915 181.517 379.915 181.204V176.308C379.732 176.462 379.521 176.61 379.283 176.747L214.516 271.867C212.424 273.075 209.031 273.075 206.938 271.867L98.3725 209.191Z" fill="#FDFAF2"/>
<path d="M99.022 205.192C97.2882 206.193 97.2882 207.816 99.022 208.816L207.588 271.492C209.322 272.493 212.133 272.493 213.867 271.492L378.633 176.372C380.367 175.371 380.367 173.748 378.633 172.747L270.067 110.072C268.333 109.071 265.522 109.071 263.788 110.072L99.022 205.192Z" fill="#FDFAF2"/>
<g opacity="0.5">
<path d="M265.403 114.214C265.787 113.992 265.787 113.633 265.403 113.411C265.019 113.19 264.397 113.19 264.013 113.411C263.63 113.633 263.63 113.992 264.013 114.214C264.397 114.435 265.019 114.435 265.403 114.214Z" fill="#EAC653"/>
<path d="M254.748 119.563C255.132 119.784 255.132 120.143 254.748 120.365C254.365 120.587 253.742 120.587 253.359 120.365C252.975 120.143 252.975 119.784 253.359 119.563C253.742 119.341 254.365 119.341 254.748 119.563Z" fill="#EAC653"/>
<path d="M244.093 126.516C244.477 126.295 244.477 125.936 244.093 125.714C243.709 125.492 243.087 125.492 242.703 125.714C242.32 125.936 242.32 126.295 242.703 126.516C243.087 126.738 243.709 126.738 244.093 126.516Z" fill="#EAC653"/>
<path d="M233.438 131.865C233.822 132.086 233.822 132.446 233.438 132.667C233.055 132.889 232.432 132.889 232.049 132.667C231.665 132.446 231.665 132.086 232.049 131.865C232.432 131.643 233.055 131.643 233.438 131.865Z" fill="#EAC653"/>
<path d="M222.784 138.819C223.167 138.597 223.167 138.238 222.784 138.016C222.4 137.795 221.778 137.795 221.394 138.016C221.01 138.238 221.01 138.597 221.394 138.819C221.778 139.04 222.4 139.04 222.784 138.819Z" fill="#EAC653"/>
<path d="M212.128 144.167C212.512 144.389 212.512 144.748 212.128 144.969C211.745 145.191 211.122 145.191 210.739 144.969C210.355 144.748 210.355 144.389 210.739 144.167C211.122 143.946 211.745 143.946 212.128 144.167Z" fill="#EAC653"/>
<path d="M201.474 151.12C201.857 150.899 201.857 150.54 201.474 150.318C201.09 150.096 200.468 150.096 200.084 150.318C199.7 150.54 199.7 150.899 200.084 151.12C200.468 151.342 201.09 151.342 201.474 151.12Z" fill="#EAC653"/>
<path d="M190.818 156.469C191.202 156.691 191.202 157.05 190.818 157.272C190.434 157.493 189.812 157.493 189.428 157.272C189.045 157.05 189.045 156.691 189.428 156.469C189.812 156.248 190.434 156.248 190.818 156.469Z" fill="#EAC653"/>
<path d="M180.163 163.423C180.547 163.201 180.547 162.842 180.163 162.62C179.78 162.399 179.157 162.399 178.774 162.62C178.39 162.842 178.39 163.201 178.774 163.423C179.157 163.644 179.78 163.644 180.163 163.423Z" fill="#EAC653"/>
<path d="M169.509 168.772C169.892 168.993 169.892 169.352 169.509 169.574C169.125 169.796 168.503 169.796 168.119 169.574C167.735 169.352 167.735 168.993 168.119 168.772C168.503 168.55 169.125 168.55 169.509 168.772Z" fill="#EAC653"/>
<path d="M158.853 175.725C159.237 175.503 159.237 175.144 158.853 174.923C158.47 174.701 157.847 174.701 157.464 174.923C157.08 175.144 157.08 175.503 157.464 175.725C157.847 175.946 158.47 175.946 158.853 175.725Z" fill="#EAC653"/>
<path d="M148.199 181.074C148.582 181.295 148.582 181.655 148.199 181.876C147.815 182.098 147.193 182.098 146.809 181.876C146.425 181.655 146.425 181.295 146.809 181.074C147.193 180.852 147.815 180.852 148.199 181.074Z" fill="#EAC653"/>
<path d="M137.544 188.027C137.928 187.806 137.928 187.446 137.544 187.225C137.16 187.003 136.538 187.003 136.154 187.225C135.77 187.446 135.77 187.806 136.154 188.027C136.538 188.249 137.16 188.249 137.544 188.027Z" fill="#EAC653"/>
<path d="M126.889 193.376C127.273 193.598 127.273 193.957 126.889 194.178C126.505 194.4 125.883 194.4 125.499 194.178C125.115 193.957 125.115 193.598 125.499 193.376C125.883 193.155 126.505 193.155 126.889 193.376Z" fill="#EAC653"/>
<path d="M116.234 200.329C116.618 200.108 116.618 199.749 116.234 199.527C115.85 199.305 115.228 199.305 114.844 199.527C114.46 199.749 114.46 200.108 114.844 200.329C115.228 200.551 115.85 200.551 116.234 200.329Z" fill="#EAC653"/>
<path d="M105.579 206.481C105.963 206.259 105.963 205.9 105.579 205.678C105.195 205.457 104.573 205.457 104.189 205.678C103.805 205.9 103.805 206.259 104.189 206.481C104.573 206.702 105.195 206.702 105.579 206.481Z" fill="#EAC653"/>
<path d="M116.234 211.83C116.618 212.052 116.618 212.411 116.234 212.633C115.85 212.854 115.228 212.854 114.844 212.633C114.461 212.411 114.461 212.052 114.844 211.83C115.228 211.609 115.85 211.609 116.234 211.83Z" fill="#EAC653"/>
<path d="M126.89 206.482C127.273 206.26 127.273 205.901 126.89 205.679C126.506 205.458 125.884 205.458 125.5 205.679C125.116 205.901 125.116 206.26 125.5 206.482C125.884 206.703 126.506 206.703 126.89 206.482Z" fill="#EAC653"/>
<path d="M137.544 199.528C137.928 199.75 137.928 200.109 137.544 200.33C137.161 200.552 136.538 200.552 136.155 200.33C135.771 200.109 135.771 199.75 136.155 199.528C136.538 199.306 137.161 199.306 137.544 199.528Z" fill="#EAC653"/>
<path d="M148.2 194.179C148.583 193.958 148.583 193.599 148.2 193.377C147.816 193.156 147.194 193.156 146.81 193.377C146.426 193.599 146.426 193.958 146.81 194.179C147.194 194.401 147.816 194.401 148.2 194.179Z" fill="#EAC653"/>
<path d="M158.854 187.226C159.238 187.448 159.238 187.807 158.854 188.029C158.471 188.25 157.848 188.25 157.465 188.029C157.081 187.807 157.081 187.448 157.465 187.226C157.848 187.005 158.471 187.005 158.854 187.226Z" fill="#EAC653"/>
<path d="M169.509 181.877C169.893 181.656 169.893 181.296 169.509 181.075C169.125 180.853 168.503 180.853 168.119 181.075C167.736 181.296 167.736 181.656 168.119 181.877C168.503 182.099 169.125 182.099 169.509 181.877Z" fill="#EAC653"/>
<path d="M180.164 174.924C180.548 175.146 180.548 175.505 180.164 175.726C179.781 175.948 179.158 175.948 178.775 175.726C178.391 175.505 178.391 175.146 178.775 174.924C179.158 174.702 179.781 174.702 180.164 174.924Z" fill="#EAC653"/>
<path d="M190.819 169.575C191.203 169.353 191.203 168.994 190.819 168.773C190.435 168.551 189.813 168.551 189.429 168.773C189.046 168.994 189.046 169.353 189.429 169.575C189.813 169.796 190.435 169.796 190.819 169.575Z" fill="#EAC653"/>
<path d="M201.474 162.622C201.858 162.843 201.858 163.202 201.474 163.424C201.09 163.646 200.468 163.646 200.084 163.424C199.7 163.202 199.7 162.843 200.084 162.622C200.468 162.4 201.09 162.4 201.474 162.622Z" fill="#EAC653"/>
<path d="M212.129 157.273C212.513 157.051 212.513 156.692 212.129 156.47C211.745 156.249 211.123 156.249 210.739 156.47C210.356 156.692 210.356 157.051 210.739 157.273C211.123 157.494 211.745 157.494 212.129 157.273Z" fill="#EAC653"/>
<path d="M222.784 150.319C223.168 150.541 223.168 150.9 222.784 151.122C222.4 151.343 221.778 151.343 221.394 151.122C221.01 150.9 221.01 150.541 221.394 150.319C221.778 150.098 222.4 150.098 222.784 150.319Z" fill="#EAC653"/>
<path d="M233.439 144.97C233.823 144.749 233.823 144.39 233.439 144.168C233.055 143.947 232.433 143.947 232.049 144.168C231.665 144.39 231.665 144.749 232.049 144.97C232.433 145.192 233.055 145.192 233.439 144.97Z" fill="#EAC653"/>
<path d="M244.094 138.017C244.477 138.239 244.477 138.598 244.094 138.82C243.71 139.041 243.088 139.041 242.704 138.82C242.32 138.598 242.32 138.239 242.704 138.017C243.088 137.796 243.71 137.796 244.094 138.017Z" fill="#EAC653"/>
<path d="M254.749 132.668C255.133 132.447 255.133 132.087 254.749 131.866C254.365 131.644 253.743 131.644 253.359 131.866C252.975 132.087 252.975 132.447 253.359 132.668C253.743 132.89 254.365 132.89 254.749 132.668Z" fill="#EAC653"/>
<path d="M265.404 125.715C265.787 125.937 265.787 126.296 265.404 126.517C265.02 126.739 264.398 126.739 264.014 126.517C263.63 126.296 263.63 125.937 264.014 125.715C264.398 125.493 265.02 125.493 265.404 125.715Z" fill="#EAC653"/>
<path d="M276.059 120.366C276.443 120.144 276.443 119.785 276.059 119.564C275.675 119.342 275.053 119.342 274.669 119.564C274.285 119.785 274.285 120.144 274.669 120.366C275.053 120.587 275.675 120.587 276.059 120.366Z" fill="#EAC653"/>
<path d="M126.89 217.982C127.273 218.203 127.273 218.562 126.89 218.784C126.506 219.005 125.884 219.005 125.5 218.784C125.116 218.562 125.116 218.203 125.5 217.982C125.884 217.76 126.506 217.76 126.89 217.982Z" fill="#EAC653"/>
<path d="M137.545 212.633C137.929 212.411 137.929 212.052 137.545 211.83C137.161 211.609 136.539 211.609 136.155 211.83C135.771 212.052 135.771 212.411 136.155 212.633C136.539 212.854 137.161 212.854 137.545 212.633Z" fill="#EAC653"/>
<path d="M148.2 205.679C148.584 205.901 148.584 206.26 148.2 206.482C147.816 206.703 147.194 206.703 146.81 206.482C146.427 206.26 146.427 205.901 146.81 205.679C147.194 205.458 147.816 205.458 148.2 205.679Z" fill="#EAC653"/>
<path d="M158.854 200.33C159.238 200.109 159.238 199.75 158.854 199.528C158.471 199.306 157.848 199.306 157.465 199.528C157.081 199.75 157.081 200.109 157.465 200.33C157.848 200.552 158.471 200.552 158.854 200.33Z" fill="#EAC653"/>
<path d="M169.51 193.377C169.893 193.599 169.893 193.958 169.51 194.179C169.126 194.401 168.504 194.401 168.12 194.179C167.736 193.958 167.736 193.599 168.12 193.377C168.504 193.156 169.126 193.156 169.51 193.377Z" fill="#EAC653"/>
<path d="M180.165 188.028C180.549 187.807 180.549 187.447 180.165 187.226C179.781 187.004 179.159 187.004 178.775 187.226C178.391 187.447 178.391 187.807 178.775 188.028C179.159 188.25 179.781 188.25 180.165 188.028Z" fill="#EAC653"/>
<path d="M190.82 181.075C191.203 181.296 191.203 181.656 190.82 181.877C190.436 182.099 189.814 182.099 189.43 181.877C189.046 181.656 189.046 181.296 189.43 181.075C189.814 180.853 190.436 180.853 190.82 181.075Z" fill="#EAC653"/>
<path d="M201.474 175.726C201.858 175.504 201.858 175.145 201.474 174.923C201.091 174.702 200.468 174.702 200.085 174.923C199.701 175.145 199.701 175.504 200.085 175.726C200.468 175.947 201.091 175.947 201.474 175.726Z" fill="#EAC653"/>
<path d="M212.129 168.773C212.513 168.994 212.513 169.353 212.129 169.575C211.745 169.796 211.123 169.796 210.739 169.575C210.356 169.353 210.356 168.994 210.739 168.773C211.123 168.551 211.745 168.551 212.129 168.773Z" fill="#EAC653"/>
<path d="M222.785 163.424C223.168 163.202 223.168 162.843 222.785 162.621C222.401 162.4 221.779 162.4 221.395 162.621C221.011 162.843 221.011 163.202 221.395 163.424C221.779 163.645 222.401 163.645 222.785 163.424Z" fill="#EAC653"/>
<path d="M233.439 156.47C233.823 156.692 233.823 157.051 233.439 157.273C233.056 157.494 232.433 157.494 232.05 157.273C231.666 157.051 231.666 156.692 232.05 156.47C232.433 156.249 233.056 156.249 233.439 156.47Z" fill="#EAC653"/>
<path d="M244.094 151.121C244.478 150.9 244.478 150.541 244.094 150.319C243.71 150.097 243.088 150.097 242.704 150.319C242.321 150.541 242.321 150.9 242.704 151.121C243.088 151.343 243.71 151.343 244.094 151.121Z" fill="#EAC653"/>
<path d="M254.749 144.168C255.133 144.39 255.133 144.749 254.749 144.97C254.366 145.192 253.743 145.192 253.36 144.97C252.976 144.749 252.976 144.39 253.36 144.168C253.743 143.947 254.366 143.947 254.749 144.168Z" fill="#EAC653"/>
<path d="M265.404 138.82C265.788 138.598 265.788 138.239 265.404 138.017C265.02 137.796 264.398 137.796 264.014 138.017C263.631 138.239 263.631 138.598 264.014 138.82C264.398 139.041 265.02 139.041 265.404 138.82Z" fill="#EAC653"/>
<path d="M276.059 131.866C276.443 132.087 276.443 132.447 276.059 132.668C275.676 132.89 275.053 132.89 274.67 132.668C274.286 132.447 274.286 132.087 274.67 131.866C275.053 131.644 275.676 131.644 276.059 131.866Z" fill="#EAC653"/>
<path d="M286.714 126.517C287.098 126.296 287.098 125.937 286.714 125.715C286.33 125.493 285.708 125.493 285.324 125.715C284.941 125.937 284.941 126.296 285.324 126.517C285.708 126.739 286.33 126.739 286.714 126.517Z" fill="#EAC653"/>
<path d="M137.546 224.132C137.93 224.354 137.93 224.713 137.546 224.935C137.162 225.156 136.54 225.156 136.156 224.935C135.772 224.713 135.772 224.354 136.156 224.132C136.54 223.911 137.162 223.911 137.546 224.132Z" fill="#EAC653"/>
<path d="M148.201 218.784C148.585 218.562 148.585 218.203 148.201 217.982C147.817 217.76 147.195 217.76 146.811 217.982C146.427 218.203 146.427 218.562 146.811 218.784C147.195 219.005 147.817 219.005 148.201 218.784Z" fill="#EAC653"/>
<path d="M158.856 211.83C159.24 212.052 159.24 212.411 158.856 212.633C158.472 212.854 157.85 212.854 157.466 212.633C157.082 212.411 157.082 212.052 157.466 211.83C157.85 211.609 158.472 211.609 158.856 211.83Z" fill="#EAC653"/>
<path d="M169.511 206.482C169.894 206.26 169.894 205.901 169.511 205.679C169.127 205.458 168.505 205.458 168.121 205.679C167.737 205.901 167.737 206.26 168.121 206.482C168.505 206.703 169.127 206.703 169.511 206.482Z" fill="#EAC653"/>
<path d="M180.166 199.528C180.55 199.75 180.55 200.109 180.166 200.331C179.782 200.552 179.16 200.552 178.776 200.331C178.392 200.109 178.392 199.75 178.776 199.528C179.16 199.307 179.782 199.307 180.166 199.528Z" fill="#EAC653"/>
<path d="M190.821 194.179C191.204 193.958 191.204 193.599 190.821 193.377C190.437 193.156 189.815 193.156 189.431 193.377C189.047 193.599 189.047 193.958 189.431 194.179C189.815 194.401 190.437 194.401 190.821 194.179Z" fill="#EAC653"/>
<path d="M201.476 187.226C201.86 187.448 201.86 187.807 201.476 188.029C201.092 188.25 200.47 188.25 200.086 188.029C199.702 187.807 199.702 187.448 200.086 187.226C200.47 187.005 201.092 187.005 201.476 187.226Z" fill="#EAC653"/>
<path d="M212.131 181.877C212.515 181.656 212.515 181.296 212.131 181.075C211.747 180.853 211.125 180.853 210.741 181.075C210.357 181.296 210.357 181.656 210.741 181.877C211.125 182.099 211.747 182.099 212.131 181.877Z" fill="#EAC653"/>
<path d="M222.786 174.924C223.169 175.146 223.169 175.505 222.786 175.726C222.402 175.948 221.78 175.948 221.396 175.726C221.012 175.505 221.012 175.146 221.396 174.924C221.78 174.702 222.402 174.702 222.786 174.924Z" fill="#EAC653"/>
<path d="M233.441 169.575C233.825 169.353 233.825 168.994 233.441 168.773C233.057 168.551 232.435 168.551 232.051 168.773C231.667 168.994 231.667 169.353 232.051 169.575C232.435 169.796 233.057 169.796 233.441 169.575Z" fill="#EAC653"/>
<path d="M244.096 162.622C244.479 162.843 244.479 163.202 244.096 163.424C243.712 163.646 243.09 163.646 242.706 163.424C242.322 163.202 242.322 162.843 242.706 162.622C243.09 162.4 243.712 162.4 244.096 162.622Z" fill="#EAC653"/>
<path d="M254.75 157.273C255.134 157.051 255.134 156.692 254.75 156.47C254.367 156.249 253.744 156.249 253.361 156.47C252.977 156.692 252.977 157.051 253.361 157.273C253.744 157.494 254.367 157.494 254.75 157.273Z" fill="#EAC653"/>
<path d="M265.405 150.319C265.789 150.541 265.789 150.9 265.405 151.122C265.021 151.343 264.399 151.343 264.015 151.122C263.632 150.9 263.632 150.541 264.015 150.319C264.399 150.098 265.021 150.098 265.405 150.319Z" fill="#EAC653"/>
<path d="M276.06 144.97C276.444 144.749 276.444 144.39 276.06 144.168C275.677 143.947 275.054 143.947 274.671 144.168C274.287 144.39 274.287 144.749 274.671 144.97C275.054 145.192 275.677 145.192 276.06 144.97Z" fill="#EAC653"/>
<path d="M286.715 138.017C287.099 138.239 287.099 138.598 286.715 138.82C286.331 139.041 285.709 139.041 285.325 138.82C284.942 138.598 284.942 138.239 285.325 138.017C285.709 137.796 286.331 137.796 286.715 138.017Z" fill="#EAC653"/>
<path d="M297.37 132.668C297.754 132.447 297.754 132.087 297.37 131.866C296.987 131.644 296.364 131.644 295.981 131.866C295.597 132.087 295.597 132.447 295.981 132.668C296.364 132.89 296.987 132.89 297.37 132.668Z" fill="#EAC653"/>
<path d="M148.201 230.284C148.585 230.506 148.585 230.865 148.201 231.087C147.817 231.308 147.195 231.308 146.811 231.087C146.427 230.865 146.427 230.506 146.811 230.284C147.195 230.063 147.817 230.063 148.201 230.284Z" fill="#EAC653"/>
<path d="M158.856 224.935C159.24 224.714 159.24 224.355 158.856 224.133C158.473 223.911 157.85 223.911 157.467 224.133C157.083 224.355 157.083 224.714 157.467 224.935C157.85 225.157 158.473 225.157 158.856 224.935Z" fill="#EAC653"/>
<path d="M169.511 217.982C169.895 218.204 169.895 218.563 169.511 218.784C169.127 219.006 168.505 219.006 168.121 218.784C167.738 218.563 167.738 218.204 168.121 217.982C168.505 217.761 169.127 217.761 169.511 217.982Z" fill="#EAC653"/>
<path d="M180.166 212.633C180.55 212.411 180.55 212.052 180.166 211.831C179.782 211.609 179.16 211.609 178.776 211.831C178.392 212.052 178.392 212.411 178.776 212.633C179.16 212.855 179.782 212.855 180.166 212.633Z" fill="#EAC653"/>
<path d="M190.821 205.68C191.205 205.901 191.205 206.261 190.821 206.482C190.437 206.704 189.815 206.704 189.431 206.482C189.048 206.261 189.048 205.901 189.431 205.68C189.815 205.458 190.437 205.458 190.821 205.68Z" fill="#EAC653"/>
<path d="M201.476 200.331C201.86 200.109 201.86 199.75 201.476 199.528C201.092 199.307 200.47 199.307 200.086 199.528C199.702 199.75 199.702 200.109 200.086 200.331C200.47 200.552 201.092 200.552 201.476 200.331Z" fill="#EAC653"/>
<path d="M212.131 193.378C212.515 193.599 212.515 193.958 212.131 194.18C211.747 194.401 211.125 194.401 210.741 194.18C210.358 193.958 210.358 193.599 210.741 193.378C211.125 193.156 211.747 193.156 212.131 193.378Z" fill="#EAC653"/>
<path d="M222.786 188.029C223.17 187.807 223.17 187.448 222.786 187.226C222.403 187.005 221.78 187.005 221.397 187.226C221.013 187.448 221.013 187.807 221.397 188.029C221.78 188.25 222.403 188.25 222.786 188.029Z" fill="#EAC653"/>
<path d="M233.441 181.075C233.825 181.297 233.825 181.656 233.441 181.878C233.057 182.099 232.435 182.099 232.051 181.878C231.667 181.656 231.667 181.297 232.051 181.075C232.435 180.854 233.057 180.854 233.441 181.075Z" fill="#EAC653"/>
<path d="M244.096 175.726C244.479 175.505 244.479 175.146 244.096 174.924C243.712 174.702 243.09 174.702 242.706 174.924C242.322 175.146 242.322 175.505 242.706 175.726C243.09 175.948 243.712 175.948 244.096 175.726Z" fill="#EAC653"/>
<path d="M254.751 168.773C255.135 168.994 255.135 169.353 254.751 169.575C254.367 169.796 253.745 169.796 253.361 169.575C252.977 169.353 252.977 168.994 253.361 168.773C253.745 168.551 254.367 168.551 254.751 168.773Z" fill="#EAC653"/>
<path d="M265.406 163.424C265.789 163.202 265.789 162.843 265.406 162.622C265.022 162.4 264.4 162.4 264.016 162.622C263.632 162.843 263.632 163.202 264.016 163.424C264.4 163.646 265.022 163.646 265.406 163.424Z" fill="#EAC653"/>
<path d="M276.061 156.47C276.445 156.692 276.445 157.051 276.061 157.273C275.677 157.494 275.055 157.494 274.671 157.273C274.287 157.051 274.287 156.692 274.671 156.47C275.055 156.249 275.677 156.249 276.061 156.47Z" fill="#EAC653"/>
<path d="M286.716 151.122C287.099 150.9 287.099 150.541 286.716 150.319C286.332 150.098 285.71 150.098 285.326 150.319C284.942 150.541 284.942 150.9 285.326 151.122C285.71 151.343 286.332 151.343 286.716 151.122Z" fill="#EAC653"/>
<path d="M297.371 144.169C297.755 144.39 297.755 144.749 297.371 144.971C296.987 145.192 296.365 145.192 295.981 144.971C295.597 144.749 295.597 144.39 295.981 144.169C296.365 143.947 296.987 143.947 297.371 144.169Z" fill="#EAC653"/>
<path d="M308.026 138.82C308.41 138.598 308.41 138.239 308.026 138.017C307.642 137.796 307.02 137.796 306.636 138.017C306.252 138.239 306.252 138.598 306.636 138.82C307.02 139.041 307.642 139.041 308.026 138.82Z" fill="#EAC653"/>
<path d="M158.857 236.436C159.241 236.657 159.241 237.016 158.857 237.238C158.473 237.46 157.851 237.46 157.467 237.238C157.083 237.016 157.083 236.657 157.467 236.436C157.851 236.214 158.473 236.214 158.857 236.436Z" fill="#EAC653"/>
<path d="M169.512 231.087C169.895 230.865 169.895 230.506 169.512 230.284C169.128 230.063 168.506 230.063 168.122 230.284C167.738 230.506 167.738 230.865 168.122 231.087C168.506 231.308 169.128 231.308 169.512 231.087Z" fill="#EAC653"/>
<path d="M180.167 224.133C180.551 224.355 180.551 224.714 180.167 224.935C179.783 225.157 179.161 225.157 178.777 224.935C178.393 224.714 178.393 224.355 178.777 224.133C179.161 223.911 179.783 223.911 180.167 224.133Z" fill="#EAC653"/>
<path d="M190.822 218.784C191.205 218.563 191.205 218.204 190.822 217.982C190.438 217.761 189.816 217.761 189.432 217.982C189.048 218.204 189.048 218.563 189.432 218.784C189.816 219.006 190.438 219.006 190.822 218.784Z" fill="#EAC653"/>
<path d="M201.477 211.831C201.861 212.053 201.861 212.412 201.477 212.634C201.093 212.855 200.471 212.855 200.087 212.634C199.703 212.412 199.703 212.053 200.087 211.831C200.471 211.61 201.093 211.61 201.477 211.831Z" fill="#EAC653"/>
<path d="M212.132 206.482C212.515 206.261 212.515 205.901 212.132 205.68C211.748 205.458 211.126 205.458 210.742 205.68C210.358 205.901 210.358 206.261 210.742 206.482C211.126 206.704 211.748 206.704 212.132 206.482Z" fill="#EAC653"/>
<path d="M222.787 199.529C223.171 199.751 223.171 200.11 222.787 200.331C222.403 200.553 221.781 200.553 221.397 200.331C221.013 200.11 221.013 199.751 221.397 199.529C221.781 199.307 222.403 199.307 222.787 199.529Z" fill="#EAC653"/>
<path d="M233.442 194.18C233.826 193.958 233.826 193.599 233.442 193.378C233.058 193.156 232.436 193.156 232.052 193.378C231.668 193.599 231.668 193.958 232.052 194.18C232.436 194.401 233.058 194.401 233.442 194.18Z" fill="#EAC653"/>
<path d="M244.097 187.227C244.48 187.448 244.48 187.807 244.097 188.029C243.713 188.251 243.091 188.251 242.707 188.029C242.323 187.807 242.323 187.448 242.707 187.227C243.091 187.005 243.713 187.005 244.097 187.227Z" fill="#EAC653"/>
<path d="M254.752 181.878C255.136 181.656 255.136 181.297 254.752 181.075C254.368 180.854 253.746 180.854 253.362 181.075C252.978 181.297 252.978 181.656 253.362 181.878C253.746 182.099 254.368 182.099 254.752 181.878Z" fill="#EAC653"/>
<path d="M265.407 174.924C265.79 175.146 265.79 175.505 265.407 175.727C265.023 175.948 264.401 175.948 264.017 175.727C263.633 175.505 263.633 175.146 264.017 174.924C264.401 174.703 265.023 174.703 265.407 174.924Z" fill="#EAC653"/>
<path d="M276.061 169.575C276.445 169.354 276.445 168.995 276.061 168.773C275.678 168.552 275.055 168.552 274.672 168.773C274.288 168.995 274.288 169.354 274.672 169.575C275.055 169.797 275.678 169.797 276.061 169.575Z" fill="#EAC653"/>
<path d="M286.717 162.622C287.1 162.844 287.1 163.203 286.717 163.425C286.333 163.646 285.711 163.646 285.327 163.425C284.943 163.203 284.943 162.844 285.327 162.622C285.711 162.401 286.333 162.401 286.717 162.622Z" fill="#EAC653"/>
<path d="M297.371 157.273C297.755 157.052 297.755 156.692 297.371 156.471C296.988 156.249 296.365 156.249 295.982 156.471C295.598 156.692 295.598 157.052 295.982 157.273C296.365 157.495 296.988 157.495 297.371 157.273Z" fill="#EAC653"/>
<path d="M308.026 150.32C308.41 150.542 308.41 150.901 308.026 151.122C307.642 151.344 307.02 151.344 306.636 151.122C306.253 150.901 306.253 150.542 306.636 150.32C307.02 150.098 307.642 150.098 308.026 150.32Z" fill="#EAC653"/>
<path d="M318.681 144.971C319.065 144.749 319.065 144.39 318.681 144.169C318.297 143.947 317.675 143.947 317.291 144.169C316.907 144.39 316.907 144.749 317.291 144.971C317.675 145.192 318.297 145.192 318.681 144.971Z" fill="#EAC653"/>
<path d="M169.513 242.587C169.896 242.809 169.896 243.168 169.513 243.389C169.129 243.611 168.507 243.611 168.123 243.389C167.739 243.168 167.739 242.809 168.123 242.587C168.507 242.366 169.129 242.366 169.513 242.587Z" fill="#EAC653"/>
<path d="M180.168 237.239C180.552 237.017 180.552 236.658 180.168 236.436C179.784 236.215 179.162 236.215 178.778 236.436C178.394 236.658 178.394 237.017 178.778 237.239C179.162 237.46 179.784 237.46 180.168 237.239Z" fill="#EAC653"/>
<path d="M190.823 230.285C191.206 230.507 191.206 230.866 190.823 231.088C190.439 231.309 189.817 231.309 189.433 231.088C189.049 230.866 189.049 230.507 189.433 230.285C189.817 230.064 190.439 230.064 190.823 230.285Z" fill="#EAC653"/>
<path d="M201.477 224.936C201.861 224.715 201.861 224.355 201.477 224.134C201.094 223.912 200.471 223.912 200.088 224.134C199.704 224.355 199.704 224.715 200.088 224.936C200.471 225.158 201.094 225.158 201.477 224.936Z" fill="#EAC653"/>
<path d="M212.133 217.983C212.516 218.205 212.516 218.564 212.133 218.785C211.749 219.007 211.127 219.007 210.743 218.785C210.359 218.564 210.359 218.205 210.743 217.983C211.127 217.762 211.749 217.762 212.133 217.983Z" fill="#EAC653"/>
<path d="M222.787 212.634C223.171 212.412 223.171 212.053 222.787 211.832C222.404 211.61 221.781 211.61 221.398 211.832C221.014 212.053 221.014 212.412 221.398 212.634C221.781 212.856 222.404 212.856 222.787 212.634Z" fill="#EAC653"/>
<path d="M233.443 205.681C233.827 205.902 233.827 206.262 233.443 206.483C233.059 206.705 232.437 206.705 232.053 206.483C231.669 206.262 231.669 205.902 232.053 205.681C232.437 205.459 233.059 205.459 233.443 205.681Z" fill="#EAC653"/>
<path d="M244.097 200.332C244.481 200.11 244.481 199.751 244.097 199.529C243.713 199.308 243.091 199.308 242.707 199.529C242.323 199.751 242.323 200.11 242.707 200.332C243.091 200.553 243.713 200.553 244.097 200.332Z" fill="#EAC653"/>
<path d="M254.752 193.379C255.136 193.6 255.136 193.959 254.752 194.181C254.369 194.402 253.746 194.402 253.363 194.181C252.979 193.959 252.979 193.6 253.363 193.379C253.746 193.157 254.369 193.157 254.752 193.379Z" fill="#EAC653"/>
<path d="M265.407 188.03C265.791 187.808 265.791 187.449 265.407 187.227C265.023 187.006 264.401 187.006 264.017 187.227C263.634 187.449 263.634 187.808 264.017 188.03C264.401 188.251 265.023 188.251 265.407 188.03Z" fill="#EAC653"/>
<path d="M276.062 181.076C276.446 181.298 276.446 181.657 276.062 181.879C275.679 182.1 275.056 182.1 274.673 181.879C274.289 181.657 274.289 181.298 274.673 181.076C275.056 180.855 275.679 180.855 276.062 181.076Z" fill="#EAC653"/>
<path d="M286.717 175.727C287.101 175.506 287.101 175.147 286.717 174.925C286.333 174.703 285.711 174.703 285.327 174.925C284.944 175.147 284.944 175.506 285.327 175.727C285.711 175.949 286.333 175.949 286.717 175.727Z" fill="#EAC653"/>
<path d="M297.372 168.774C297.756 168.995 297.756 169.354 297.372 169.576C296.989 169.797 296.366 169.797 295.983 169.576C295.599 169.354 295.599 168.995 295.983 168.774C296.366 168.552 296.989 168.552 297.372 168.774Z" fill="#EAC653"/>
<path d="M308.027 163.425C308.411 163.203 308.411 162.844 308.027 162.623C307.643 162.401 307.021 162.401 306.637 162.623C306.254 162.844 306.254 163.203 306.637 163.425C307.021 163.647 307.643 163.647 308.027 163.425Z" fill="#EAC653"/>
<path d="M318.682 156.472C319.066 156.693 319.066 157.053 318.682 157.274C318.299 157.496 317.676 157.496 317.293 157.274C316.909 157.053 316.909 156.693 317.293 156.472C317.676 156.25 318.299 156.25 318.682 156.472Z" fill="#EAC653"/>
<path d="M329.337 151.123C329.721 150.901 329.721 150.542 329.337 150.32C328.954 150.099 328.331 150.099 327.947 150.32C327.564 150.542 327.564 150.901 327.947 151.123C328.331 151.344 328.954 151.344 329.337 151.123Z" fill="#EAC653"/>
<path d="M180.167 248.739C180.551 248.96 180.551 249.32 180.167 249.541C179.784 249.763 179.161 249.763 178.778 249.541C178.394 249.32 178.394 248.96 178.778 248.739C179.161 248.517 179.784 248.517 180.167 248.739Z" fill="#EAC653"/>
<path d="M190.823 243.39C191.206 243.168 191.206 242.809 190.823 242.588C190.439 242.366 189.817 242.366 189.433 242.588C189.049 242.809 189.049 243.168 189.433 243.39C189.817 243.611 190.439 243.611 190.823 243.39Z" fill="#EAC653"/>
<path d="M201.478 236.437C201.862 236.658 201.862 237.017 201.478 237.239C201.094 237.461 200.472 237.461 200.088 237.239C199.704 237.017 199.704 236.658 200.088 236.437C200.472 236.215 201.094 236.215 201.478 236.437Z" fill="#EAC653"/>
<path d="M212.132 231.088C212.516 230.866 212.516 230.507 212.132 230.285C211.748 230.064 211.126 230.064 210.742 230.285C210.359 230.507 210.359 230.866 210.742 231.088C211.126 231.309 211.748 231.309 212.132 231.088Z" fill="#EAC653"/>
<path d="M222.787 224.134C223.171 224.356 223.171 224.715 222.787 224.937C222.404 225.158 221.781 225.158 221.398 224.937C221.014 224.715 221.014 224.356 221.398 224.134C221.781 223.913 222.404 223.913 222.787 224.134Z" fill="#EAC653"/>
<path d="M233.442 218.785C233.826 218.564 233.826 218.205 233.442 217.983C233.058 217.762 232.436 217.762 232.052 217.983C231.669 218.205 231.669 218.564 232.052 218.785C232.436 219.007 233.058 219.007 233.442 218.785Z" fill="#EAC653"/>
<path d="M244.098 211.832C244.481 212.054 244.481 212.413 244.098 212.635C243.714 212.856 243.092 212.856 242.708 212.635C242.324 212.413 242.324 212.054 242.708 211.832C243.092 211.611 243.714 211.611 244.098 211.832Z" fill="#EAC653"/>
<path d="M254.752 206.483C255.136 206.262 255.136 205.902 254.752 205.681C254.369 205.459 253.746 205.459 253.363 205.681C252.979 205.902 252.979 206.262 253.363 206.483C253.746 206.705 254.369 206.705 254.752 206.483Z" fill="#EAC653"/>
<path d="M265.407 199.53C265.791 199.751 265.791 200.111 265.407 200.332C265.023 200.554 264.401 200.554 264.017 200.332C263.634 200.111 263.634 199.751 264.017 199.53C264.401 199.308 265.023 199.308 265.407 199.53Z" fill="#EAC653"/>
<path d="M276.062 194.181C276.446 193.96 276.446 193.601 276.062 193.379C275.679 193.158 275.056 193.158 274.673 193.379C274.289 193.601 274.289 193.96 274.673 194.181C275.056 194.403 275.679 194.403 276.062 194.181Z" fill="#EAC653"/>
<path d="M286.717 187.228C287.101 187.449 287.101 187.808 286.717 188.03C286.333 188.252 285.711 188.252 285.327 188.03C284.944 187.808 284.944 187.449 285.327 187.228C285.711 187.006 286.333 187.006 286.717 187.228Z" fill="#EAC653"/>
<path d="M297.372 181.879C297.756 181.658 297.756 181.298 297.372 181.077C296.989 180.855 296.366 180.855 295.983 181.077C295.599 181.298 295.599 181.658 295.983 181.879C296.366 182.101 296.989 182.101 297.372 181.879Z" fill="#EAC653"/>
<path d="M308.027 174.925C308.411 175.147 308.411 175.506 308.027 175.728C307.643 175.949 307.021 175.949 306.637 175.728C306.254 175.506 306.254 175.147 306.637 174.925C307.021 174.704 307.643 174.704 308.027 174.925Z" fill="#EAC653"/>
<path d="M318.682 169.576C319.066 169.355 319.066 168.996 318.682 168.774C318.298 168.553 317.676 168.553 317.292 168.774C316.908 168.996 316.908 169.355 317.292 169.576C317.676 169.798 318.298 169.798 318.682 169.576Z" fill="#EAC653"/>
<path d="M329.337 162.623C329.721 162.845 329.721 163.204 329.337 163.426C328.954 163.647 328.331 163.647 327.947 163.426C327.564 163.204 327.564 162.845 327.947 162.623C328.331 162.402 328.954 162.402 329.337 162.623Z" fill="#EAC653"/>
<path d="M339.992 157.274C340.376 157.053 340.376 156.693 339.992 156.472C339.608 156.25 338.986 156.25 338.602 156.472C338.219 156.693 338.219 157.053 338.602 157.274C338.986 157.496 339.608 157.496 339.992 157.274Z" fill="#EAC653"/>
<path d="M190.824 254.89C191.207 255.111 191.207 255.471 190.824 255.692C190.44 255.914 189.818 255.914 189.434 255.692C189.05 255.471 189.05 255.111 189.434 254.89C189.818 254.668 190.44 254.668 190.824 254.89Z" fill="#EAC653"/>
<path d="M201.479 249.541C201.863 249.32 201.863 248.96 201.479 248.739C201.095 248.517 200.473 248.517 200.089 248.739C199.705 248.96 199.705 249.32 200.089 249.541C200.473 249.763 201.095 249.763 201.479 249.541Z" fill="#EAC653"/>
<path d="M212.134 242.588C212.517 242.81 212.517 243.169 212.134 243.39C211.75 243.612 211.128 243.612 210.744 243.39C210.36 243.169 210.36 242.81 210.744 242.588C211.128 242.366 211.75 242.366 212.134 242.588Z" fill="#EAC653"/>
<path d="M222.789 237.239C223.173 237.018 223.173 236.659 222.789 236.437C222.405 236.216 221.783 236.216 221.399 236.437C221.015 236.659 221.015 237.018 221.399 237.239C221.783 237.461 222.405 237.461 222.789 237.239Z" fill="#EAC653"/>
<path d="M233.444 230.286C233.827 230.507 233.827 230.867 233.444 231.088C233.06 231.31 232.438 231.31 232.054 231.088C231.67 230.867 231.67 230.507 232.054 230.286C232.438 230.064 233.06 230.064 233.444 230.286Z" fill="#EAC653"/>
<path d="M244.099 224.937C244.482 224.715 244.482 224.356 244.099 224.134C243.715 223.913 243.092 223.913 242.709 224.134C242.325 224.356 242.325 224.715 242.709 224.937C243.092 225.158 243.715 225.158 244.099 224.937Z" fill="#EAC653"/>
<path d="M254.754 217.984C255.138 218.205 255.138 218.564 254.754 218.786C254.37 219.007 253.748 219.007 253.364 218.786C252.98 218.564 252.98 218.205 253.364 217.984C253.748 217.762 254.37 217.762 254.754 217.984Z" fill="#EAC653"/>
<path d="M265.409 212.635C265.792 212.413 265.792 212.054 265.409 211.832C265.025 211.611 264.403 211.611 264.019 211.832C263.635 212.054 263.635 212.413 264.019 212.635C264.403 212.856 265.025 212.856 265.409 212.635Z" fill="#EAC653"/>
<path d="M276.064 205.681C276.448 205.903 276.448 206.262 276.064 206.484C275.68 206.705 275.058 206.705 274.674 206.484C274.29 206.262 274.29 205.903 274.674 205.681C275.058 205.46 275.68 205.46 276.064 205.681Z" fill="#EAC653"/>
<path d="M286.719 200.332C287.102 200.111 287.102 199.751 286.719 199.53C286.335 199.308 285.713 199.308 285.329 199.53C284.945 199.751 284.945 200.111 285.329 200.332C285.713 200.554 286.335 200.554 286.719 200.332Z" fill="#EAC653"/>
<path d="M297.373 193.379C297.757 193.601 297.757 193.96 297.373 194.181C296.99 194.403 296.367 194.403 295.984 194.181C295.6 193.96 295.6 193.601 295.984 193.379C296.367 193.158 296.99 193.158 297.373 193.379Z" fill="#EAC653"/>
<path d="M308.028 188.03C308.412 187.808 308.412 187.449 308.028 187.228C307.644 187.006 307.022 187.006 306.638 187.228C306.255 187.449 306.255 187.808 306.638 188.03C307.022 188.252 307.644 188.252 308.028 188.03Z" fill="#EAC653"/>
<path d="M318.683 181.077C319.067 181.298 319.067 181.658 318.683 181.879C318.3 182.101 317.677 182.101 317.294 181.879C316.91 181.658 316.91 181.298 317.294 181.077C317.677 180.855 318.3 180.855 318.683 181.077Z" fill="#EAC653"/>
<path d="M329.338 175.728C329.722 175.506 329.722 175.147 329.338 174.925C328.954 174.704 328.332 174.704 327.948 174.925C327.565 175.147 327.565 175.506 327.948 175.728C328.332 175.949 328.954 175.949 329.338 175.728Z" fill="#EAC653"/>
<path d="M339.994 168.775C340.377 168.996 340.377 169.355 339.994 169.577C339.61 169.798 338.988 169.798 338.604 169.577C338.22 169.355 338.22 168.996 338.604 168.775C338.988 168.553 339.61 168.553 339.994 168.775Z" fill="#EAC653"/>
<path d="M350.648 163.426C351.032 163.204 351.032 162.845 350.648 162.623C350.265 162.402 349.642 162.402 349.259 162.623C348.875 162.845 348.875 163.204 349.259 163.426C349.642 163.647 350.265 163.647 350.648 163.426Z" fill="#EAC653"/>
<path d="M201.479 261.042C201.863 261.263 201.863 261.622 201.479 261.844C201.096 262.066 200.473 262.066 200.09 261.844C199.706 261.622 199.706 261.263 200.09 261.042C200.473 260.82 201.096 260.82 201.479 261.042Z" fill="#EAC653"/>
<path d="M212.134 255.693C212.518 255.471 212.518 255.112 212.134 254.89C211.75 254.669 211.128 254.669 210.744 254.89C210.361 255.112 210.361 255.471 210.744 255.693C211.128 255.914 211.75 255.914 212.134 255.693Z" fill="#EAC653"/>
<path d="M222.789 248.739C223.173 248.961 223.173 249.32 222.789 249.542C222.406 249.763 221.783 249.763 221.4 249.542C221.016 249.32 221.016 248.961 221.4 248.739C221.783 248.518 222.406 248.518 222.789 248.739Z" fill="#EAC653"/>
<path d="M233.444 243.39C233.828 243.169 233.828 242.81 233.444 242.588C233.06 242.366 232.438 242.366 232.054 242.588C231.671 242.81 231.671 243.169 232.054 243.39C232.438 243.612 233.06 243.612 233.444 243.39Z" fill="#EAC653"/>
<path d="M244.099 236.437C244.483 236.659 244.483 237.018 244.099 237.239C243.715 237.461 243.093 237.461 242.709 237.239C242.325 237.018 242.325 236.659 242.709 236.437C243.093 236.216 243.715 236.216 244.099 236.437Z" fill="#EAC653"/>
<path d="M254.754 231.088C255.138 230.867 255.138 230.507 254.754 230.286C254.37 230.064 253.748 230.064 253.364 230.286C252.98 230.507 252.98 230.867 253.364 231.088C253.748 231.31 254.37 231.31 254.754 231.088Z" fill="#EAC653"/>
<path d="M265.409 224.135C265.793 224.356 265.793 224.716 265.409 224.937C265.025 225.159 264.403 225.159 264.019 224.937C263.635 224.716 263.635 224.356 264.019 224.135C264.403 223.913 265.025 223.913 265.409 224.135Z" fill="#EAC653"/>
<path d="M276.064 218.786C276.448 218.564 276.448 218.205 276.064 217.984C275.68 217.762 275.058 217.762 274.674 217.984C274.29 218.205 274.29 218.564 274.674 218.786C275.058 219.007 275.68 219.007 276.064 218.786Z" fill="#EAC653"/>
<path d="M286.719 211.833C287.102 212.054 287.102 212.413 286.719 212.635C286.335 212.857 285.713 212.857 285.329 212.635C284.945 212.413 284.945 212.054 285.329 211.833C285.713 211.611 286.335 211.611 286.719 211.833Z" fill="#EAC653"/>
<path d="M297.374 206.484C297.758 206.262 297.758 205.903 297.374 205.681C296.99 205.46 296.368 205.46 295.984 205.681C295.6 205.903 295.6 206.262 295.984 206.484C296.368 206.705 296.99 206.705 297.374 206.484Z" fill="#EAC653"/>
<path d="M308.029 199.53C308.412 199.752 308.412 200.111 308.029 200.333C307.645 200.554 307.023 200.554 306.639 200.333C306.255 200.111 306.255 199.752 306.639 199.53C307.023 199.309 307.645 199.309 308.029 199.53Z" fill="#EAC653"/>
<path d="M318.683 194.182C319.067 193.96 319.067 193.601 318.683 193.38C318.3 193.158 317.677 193.158 317.294 193.38C316.91 193.601 316.91 193.96 317.294 194.182C317.677 194.403 318.3 194.403 318.683 194.182Z" fill="#EAC653"/>
<path d="M329.339 187.228C329.723 187.45 329.723 187.809 329.339 188.031C328.955 188.252 328.333 188.252 327.949 188.031C327.565 187.809 327.565 187.45 327.949 187.228C328.333 187.007 328.955 187.007 329.339 187.228Z" fill="#EAC653"/>
<path d="M339.994 181.88C340.377 181.658 340.377 181.299 339.994 181.077C339.61 180.856 338.988 180.856 338.604 181.077C338.22 181.299 338.22 181.658 338.604 181.88C338.988 182.101 339.61 182.101 339.994 181.88Z" fill="#EAC653"/>
<path d="M350.649 174.926C351.033 175.147 351.033 175.507 350.649 175.728C350.265 175.95 349.643 175.95 349.259 175.728C348.875 175.507 348.875 175.147 349.259 174.926C349.643 174.704 350.265 174.704 350.649 174.926Z" fill="#EAC653"/>
<path d="M361.304 169.577C361.687 169.355 361.687 168.996 361.304 168.775C360.92 168.553 360.298 168.553 359.914 168.775C359.53 168.996 359.53 169.355 359.914 169.577C360.298 169.798 360.92 169.798 361.304 169.577Z" fill="#EAC653"/>
<path d="M212.135 267.193C212.518 267.414 212.518 267.773 212.135 267.995C211.751 268.216 211.129 268.216 210.745 267.995C210.361 267.773 210.361 267.414 210.745 267.193C211.129 266.971 211.751 266.971 212.135 267.193Z" fill="#EAC653"/>
<path d="M222.79 261.844C223.174 261.622 223.174 261.263 222.79 261.042C222.406 260.82 221.784 260.82 221.4 261.042C221.016 261.263 221.016 261.622 221.4 261.844C221.784 262.066 222.406 262.066 222.79 261.844Z" fill="#EAC653"/>
<path d="M233.445 254.891C233.828 255.112 233.828 255.472 233.445 255.693C233.061 255.915 232.439 255.915 232.055 255.693C231.671 255.472 231.671 255.112 232.055 254.891C232.439 254.669 233.061 254.669 233.445 254.891Z" fill="#EAC653"/>
<path d="M244.099 249.542C244.483 249.32 244.483 248.961 244.099 248.739C243.716 248.518 243.093 248.518 242.71 248.739C242.326 248.961 242.326 249.32 242.71 249.542C243.093 249.763 243.716 249.763 244.099 249.542Z" fill="#EAC653"/>
<path d="M254.755 242.589C255.139 242.81 255.139 243.169 254.755 243.391C254.371 243.612 253.749 243.612 253.365 243.391C252.981 243.169 252.981 242.81 253.365 242.589C253.749 242.367 254.371 242.367 254.755 242.589Z" fill="#EAC653"/>
<path d="M265.41 237.24C265.793 237.018 265.793 236.659 265.41 236.438C265.026 236.216 264.404 236.216 264.02 236.438C263.636 236.659 263.636 237.018 264.02 237.24C264.404 237.462 265.026 237.462 265.41 237.24Z" fill="#EAC653"/>
<path d="M276.065 230.286C276.449 230.508 276.449 230.867 276.065 231.089C275.681 231.31 275.059 231.31 274.675 231.089C274.291 230.867 274.291 230.508 274.675 230.286C275.059 230.065 275.681 230.065 276.065 230.286Z" fill="#EAC653"/>
<path d="M286.72 224.937C287.103 224.716 287.103 224.356 286.72 224.135C286.336 223.913 285.714 223.913 285.33 224.135C284.946 224.356 284.946 224.716 285.33 224.937C285.714 225.159 286.336 225.159 286.72 224.937Z" fill="#EAC653"/>
<path d="M297.374 217.984C297.758 218.206 297.758 218.565 297.374 218.786C296.991 219.008 296.368 219.008 295.985 218.786C295.601 218.565 295.601 218.206 295.985 217.984C296.368 217.762 296.991 217.762 297.374 217.984Z" fill="#EAC653"/>
<path d="M308.03 212.635C308.413 212.413 308.413 212.054 308.03 211.833C307.646 211.611 307.024 211.611 306.64 211.833C306.256 212.054 306.256 212.413 306.64 212.635C307.024 212.857 307.646 212.857 308.03 212.635Z" fill="#EAC653"/>
<path d="M318.684 205.682C319.068 205.903 319.068 206.263 318.684 206.484C318.301 206.706 317.678 206.706 317.295 206.484C316.911 206.263 316.911 205.903 317.295 205.682C317.678 205.46 318.301 205.46 318.684 205.682Z" fill="#EAC653"/>
<path d="M329.339 200.333C329.723 200.111 329.723 199.752 329.339 199.53C328.955 199.309 328.333 199.309 327.949 199.53C327.566 199.752 327.566 200.111 327.949 200.333C328.333 200.554 328.955 200.554 329.339 200.333Z" fill="#EAC653"/>
<path d="M339.994 193.38C340.378 193.601 340.378 193.96 339.994 194.182C339.61 194.403 338.988 194.403 338.604 194.182C338.22 193.96 338.22 193.601 338.604 193.38C338.988 193.158 339.61 193.158 339.994 193.38Z" fill="#EAC653"/>
<path d="M350.649 188.031C351.033 187.809 351.033 187.45 350.649 187.228C350.266 187.007 349.643 187.007 349.26 187.228C348.876 187.45 348.876 187.809 349.26 188.031C349.643 188.252 350.266 188.252 350.649 188.031Z" fill="#EAC653"/>
<path d="M361.305 181.077C361.688 181.299 361.688 181.658 361.305 181.88C360.921 182.101 360.299 182.101 359.915 181.88C359.531 181.658 359.531 181.299 359.915 181.077C360.299 180.856 360.921 180.856 361.305 181.077Z" fill="#EAC653"/>
<path d="M371.959 175.728C372.343 175.507 372.343 175.147 371.959 174.926C371.576 174.704 370.953 174.704 370.57 174.926C370.186 175.147 370.186 175.507 370.57 175.728C370.953 175.95 371.576 175.95 371.959 175.728Z" fill="#EAC653"/>
</g>
<path d="M173.319 199.258C173.075 199.116 172.858 198.965 172.671 198.805L172.671 201.724C172.671 202.404 173.139 203.056 173.971 203.537L218.954 229.505C220.688 230.506 223.499 230.506 225.233 229.505L302.182 185.082C303.015 184.602 303.482 183.95 303.482 183.27V179.777C303.294 179.939 303.076 180.092 302.828 180.235L225.387 224.942C223.294 226.15 219.902 226.15 217.809 224.942L173.319 199.258Z" fill="white"/>
<path d="M173.969 195.258C173.069 195.778 172.636 196.465 172.67 197.146L172.671 197.157C172.707 197.784 173.14 198.404 173.969 198.883L218.459 224.567C220.193 225.568 223.004 225.568 224.738 224.567L302.179 179.86C303.913 178.859 303.913 177.236 302.179 176.235L257.689 150.551C255.955 149.55 253.144 149.55 251.41 150.551L173.969 195.258Z" fill="white"/>
<path opacity="0.75" d="M227.152 206.028L227.437 206.192C228.104 206.578 228.537 207.077 228.672 207.616C228.807 208.155 228.636 208.705 228.186 209.184C227.735 209.662 227.028 210.044 226.171 210.272C225.314 210.5 224.353 210.561 223.43 210.448C222.507 210.334 221.673 210.052 221.051 209.642C220.429 209.233 220.053 208.718 219.979 208.175C219.906 207.632 220.138 207.09 220.642 206.629C221.146 206.168 221.894 205.814 222.775 205.619M224.962 204.764L224.965 208.338H223.109" stroke="#EAC653" stroke-linecap="round" stroke-linejoin="round"/>
<path opacity="0.25" d="M231.325 203.082C230.44 202.571 230.44 201.743 231.325 201.232L271.385 178.106C272.269 177.595 273.704 177.595 274.589 178.106C275.474 178.617 275.474 179.445 274.589 179.956L234.53 203.082C233.645 203.593 232.21 203.593 231.325 203.082Z" fill="#EAC653"/>
<path fill-rule="evenodd" clip-rule="evenodd" d="M202.565 191.701C199.617 193.402 199.617 196.159 202.565 197.86C204.925 199.223 208.446 199.493 211.273 198.676C211.587 198.549 211.527 198.399 211.387 198.318C211.26 198.245 210.833 198.007 210.387 197.749C209.293 198.665 208.373 198.534 207.966 198.422C207.753 198.368 207.019 198.245 206.666 198.303C206.379 198.353 205.865 198.365 206.306 198.103C206.719 197.856 207.412 197.91 207.673 197.945C208.96 198.134 209.5 197.56 209.666 197.302C209.366 197.075 209.273 196.859 209.293 196.694C207.973 197.302 206.272 197.752 204.232 196.574C203.652 196.24 203.378 195.843 203.345 195.431C203.158 195.385 202.425 195.177 201.984 194.584C201.984 194.584 202.291 194.245 203.998 194.053C204.305 193.737 204.698 193.441 205.152 193.179C205.605 192.917 206.119 192.69 206.666 192.513C206.992 191.524 207.586 191.351 207.586 191.351C208.613 191.605 208.973 192.028 209.053 192.136C209.766 192.155 210.447 192.309 211.033 192.648C213.081 193.83 212.287 194.811 211.233 195.574C211.594 195.558 212.08 195.647 212.58 195.935C213.294 196.347 213.861 196.682 214.041 196.786C214.181 196.867 214.448 196.906 214.661 196.721C216.061 195.096 215.588 193.06 213.234 191.701C210.287 189.999 205.512 189.999 202.565 191.701Z" fill="#DFB52A"/>
<path opacity="0.5" d="M250.553 167.745C249.855 167.342 248.996 167.342 248.298 167.745L216.375 186.174C215.129 186.893 215.129 188.059 216.375 188.778C217.62 189.497 219.64 189.497 220.885 188.778L250.553 171.651C252.057 170.783 252.057 168.613 250.553 167.745Z" fill="#EAC653"/>
<path opacity="0.75" fill-rule="evenodd" clip-rule="evenodd" d="M171.753 197.165C171.709 196.342 172.231 195.511 173.319 194.883L250.761 150.176C252.853 148.968 256.246 148.968 258.339 150.176L302.828 175.86C303.932 176.497 304.453 177.343 304.393 178.177H304.401V183.27C304.401 184.09 303.837 184.877 302.832 185.457L225.882 229.88C223.79 231.088 220.397 231.088 218.304 229.88L173.322 203.912C172.317 203.332 171.752 202.545 171.752 201.724L171.753 197.165ZM172.671 198.805C172.859 198.965 173.075 199.116 173.319 199.258L217.809 224.942C219.902 226.15 223.295 226.15 225.387 224.942L302.828 180.235C303.076 180.092 303.294 179.939 303.483 179.778V183.27C303.483 183.95 303.015 184.602 302.182 185.082L225.233 229.505C223.499 230.506 220.688 230.506 218.954 229.505L173.971 203.537C173.139 203.056 172.671 202.404 172.671 201.724L172.671 198.805ZM172.671 197.146C172.636 196.465 173.069 195.778 173.969 195.258L251.41 150.551C253.144 149.55 255.955 149.55 257.689 150.551L302.179 176.235C303.913 177.236 303.913 178.859 302.179 179.86L224.738 224.567C223.004 225.568 220.193 225.568 218.459 224.567L173.969 198.883C173.14 198.404 172.708 197.784 172.671 197.157L172.671 197.146Z" fill="#EAC653"/>
<path d="M240.599 103.25C240.599 102.905 240.319 102.625 239.974 102.625C239.628 102.625 239.349 102.905 239.349 103.25L240.599 103.25ZM239.532 189.254C239.776 189.499 240.172 189.499 240.416 189.254L244.393 185.277C244.637 185.033 244.637 184.637 244.393 184.393C244.149 184.149 243.753 184.149 243.509 184.393L239.974 187.929L236.438 184.393C236.194 184.149 235.798 184.149 235.554 184.393C235.31 184.637 235.31 185.033 235.554 185.277L239.532 189.254ZM239.974 103.25L239.349 103.25L239.349 188.812L239.974 188.812L240.599 188.812L240.599 103.25L239.974 103.25Z" fill="url(#paint0_linear_585_3778)"/>
<path opacity="0.75" fill-rule="evenodd" clip-rule="evenodd" d="M96.8071 207.125C96.751 206.294 97.2728 205.452 98.3724 204.817L263.139 109.697C265.231 108.489 268.624 108.489 270.717 109.697L379.283 172.372C380.442 173.041 380.959 173.941 380.834 174.816V181.204C380.834 182.024 380.269 182.811 379.264 183.391L214.931 278.254C212.839 279.462 209.446 279.462 207.354 278.254L98.353 215.328C97.3481 214.748 96.7836 213.961 96.7835 213.141L96.7832 207.125H96.8071ZM97.7019 208.72C97.8944 208.887 98.118 209.045 98.3724 209.191L206.938 271.867C209.031 273.075 212.424 273.075 214.516 271.867L379.283 176.747C379.521 176.61 379.732 176.463 379.915 176.308V181.204C379.915 181.883 379.448 182.535 378.615 183.016L214.282 277.879C212.548 278.88 209.737 278.88 208.003 277.879L99.0025 214.953C98.1699 214.472 97.7021 213.82 97.7021 213.141L97.7019 208.72ZM99.022 208.816C97.2881 207.816 97.2881 206.193 99.022 205.192L263.788 110.072C265.522 109.071 268.333 109.071 270.067 110.072L378.633 172.747C380.367 173.748 380.367 175.371 378.633 176.372L213.867 271.492C212.133 272.493 209.322 272.493 207.588 271.492L99.022 208.816Z" fill="#EAC653"/>
<path d="M107.681 142.117L95.0504 149.409M107.681 142.117L111.47 144.305C111.805 144.498 111.993 144.761 111.993 145.034C111.993 145.307 111.805 145.57 111.47 145.763L101.366 151.596C101.031 151.79 100.576 151.899 100.103 151.899C99.6289 151.899 99.1746 151.79 98.8396 151.596L95.0504 149.409M107.681 142.117L101.151 140.863C100.836 140.802 100.498 140.793 100.174 140.837C99.8507 140.88 99.5547 140.976 99.3196 141.111L93.3074 144.582C93.0726 144.718 92.9079 144.889 92.8321 145.075C92.7562 145.262 92.7721 145.457 92.878 145.639L95.0504 149.409M100.103 149.409L100.109 149.405M102.629 147.951L102.635 147.947" stroke="#EAC653" stroke-linecap="round" stroke-linejoin="round"/>
<path opacity="0.75" fill-rule="evenodd" clip-rule="evenodd" d="M73.8335 152.467L73.8335 145.98C73.7289 145.118 74.2476 144.235 75.3897 143.576L97.5864 130.762C99.679 129.553 103.072 129.553 105.164 130.762L127.361 143.576C128.559 144.267 129.071 145.205 128.897 146.107L128.897 168.654C128.897 169.474 128.332 170.261 127.328 170.841L105.154 183.642C103.062 184.85 99.6689 184.85 97.5763 183.642L94.3971 181.806L94.397 188.529C94.397 189.349 93.8325 190.136 92.8276 190.716L70.6542 203.517C68.5616 204.725 65.1689 204.725 63.0763 203.517L40.9029 190.716C39.898 190.136 39.3334 189.349 39.3334 188.529L39.3335 165.856C39.2289 164.993 39.7476 164.11 40.8897 163.451L63.0864 150.637C65.179 149.429 68.5717 149.429 70.6643 150.637L73.8335 152.467ZM74.7521 147.507C74.9371 147.663 75.1496 147.812 75.3897 147.95L97.5864 160.764C98.4894 161.286 99.6345 161.582 100.813 161.654V183.998C99.8671 183.929 98.952 183.686 98.2258 183.267L94.3971 181.056L94.3972 165.983C94.5713 165.081 94.0592 164.143 92.8609 163.451L74.752 152.997L74.7521 147.507ZM101.563 184.015V161.669C102.871 161.642 104.166 161.341 105.164 160.764L127.361 147.95C127.592 147.817 127.798 147.674 127.979 147.524L127.978 168.654C127.978 169.333 127.511 169.985 126.678 170.466L104.505 183.267C103.688 183.738 102.632 183.987 101.563 184.015ZM74.7521 145.961C74.8305 146.549 75.2596 147.125 76.0393 147.575L98.2359 160.389C99.9698 161.39 102.781 161.39 104.515 160.389L126.711 147.575C127.44 147.155 127.862 146.624 127.979 146.076V145.503H127.989C127.889 144.936 127.464 144.385 126.711 143.951L104.515 131.136C102.781 130.136 99.9698 130.136 98.2359 131.136L76.0393 143.951C75.1769 144.448 74.7434 145.1 74.7389 145.753H74.7521V145.961ZM40.8897 167.826C40.6496 167.687 40.4371 167.539 40.2521 167.383L40.252 188.529C40.252 189.209 40.7198 189.861 41.5524 190.341L63.7258 203.142C64.452 203.561 65.3671 203.805 66.3128 203.873V181.529C65.1345 181.458 63.9894 181.161 63.0864 180.64L40.8897 167.826ZM41.5393 163.826C40.6769 164.324 40.2434 164.976 40.2389 165.628H40.2521L40.2521 165.836C40.3305 166.425 40.7596 167.001 41.5393 167.451L63.7359 180.265C65.4698 181.266 68.2809 181.266 70.0147 180.265L92.2114 167.451C92.9399 167.03 93.3624 166.5 93.4787 165.952L93.4787 165.378H93.489C93.3894 164.812 92.9636 164.26 92.2114 163.826L70.0147 151.012C68.2809 150.011 65.4698 150.011 63.7359 151.012L41.5393 163.826ZM92.8609 167.826C93.0924 167.692 93.2984 167.549 93.4786 167.399L93.4785 188.529C93.4785 189.209 93.0107 189.861 92.1781 190.341L70.0046 203.142C69.188 203.614 68.1323 203.863 67.0628 203.89V181.544C68.371 181.518 69.6657 181.216 70.6643 180.64L92.8609 167.826Z" fill="#EAC653"/>
<path d="M64.9227 166.675L62.579 165.322M64.9227 166.675C64.9659 166.7 64.9659 166.74 64.9227 166.765L61.954 168.479C61.9108 168.504 61.8409 168.504 61.7977 168.479L59.454 167.126C59.4108 167.101 59.4108 167.061 59.454 167.036L62.4227 165.322C62.4659 165.297 62.5358 165.297 62.579 165.322M64.9227 166.675C64.9659 166.7 65.0358 166.7 65.079 166.675L68.0477 164.961C68.0909 164.936 68.0909 164.896 68.0477 164.871L65.704 163.518C65.6608 163.493 65.5909 163.493 65.5477 163.518L62.579 165.232C62.5358 165.257 62.5358 165.297 62.579 165.322M70.4447 161.751C70.6215 161.649 72.1184 161.672 72.9642 161.548C73.3896 162.149 73.5355 163.112 72.7445 163.383C74.3842 165.971 73.8315 167.44 71.2649 168.922C68.6892 170.409 64.7126 171.552 61.0071 169.111C60.969 169.086 60.97 169.047 61.011 169.023L68.7509 164.555C69.244 164.281 69.8798 163.849 69.6649 163.715C68.5038 163.573 68.1156 162.943 67.6096 162.06C68.2026 161.99 70.1887 161.603 70.4447 161.751ZM61.0165 166.134L63.9852 164.42C64.0284 164.395 64.0284 164.355 63.9852 164.33L61.6415 162.977C61.5983 162.952 61.5284 162.952 61.4852 162.977L58.5165 164.691C58.4733 164.715 58.4733 164.756 58.5165 164.781L60.8602 166.134C60.9034 166.159 60.9733 166.159 61.0165 166.134Z" stroke="#EAC653"/>
<path fill-rule="evenodd" clip-rule="evenodd" d="M232.473 58.7343C228.329 61.1265 228.329 65.0016 232.473 67.3938C235.791 69.3097 240.741 69.6886 244.716 68.5412C245.157 68.3626 245.073 68.1515 244.876 68.0379C244.698 67.935 244.098 67.5995 243.469 67.2369C241.932 68.525 240.638 68.341 240.066 68.184C239.766 68.1082 238.735 67.935 238.238 68.0162C237.835 68.0866 237.113 68.1028 237.732 67.7348C238.313 67.3884 239.288 67.4642 239.654 67.5129C241.463 67.7781 242.223 66.9717 242.457 66.6091C242.035 66.2897 241.904 65.9867 241.932 65.7539C240.076 66.6091 237.685 67.2423 234.816 65.5862C234.001 65.1153 233.616 64.5578 233.569 63.9787C233.307 63.9138 232.276 63.6215 231.657 62.7881C231.657 62.7881 232.088 62.3118 234.488 62.0412C234.919 61.5974 235.473 61.1806 236.11 60.8126C236.748 60.4446 237.469 60.1253 238.238 59.8763C238.698 58.4854 239.532 58.2418 239.532 58.2418C240.976 58.599 241.482 59.1944 241.594 59.3459C242.598 59.373 243.554 59.5895 244.379 60.0657C247.257 61.7273 246.141 63.1074 244.66 64.179C245.166 64.1573 245.851 64.2818 246.554 64.6877C247.557 65.2668 248.354 65.7377 248.607 65.8838C248.804 65.9975 249.179 66.0516 249.479 65.7918C251.448 63.5079 250.782 60.6448 247.473 58.7343C243.329 56.3421 236.616 56.3421 232.473 58.7343Z" fill="#DFB52A"/>
<path opacity="0.75" d="M212.792 63.3039L212.792 86.2047C212.792 86.9547 213.308 87.6741 214.227 88.2045L236.401 101.005C238.314 102.11 241.416 102.11 243.329 101.005L265.502 88.2045C266.421 87.6741 266.937 86.9548 266.937 86.2047L266.937 63.054M239.972 101.721V78.6164M243.437 77.8781L265.633 65.064C267.547 63.9595 267.547 62.1687 265.633 61.0643L243.437 48.2501C241.523 47.1456 238.422 47.1456 236.508 48.2501L214.312 61.0643C212.398 62.1687 212.398 63.9595 214.312 65.064L236.508 77.8781C238.422 78.9826 241.523 78.9826 243.437 77.8781Z" stroke="#EAC653" stroke-width="0.75"/>
</g>
<defs>
<linearGradient id="paint0_linear_585_3778" x1="240.474" y1="103.25" x2="240.474" y2="188.813" gradientUnits="userSpaceOnUse">
<stop stop-color="#EAC653" stop-opacity="0"/>
<stop offset="1" stop-color="#EAC653" stop-opacity="0.917647"/>
</linearGradient>
<clipPath id="clip0_585_3778">
<rect width="300" height="220" fill="white"/>
</clipPath>
</defs>
</svg>
