<svg width="299" height="219" viewBox="0 0 299 219" fill="none" xmlns="http://www.w3.org/2000/svg">
<g clip-path="url(#clip0_585_3794)">
<path d="M115.866 131.337C115.625 131.198 115.413 131.05 115.227 130.893V138.126C115.227 138.805 115.695 139.457 116.528 139.938L292.865 241.738C294.599 242.739 297.41 242.739 299.144 241.738L418.8 172.66C419.633 172.179 420.101 171.527 420.101 170.848V164.045C419.914 164.204 419.698 164.355 419.455 164.495L300.168 233.36C298.075 234.568 294.682 234.568 292.59 233.36L115.866 131.337Z" fill="white"/>
<path d="M116.515 127.338C115.66 127.831 115.227 128.476 115.215 129.123H115.227V129.34C115.303 129.932 115.733 130.51 116.515 130.962L293.239 232.985C294.973 233.986 297.784 233.986 299.518 232.985L418.805 164.12C419.619 163.651 420.051 163.044 420.101 162.429V162.333H420.105C420.116 161.669 419.683 161.003 418.805 160.496L242.081 58.4731C240.348 57.4722 237.536 57.4722 235.803 58.4731L116.515 127.338Z" fill="white"/>
<path d="M106.49 138.458L114.309 133.948V138.126C114.309 138.946 114.873 139.733 115.878 140.313L292.215 242.113C294.308 243.321 297.701 243.321 299.793 242.113L419.45 173.035C420.454 172.455 421.019 171.668 421.019 170.848V169.943L427.3 173.602C429.039 174.616 429.032 176.25 427.285 177.258L300.492 250.456C298.739 251.468 295.897 251.468 294.144 250.456L106.489 142.123C105.646 141.636 105.208 141.004 105.176 140.366L105.176 140.25H105.175C105.192 139.6 105.631 138.953 106.49 138.458Z" fill="#F4FAF8"/>
<path d="M428.602 177.176C428.412 177.339 428.191 177.493 427.942 177.637L301.148 250.835C299.033 252.056 295.603 252.056 293.488 250.835L105.832 142.502C105.585 142.359 105.366 142.205 105.176 142.044L105.176 146.17C105.177 146.857 105.649 147.516 106.491 148.002L293.777 256.122C295.53 257.134 298.371 257.134 300.124 256.122L427.288 182.71C428.129 182.224 428.602 181.565 428.602 180.878V177.176Z" fill="#F4FAF8"/>
<path opacity="0.75" fill-rule="evenodd" clip-rule="evenodd" d="M114.309 129.359C114.208 128.499 114.727 127.62 115.866 126.963L235.153 58.0981C237.246 56.8901 240.638 56.8901 242.731 58.0981L419.455 160.121C420.559 160.758 421.081 161.605 421.019 162.44V169.182L427.959 173.225C428.996 173.829 429.519 174.616 429.528 175.404H429.531V180.878C429.531 181.707 428.96 182.503 427.945 183.089L300.781 256.501C298.665 257.722 295.236 257.722 293.12 256.501L105.835 148.381C104.819 147.794 104.248 146.999 104.248 146.17L104.248 140.374C104.21 139.545 104.738 138.71 105.834 138.078L114.309 133.19V129.359ZM115.227 130.893C115.413 131.05 115.626 131.198 115.866 131.337L292.59 233.36C294.682 234.568 298.075 234.568 300.168 233.36L419.455 164.495C419.698 164.355 419.914 164.204 420.101 164.045V170.848C420.101 171.527 419.633 172.179 418.8 172.66L299.144 241.738C297.41 242.739 294.599 242.739 292.865 241.738L116.528 139.938C115.695 139.457 115.227 138.805 115.227 138.126V130.893ZM115.215 129.123C115.227 128.476 115.661 127.831 116.516 127.338L235.803 58.4731C237.536 57.4721 240.348 57.4721 242.081 58.4731L418.805 160.496C419.683 161.002 420.116 161.669 420.105 162.333H420.101V162.429C420.051 163.044 419.619 163.651 418.805 164.12L299.518 232.985C297.784 233.986 294.973 233.986 293.239 232.985L116.516 130.962C115.733 130.51 115.303 129.931 115.227 129.34V129.123H115.215ZM114.309 133.948L106.49 138.457C105.631 138.953 105.192 139.6 105.175 140.25H105.176L105.176 140.366C105.209 141.004 105.646 141.636 106.489 142.123L294.145 250.456C295.897 251.468 298.739 251.468 300.492 250.456L427.285 177.258C429.032 176.25 429.039 174.616 427.3 173.602L421.019 169.943V170.848C421.019 171.668 420.455 172.455 419.45 173.035L299.794 242.113C297.701 243.321 294.308 243.321 292.216 242.113L115.878 140.313C114.873 139.733 114.309 138.946 114.309 138.126V133.948ZM427.942 177.637C428.192 177.493 428.412 177.338 428.603 177.176V180.878C428.603 181.565 428.13 182.224 427.288 182.71L300.124 256.122C298.371 257.133 295.53 257.133 293.777 256.122L106.491 148.002C105.65 147.516 105.177 146.857 105.177 146.17L105.176 142.044C105.366 142.205 105.585 142.359 105.832 142.502L293.488 250.835C295.603 252.056 299.033 252.056 301.148 250.835L427.942 177.637Z" fill="#72C09C"/>
<g opacity="0.5">
<path d="M241.812 63.3814C242.742 63.9185 242.742 64.7895 241.812 65.3267C240.881 65.8639 239.372 65.8639 238.442 65.3267C237.511 64.7895 237.511 63.9185 238.442 63.3814C239.372 62.8442 240.881 62.8442 241.812 63.3814Z" fill="#72C09C"/>
<path d="M233.78 68.0064C234.711 68.5435 234.711 69.4145 233.78 69.9517C232.85 70.4889 231.341 70.4889 230.411 69.9517C229.48 69.4145 229.48 68.5435 230.411 68.0064C231.341 67.4692 232.85 67.4692 233.78 68.0064Z" fill="#72C09C"/>
<path d="M225.812 72.6314C226.742 73.1685 226.742 74.0395 225.812 74.5767C224.881 75.1139 223.372 75.1139 222.442 74.5767C221.511 74.0395 221.511 73.1685 222.442 72.6314C223.372 72.0942 224.881 72.0942 225.812 72.6314Z" fill="#72C09C"/>
<path d="M217.749 77.2251C218.68 77.7623 218.68 78.6333 217.749 79.1705C216.819 79.7077 215.31 79.7077 214.379 79.1705C213.449 78.6333 213.449 77.7623 214.379 77.2251C215.31 76.6879 216.819 76.6879 217.749 77.2251Z" fill="#72C09C"/>
<path d="M209.718 81.9126C210.648 82.4498 210.648 83.3208 209.718 83.858C208.787 84.3952 207.279 84.3952 206.348 83.858C205.418 83.3208 205.418 82.4498 206.348 81.9126C207.279 81.3754 208.787 81.3754 209.718 81.9126Z" fill="#72C09C"/>
<path d="M201.718 86.5064C202.648 87.0435 202.648 87.9145 201.718 88.4517C200.787 88.9889 199.279 88.9889 198.348 88.4517C197.418 87.9145 197.418 87.0435 198.348 86.5064C199.279 85.9692 200.787 85.9692 201.718 86.5064Z" fill="#72C09C"/>
<path d="M193.843 91.0376C194.773 91.5748 194.773 92.4458 193.843 92.983C192.912 93.5202 191.404 93.5202 190.473 92.983C189.543 92.4458 189.543 91.5748 190.473 91.0376C191.404 90.5004 192.912 90.5004 193.843 91.0376Z" fill="#72C09C"/>
<path d="M185.937 95.6001C186.867 96.1373 186.867 97.0083 185.937 97.5455C185.006 98.0827 183.497 98.0827 182.567 97.5455C181.636 97.0083 181.636 96.1373 182.567 95.6001C183.497 95.0629 185.006 95.0629 185.937 95.6001Z" fill="#72C09C"/>
<path d="M177.984 100.186C178.915 100.723 178.915 101.594 177.984 102.131C177.054 102.668 175.545 102.668 174.615 102.131C173.684 101.594 173.684 100.723 174.615 100.186C175.545 99.6484 177.054 99.6484 177.984 100.186Z" fill="#72C09C"/>
<path d="M170.078 104.842C171.009 105.379 171.009 106.25 170.078 106.787C169.148 107.324 167.639 107.324 166.708 106.787C165.778 106.25 165.778 105.379 166.708 104.842C167.639 104.305 169.148 104.305 170.078 104.842Z" fill="#72C09C"/>
<path d="M162.047 109.404C162.977 109.941 162.977 110.812 162.047 111.35C161.116 111.887 159.608 111.887 158.677 111.35C157.747 110.812 157.747 109.941 158.677 109.404C159.608 108.867 161.116 108.867 162.047 109.404Z" fill="#72C09C"/>
<path d="M153.922 114.092C154.852 114.629 154.852 115.5 153.922 116.037C152.991 116.574 151.483 116.574 150.552 116.037C149.622 115.5 149.622 114.629 150.552 114.092C151.483 113.555 152.991 113.555 153.922 114.092Z" fill="#72C09C"/>
<path d="M146.022 118.679C146.952 119.216 146.952 120.087 146.022 120.625C145.091 121.162 143.582 121.162 142.652 120.625C141.721 120.087 141.721 119.216 142.652 118.679C143.582 118.142 145.091 118.142 146.022 118.679Z" fill="#72C09C"/>
<path d="M138.115 123.242C139.046 123.779 139.046 124.65 138.115 125.187C137.185 125.724 135.676 125.724 134.746 125.187C133.815 124.65 133.815 123.779 134.746 123.242C135.676 122.705 137.185 122.705 138.115 123.242Z" fill="#72C09C"/>
<path d="M130.147 127.835C131.077 128.373 131.077 129.244 130.147 129.781C129.216 130.318 127.707 130.318 126.777 129.781C125.846 129.244 125.846 128.373 126.777 127.835C127.707 127.298 129.216 127.298 130.147 127.835Z" fill="#72C09C"/>
</g>
<path opacity="0.75" d="M231.236 56.9806C229.615 57.7292 228.729 59.7742 228.889 62.3565C230.093 63.3867 231.173 64.8117 231.958 66.5131C232.538 67.7697 232.899 69.0488 233.05 70.2679L232.305 70.3599C232.164 69.2208 231.826 68.0165 231.277 66.8275C230.319 64.7525 228.913 63.142 227.432 62.2079C225.947 61.2714 224.434 61.0381 223.205 61.6056C221.595 62.3488 220.711 64.3698 220.854 66.9256C222.085 67.9599 223.19 69.4058 223.989 71.1381C224.57 72.3947 224.93 73.6738 225.081 74.8929L224.337 74.9849C224.196 73.8458 223.857 72.6415 223.308 71.4525C222.35 69.3775 220.944 67.767 219.463 66.8329C217.978 65.8964 216.465 65.6631 215.236 66.2306C213.616 66.9788 212.73 69.0218 212.889 71.6018C214.08 72.6299 215.148 74.0451 215.927 75.7319C216.507 76.9885 216.868 78.2675 217.018 79.4866L216.274 79.5787C216.133 78.4395 215.795 77.2353 215.246 76.0462C214.288 73.9713 212.882 72.3608 211.4 71.4266C209.916 70.4902 208.403 70.2569 207.174 70.8243C205.538 71.5793 204.652 73.653 204.831 76.2664C206.033 77.2963 207.111 78.72 207.896 80.4194C208.476 81.676 208.836 82.955 208.987 84.1741L208.243 84.2662C208.102 83.127 207.764 81.9228 207.215 80.7337C206.257 78.6588 204.85 77.0483 203.369 76.1141C201.884 75.1777 200.371 74.9444 199.142 75.5118C197.534 76.2546 196.65 78.2733 196.792 80.8268C198.01 81.8593 199.103 83.2954 199.896 85.0131C200.476 86.2697 200.836 87.5488 200.987 88.7679L200.243 88.8599C200.102 87.7208 199.764 86.5165 199.215 85.3275C198.257 83.2525 196.85 81.642 195.369 80.7079C193.884 79.7714 192.371 79.5381 191.142 80.1056C189.57 80.8314 188.69 82.776 188.784 85.2472C190.055 86.2866 191.199 87.7642 192.021 89.5443C192.601 90.801 192.961 92.08 193.112 93.2991L192.368 93.3912C192.227 92.252 191.889 91.0478 191.34 89.8587C190.515 88.0736 189.359 86.6322 188.109 85.6695L188.057 85.6735L188.053 85.6267C187.869 85.4869 187.682 85.3576 187.494 85.2391C186.009 84.3027 184.496 84.0694 183.267 84.6368C181.683 85.3684 180.801 87.3381 180.911 89.8373C182.169 90.8752 183.3 92.3425 184.114 94.1068C184.695 95.3635 185.055 96.6425 185.206 97.8616L184.462 97.9537C184.321 96.8145 183.982 95.6103 183.433 94.4212C182.475 92.3463 181.069 90.7358 179.588 89.8016C178.103 88.8652 176.59 88.6319 175.361 89.1993C173.763 89.9371 172.88 91.9341 173.008 94.4634C174.246 95.4988 175.358 96.9508 176.162 98.6923C176.742 99.9489 177.103 101.228 177.254 102.447L176.509 102.539C176.368 101.4 176.03 100.196 175.481 99.0067C174.523 96.9317 173.117 95.3212 171.636 94.3871C170.151 93.4506 168.638 93.2173 167.409 93.7848C165.804 94.5259 164.92 96.5375 165.057 99.083C166.313 100.121 167.442 101.586 168.256 103.349C168.836 104.605 169.197 105.884 169.347 107.103L168.603 107.195C168.462 106.056 168.124 104.852 167.575 103.663C166.617 101.588 165.211 99.9775 163.73 99.0433C162.245 98.1069 160.732 97.8736 159.503 98.441C157.895 99.1833 157.011 101.2 157.152 103.751C158.357 104.782 159.438 106.208 160.225 107.911C160.805 109.168 161.165 110.447 161.316 111.666L160.572 111.758C160.431 110.619 160.093 109.414 159.544 108.225C158.586 106.15 157.179 104.54 155.698 103.606C154.214 102.669 152.7 102.436 151.471 103.004C149.822 103.765 148.934 105.869 149.134 108.515L149.117 108.516C150.286 109.54 151.333 110.938 152.1 112.599C152.68 113.855 153.04 115.134 153.191 116.353L152.447 116.445C152.306 115.306 151.968 114.102 151.419 112.913C150.461 110.838 149.054 109.227 147.573 108.293C146.089 107.357 144.575 107.124 143.346 107.691C141.757 108.425 140.875 110.403 140.991 112.912C142.251 113.951 143.384 115.419 144.199 117.186C144.779 118.443 145.14 119.722 145.291 120.941L144.546 121.033C144.406 119.894 144.067 118.689 143.518 117.5C142.56 115.425 141.154 113.815 139.673 112.881C138.188 111.944 136.675 111.711 135.446 112.278C133.861 113.01 132.98 114.98 133.09 117.479C134.347 118.517 135.478 119.984 136.293 121.748C136.873 123.005 137.234 124.284 137.385 125.503L136.64 125.595C136.499 124.456 136.161 123.252 135.612 122.063C134.654 119.988 133.248 118.377 131.767 117.443C130.282 116.507 128.769 116.273 127.54 116.841C125.937 117.581 125.053 119.588 125.188 122.128C126.419 123.163 127.524 124.609 128.324 126.342C128.904 127.599 129.265 128.878 129.416 130.097L128.671 130.189C128.531 129.05 128.192 127.846 127.643 126.657C126.685 124.582 125.279 122.971 123.798 122.037C122.313 121.101 120.8 120.867 119.571 121.435C117.921 122.196 117.034 124.3 117.233 126.946L116.485 127.003C116.275 124.219 117.191 121.707 119.257 120.754C120.793 120.044 122.581 120.383 124.198 121.403C124.274 121.451 124.35 121.5 124.425 121.551C124.447 119.12 125.374 117.015 127.225 116.16C128.762 115.451 130.55 115.789 132.167 116.809C132.222 116.844 132.277 116.879 132.332 116.916C132.372 114.516 133.299 112.444 135.132 111.597C136.668 110.888 138.456 111.227 140.073 112.246C140.126 112.28 140.179 112.314 140.232 112.349C140.267 109.94 141.194 107.859 143.032 107.01C144.568 106.301 146.356 106.639 147.973 107.659C148.102 107.74 148.23 107.826 148.357 107.916C148.328 105.4 149.255 103.201 151.157 102.323C152.693 101.613 154.481 101.952 156.098 102.971C156.195 103.033 156.292 103.096 156.388 103.163C156.407 100.727 157.334 98.616 159.188 97.7601C160.725 97.0508 162.513 97.3891 164.13 98.409C164.185 98.4436 164.239 98.4791 164.294 98.5154C164.311 96.0759 165.238 93.9608 167.095 93.1038C168.631 92.3945 170.419 92.7329 172.036 93.7527C172.106 93.7972 172.177 93.843 172.247 93.8901C172.273 91.4674 173.201 89.3707 175.047 88.5184C176.583 87.8091 178.371 88.1474 179.988 89.1673C180.043 89.2022 180.099 89.2379 180.154 89.2744C180.193 86.8743 181.12 84.802 182.953 83.9559C184.489 83.2466 186.277 83.5849 187.894 84.6048C187.94 84.6333 187.985 84.6623 188.03 84.6919C188.081 82.3136 189.008 80.2647 190.828 79.4246C192.364 78.7153 194.152 79.0537 195.769 80.0735C195.856 80.128 195.942 80.1846 196.028 80.2431C196.044 77.8033 196.972 75.6879 198.828 74.8309C200.364 74.1216 202.152 74.4599 203.769 75.4798C203.866 75.5409 203.963 75.6046 204.059 75.6707C204.046 73.1825 204.974 71.0139 206.859 70.1434C208.395 69.4341 210.184 69.7724 211.801 70.7923C211.908 70.86 212.015 70.9309 212.121 71.0048C212.127 68.5469 213.054 66.4117 214.922 65.5496C216.458 64.8403 218.246 65.1787 219.863 66.1985C219.939 66.2464 220.015 66.2958 220.09 66.3468C220.104 63.9028 221.032 61.7829 222.89 60.9246C224.427 60.2153 226.215 60.5537 227.832 61.5735C227.929 61.6346 228.025 61.6983 228.121 61.7644C228.125 59.3025 229.052 57.1628 230.922 56.2996C232.458 55.5903 234.246 55.9287 235.863 56.9485C237.484 57.9707 238.98 59.7011 239.989 61.8881C240.57 63.1447 240.93 64.4238 241.081 65.6429L240.337 65.7349C240.196 64.5958 239.857 63.3915 239.308 62.2025C238.35 60.1275 236.944 58.517 235.463 57.5829C233.978 56.6464 232.465 56.4131 231.236 56.9806Z" fill="#72C09C"/>
<path opacity="0.5" d="M114.791 134.8L148.562 154.296" stroke="#72C09C" stroke-width="0.75"/>
<rect opacity="0.75" width="11.4307" height="11.4307" rx="2" transform="matrix(0.866044 -0.499967 0.866044 0.499967 159.113 139.316)" fill="#F4FAF8" stroke="#72C09C" stroke-width="0.75"/>
<rect opacity="0.75" width="11.4307" height="11.4307" rx="2" transform="matrix(0.866044 -0.499967 0.866044 0.499967 239.943 186.022)" stroke="#72C09C" stroke-width="0.75"/>
<rect opacity="0.75" width="11.4307" height="11.4307" rx="2" transform="matrix(0.866044 -0.499967 0.866044 0.499967 211.943 170.022)" fill="#F4FAF8" stroke="#72C09C" stroke-width="0.75"/>
<rect opacity="0.75" width="11.4307" height="11.4307" rx="2" transform="matrix(0.866044 -0.499967 0.866044 0.499967 183.613 153.566)" fill="#F4FAF8" stroke="#72C09C" stroke-width="0.75"/>
<rect opacity="0.75" width="11.4307" height="11.4307" rx="2" transform="matrix(0.866044 -0.499967 0.866044 0.499967 269.006 203.022)" stroke="#72C09C" stroke-width="0.75"/>
<path d="M172.284 129.571L172.284 139.113H164.771M196.784 143.821V153.363H189.271M225.114 160.277V169.819H217.601" stroke="#72C09C" stroke-width="1.5" stroke-linecap="round" stroke-linejoin="round"/>
<g opacity="0.6">
<path d="M270.312 182.637C269.141 181.96 269.141 180.864 270.312 180.187L316.433 153.562C317.604 152.886 319.504 152.886 320.675 153.562C321.847 154.238 321.847 155.335 320.675 156.011L274.555 182.637C273.383 183.313 271.484 183.313 270.312 182.637Z" fill="#DFF1E9"/>
<path d="M182.562 129.887C181.391 129.21 181.391 128.114 182.562 127.437L197.34 118.906C197.997 118.527 198.805 118.527 199.462 118.906C200.876 119.722 200.876 121.763 199.462 122.58L186.805 129.887C185.633 130.563 183.734 130.563 182.562 129.887Z" fill="#DFF1E9"/>
<path d="M207.91 117.702C207.254 118.081 206.446 118.081 205.789 117.702C204.375 116.886 204.375 114.845 205.789 114.028L226.347 102.16C227.004 101.781 227.812 101.781 228.469 102.16C229.883 102.976 229.883 105.018 228.469 105.834L207.91 117.702Z" fill="#DFF1E9"/>
<path d="M234.796 100.957C235.453 101.335 236.261 101.335 236.917 100.957L255.561 90.1938C256.732 89.5175 256.732 88.4209 255.561 87.7446C254.389 87.0682 252.49 87.0682 251.318 87.7446L234.796 97.2825C233.382 98.0989 233.382 100.14 234.796 100.957Z" fill="#DFF1E9"/>
<path d="M207.062 144.137C205.891 143.46 205.891 142.364 207.062 141.687L231.91 127.343C232.566 126.964 233.375 126.964 234.031 127.343C235.445 128.159 235.445 130.2 234.031 131.017L211.305 144.137C210.133 144.813 208.234 144.813 207.062 144.137Z" fill="#DFF1E9"/>
<path d="M242.48 126.139C241.824 126.518 241.015 126.518 240.359 126.139C238.945 125.323 238.945 123.282 240.359 122.465L256.852 112.944C257.508 112.565 258.317 112.565 258.973 112.944C260.387 113.76 260.387 115.801 258.973 116.618L242.48 126.139Z" fill="#DFF1E9"/>
<path d="M265.301 111.74C265.957 112.119 266.766 112.119 267.422 111.74L280.061 104.444C281.232 103.767 281.232 102.671 280.061 101.995C278.889 101.318 276.99 101.318 275.818 101.995L265.301 108.066C263.887 108.882 263.887 110.924 265.301 111.74Z" fill="#DFF1E9"/>
<path d="M214.312 147.937C213.141 148.614 213.141 149.71 214.312 150.387C215.484 151.063 217.383 151.063 218.555 150.387L233.587 141.709C235.001 140.893 235.001 138.851 233.587 138.035C232.93 137.656 232.122 137.656 231.465 138.035L214.312 147.937Z" fill="#DFF1E9"/>
<path d="M239.914 133.157C238.5 133.974 238.5 136.015 239.914 136.831C240.571 137.21 241.379 137.21 242.035 136.831L258.861 127.118C260.032 126.442 260.032 125.345 258.861 124.669C257.689 123.993 255.79 123.993 254.618 124.669L239.914 133.157Z" fill="#DFF1E9"/>
<path d="M235.392 158.144C234.221 158.82 234.221 159.916 235.392 160.593C236.564 161.269 238.463 161.269 239.635 160.593L277.846 138.534C279.26 137.717 279.26 135.676 277.846 134.86C277.189 134.481 276.381 134.481 275.725 134.86L235.392 158.144Z" fill="#DFF1E9"/>
<path d="M284.174 129.982C282.759 130.799 282.759 132.84 284.174 133.656C284.83 134.035 285.638 134.035 286.295 133.656L308.391 120.9C309.562 120.224 309.562 119.127 308.391 118.451C307.219 117.775 305.32 117.775 304.148 118.451L284.174 129.982Z" fill="#DFF1E9"/>
<path d="M263.312 174.187C262.141 174.864 262.141 175.96 263.312 176.637C264.484 177.313 266.383 177.313 267.555 176.637L292.763 162.084C294.177 161.268 294.177 159.226 292.763 158.41C292.107 158.031 291.298 158.031 290.642 158.41L263.312 174.187Z" fill="#DFF1E9"/>
<path d="M299.091 153.532C297.677 154.349 297.677 156.39 299.091 157.206C299.747 157.585 300.556 157.585 301.212 157.206L336.311 136.944C337.482 136.268 337.482 135.171 336.311 134.495C335.139 133.818 333.24 133.818 332.068 134.495L299.091 153.532Z" fill="#DFF1E9"/>
<path d="M292.455 191.144C291.283 191.82 291.283 192.916 292.455 193.593C293.626 194.269 295.526 194.269 296.697 193.593L328.205 175.404C329.619 174.587 329.619 172.546 328.205 171.729C327.549 171.351 326.74 171.351 326.084 171.729L292.455 191.144Z" fill="#DFF1E9"/>
<path d="M334.533 166.852C333.119 167.668 333.119 169.71 334.533 170.526C335.189 170.905 335.998 170.905 336.654 170.526L365.453 153.9C366.625 153.224 366.625 152.127 365.453 151.451C364.282 150.775 362.382 150.775 361.211 151.451L334.533 166.852Z" fill="#DFF1E9"/>
</g>
<path d="M99.5 169.301L98.5 169.458L95.5938 171.614L94.7188 174.145L95.1562 176.364L100.75 179.676L101.031 180.458L101.844 182.489L200.656 240.333L215.906 242.645L217.125 242.426L217.281 241.176L207.031 229.364L148.156 195.551L147.906 192.489L115.562 173.614L112.594 172.176L111.25 172.583L110.156 173.52L108.188 172.489L106.719 172.176L105.219 172.52L99.5 169.301Z" fill="#F4FAF8"/>
<path opacity="0.75" fill-rule="evenodd" clip-rule="evenodd" d="M100.969 169.563L105.466 172.151C105.512 172.129 105.558 172.107 105.605 172.085C106.681 171.587 107.885 171.82 108.843 172.371L109.96 173.014C110.042 172.893 110.168 172.779 110.338 172.681L111.139 172.219C111.796 171.839 112.863 171.839 113.52 172.219L147.851 192.038C148.22 192.251 148.382 192.538 148.337 192.817H148.344V194.895C148.344 194.958 148.333 195.021 148.312 195.082L207.286 229.015C207.423 229.093 207.545 229.195 207.647 229.314L217.43 240.781C218.255 241.747 217.44 243.219 216.184 243.034L200.98 240.794C200.806 240.769 200.638 240.71 200.486 240.621L102.563 183.328C101.633 182.784 100.847 181.887 100.721 180.738C100.701 180.552 100.687 180.366 100.679 180.179L96.3283 177.634C95.4052 177.094 94.5826 176.186 94.541 175.007C94.5011 173.877 94.7678 172.722 95.3745 171.671C95.957 170.662 96.7795 169.877 97.7283 169.346C98.7849 168.755 100.018 169.016 100.969 169.563ZM147.765 195.632L146.635 196.284C145.979 196.663 144.916 196.664 144.258 196.287L120.775 182.836L118.608 184.257C118.172 184.658 117.141 184.783 116.468 184.4L110.354 180.916C110.033 180.733 109.853 180.484 109.853 180.224L109.853 173.818L108.469 173.021C107.647 172.549 106.707 172.401 105.92 172.766C104.518 173.415 103.295 174.488 102.463 175.929C101.604 177.417 101.293 179.07 101.467 180.656C101.559 181.497 102.145 182.214 102.942 182.681L200.267 239.624C199.841 237.526 200.149 235.269 201.304 233.27C202.436 231.31 204.187 229.93 206.167 229.236L147.765 195.632ZM117.874 183.916L117.861 183.924L117.867 183.928C117.758 184.097 117.362 184.164 117.114 184.022L110.999 180.539C110.854 180.455 110.772 180.342 110.772 180.224L110.771 174.306L144.669 193.875C144.814 193.959 144.979 194.024 145.155 194.071V196.006C145.064 195.985 144.979 195.953 144.905 195.91L120.221 181.771C119.347 181.27 117.862 181.632 117.873 182.343L117.896 183.831C117.896 183.861 117.888 183.89 117.874 183.916ZM118.806 183.304L120.106 182.452L119.574 182.147C119.283 181.98 118.788 182.101 118.791 182.338L118.806 183.304ZM110.771 173.431L110.771 173.379H110.764C110.759 173.262 110.833 173.145 110.988 173.056L111.788 172.594C112.087 172.421 112.572 172.421 112.871 172.594L147.201 192.413C147.5 192.585 147.5 192.865 147.201 193.038L146.401 193.5C146.102 193.672 145.617 193.672 145.318 193.5L110.988 173.681C110.866 173.61 110.794 173.522 110.771 173.431ZM145.986 195.909C145.96 195.924 145.933 195.937 145.905 195.95V194.159C146.321 194.153 146.733 194.058 147.051 193.875L147.425 193.659L147.425 194.895C147.425 195.012 147.344 195.125 147.201 195.208L145.986 195.909ZM207.032 229.754C204.964 230.305 203.108 231.645 201.953 233.645C200.786 235.667 200.561 237.975 201.143 240.06L216.293 242.292C216.864 242.376 217.234 241.707 216.86 241.268L207.076 229.801C207.062 229.785 207.047 229.769 207.032 229.754ZM100.594 170.213L104.697 172.574C103.542 173.291 102.541 174.295 101.813 175.554C101.127 176.743 100.759 178.03 100.685 179.314L96.707 176.986C95.9021 176.515 95.3195 175.802 95.2905 174.981C95.2555 173.987 95.4897 172.972 96.024 172.046C96.5371 171.158 97.2603 170.467 98.0944 170.001C98.8298 169.589 99.7652 169.736 100.594 170.213Z" fill="#72C09C"/>
</g>
<defs>
<clipPath id="clip0_585_3794">
<rect width="299" height="219" rx="8" fill="white"/>
</clipPath>
</defs>
</svg>
