<svg width="300" height="220" viewBox="0 0 300 220" fill="none" xmlns="http://www.w3.org/2000/svg">
<g clip-path="url(#clip0_585_3739)">
<path opacity="0.75" fill-rule="evenodd" clip-rule="evenodd" d="M51.2113 185.58C51.2371 184.808 51.76 184.041 52.7797 183.453L251.471 68.7486C253.563 67.5405 256.956 67.5405 259.048 68.7486L484.05 198.642C485.322 199.376 485.821 200.388 485.547 201.339V206.556C485.547 207.376 484.982 208.163 483.978 208.743L285.191 323.503C283.098 324.711 279.705 324.711 277.613 323.503L52.7618 193.697C51.757 193.116 51.1924 192.33 51.1924 191.509L51.1924 185.58H51.2113ZM52.111 187.358C52.3031 187.524 52.5261 187.681 52.7797 187.827L277.782 317.721C279.874 318.929 283.267 318.929 285.36 317.721L484.05 203.017C484.265 202.893 484.458 202.761 484.628 202.623V206.556C484.628 207.236 484.161 207.888 483.328 208.368L284.541 323.128C282.807 324.129 279.996 324.129 278.262 323.128L53.4114 193.322C52.5788 192.841 52.111 192.189 52.111 191.509L52.111 187.358ZM484.697 200.937C484.747 200.246 484.315 199.545 483.401 199.017L258.399 69.1235C256.665 68.1226 253.854 68.1226 252.12 69.1235L53.4293 183.828C51.6954 184.829 51.6954 186.452 53.4293 187.452L278.431 317.346C280.165 318.347 282.976 318.347 284.71 317.346L483.401 202.642C484.063 202.26 484.472 201.787 484.628 201.293V200.937H484.697Z" fill="#8CAEF2"/>
<path d="M52.7798 187.827C52.5262 187.681 52.3033 187.524 52.1111 187.358L52.1111 191.509C52.1111 192.189 52.5789 192.841 53.4115 193.322L278.262 323.128C279.996 324.129 282.807 324.129 284.541 323.128L483.328 208.368C484.161 207.888 484.629 207.236 484.629 206.556V202.623C484.458 202.761 484.265 202.893 484.05 203.017L285.36 317.721C283.267 318.929 279.874 318.929 277.782 317.721L52.7798 187.827Z" fill="#F3F6FC"/>
<path d="M483.401 199.017C484.315 199.545 484.748 200.246 484.697 200.937H484.629V201.293C484.472 201.787 484.063 202.26 483.401 202.642L284.71 317.346C282.976 318.347 280.165 318.347 278.431 317.346L53.4294 187.452C51.6955 186.452 51.6955 184.829 53.4294 183.828L252.12 69.1235C253.854 68.1226 256.665 68.1226 258.399 69.1235L483.401 199.017Z" fill="#F3F6FC"/>
<g opacity="0.5">
<path d="M65.1209 184.754C65.5279 184.989 65.5279 185.37 65.1209 185.605C64.7139 185.84 64.054 185.84 63.647 185.605C63.24 185.37 63.24 184.989 63.647 184.754C64.054 184.519 64.7139 184.519 65.1209 184.754Z" fill="#8CAEF2"/>
<path d="M76.4206 178.231C76.8276 178.466 76.8276 178.847 76.4206 179.082C76.0136 179.317 75.3537 179.317 74.9467 179.082C74.5397 178.847 74.5397 178.466 74.9467 178.231C75.3537 177.996 76.0136 177.996 76.4206 178.231Z" fill="#8CAEF2"/>
<path d="M87.7202 171.708C88.1272 171.943 88.1272 172.324 87.7202 172.559C87.3132 172.793 86.6533 172.793 86.2463 172.559C85.8393 172.324 85.8393 171.943 86.2463 171.708C86.6533 171.473 87.3132 171.473 87.7202 171.708Z" fill="#8CAEF2"/>
<path d="M99.0198 165.184C99.4268 165.419 99.4268 165.8 99.0198 166.035C98.6128 166.27 97.953 166.27 97.546 166.035C97.139 165.8 97.139 165.419 97.546 165.184C97.953 164.949 98.6128 164.949 99.0198 165.184Z" fill="#8CAEF2"/>
<path d="M110.319 158.661C110.726 158.896 110.726 159.277 110.319 159.512C109.912 159.747 109.253 159.747 108.846 159.512C108.439 159.277 108.439 158.896 108.846 158.661C109.253 158.426 109.912 158.426 110.319 158.661Z" fill="#8CAEF2"/>
<path d="M121.619 152.138C122.026 152.373 122.026 152.754 121.619 152.989C121.212 153.224 120.553 153.224 120.146 152.989C119.739 152.754 119.739 152.373 120.146 152.138C120.553 151.903 121.212 151.903 121.619 152.138Z" fill="#8CAEF2"/>
<path d="M132.919 145.614C133.326 145.849 133.326 146.23 132.919 146.465C132.512 146.7 131.852 146.7 131.445 146.465C131.038 146.23 131.038 145.849 131.445 145.614C131.852 145.379 132.512 145.379 132.919 145.614Z" fill="#8CAEF2"/>
<path d="M144.219 139.091C144.626 139.326 144.626 139.707 144.219 139.942C143.812 140.177 143.152 140.177 142.745 139.942C142.338 139.707 142.338 139.326 142.745 139.091C143.152 138.856 143.812 138.856 144.219 139.091Z" fill="#8CAEF2"/>
<path d="M155.518 132.568C155.925 132.803 155.925 133.184 155.518 133.419C155.111 133.654 154.452 133.654 154.045 133.419C153.638 133.184 153.638 132.803 154.045 132.568C154.452 132.333 155.111 132.333 155.518 132.568Z" fill="#8CAEF2"/>
<path d="M166.818 126.044C167.225 126.279 167.225 126.66 166.818 126.895C166.411 127.13 165.751 127.13 165.344 126.895C164.937 126.66 164.937 126.279 165.344 126.044C165.751 125.81 166.411 125.81 166.818 126.044Z" fill="#8CAEF2"/>
<path d="M178.118 119.521C178.525 119.756 178.525 120.137 178.118 120.372C177.711 120.607 177.051 120.607 176.644 120.372C176.237 120.137 176.237 119.756 176.644 119.521C177.051 119.286 177.711 119.286 178.118 119.521Z" fill="#8CAEF2"/>
<path d="M189.418 112.998C189.825 113.233 189.825 113.614 189.418 113.849C189.011 114.084 188.351 114.084 187.944 113.849C187.537 113.614 187.537 113.233 187.944 112.998C188.351 112.763 189.011 112.763 189.418 112.998Z" fill="#8CAEF2"/>
<path d="M200.717 106.475C201.124 106.71 201.124 107.09 200.717 107.325C200.31 107.56 199.65 107.56 199.243 107.325C198.836 107.09 198.836 106.71 199.243 106.475C199.65 106.24 200.31 106.24 200.717 106.475Z" fill="#8CAEF2"/>
<path d="M212.017 99.9513C212.424 100.186 212.424 100.567 212.017 100.802C211.61 101.037 210.95 101.037 210.543 100.802C210.136 100.567 210.136 100.186 210.543 99.9513C210.95 99.7163 211.61 99.7163 212.017 99.9513Z" fill="#8CAEF2"/>
<path d="M223.317 93.4279C223.724 93.6629 223.724 94.0439 223.317 94.2788C222.91 94.5138 222.25 94.5138 221.843 94.2788C221.436 94.0439 221.436 93.6629 221.843 93.4279C222.25 93.193 222.91 93.193 223.317 93.4279Z" fill="#8CAEF2"/>
<path d="M234.616 86.9046C235.023 87.1396 235.023 87.5205 234.616 87.7555C234.209 87.9905 233.549 87.9905 233.142 87.7555C232.735 87.5205 232.735 87.1396 233.142 86.9046C233.549 86.6697 234.209 86.6697 234.616 86.9046Z" fill="#8CAEF2"/>
<path d="M245.916 80.3813C246.323 80.6163 246.323 80.9972 245.916 81.2322C245.509 81.4672 244.849 81.4672 244.442 81.2322C244.035 80.9972 244.035 80.6163 244.442 80.3813C244.849 80.1464 245.509 80.1464 245.916 80.3813Z" fill="#8CAEF2"/>
<path d="M257.216 73.8581C257.623 74.0931 257.623 74.474 257.216 74.709C256.809 74.9439 256.149 74.9439 255.742 74.709C255.335 74.474 255.335 74.0931 255.742 73.8581C256.149 73.6231 256.809 73.6231 257.216 73.8581Z" fill="#8CAEF2"/>
<path d="M76.4206 191.278C76.8276 191.513 76.8276 191.894 76.4206 192.128C76.0136 192.363 75.3537 192.363 74.9467 192.128C74.5397 191.894 74.5397 191.513 74.9467 191.278C75.3537 191.043 76.0136 191.043 76.4206 191.278Z" fill="#8CAEF2"/>
<path d="M87.7203 184.754C88.1273 184.989 88.1273 185.37 87.7203 185.605C87.3133 185.84 86.6534 185.84 86.2464 185.605C85.8394 185.37 85.8394 184.989 86.2464 184.754C86.6534 184.519 87.3133 184.519 87.7203 184.754Z" fill="#8CAEF2"/>
<path d="M99.02 178.231C99.427 178.466 99.427 178.847 99.02 179.082C98.613 179.317 97.9531 179.317 97.5461 179.082C97.1391 178.847 97.1391 178.466 97.5461 178.231C97.9531 177.996 98.613 177.996 99.02 178.231Z" fill="#8CAEF2"/>
<path d="M110.32 171.708C110.727 171.943 110.727 172.324 110.32 172.559C109.913 172.794 109.253 172.794 108.846 172.559C108.439 172.324 108.439 171.943 108.846 171.708C109.253 171.473 109.913 171.473 110.32 171.708Z" fill="#8CAEF2"/>
<path d="M121.619 165.184C122.026 165.419 122.026 165.8 121.619 166.035C121.212 166.27 120.553 166.27 120.146 166.035C119.739 165.8 119.739 165.419 120.146 165.184C120.553 164.949 121.212 164.949 121.619 165.184Z" fill="#8CAEF2"/>
<path d="M132.919 158.661C133.326 158.896 133.326 159.277 132.919 159.512C132.512 159.747 131.852 159.747 131.445 159.512C131.038 159.277 131.038 158.896 131.445 158.661C131.852 158.426 132.512 158.426 132.919 158.661Z" fill="#8CAEF2"/>
<path d="M144.219 152.138C144.626 152.373 144.626 152.754 144.219 152.989C143.812 153.224 143.152 153.224 142.745 152.989C142.338 152.754 142.338 152.373 142.745 152.138C143.152 151.903 143.812 151.903 144.219 152.138Z" fill="#8CAEF2"/>
<path d="M155.518 145.614C155.925 145.849 155.925 146.23 155.518 146.465C155.111 146.7 154.452 146.7 154.045 146.465C153.638 146.23 153.638 145.849 154.045 145.614C154.452 145.379 155.111 145.379 155.518 145.614Z" fill="#8CAEF2"/>
<path d="M166.818 139.091C167.225 139.326 167.225 139.707 166.818 139.942C166.411 140.177 165.751 140.177 165.344 139.942C164.937 139.707 164.937 139.326 165.344 139.091C165.751 138.856 166.411 138.856 166.818 139.091Z" fill="#8CAEF2"/>
<path d="M178.118 132.568C178.525 132.803 178.525 133.184 178.118 133.419C177.711 133.654 177.051 133.654 176.644 133.419C176.237 133.184 176.237 132.803 176.644 132.568C177.051 132.333 177.711 132.333 178.118 132.568Z" fill="#8CAEF2"/>
<path d="M189.418 126.044C189.825 126.279 189.825 126.66 189.418 126.895C189.011 127.13 188.351 127.13 187.944 126.895C187.537 126.66 187.537 126.279 187.944 126.044C188.351 125.81 189.011 125.81 189.418 126.044Z" fill="#8CAEF2"/>
<path d="M200.717 119.521C201.124 119.756 201.124 120.137 200.717 120.372C200.31 120.607 199.65 120.607 199.243 120.372C198.836 120.137 198.836 119.756 199.243 119.521C199.65 119.286 200.31 119.286 200.717 119.521Z" fill="#8CAEF2"/>
<path d="M212.017 112.998C212.424 113.233 212.424 113.614 212.017 113.849C211.61 114.084 210.95 114.084 210.543 113.849C210.136 113.614 210.136 113.233 210.543 112.998C210.95 112.763 211.61 112.763 212.017 112.998Z" fill="#8CAEF2"/>
<path d="M223.317 106.475C223.724 106.71 223.724 107.09 223.317 107.325C222.91 107.56 222.25 107.56 221.843 107.325C221.436 107.09 221.436 106.71 221.843 106.475C222.25 106.24 222.91 106.24 223.317 106.475Z" fill="#8CAEF2"/>
<path d="M234.616 99.9513C235.023 100.186 235.023 100.567 234.616 100.802C234.209 101.037 233.549 101.037 233.142 100.802C232.735 100.567 232.735 100.186 233.142 99.9513C233.549 99.7163 234.209 99.7163 234.616 99.9513Z" fill="#8CAEF2"/>
<path d="M245.916 93.4279C246.323 93.6629 246.323 94.0439 245.916 94.2788C245.509 94.5138 244.849 94.5138 244.442 94.2788C244.035 94.0439 244.035 93.6629 244.442 93.4279C244.849 93.193 245.509 93.193 245.916 93.4279Z" fill="#8CAEF2"/>
<path d="M257.216 86.9046C257.623 87.1396 257.623 87.5205 257.216 87.7555C256.809 87.9905 256.149 87.9905 255.742 87.7555C255.335 87.5205 255.335 87.1396 255.742 86.9046C256.149 86.6697 256.809 86.6697 257.216 86.9046Z" fill="#8CAEF2"/>
<path d="M268.515 80.3813C268.922 80.6163 268.922 80.9972 268.515 81.2322C268.108 81.4672 267.448 81.4672 267.041 81.2322C266.634 80.9972 266.634 80.6163 267.041 80.3813C267.448 80.1464 268.108 80.1464 268.515 80.3813Z" fill="#8CAEF2"/>
<path d="M87.7202 197.801C88.1272 198.036 88.1272 198.417 87.7202 198.652C87.3132 198.887 86.6533 198.887 86.2463 198.652C85.8393 198.417 85.8393 198.036 86.2463 197.801C86.6533 197.566 87.3132 197.566 87.7202 197.801Z" fill="#8CAEF2"/>
<path d="M99.0199 191.278C99.4269 191.513 99.4269 191.894 99.0199 192.129C98.6129 192.363 97.953 192.363 97.546 192.129C97.139 191.894 97.139 191.513 97.546 191.278C97.953 191.043 98.6129 191.043 99.0199 191.278Z" fill="#8CAEF2"/>
<path d="M110.32 184.754C110.727 184.989 110.727 185.37 110.32 185.605C109.913 185.84 109.253 185.84 108.846 185.605C108.439 185.37 108.439 184.989 108.846 184.754C109.253 184.519 109.913 184.519 110.32 184.754Z" fill="#8CAEF2"/>
<path d="M257.215 99.9514C257.622 100.186 257.622 100.567 257.215 100.802C256.808 101.037 256.149 101.037 255.742 100.802C255.335 100.567 255.335 100.186 255.742 99.9514C256.149 99.7164 256.808 99.7164 257.215 99.9514Z" fill="#8CAEF2"/>
<path d="M268.515 93.4278C268.922 93.6628 268.922 94.0437 268.515 94.2787C268.108 94.5136 267.448 94.5136 267.041 94.2787C266.634 94.0437 266.634 93.6628 267.041 93.4278C267.448 93.1929 268.108 93.1929 268.515 93.4278Z" fill="#8CAEF2"/>
<path d="M279.815 86.9048C280.222 87.1397 280.222 87.5207 279.815 87.7556C279.408 87.9906 278.748 87.9906 278.341 87.7556C277.934 87.5207 277.934 87.1397 278.341 86.9048C278.748 86.6698 279.408 86.6698 279.815 86.9048Z" fill="#8CAEF2"/>
<path d="M99.02 204.324C99.427 204.559 99.427 204.94 99.02 205.175C98.613 205.41 97.9531 205.41 97.5461 205.175C97.1391 204.94 97.1391 204.559 97.5461 204.324C97.9531 204.089 98.613 204.089 99.02 204.324Z" fill="#8CAEF2"/>
<path d="M110.32 197.801C110.727 198.036 110.727 198.417 110.32 198.652C109.913 198.887 109.253 198.887 108.846 198.652C108.439 198.417 108.439 198.036 108.846 197.801C109.253 197.566 109.913 197.566 110.32 197.801Z" fill="#8CAEF2"/>
<path d="M121.619 191.278C122.026 191.513 122.026 191.894 121.619 192.128C121.212 192.363 120.553 192.363 120.146 192.128C119.739 191.894 119.739 191.513 120.146 191.278C120.553 191.043 121.212 191.043 121.619 191.278Z" fill="#8CAEF2"/>
<path d="M268.515 106.475C268.922 106.71 268.922 107.09 268.515 107.325C268.108 107.56 267.448 107.56 267.041 107.325C266.634 107.09 266.634 106.71 267.041 106.475C267.448 106.24 268.108 106.24 268.515 106.475Z" fill="#8CAEF2"/>
<path d="M279.815 99.9513C280.222 100.186 280.222 100.567 279.815 100.802C279.408 101.037 278.748 101.037 278.341 100.802C277.934 100.567 277.934 100.186 278.341 99.9513C278.748 99.7163 279.408 99.7163 279.815 99.9513Z" fill="#8CAEF2"/>
<path d="M291.115 93.428C291.522 93.6629 291.522 94.0439 291.115 94.2788C290.708 94.5138 290.048 94.5138 289.641 94.2788C289.234 94.0439 289.234 93.6629 289.641 93.428C290.048 93.193 290.708 93.193 291.115 93.428Z" fill="#8CAEF2"/>
<path d="M110.32 210.848C110.727 211.083 110.727 211.463 110.32 211.698C109.913 211.933 109.253 211.933 108.846 211.698C108.439 211.463 108.439 211.083 108.846 210.848C109.253 210.613 109.913 210.613 110.32 210.848Z" fill="#8CAEF2"/>
<path d="M121.62 204.324C122.027 204.559 122.027 204.94 121.62 205.175C121.213 205.41 120.553 205.41 120.146 205.175C119.739 204.94 119.739 204.559 120.146 204.324C120.553 204.089 121.213 204.089 121.62 204.324Z" fill="#8CAEF2"/>
<path d="M132.919 197.801C133.326 198.036 133.326 198.417 132.919 198.652C132.512 198.887 131.852 198.887 131.445 198.652C131.038 198.417 131.038 198.036 131.445 197.801C131.852 197.566 132.512 197.566 132.919 197.801Z" fill="#8CAEF2"/>
<path d="M279.815 112.998C280.222 113.233 280.222 113.614 279.815 113.849C279.408 114.084 278.748 114.084 278.341 113.849C277.934 113.614 277.934 113.233 278.341 112.998C278.748 112.763 279.408 112.763 279.815 112.998Z" fill="#8CAEF2"/>
<path d="M291.115 106.475C291.522 106.71 291.522 107.09 291.115 107.325C290.708 107.56 290.048 107.56 289.641 107.325C289.234 107.09 289.234 106.71 289.641 106.475C290.048 106.24 290.708 106.24 291.115 106.475Z" fill="#8CAEF2"/>
<path d="M302.414 99.9513C302.821 100.186 302.821 100.567 302.414 100.802C302.007 101.037 301.348 101.037 300.941 100.802C300.534 100.567 300.534 100.186 300.941 99.9513C301.348 99.7163 302.007 99.7163 302.414 99.9513Z" fill="#8CAEF2"/>
<path d="M121.619 217.371C122.026 217.606 122.026 217.987 121.619 218.222C121.212 218.457 120.553 218.457 120.146 218.222C119.739 217.987 119.739 217.606 120.146 217.371C120.553 217.136 121.212 217.136 121.619 217.371Z" fill="#8CAEF2"/>
<path d="M132.919 210.848C133.326 211.083 133.326 211.464 132.919 211.699C132.512 211.934 131.852 211.934 131.445 211.699C131.038 211.464 131.038 211.083 131.445 210.848C131.852 210.613 132.512 210.613 132.919 210.848Z" fill="#8CAEF2"/>
<path d="M144.219 204.324C144.626 204.559 144.626 204.94 144.219 205.175C143.812 205.41 143.152 205.41 142.745 205.175C142.338 204.94 142.338 204.559 142.745 204.324C143.152 204.089 143.812 204.089 144.219 204.324Z" fill="#8CAEF2"/>
<path d="M291.115 119.521C291.522 119.756 291.522 120.137 291.115 120.372C290.708 120.607 290.048 120.607 289.641 120.372C289.234 120.137 289.234 119.756 289.641 119.521C290.048 119.286 290.708 119.286 291.115 119.521Z" fill="#8CAEF2"/>
<path d="M302.414 112.998C302.821 113.233 302.821 113.614 302.414 113.849C302.007 114.084 301.348 114.084 300.941 113.849C300.534 113.614 300.534 113.233 300.941 112.998C301.348 112.763 302.007 112.763 302.414 112.998Z" fill="#8CAEF2"/>
<path d="M313.714 106.475C314.121 106.71 314.121 107.09 313.714 107.325C313.307 107.56 312.648 107.56 312.241 107.325C311.834 107.09 311.834 106.71 312.241 106.475C312.648 106.24 313.307 106.24 313.714 106.475Z" fill="#8CAEF2"/>
<path d="M132.919 223.894C133.326 224.129 133.326 224.51 132.919 224.745C132.512 224.98 131.852 224.98 131.445 224.745C131.038 224.51 131.038 224.129 131.445 223.894C131.852 223.659 132.512 223.659 132.919 223.894Z" fill="#8CAEF2"/>
<path d="M144.219 217.371C144.626 217.606 144.626 217.987 144.219 218.222C143.812 218.457 143.152 218.457 142.745 218.222C142.338 217.987 142.338 217.606 142.745 217.371C143.152 217.136 143.812 217.136 144.219 217.371Z" fill="#8CAEF2"/>
<path d="M155.518 210.848C155.925 211.083 155.925 211.463 155.518 211.698C155.111 211.933 154.451 211.933 154.044 211.698C153.637 211.463 153.637 211.083 154.044 210.848C154.451 210.613 155.111 210.613 155.518 210.848Z" fill="#8CAEF2"/>
<path d="M302.415 126.044C302.822 126.279 302.822 126.66 302.415 126.895C302.008 127.13 301.348 127.13 300.941 126.895C300.534 126.66 300.534 126.279 300.941 126.044C301.348 125.809 302.008 125.809 302.415 126.044Z" fill="#8CAEF2"/>
<path d="M313.714 119.521C314.121 119.756 314.121 120.137 313.714 120.372C313.307 120.607 312.647 120.607 312.24 120.372C311.833 120.137 311.833 119.756 312.24 119.521C312.647 119.286 313.307 119.286 313.714 119.521Z" fill="#8CAEF2"/>
<path d="M325.014 112.998C325.421 113.233 325.421 113.614 325.014 113.849C324.607 114.084 323.947 114.084 323.54 113.849C323.133 113.614 323.133 113.233 323.54 112.998C323.947 112.763 324.607 112.763 325.014 112.998Z" fill="#8CAEF2"/>
<path d="M144.219 230.417C144.626 230.652 144.626 231.033 144.219 231.268C143.812 231.503 143.152 231.503 142.745 231.268C142.338 231.033 142.338 230.652 142.745 230.417C143.152 230.183 143.812 230.183 144.219 230.417Z" fill="#8CAEF2"/>
<path d="M155.518 223.894C155.925 224.129 155.925 224.51 155.518 224.745C155.111 224.98 154.452 224.98 154.045 224.745C153.638 224.51 153.638 224.129 154.045 223.894C154.452 223.659 155.111 223.659 155.518 223.894Z" fill="#8CAEF2"/>
<path d="M166.818 217.371C167.225 217.606 167.225 217.987 166.818 218.222C166.411 218.457 165.751 218.457 165.344 218.222C164.937 217.987 164.937 217.606 165.344 217.371C165.751 217.136 166.411 217.136 166.818 217.371Z" fill="#8CAEF2"/>
<path d="M313.714 132.568C314.121 132.803 314.121 133.184 313.714 133.419C313.307 133.654 312.647 133.654 312.24 133.419C311.833 133.184 311.833 132.803 312.24 132.568C312.647 132.333 313.307 132.333 313.714 132.568Z" fill="#8CAEF2"/>
<path d="M325.014 126.044C325.421 126.279 325.421 126.66 325.014 126.895C324.607 127.13 323.947 127.13 323.54 126.895C323.133 126.66 323.133 126.279 323.54 126.044C323.947 125.81 324.607 125.81 325.014 126.044Z" fill="#8CAEF2"/>
<path d="M336.314 119.521C336.721 119.756 336.721 120.137 336.314 120.372C335.907 120.607 335.247 120.607 334.84 120.372C334.433 120.137 334.433 119.756 334.84 119.521C335.247 119.286 335.907 119.286 336.314 119.521Z" fill="#8CAEF2"/>
<path d="M155.518 236.941C155.925 237.176 155.925 237.557 155.518 237.792C155.111 238.027 154.452 238.027 154.045 237.792C153.638 237.557 153.638 237.176 154.045 236.941C154.452 236.706 155.111 236.706 155.518 236.941Z" fill="#8CAEF2"/>
<path d="M166.818 230.417C167.225 230.652 167.225 231.033 166.818 231.268C166.411 231.503 165.751 231.503 165.344 231.268C164.937 231.033 164.937 230.652 165.344 230.417C165.751 230.183 166.411 230.183 166.818 230.417Z" fill="#8CAEF2"/>
<path d="M178.118 223.894C178.525 224.129 178.525 224.51 178.118 224.745C177.711 224.98 177.051 224.98 176.644 224.745C176.237 224.51 176.237 224.129 176.644 223.894C177.051 223.659 177.711 223.659 178.118 223.894Z" fill="#8CAEF2"/>
<path d="M325.014 139.091C325.421 139.326 325.421 139.707 325.014 139.942C324.607 140.177 323.947 140.177 323.54 139.942C323.133 139.707 323.133 139.326 323.54 139.091C323.947 138.856 324.607 138.856 325.014 139.091Z" fill="#8CAEF2"/>
<path d="M336.314 132.568C336.721 132.803 336.721 133.184 336.314 133.419C335.907 133.654 335.247 133.654 334.84 133.419C334.433 133.184 334.433 132.803 334.84 132.568C335.247 132.333 335.907 132.333 336.314 132.568Z" fill="#8CAEF2"/>
<path d="M347.613 126.045C348.02 126.279 348.02 126.66 347.613 126.895C347.206 127.13 346.546 127.13 346.139 126.895C345.732 126.66 345.732 126.279 346.139 126.045C346.546 125.81 347.206 125.81 347.613 126.045Z" fill="#8CAEF2"/>
<path d="M166.818 243.464C167.225 243.699 167.225 244.08 166.818 244.315C166.411 244.55 165.751 244.55 165.344 244.315C164.937 244.08 164.937 243.699 165.344 243.464C165.751 243.229 166.411 243.229 166.818 243.464Z" fill="#8CAEF2"/>
<path d="M178.118 236.941C178.525 237.176 178.525 237.557 178.118 237.792C177.711 238.027 177.051 238.027 176.644 237.792C176.237 237.557 176.237 237.176 176.644 236.941C177.051 236.706 177.711 236.706 178.118 236.941Z" fill="#8CAEF2"/>
<path d="M189.418 230.417C189.825 230.652 189.825 231.033 189.418 231.268C189.011 231.503 188.351 231.503 187.944 231.268C187.537 231.033 187.537 230.652 187.944 230.417C188.351 230.183 189.011 230.183 189.418 230.417Z" fill="#8CAEF2"/>
<path d="M336.314 145.614C336.721 145.849 336.721 146.23 336.314 146.465C335.907 146.7 335.247 146.7 334.84 146.465C334.433 146.23 334.433 145.849 334.84 145.614C335.247 145.379 335.907 145.379 336.314 145.614Z" fill="#8CAEF2"/>
<path d="M347.613 139.091C348.02 139.326 348.02 139.707 347.613 139.942C347.206 140.177 346.546 140.177 346.139 139.942C345.732 139.707 345.732 139.326 346.139 139.091C346.546 138.856 347.206 138.856 347.613 139.091Z" fill="#8CAEF2"/>
<path d="M358.913 132.568C359.32 132.803 359.32 133.184 358.913 133.419C358.506 133.654 357.846 133.654 357.439 133.419C357.032 133.184 357.032 132.803 357.439 132.568C357.846 132.333 358.506 132.333 358.913 132.568Z" fill="#8CAEF2"/>
<path d="M178.118 249.987C178.525 250.222 178.525 250.603 178.118 250.838C177.711 251.073 177.051 251.073 176.644 250.838C176.237 250.603 176.237 250.222 176.644 249.987C177.051 249.752 177.711 249.752 178.118 249.987Z" fill="#8CAEF2"/>
<path d="M189.418 243.464C189.825 243.699 189.825 244.08 189.418 244.315C189.011 244.55 188.351 244.55 187.944 244.315C187.537 244.08 187.537 243.699 187.944 243.464C188.351 243.229 189.011 243.229 189.418 243.464Z" fill="#8CAEF2"/>
<path d="M200.717 236.941C201.124 237.176 201.124 237.557 200.717 237.792C200.31 238.027 199.651 238.027 199.244 237.792C198.837 237.557 198.837 237.176 199.244 236.941C199.651 236.706 200.31 236.706 200.717 236.941Z" fill="#8CAEF2"/>
<path d="M347.613 152.138C348.02 152.373 348.02 152.754 347.613 152.989C347.206 153.224 346.546 153.224 346.139 152.989C345.732 152.754 345.732 152.373 346.139 152.138C346.546 151.903 347.206 151.903 347.613 152.138Z" fill="#8CAEF2"/>
<path d="M358.913 145.614C359.32 145.849 359.32 146.23 358.913 146.465C358.506 146.7 357.846 146.7 357.439 146.465C357.032 146.23 357.032 145.849 357.439 145.614C357.846 145.379 358.506 145.379 358.913 145.614Z" fill="#8CAEF2"/>
<path d="M370.213 139.091C370.62 139.326 370.62 139.707 370.213 139.942C369.806 140.177 369.146 140.177 368.739 139.942C368.332 139.707 368.332 139.326 368.739 139.091C369.146 138.856 369.806 138.856 370.213 139.091Z" fill="#8CAEF2"/>
<path d="M189.418 256.511C189.825 256.746 189.825 257.127 189.418 257.362C189.011 257.597 188.351 257.597 187.944 257.362C187.537 257.127 187.537 256.746 187.944 256.511C188.351 256.276 189.011 256.276 189.418 256.511Z" fill="#8CAEF2"/>
<path d="M200.717 249.987C201.124 250.222 201.124 250.603 200.717 250.838C200.31 251.073 199.65 251.073 199.243 250.838C198.836 250.603 198.836 250.222 199.243 249.987C199.65 249.752 200.31 249.752 200.717 249.987Z" fill="#8CAEF2"/>
<path d="M212.017 243.464C212.424 243.699 212.424 244.08 212.017 244.315C211.61 244.55 210.95 244.55 210.543 244.315C210.136 244.08 210.136 243.699 210.543 243.464C210.95 243.229 211.61 243.229 212.017 243.464Z" fill="#8CAEF2"/>
<path d="M358.913 158.661C359.32 158.896 359.32 159.277 358.913 159.512C358.506 159.747 357.846 159.747 357.439 159.512C357.032 159.277 357.032 158.896 357.439 158.661C357.846 158.426 358.506 158.426 358.913 158.661Z" fill="#8CAEF2"/>
<path d="M370.213 152.138C370.62 152.373 370.62 152.754 370.213 152.989C369.806 153.224 369.146 153.224 368.739 152.989C368.332 152.754 368.332 152.373 368.739 152.138C369.146 151.903 369.806 151.903 370.213 152.138Z" fill="#8CAEF2"/>
<path d="M381.513 145.614C381.92 145.849 381.92 146.23 381.513 146.465C381.106 146.7 380.446 146.7 380.039 146.465C379.632 146.23 379.632 145.849 380.039 145.614C380.446 145.379 381.106 145.379 381.513 145.614Z" fill="#8CAEF2"/>
<path d="M200.717 263.034C201.124 263.269 201.124 263.65 200.717 263.885C200.31 264.12 199.65 264.12 199.243 263.885C198.836 263.65 198.836 263.269 199.243 263.034C199.65 262.799 200.31 262.799 200.717 263.034Z" fill="#8CAEF2"/>
<path d="M212.017 256.511C212.424 256.746 212.424 257.127 212.017 257.362C211.61 257.597 210.95 257.597 210.543 257.362C210.136 257.127 210.136 256.746 210.543 256.511C210.95 256.276 211.61 256.276 212.017 256.511Z" fill="#8CAEF2"/>
<path d="M223.317 249.987C223.724 250.222 223.724 250.603 223.317 250.838C222.91 251.073 222.25 251.073 221.843 250.838C221.436 250.603 221.436 250.222 221.843 249.987C222.25 249.752 222.91 249.752 223.317 249.987Z" fill="#8CAEF2"/>
<path d="M370.213 165.184C370.62 165.419 370.62 165.8 370.213 166.035C369.806 166.27 369.146 166.27 368.739 166.035C368.332 165.8 368.332 165.419 368.739 165.184C369.146 164.949 369.806 164.949 370.213 165.184Z" fill="#8CAEF2"/>
<path d="M381.512 158.661C381.919 158.896 381.919 159.277 381.512 159.512C381.105 159.747 380.446 159.747 380.039 159.512C379.632 159.277 379.632 158.896 380.039 158.661C380.446 158.426 381.105 158.426 381.512 158.661Z" fill="#8CAEF2"/>
<path d="M392.812 152.138C393.219 152.373 393.219 152.754 392.812 152.989C392.405 153.224 391.745 153.224 391.338 152.989C390.931 152.754 390.931 152.373 391.338 152.138C391.745 151.903 392.405 151.903 392.812 152.138Z" fill="#8CAEF2"/>
</g>
<path d="M117.874 172.49C116.74 173.144 116.221 174.019 116.315 174.875H116.295V180.208C116.295 181.029 116.859 181.816 117.864 182.396L297.76 286.249C299.852 287.457 303.245 287.457 305.337 286.249L426.766 216.149C427.771 215.568 428.336 214.782 428.336 213.961V209H428.275C428.338 208.163 427.817 207.315 426.711 206.676L246.472 102.625C244.38 101.417 240.987 101.417 238.895 102.625L117.874 172.49Z" fill="white"/>
<path opacity="0.75" fill-rule="evenodd" clip-rule="evenodd" d="M116.315 174.875C116.221 174.019 116.74 173.144 117.874 172.49L238.895 102.625C240.987 101.417 244.38 101.417 246.472 102.625L426.711 206.676C427.817 207.315 428.338 208.163 428.275 209H428.336V213.961C428.336 214.782 427.771 215.568 426.766 216.149L305.337 286.249C303.245 287.457 299.852 287.457 297.76 286.249L117.864 182.396C116.859 181.816 116.295 181.029 116.295 180.208V174.875H116.315ZM117.214 176.403C117.404 176.566 117.624 176.721 117.874 176.865L298.112 280.916C300.204 282.124 303.597 282.124 305.69 280.916L426.711 211.051C426.981 210.895 427.216 210.726 427.417 210.548V213.961C427.417 214.641 426.949 215.293 426.117 215.774L304.688 285.874C302.954 286.875 300.143 286.875 298.409 285.874L118.514 182.021C117.681 181.54 117.214 180.888 117.214 180.208L117.214 176.403ZM118.523 176.49C116.789 175.489 116.789 173.866 118.523 172.865L239.544 103C241.278 101.999 244.089 101.999 245.823 103L426.061 207.051C427.795 208.052 427.795 209.675 426.061 210.676L305.04 280.541C303.306 281.542 300.495 281.542 298.761 280.541L118.523 176.49Z" fill="#8CAEF2"/>
<path d="M238.78 113.983C239.19 114.219 239.189 114.603 238.778 114.84C238.368 115.078 237.702 115.078 237.292 114.841C236.883 114.605 236.883 114.221 237.294 113.984C237.705 113.746 238.37 113.746 238.78 113.983Z" fill="#8CAEF2"/>
<path d="M241.411 115.502C241.821 115.738 241.82 116.122 241.409 116.36C240.999 116.597 240.333 116.597 239.924 116.361C239.514 116.124 239.515 115.74 239.925 115.503C240.336 115.266 241.001 115.265 241.411 115.502Z" fill="#8CAEF2"/>
<path d="M244.042 117.021C244.452 117.257 244.451 117.641 244.041 117.878C243.63 118.116 242.964 118.116 242.555 117.879C242.145 117.643 242.146 117.259 242.556 117.022C242.967 116.784 243.633 116.784 244.042 117.021Z" fill="#8CAEF2"/>
<rect opacity="0.25" width="35.6301" height="6.95221" rx="3.4761" transform="matrix(0.866044 -0.499967 0.866044 0.499967 131.654 175.077)" fill="#8CAEF2"/>
<path opacity="0.75" d="M223.841 209.46L218.588 212.493M223.841 209.46L225.417 210.37C225.556 210.451 225.634 210.56 225.634 210.673C225.634 210.787 225.556 210.896 225.417 210.977L221.214 213.402C221.075 213.483 220.886 213.528 220.689 213.528C220.492 213.528 220.303 213.483 220.164 213.402L218.588 212.493M223.841 209.46L221.125 208.939C220.994 208.913 220.853 208.91 220.719 208.928C220.584 208.946 220.461 208.986 220.364 209.042L217.863 210.485C217.766 210.542 217.697 210.613 217.666 210.691C217.634 210.768 217.641 210.849 217.685 210.925L218.588 212.493M220.689 212.493L220.692 212.491M221.74 211.886L221.742 211.885" stroke="#8CAEF2" stroke-width="0.75" stroke-linecap="round" stroke-linejoin="round"/>
<path opacity="0.75" fill-rule="evenodd" clip-rule="evenodd" d="M148.913 179.185C146.107 180.805 146.107 183.431 148.913 185.05L212.219 221.597C215.024 223.216 219.573 223.216 222.378 221.597L322.621 163.726C325.427 162.107 325.427 159.481 322.621 157.861L259.316 121.315C256.51 119.695 251.962 119.695 249.156 121.315L148.913 179.185ZM303.721 147.7L258.666 121.69C256.219 120.277 252.253 120.277 249.806 121.69L149.562 179.56C147.269 180.884 147.125 182.98 149.132 184.401C149.266 184.495 149.41 184.587 149.562 184.675L194.619 210.687C197.066 212.098 201.031 212.098 203.477 210.685L303.721 152.815C306.168 151.402 306.168 149.112 303.721 147.7ZM197.104 212.121C199.522 212.512 202.225 212.158 204.127 211.06L304.37 153.19C306.272 152.092 306.885 150.532 306.208 149.136L321.972 158.236C324.418 159.649 324.418 161.939 321.972 163.351L221.728 221.222C219.282 222.634 215.315 222.634 212.868 221.222L197.104 212.121Z" fill="#8CAEF2"/>
<path d="M193.935 192.44L194.231 192.611C194.923 193.012 195.373 193.531 195.513 194.091C195.654 194.651 195.476 195.222 195.008 195.719C194.54 196.216 193.806 196.613 192.916 196.849C192.025 197.086 191.026 197.15 190.067 197.032C189.109 196.915 188.242 196.621 187.596 196.195C186.95 195.77 186.559 195.235 186.483 194.671C186.406 194.107 186.647 193.543 187.171 193.065C187.694 192.586 188.471 192.218 189.387 192.016M191.659 191.127L191.662 194.84L189.734 194.84" stroke="#8CAEF2" stroke-linecap="round" stroke-linejoin="round"/>
<rect opacity="0.5" width="47.8765" height="6.95221" rx="3.4761" transform="matrix(0.866044 -0.499967 0.866044 0.499967 182.262 174.941)" fill="#8CAEF2"/>
<rect opacity="0.25" width="76.9088" height="4.34513" rx="2.17256" transform="matrix(0.866044 -0.499967 0.866044 0.499967 200.237 187.079)" fill="#8CAEF2"/>
<rect opacity="0.25" width="17.2719" height="4.34513" rx="2.17256" transform="matrix(0.866044 -0.499967 0.866044 0.499967 207.95 191.534)" fill="#8CAEF2"/>
<rect opacity="0.25" width="27.9175" height="4.34513" rx="2.17256" transform="matrix(0.866044 -0.499967 0.866044 0.499967 230.153 204.351)" fill="#8CAEF2"/>
<path d="M180.397 178.681C180.411 178.612 180.559 178.584 180.642 178.632L184.114 180.636C184.564 180.896 184.564 181.318 184.114 181.577L177.051 185.655C176.601 185.915 175.871 185.915 175.421 185.655L171.95 183.652C171.865 183.603 171.915 183.519 172.035 183.51C172.711 183.461 173.59 183.387 176.58 183.113C177.2 183.058 178.355 183.026 178.954 182.676C179.565 182.329 179.62 181.649 179.713 181.305C180.187 179.579 180.312 179.071 180.397 178.681ZM178.409 182.362C178.81 182.138 178.874 181.521 178.952 181.236C179.57 178.992 179.599 178.81 179.711 178.275C179.733 178.174 179.672 178.072 179.547 178L179.224 177.813C178.774 177.554 178.044 177.554 177.594 177.813L170.531 181.891C170.081 182.151 170.081 182.572 170.531 182.832L170.853 183.018C170.979 183.091 171.154 183.125 171.331 183.113C172.256 183.048 172.572 183.032 176.46 182.675C176.952 182.63 178.022 182.593 178.409 182.362Z" fill="#5E8EED"/>
<path opacity="0.75" fill-rule="evenodd" clip-rule="evenodd" d="M230.163 226.436C227.357 228.055 227.357 230.681 230.163 232.3L293.469 268.847C296.274 270.466 300.823 270.466 303.628 268.847L403.871 210.976C406.677 209.357 406.677 206.731 403.871 205.111L340.566 168.565C337.76 166.945 333.212 166.945 330.406 168.565L230.163 226.436ZM384.971 194.95L339.916 168.94C337.469 167.528 333.503 167.528 331.056 168.94L230.812 226.811C228.519 228.135 228.375 230.23 230.382 231.651C230.516 231.746 230.66 231.837 230.812 231.926L275.869 257.937C278.316 259.348 282.281 259.348 284.727 257.936L384.971 200.065C387.418 198.653 387.418 196.363 384.971 194.95ZM278.354 259.372C280.772 259.762 283.475 259.409 285.377 258.311L385.62 200.44C387.522 199.342 388.135 197.782 387.458 196.386L403.222 205.486C405.668 206.899 405.668 209.189 403.222 210.601L302.978 268.472C300.532 269.884 296.565 269.884 294.118 268.472L278.354 259.372Z" fill="#8CAEF2"/>
<rect opacity="0.5" width="47.8765" height="6.95221" rx="3.4761" transform="matrix(0.866044 -0.499967 0.866044 0.499967 263.512 222.192)" fill="#8CAEF2"/>
<rect opacity="0.25" width="76.9088" height="4.34513" rx="2.17256" transform="matrix(0.866044 -0.499967 0.866044 0.499967 281.487 234.329)" fill="#8CAEF2"/>
</g>
<defs>
<clipPath id="clip0_585_3739">
<rect width="300" height="220" fill="white"/>
</clipPath>
</defs>
</svg>
