<svg width="467" height="296" viewBox="0 0 467 296" fill="none" xmlns="http://www.w3.org/2000/svg">
<path d="M108.707 52.1413C109.398 47.7774 113.496 44.8001 117.86 45.4913L490.218 104.467C494.582 105.158 497.56 109.256 496.868 113.62L444.996 441.132C444.305 445.496 440.207 448.473 435.843 447.782L63.4843 388.806C59.1204 388.115 56.1431 384.017 56.8343 379.653L108.707 52.1413Z" fill="white" fill-opacity="0.05"/>
<path d="M109.201 52.2195C109.849 48.1284 113.691 45.3372 117.782 45.9851L490.14 104.961C494.231 105.609 497.023 109.451 496.375 113.542L444.502 441.054C443.854 445.145 440.012 447.936 435.921 447.288L63.5625 388.312C59.4714 387.664 56.6801 383.822 57.3281 379.731L109.201 52.2195Z" stroke="white" stroke-opacity="0.2"/>
<path d="M94.5893 46.7591C96.2308 36.3949 105.963 29.3238 116.328 30.9653L498.115 91.4345C508.48 93.0761 515.551 102.809 513.909 113.173L461.113 446.514C459.472 456.878 449.739 463.949 439.375 462.308L57.5871 401.839C47.2228 400.197 40.1517 390.464 41.7932 380.1L94.5893 46.7591Z" fill="white" fill-opacity="0.05"/>
<path d="M95.1448 46.8471C96.7378 36.7898 106.182 29.9279 116.24 31.5209L498.027 91.9901C508.085 93.583 514.946 103.027 513.354 113.085L460.558 446.426C458.965 456.483 449.52 463.345 439.463 461.752L57.6751 401.283C47.6177 399.69 40.7559 390.246 42.3488 380.188L95.1448 46.8471Z" stroke="white" stroke-opacity="0.2" stroke-width="1.125"/>
<path d="M137.255 81.7013L141.486 85.0084L141.467 85.1299L136.421 86.9677L136.217 88.2573L142.566 85.7538L142.724 84.7545L137.46 80.4117L137.255 81.7013ZM156.382 88.4958C156.677 86.6323 157.813 85.6633 159.434 85.92C159.832 85.9831 160.292 86.139 160.61 86.314L160.815 85.0244C160.588 84.8846 160.199 84.7607 159.78 84.6944C158.369 84.4709 157.346 85.0288 156.861 86.3431L156.713 86.3196L157.009 84.4493L154.275 84.0162L154.129 84.9345L155.756 85.1922L154.887 90.6814L153.408 90.4472L153.263 91.3654L158.131 92.1364L158.276 91.2182L156.008 90.8589L156.382 88.4958ZM163.937 93.1876C165.004 93.3566 165.87 93.0439 166.346 92.3163L166.46 92.3345L166.286 93.435L167.38 93.6082L168.174 88.5917C168.416 87.0658 167.569 86.0319 165.848 85.7592C164.349 85.5218 163.087 86.1456 162.766 87.299L163.894 87.4776C164.182 86.8797 164.833 86.6159 165.677 86.7496C166.696 86.9111 167.177 87.5062 167.031 88.4245L166.926 89.0861L164.898 88.8687C163.217 88.6924 162.163 89.3145 161.958 90.6108C161.747 91.9409 162.54 92.9662 163.937 93.1876ZM164.428 92.234C163.503 92.0875 163.004 91.524 163.125 90.7543C163.246 89.9913 163.856 89.638 164.89 89.7533L166.787 89.9639L166.65 90.8281C166.495 91.8071 165.535 92.4094 164.428 92.234ZM174.821 85.4294C175.361 85.515 175.837 85.1751 175.923 84.635C176.007 84.1016 175.66 83.6313 175.12 83.5457C174.579 83.4602 174.103 83.8 174.019 84.3334C173.933 84.8736 174.281 85.3439 174.821 85.4294ZM176.449 95.0377L176.599 94.0857L174.175 93.7018L175.185 87.3281L171.559 86.7538L171.408 87.7058L173.9 88.1004L173.041 93.5221L170.529 93.1243L170.379 94.0763L176.449 95.0377ZM184.996 96.3915L185.147 95.4395L182.73 95.0567L184.195 85.8067L180.562 85.2314L180.412 86.1834L182.896 86.5769L181.582 94.8749L179.077 94.4781L178.926 95.4301L184.996 96.3915ZM195.46 90.5394L194.34 90.3619L192.417 96.0787L192.295 96.0595L192.043 90.0051L190.963 89.834L188.852 95.5141L188.73 95.4949L188.668 89.4636L187.547 89.2861L187.96 96.8609L189.061 97.0353L191.208 91.52L191.289 91.5329L191.626 97.4416L192.727 97.6159L195.46 90.5394ZM198.128 98.6029C199.195 98.7719 200.061 98.4592 200.537 97.7316L200.651 97.7498L200.477 98.8503L201.571 99.0236L202.365 94.007C202.607 92.4811 201.76 91.4472 200.039 91.1745C198.54 90.9371 197.278 91.5609 196.957 92.7144L198.085 92.893C198.373 92.295 199.024 92.0312 199.868 92.1649C200.887 92.3264 201.368 92.9215 201.222 93.8398L201.117 94.5014L199.089 94.284C197.408 94.1077 196.354 94.7298 196.149 96.0262C195.938 97.3563 196.731 98.3816 198.128 98.6029ZM198.619 97.6493C197.694 97.5028 197.195 96.9393 197.316 96.1696C197.437 95.4066 198.047 95.0533 199.081 95.1686L200.978 95.3792L200.841 96.2434C200.686 97.2224 199.726 97.8247 198.619 97.6493ZM204.974 102.227C206.331 102.442 207.03 102.006 207.957 100.305L211.921 93.1466L210.699 92.953L207.682 98.7596L207.595 98.7457L206.513 92.29L205.264 92.0922L206.79 99.8918L206.599 100.27C206.16 101.072 205.733 101.323 205.044 101.214C204.936 101.197 204.728 101.157 204.643 101.123L204.484 102.129C204.583 102.158 204.805 102.2 204.974 102.227ZM227.735 103.161L227.886 102.209L225.469 101.826L226.934 92.5759L223.301 92.0006L223.15 92.9526L225.635 93.3461L224.321 101.644L221.816 101.247L221.665 102.199L227.735 103.161ZM233.061 104.143C234.999 104.45 236.434 103.383 236.748 101.404L236.923 100.297C237.236 98.3188 236.201 96.8605 234.263 96.5536C232.325 96.2467 230.89 97.3136 230.576 99.2919L230.401 100.399C230.088 102.377 231.123 103.836 233.061 104.143ZM234.103 97.5664C235.358 97.7653 236 98.7806 235.773 100.219L235.63 101.117C235.402 102.562 234.478 103.322 233.222 103.123C231.967 102.924 231.324 101.916 231.552 100.471L231.695 99.5728C231.922 98.1347 232.847 97.3675 234.103 97.5664ZM240.979 108.075C242.964 108.39 244.301 107.549 244.574 105.828L245.734 98.502L244.6 98.3223L244.42 99.4566L244.292 99.4363C244.1 98.5961 243.37 98.003 242.31 97.8351C240.595 97.5635 239.282 98.6013 238.983 100.485L238.775 101.802C238.478 103.679 239.398 105.077 241.093 105.346C242.16 105.514 243.044 105.177 243.49 104.459L243.611 104.478L243.43 105.619C243.244 106.794 242.433 107.33 241.15 107.126C240.171 106.971 239.498 106.456 239.446 105.825L238.311 105.646C238.267 106.884 239.284 107.807 240.979 108.075ZM239.955 101.822L240.114 100.816C240.327 99.4728 241.248 98.7259 242.464 98.9184C243.672 99.1098 244.312 100.097 244.098 101.447L243.939 102.453C243.725 103.804 242.81 104.552 241.602 104.36C240.387 104.168 239.742 103.166 239.955 101.822ZM251.751 97.6139C252.291 97.6995 252.767 97.3596 252.853 96.8195C252.937 96.2861 252.589 95.8157 252.049 95.7302C251.509 95.6446 251.033 95.9845 250.949 96.5179C250.863 97.058 251.211 97.5284 251.751 97.6139ZM253.378 107.222L253.529 106.27L251.105 105.886L252.115 99.5126L248.489 98.9383L248.338 99.8903L250.83 100.285L249.971 105.707L247.459 105.309L247.308 106.261L253.378 107.222ZM255.728 107.594L256.876 107.776L257.559 103.462C257.757 102.213 258.701 101.497 259.909 101.688C261.05 101.869 261.492 102.576 261.282 103.899L260.576 108.362L261.723 108.544L262.476 103.791C262.754 102.035 262.041 100.946 260.447 100.694C259.333 100.517 258.415 100.898 257.879 101.747L257.784 101.732L257.989 100.443L256.888 100.269L255.728 107.594ZM138.231 115.309L139.774 105.566L138.592 105.379L137.924 109.599L133.805 108.946L134.474 104.726L133.292 104.539L131.749 114.282L132.931 114.469L133.632 110.04L137.751 110.692L137.049 115.122L138.231 115.309ZM145.815 114.572C145.511 115.181 144.767 115.465 143.842 115.318C142.593 115.121 141.933 114.13 142.146 112.787L142.193 112.49L147.183 113.28L147.296 112.564C147.632 110.444 146.711 109.004 144.807 108.702C142.944 108.407 141.507 109.481 141.201 111.412L141.027 112.512C140.696 114.599 141.673 115.992 143.685 116.311C145.224 116.555 146.515 115.922 146.929 114.748L145.815 114.572ZM144.644 109.687C145.826 109.874 146.408 110.832 146.186 112.229L142.331 111.619C142.554 110.214 143.422 109.494 144.644 109.687ZM155.286 118.01L155.436 117.058L153.019 116.675L154.484 107.425L150.852 106.85L150.701 107.802L153.186 108.195L151.872 116.493L149.367 116.097L149.216 117.049L155.286 118.01ZM163.833 119.364L163.984 118.412L161.567 118.029L163.032 108.779L159.4 108.204L159.249 109.156L161.734 109.549L160.419 117.847L157.914 117.45L157.764 118.402L163.833 119.364ZM169.159 120.346C171.097 120.653 172.533 119.586 172.846 117.607L173.021 116.5C173.335 114.522 172.299 113.064 170.361 112.757C168.424 112.45 166.988 113.517 166.675 115.495L166.499 116.602C166.186 118.581 167.222 120.039 169.159 120.346ZM170.201 113.769C171.457 113.968 172.099 114.984 171.871 116.422L171.729 117.32C171.5 118.765 170.577 119.525 169.321 119.326C168.065 119.127 167.422 118.119 167.651 116.674L167.793 115.776C168.021 114.338 168.945 113.571 170.201 113.769ZM185.961 123.076C187.763 123.361 189.041 122.415 189.336 120.558L190.439 113.59L185.895 112.871L185.727 113.931L189.076 114.461L188.146 120.335C187.955 121.537 187.227 122.114 186.127 121.94C185.161 121.787 184.576 121.071 184.684 120.168L183.516 119.983C183.274 121.557 184.266 122.808 185.961 123.076ZM194.061 124.283C195.128 124.452 195.994 124.139 196.469 123.411L196.584 123.43L196.41 124.53L197.503 124.703L198.298 119.687C198.54 118.161 197.693 117.127 195.971 116.854C194.472 116.617 193.211 117.241 192.89 118.394L194.017 118.573C194.306 117.975 194.957 117.711 195.801 117.845C196.82 118.006 197.3 118.601 197.155 119.52L197.05 120.181L195.022 119.964C193.34 119.788 192.287 120.41 192.081 121.706C191.871 123.036 192.663 124.061 194.061 124.283ZM194.551 123.329C193.626 123.183 193.127 122.619 193.249 121.849C193.37 121.087 193.98 120.733 195.013 120.848L196.911 121.059L196.774 121.923C196.619 122.902 195.659 123.505 194.551 123.329ZM202.789 121.395L202.701 121.381L203.678 115.217L202.53 115.035L200.914 125.237L202.062 125.419L202.484 122.752L203.651 121.94L205.573 125.975L206.937 126.191L204.592 121.286L207.895 118.833L206.504 118.613L202.789 121.395ZM214.197 125.403C213.893 126.012 213.149 126.296 212.224 126.149C210.975 125.951 210.315 124.961 210.528 123.617L210.575 123.32L215.565 124.11L215.678 123.395C216.014 121.275 215.093 119.835 213.189 119.533C211.326 119.238 209.889 120.312 209.583 122.243L209.409 123.343C209.078 125.429 210.055 126.823 212.067 127.142C213.606 127.385 214.897 126.752 215.311 125.579L214.197 125.403ZM213.026 120.518C214.208 120.705 214.79 121.662 214.568 123.06L210.713 122.449C210.936 121.045 211.804 120.324 213.026 120.518ZM125.053 158.741L129.285 162.048L129.265 162.17L124.219 164.007L124.015 165.297L130.364 162.793L130.522 161.794L125.258 157.451L125.053 158.741ZM144.18 165.535C144.475 163.672 145.612 162.703 147.232 162.96C147.63 163.023 148.09 163.179 148.409 163.354L148.613 162.064C148.386 161.924 147.997 161.8 147.578 161.734C146.167 161.511 145.145 162.068 144.66 163.383L144.511 163.359L144.807 161.489L142.073 161.056L141.927 161.974L143.554 162.232L142.685 167.721L141.206 167.487L141.061 168.405L145.929 169.176L146.074 168.258L143.806 167.899L144.18 165.535ZM151.736 170.227C152.802 170.396 153.669 170.084 154.144 169.356L154.258 169.374L154.084 170.475L155.178 170.648L155.972 165.631C156.214 164.105 155.367 163.072 153.646 162.799C152.147 162.561 150.885 163.185 150.564 164.339L151.692 164.517C151.98 163.919 152.631 163.656 153.475 163.789C154.495 163.951 154.975 164.546 154.829 165.464L154.724 166.126L152.696 165.908C151.015 165.732 149.961 166.354 149.756 167.651C149.545 168.981 150.338 170.006 151.736 170.227ZM152.226 169.274C151.301 169.127 150.802 168.564 150.924 167.794C151.044 167.031 151.654 166.678 152.688 166.793L154.585 167.004L154.449 167.868C154.294 168.847 153.333 169.449 152.226 169.274ZM162.619 162.469C163.159 162.555 163.635 162.215 163.721 161.675C163.805 161.141 163.458 160.671 162.918 160.585C162.378 160.5 161.901 160.84 161.817 161.373C161.731 161.913 162.079 162.384 162.619 162.469ZM164.247 172.077L164.397 171.125L161.974 170.741L162.983 164.368L159.357 163.794L159.207 164.746L161.698 165.14L160.839 170.562L158.328 170.164L158.177 171.116L164.247 172.077ZM172.794 173.431L172.945 172.479L170.528 172.096L171.993 162.846L168.361 162.271L168.21 163.223L170.694 163.617L169.38 171.915L166.875 171.518L166.725 172.47L172.794 173.431ZM183.259 167.579L182.138 167.402L180.215 173.118L180.093 173.099L179.841 167.045L178.761 166.874L176.65 172.554L176.528 172.535L176.466 166.503L175.346 166.326L175.758 173.901L176.859 174.075L179.006 168.56L179.087 168.573L179.425 174.481L180.525 174.656L183.259 167.579ZM185.927 175.643C186.993 175.812 187.86 175.499 188.335 174.771L188.449 174.789L188.275 175.89L189.369 176.063L190.163 171.047C190.405 169.521 189.558 168.487 187.837 168.214C186.338 167.977 185.076 168.601 184.755 169.754L185.883 169.933C186.171 169.335 186.822 169.071 187.666 169.205C188.686 169.366 189.166 169.961 189.02 170.879L188.915 171.541L186.887 171.324C185.206 171.147 184.152 171.769 183.947 173.066C183.736 174.396 184.529 175.421 185.927 175.643ZM186.417 174.689C185.492 174.542 184.993 173.979 185.115 173.209C185.235 172.446 185.845 172.093 186.879 172.208L188.776 172.419L188.64 173.283C188.485 174.262 187.524 174.864 186.417 174.689ZM192.772 179.267C194.129 179.482 194.828 179.046 195.755 177.345L199.719 170.186L198.497 169.993L195.481 175.799L195.393 175.785L194.311 169.33L193.062 169.132L194.588 176.931L194.397 177.309C193.958 178.112 193.531 178.363 192.842 178.254C192.734 178.237 192.526 178.197 192.442 178.163L192.282 179.169C192.381 179.198 192.603 179.24 192.772 179.267ZM213.906 170.592C214.446 170.678 214.922 170.338 215.007 169.798C215.092 169.264 214.744 168.794 214.204 168.708C213.664 168.623 213.188 168.963 213.103 169.496C213.018 170.036 213.366 170.507 213.906 170.592ZM215.533 180.2L215.684 179.248L213.26 178.864L214.269 172.491L210.644 171.916L210.493 172.868L212.984 173.263L212.126 178.685L209.614 178.287L209.463 179.239L215.533 180.2ZM217.883 180.572L219.031 180.754L219.714 176.44C219.912 175.191 220.856 174.475 222.064 174.667C223.205 174.847 223.647 175.554 223.437 176.877L222.73 181.34L223.878 181.522L224.631 176.769C224.909 175.013 224.196 173.924 222.602 173.672C221.488 173.496 220.57 173.876 220.034 174.726L219.939 174.711L220.144 173.421L219.043 173.247L217.883 180.572ZM231.001 173.3C231.541 173.385 232.017 173.045 232.103 172.505C232.187 171.972 231.84 171.502 231.3 171.416C230.759 171.33 230.283 171.67 230.199 172.204C230.113 172.744 230.461 173.214 231.001 173.3ZM232.629 182.908L232.779 181.956L230.355 181.572L231.365 175.198L227.739 174.624L227.588 175.576L230.08 175.971L229.221 181.392L226.71 180.995L226.559 181.947L232.629 182.908ZM238.198 174.267L237.884 176.252L235.933 175.943L235.778 176.922L237.729 177.231L237.072 181.376C236.831 182.902 237.566 183.725 239.382 184.012C239.733 184.068 240.629 184.175 240.817 184.17L240.971 183.198C240.772 183.187 240.033 183.091 239.621 183.026C238.588 182.862 238.096 182.341 238.222 181.545L238.877 177.412L241.834 177.881L241.989 176.902L239.018 176.431L239.333 174.446L238.198 174.267ZM123.157 190.945C121.577 190.695 120.922 189.505 121.241 187.486L121.516 185.751C121.836 183.732 122.827 182.802 124.401 183.051C125.65 183.249 126.381 184.272 126.213 185.595L127.421 185.786C127.71 183.7 126.639 182.25 124.586 181.925C122.297 181.562 120.722 182.898 120.301 185.558L120.026 187.293C119.605 189.954 120.69 191.71 122.979 192.073C124.97 192.388 126.536 191.328 126.835 189.445L125.633 189.254C125.4 190.505 124.454 191.151 123.157 190.945ZM131.314 193.324C133.252 193.631 134.688 192.564 135.001 190.586L135.176 189.478C135.49 187.5 134.454 186.042 132.516 185.735C130.579 185.428 129.143 186.495 128.83 188.473L128.654 189.58C128.341 191.559 129.377 193.017 131.314 193.324ZM132.356 186.748C133.612 186.947 134.254 187.962 134.026 189.4L133.884 190.298C133.655 191.743 132.732 192.503 131.476 192.304C130.22 192.105 129.577 191.097 129.806 189.652L129.948 188.754C130.176 187.316 131.1 186.549 132.356 186.748ZM136.886 194.068L138.034 194.25L138.717 189.935C138.915 188.686 139.859 187.971 141.067 188.162C142.208 188.343 142.65 189.049 142.44 190.373L141.733 194.836L142.881 195.017L143.634 190.264C143.912 188.509 143.199 187.42 141.605 187.168C140.491 186.991 139.573 187.372 139.037 188.221L138.942 188.206L139.147 186.917L138.046 186.742L136.886 194.068ZM145.433 195.422L146.581 195.604L147.265 191.289C147.462 190.04 148.406 189.324 149.615 189.516C150.756 189.697 151.198 190.403 150.988 191.727L150.281 196.19L151.429 196.371L152.182 191.618C152.46 189.863 151.746 188.774 150.153 188.521C149.039 188.345 148.121 188.725 147.585 189.575L147.49 189.56L147.694 188.27L146.594 188.096L145.433 195.422ZM159.257 195.673C158.953 196.283 158.209 196.566 157.284 196.42C156.035 196.222 155.375 195.231 155.587 193.888L155.635 193.591L160.624 194.381L160.737 193.665C161.073 191.545 160.152 190.105 158.248 189.804C156.385 189.508 154.948 190.582 154.642 192.513L154.468 193.614C154.138 195.7 155.114 197.093 157.126 197.412C158.666 197.656 159.956 197.023 160.371 195.85L159.257 195.673ZM158.086 190.788C159.267 190.975 159.849 191.933 159.628 193.33L155.772 192.72C155.995 191.315 156.863 190.595 158.086 190.788ZM169.377 194.044C169.427 192.508 168.465 191.415 166.844 191.158C164.853 190.843 163.498 191.881 163.165 193.981L163.013 194.939C162.681 197.039 163.649 198.445 165.64 198.761C167.261 199.017 168.519 198.282 168.938 196.819L167.804 196.639C167.529 197.454 166.729 197.874 165.784 197.724C164.508 197.522 163.936 196.546 164.185 194.973L164.29 194.311C164.539 192.738 165.386 191.979 166.662 192.181C167.607 192.331 168.237 192.984 168.243 193.864L169.377 194.044ZM174.297 190.47L173.982 192.455L172.031 192.146L171.876 193.125L173.827 193.434L173.171 197.579C172.929 199.105 173.664 199.928 175.48 200.215C175.831 200.271 176.728 200.378 176.916 200.373L177.07 199.401C176.871 199.39 176.131 199.294 175.72 199.229C174.687 199.065 174.195 198.544 174.321 197.748L174.975 193.616L177.932 194.084L178.088 193.105L175.117 192.634L175.431 190.649L174.297 190.47ZM184.9 199.735C184.596 200.344 183.852 200.628 182.927 200.481C181.678 200.283 181.018 199.293 181.231 197.949L181.278 197.652L186.267 198.442L186.381 197.727C186.716 195.607 185.796 194.167 183.892 193.865C182.028 193.57 180.592 194.644 180.286 196.575L180.111 197.675C179.781 199.761 180.758 201.155 182.77 201.474C184.309 201.717 185.6 201.084 186.014 199.911L184.9 199.735ZM183.729 194.85C184.91 195.037 185.492 195.994 185.271 197.392L181.416 196.781C181.638 195.377 182.507 194.656 183.729 194.85ZM190.692 202.714C191.738 202.88 192.576 202.57 193.083 201.82L193.211 201.84L193.033 202.961L194.161 203.139L195.777 192.937L194.609 192.752L193.974 196.763L193.852 196.744C193.662 195.89 192.95 195.314 191.89 195.146C190.196 194.877 188.895 195.924 188.598 197.801L188.382 199.165C188.083 201.049 188.997 202.446 190.692 202.714ZM191.195 201.721C189.986 201.53 189.348 200.536 189.562 199.186L189.729 198.132C189.942 196.782 190.856 196.041 192.064 196.232C193.266 196.423 193.906 197.41 193.692 198.76L193.525 199.813C193.31 201.171 192.397 201.912 191.195 201.721ZM208.488 195.885L208.173 197.87L206.222 197.561L206.067 198.54L208.018 198.849L207.362 202.995C207.12 204.521 207.855 205.343 209.671 205.631C210.022 205.686 210.919 205.794 211.107 205.789L211.261 204.816C211.062 204.806 210.322 204.709 209.911 204.644C208.878 204.481 208.386 203.96 208.512 203.163L209.166 199.031L212.123 199.499L212.279 198.52L209.308 198.05L209.622 196.065L208.488 195.885ZM216.792 206.862C218.73 207.169 220.165 206.102 220.478 204.124L220.654 203.017C220.967 201.038 219.932 199.58 217.994 199.273C216.056 198.966 214.62 200.033 214.307 202.011L214.132 203.119C213.818 205.097 214.854 206.555 216.792 206.862ZM217.833 200.286C219.089 200.485 219.731 201.5 219.503 202.938L219.361 203.836C219.132 205.281 218.209 206.042 216.953 205.843C215.697 205.644 215.054 204.635 215.283 203.19L215.425 202.292C215.653 200.854 216.578 200.087 217.833 200.286ZM235.547 202.06C234.501 201.895 233.669 202.206 233.156 202.955L233.035 202.936L233.212 201.815L232.078 201.635L230.526 211.432L231.694 211.617L232.265 208.012L232.394 208.032C232.584 208.886 233.289 209.461 234.349 209.629C236.043 209.897 237.344 208.851 237.641 206.974L237.857 205.61C238.156 203.726 237.242 202.329 235.547 202.06ZM235.05 203.061C236.258 203.253 236.891 204.239 236.677 205.589L236.51 206.642C236.297 207.993 235.389 208.742 234.18 208.55C232.972 208.359 232.339 207.373 232.554 206.016L232.721 204.962C232.935 203.612 233.841 202.87 235.05 203.061ZM242.686 207.461C242.981 205.598 244.117 204.629 245.738 204.886C246.136 204.949 246.596 205.104 246.914 205.279L247.118 203.99C246.891 203.85 246.503 203.726 246.084 203.66C244.673 203.436 243.65 203.994 243.165 205.309L243.017 205.285L243.313 203.415L240.578 202.982L240.433 203.9L242.06 204.158L241.191 209.647L239.712 209.413L239.567 210.331L244.435 211.102L244.58 210.184L242.312 209.824L242.686 207.461ZM250.983 212.278C252.921 212.584 254.356 211.518 254.669 209.539L254.845 208.432C255.158 206.454 254.123 204.995 252.185 204.689C250.247 204.382 248.811 205.448 248.498 207.427L248.323 208.534C248.009 210.512 249.045 211.971 250.983 212.278ZM252.024 205.701C253.28 205.9 253.922 206.915 253.694 208.354L253.552 209.252C253.323 210.696 252.4 211.457 251.144 211.258C249.888 211.059 249.245 210.051 249.474 208.606L249.616 207.708C249.844 206.27 250.769 205.502 252.024 205.701ZM261.962 204.528C262.502 204.613 262.978 204.273 263.064 203.733C263.148 203.2 262.801 202.729 262.261 202.644C261.72 202.558 261.244 202.898 261.16 203.432C261.074 203.972 261.422 204.442 261.962 204.528ZM262.339 206.428L257.863 205.719L257.712 206.671L261.061 207.202L260.079 213.4C259.914 214.446 259.45 214.705 258.087 214.489C257.641 214.419 256.699 214.249 256.353 214.159L256.191 215.186C256.67 215.303 257.451 215.441 257.958 215.521C259.997 215.844 260.929 215.334 261.186 213.714L262.339 206.428ZM270.377 213.273C270.073 213.882 269.329 214.166 268.404 214.019C267.155 213.822 266.495 212.831 266.708 211.488L266.755 211.19L271.745 211.981L271.858 211.265C272.194 209.145 271.273 207.705 269.369 207.403C267.506 207.108 266.069 208.182 265.763 210.113L265.589 211.213C265.258 213.3 266.235 214.693 268.247 215.012C269.787 215.256 271.077 214.623 271.491 213.449L270.377 213.273ZM269.206 208.388C270.388 208.575 270.97 209.532 270.748 210.93L266.893 210.319C267.116 208.915 267.984 208.194 269.206 208.388ZM280.498 211.644C280.547 210.108 279.586 209.015 277.965 208.758C275.973 208.442 274.619 209.481 274.286 211.58L274.134 212.539C273.802 214.639 274.769 216.045 276.761 216.36C278.382 216.617 279.64 215.882 280.059 214.419L278.924 214.239C278.65 215.054 277.85 215.474 276.904 215.324C275.628 215.122 275.056 214.146 275.305 212.572L275.41 211.911C275.659 210.338 276.506 209.579 277.782 209.781C278.728 209.931 279.358 210.584 279.364 211.464L280.498 211.644ZM285.418 208.07L285.103 210.055L283.152 209.745L282.997 210.725L284.948 211.034L284.292 215.179C284.05 216.705 284.785 217.527 286.601 217.815C286.952 217.871 287.849 217.978 288.036 217.973L288.19 217.001C287.991 216.99 287.252 216.894 286.84 216.829C285.807 216.665 285.315 216.144 285.441 215.347L286.096 211.215L289.053 211.684L289.208 210.705L286.237 210.234L286.552 208.249L285.418 208.07ZM299.293 219.791L300.441 219.972L301.124 215.658C301.322 214.409 302.266 213.693 303.474 213.885C304.615 214.065 305.057 214.772 304.848 216.096L304.141 220.558L305.288 220.74L306.041 215.987C306.319 214.232 305.606 213.143 304.012 212.89C302.898 212.714 301.98 213.094 301.444 213.944L301.349 213.929L301.554 212.639L300.453 212.465L299.293 219.791ZM313.116 220.042C312.812 220.651 312.068 220.935 311.143 220.789C309.894 220.591 309.234 219.6 309.447 218.257L309.494 217.96L314.484 218.75L314.597 218.034C314.933 215.914 314.012 214.474 312.108 214.172C310.244 213.877 308.808 214.951 308.502 216.882L308.328 217.983C307.997 220.069 308.974 221.462 310.986 221.781C312.525 222.025 313.816 221.392 314.23 220.219L313.116 220.042ZM311.945 215.157C313.127 215.344 313.709 216.302 313.487 217.699L309.632 217.089C309.854 215.684 310.723 214.964 311.945 215.157ZM319.86 220.155L321.256 223.269L322.587 223.48L320.65 219.367L323.727 216.151L322.437 215.947L320.181 218.434L320.087 218.419L318.703 215.356L317.346 215.141L319.298 219.201L316.206 222.469L317.475 222.67L319.772 220.141L319.86 220.155ZM328.156 214.839L327.842 216.824L325.891 216.515L325.736 217.494L327.687 217.803L327.03 221.948C326.789 223.474 327.523 224.297 329.34 224.584C329.691 224.64 330.587 224.747 330.775 224.742L330.929 223.77C330.73 223.759 329.991 223.663 329.579 223.598C328.546 223.434 328.054 222.913 328.18 222.117L328.835 217.984L331.792 218.453L331.947 217.474L328.976 217.003L329.291 215.018L328.156 214.839ZM338.892 216.712C339.432 216.798 339.908 216.458 339.994 215.918C340.078 215.384 339.73 214.914 339.19 214.828C338.65 214.743 338.174 215.083 338.09 215.616C338.004 216.156 338.352 216.627 338.892 216.712ZM339.269 218.613L334.793 217.904L334.642 218.856L337.991 219.386L337.009 225.584C336.843 226.631 336.38 226.89 335.016 226.674C334.571 226.603 333.629 226.433 333.283 226.344L333.12 227.37C333.6 227.488 334.381 227.625 334.888 227.705C336.927 228.028 337.859 227.518 338.115 225.898L339.269 218.613ZM343.209 221.265C343.045 222.305 343.594 223.077 344.869 223.59L345.916 224.012C346.815 224.369 347.124 224.736 347.032 225.317C346.921 226.019 346.214 226.371 345.215 226.213C344.27 226.063 343.684 225.569 343.622 224.867L342.454 224.682C342.383 225.958 343.361 226.909 345.022 227.172C346.757 227.447 348.023 226.747 348.237 225.397C348.405 224.337 347.855 223.613 346.482 223.064L345.486 222.664C344.6 222.316 344.272 221.938 344.361 221.378C344.467 220.71 345.136 220.373 346.068 220.52C346.926 220.656 347.478 221.145 347.511 221.808L348.619 221.983C348.677 220.74 347.765 219.813 346.239 219.571C344.625 219.316 343.41 219.995 343.209 221.265ZM357.749 225.166L357.918 224.1L350.774 222.968L350.605 224.035L357.749 225.166ZM363.764 222.368C362.717 222.202 361.886 222.513 361.372 223.263L361.251 223.243L361.428 222.123L360.294 221.943L358.742 231.74L359.911 231.925L360.482 228.319L360.61 228.34C360.8 229.193 361.505 229.769 362.565 229.937C364.259 230.205 365.56 229.158 365.858 227.281L366.074 225.917C366.372 224.034 365.458 222.636 363.764 222.368ZM363.266 223.369C364.474 223.56 365.107 224.546 364.893 225.897L364.727 226.95C364.513 228.3 363.605 229.049 362.396 228.858C361.188 228.666 360.555 227.68 360.77 226.323L360.937 225.27C361.151 223.92 362.057 223.177 363.266 223.369ZM370.021 233.81C372.006 234.124 373.344 233.284 373.616 231.562L374.777 224.237L373.642 224.057L373.463 225.191L373.334 225.171C373.142 224.331 372.413 223.738 371.353 223.57C369.638 223.298 368.324 224.336 368.026 226.22L367.817 227.536C367.52 229.413 368.441 230.812 370.135 231.08C371.202 231.249 372.086 230.912 372.532 230.193L372.654 230.212L372.473 231.354C372.287 232.528 371.475 233.064 370.192 232.861C369.213 232.706 368.541 232.191 368.488 231.56L367.354 231.38C367.31 232.619 368.327 233.541 370.021 233.81ZM368.998 227.557L369.157 226.551C369.37 225.207 370.291 224.461 371.506 224.653C372.715 224.844 373.354 225.832 373.141 227.182L372.981 228.188C372.767 229.538 371.853 230.286 370.644 230.095C369.429 229.902 368.785 228.901 368.998 227.557ZM112.852 235.781L117.083 239.088L117.063 239.209L112.017 241.047L111.813 242.337L118.162 239.833L118.32 238.834L113.056 234.491L112.852 235.781ZM131.978 242.575C132.273 240.712 133.41 239.743 135.03 239.999C135.428 240.062 135.888 240.218 136.207 240.393L136.411 239.104C136.184 238.964 135.795 238.84 135.377 238.774C133.965 238.55 132.943 239.108 132.458 240.422L132.309 240.399L132.605 238.529L129.871 238.096L129.725 239.014L131.353 239.272L130.483 244.761L129.005 244.527L128.859 245.445L133.727 246.216L133.873 245.298L131.604 244.938L131.978 242.575ZM139.534 247.267C140.6 247.436 141.467 247.123 141.942 246.396L142.057 246.414L141.882 247.514L142.976 247.688L143.771 242.671C144.012 241.145 143.166 240.111 141.444 239.839C139.945 239.601 138.683 240.225 138.362 241.378L139.49 241.557C139.778 240.959 140.429 240.695 141.273 240.829C142.293 240.99 142.773 241.586 142.627 242.504L142.523 243.165L140.495 242.948C138.813 242.772 137.759 243.394 137.554 244.69C137.343 246.02 138.136 247.046 139.534 247.267ZM140.024 246.313C139.099 246.167 138.6 245.603 138.722 244.834C138.843 244.071 139.452 243.717 140.486 243.833L142.384 244.043L142.247 244.907C142.092 245.886 141.131 246.489 140.024 246.313ZM150.417 239.509C150.958 239.594 151.434 239.254 151.519 238.714C151.604 238.181 151.256 237.711 150.716 237.625C150.176 237.54 149.7 237.879 149.615 238.413C149.53 238.953 149.877 239.423 150.417 239.509ZM152.045 249.117L152.196 248.165L149.772 247.781L150.781 241.407L147.155 240.833L147.005 241.785L149.496 242.18L148.637 247.601L146.126 247.204L145.975 248.156L152.045 249.117ZM160.592 250.471L160.743 249.519L158.326 249.136L159.791 239.886L156.159 239.311L156.008 240.263L158.493 240.656L157.178 248.954L154.673 248.557L154.523 249.509L160.592 250.471ZM171.057 244.619L169.936 244.441L168.013 250.158L167.892 250.139L167.639 244.084L166.559 243.913L164.448 249.593L164.327 249.574L164.264 243.543L163.144 243.365L163.557 250.94L164.657 251.115L166.804 245.599L166.885 245.612L167.223 251.521L168.323 251.695L171.057 244.619ZM173.725 252.682C174.791 252.851 175.658 252.539 176.133 251.811L176.248 251.829L176.073 252.93L177.167 253.103L177.962 248.086C178.203 246.56 177.357 245.527 175.635 245.254C174.136 245.016 172.874 245.64 172.553 246.794L173.681 246.972C173.969 246.374 174.62 246.111 175.464 246.244C176.484 246.406 176.964 247.001 176.818 247.919L176.714 248.581L174.686 248.363C173.004 248.187 171.95 248.809 171.745 250.106C171.534 251.436 172.327 252.461 173.725 252.682ZM174.215 251.729C173.29 251.582 172.791 251.019 172.913 250.249C173.034 249.486 173.643 249.133 174.677 249.248L176.575 249.459L176.438 250.323C176.283 251.302 175.322 251.904 174.215 251.729ZM180.57 256.307C181.927 256.521 182.626 256.085 183.553 254.384L187.518 247.226L186.295 247.032L183.279 252.839L183.191 252.825L182.109 246.369L180.86 246.172L182.386 253.971L182.195 254.349C181.757 255.152 181.329 255.402 180.641 255.293C180.533 255.276 180.324 255.236 180.24 255.202L180.08 256.208C180.18 256.238 180.401 256.28 180.57 256.307ZM200.36 253.406C200.655 251.542 201.792 250.573 203.412 250.83C203.81 250.893 204.27 251.049 204.589 251.224L204.793 249.934C204.566 249.795 204.177 249.671 203.758 249.604C202.347 249.381 201.325 249.939 200.84 251.253L200.691 251.23L200.987 249.359L198.253 248.926L198.107 249.844L199.735 250.102L198.865 255.591L197.387 255.357L197.241 256.275L202.109 257.046L202.255 256.128L199.986 255.769L200.36 253.406ZM212.837 251.236L211.689 251.054L211.006 255.369C210.808 256.618 209.864 257.333 208.655 257.142C207.514 256.961 207.072 256.255 207.282 254.931L207.989 250.468L206.841 250.286L206.088 255.04C205.81 256.795 206.524 257.884 208.117 258.136C209.231 258.313 210.15 257.932 210.686 257.083L210.78 257.098L210.576 258.387L211.676 258.562L212.837 251.236ZM214.229 258.966L215.376 259.148L216.06 254.833C216.258 253.584 217.201 252.869 218.41 253.06C219.551 253.241 219.993 253.948 219.783 255.271L219.076 259.734L220.224 259.916L220.977 255.162C221.255 253.407 220.542 252.318 218.948 252.066C217.834 251.889 216.916 252.27 216.38 253.119L216.285 253.104L216.489 251.815L215.389 251.64L214.229 258.966ZM231.857 264.43C233.214 264.644 233.913 264.208 234.839 262.507L238.804 255.349L237.582 255.155L234.565 260.962L234.477 260.948L233.396 254.492L232.147 254.294L233.673 262.094L233.482 262.472C233.043 263.275 232.616 263.525 231.927 263.416C231.819 263.399 231.611 263.359 231.526 263.325L231.367 264.331C231.466 264.361 231.688 264.403 231.857 264.43ZM242.107 263.513C243.173 263.682 244.04 263.369 244.515 262.642L244.63 262.66L244.455 263.76L245.549 263.934L246.344 258.917C246.585 257.391 245.738 256.357 244.017 256.085C242.518 255.847 241.256 256.471 240.935 257.624L242.063 257.803C242.351 257.205 243.002 256.941 243.846 257.075C244.866 257.236 245.346 257.832 245.2 258.75L245.096 259.411L243.067 259.194C241.386 259.018 240.332 259.64 240.127 260.936C239.916 262.266 240.709 263.292 242.107 263.513ZM242.597 262.559C241.672 262.413 241.173 261.849 241.295 261.08C241.415 260.317 242.025 259.963 243.059 260.079L244.957 260.289L244.82 261.153C244.665 262.132 243.704 262.735 242.597 262.559ZM251.647 261.529C251.942 259.665 253.078 258.696 254.699 258.953C255.097 259.016 255.557 259.172 255.875 259.347L256.079 258.057C255.852 257.918 255.464 257.794 255.045 257.727C253.634 257.504 252.611 258.062 252.126 259.376L251.978 259.353L252.274 257.482L249.539 257.049L249.394 257.967L251.021 258.225L250.152 263.714L248.673 263.48L248.528 264.398L253.396 265.169L253.541 264.251L251.272 263.892L251.647 261.529ZM256.967 265.735L258.115 265.917L258.798 261.603C258.996 260.353 259.94 259.638 261.149 259.829C262.29 260.01 262.732 260.717 262.522 262.04L261.815 266.503L262.963 266.685L263.716 261.931C263.994 260.176 263.28 259.087 261.687 258.835C260.573 258.658 259.654 259.039 259.118 259.888L259.024 259.873L259.228 258.584L258.128 258.409L256.967 265.735ZM275.241 263.148C275.076 264.188 275.625 264.96 276.9 265.473L277.948 265.895C278.846 266.252 279.155 266.619 279.063 267.2C278.952 267.902 278.245 268.254 277.246 268.096C276.301 267.946 275.715 267.452 275.653 266.75L274.485 266.565C274.414 267.841 275.392 268.792 277.053 269.055C278.788 269.33 280.054 268.63 280.268 267.28C280.436 266.22 279.886 265.496 278.513 264.947L277.518 264.547C276.631 264.199 276.304 263.821 276.392 263.261C276.498 262.593 277.168 262.256 278.099 262.403C278.957 262.539 279.509 263.028 279.543 263.691L280.65 263.866C280.708 262.623 279.796 261.696 278.27 261.454C276.657 261.199 275.442 261.878 275.241 263.148ZM285.831 260.783L285.516 262.768L283.565 262.459L283.41 263.438L285.361 263.747L284.705 267.893C284.463 269.419 285.198 270.241 287.014 270.529C287.365 270.584 288.262 270.692 288.449 270.687L288.603 269.715C288.404 269.704 287.665 269.607 287.253 269.542C286.22 269.379 285.728 268.858 285.855 268.061L286.509 263.929L289.466 264.397L289.621 263.418L286.651 262.948L286.965 260.963L285.831 260.783ZM293.393 271.636C294.46 271.805 295.326 271.492 295.801 270.765L295.916 270.783L295.742 271.883L296.835 272.057L297.63 267.04C297.872 265.514 297.025 264.48 295.303 264.208C293.804 263.97 292.543 264.594 292.222 265.747L293.349 265.926C293.638 265.328 294.289 265.064 295.133 265.198C296.152 265.359 296.632 265.955 296.487 266.873L296.382 267.534L294.354 267.317C292.672 267.141 291.619 267.763 291.413 269.059C291.203 270.389 291.995 271.415 293.393 271.636ZM293.883 270.682C292.958 270.536 292.459 269.972 292.581 269.203C292.702 268.44 293.312 268.086 294.345 268.202L296.243 268.412L296.106 269.276C295.951 270.255 294.991 270.858 293.883 270.682ZM302.933 269.652C303.228 267.788 304.365 266.819 305.985 267.076C306.383 267.139 306.843 267.295 307.162 267.47L307.366 266.18C307.139 266.041 306.75 265.917 306.331 265.85C304.92 265.627 303.898 266.185 303.413 267.499L303.264 267.476L303.56 265.605L300.826 265.172L300.68 266.09L302.308 266.348L301.438 271.837L299.96 271.603L299.814 272.521L304.682 273.292L304.828 272.374L302.559 272.015L302.933 269.652ZM311.474 264.845L311.16 266.83L309.208 266.521L309.053 267.5L311.005 267.809L310.348 271.954C310.106 273.48 310.841 274.303 312.657 274.59C313.008 274.646 313.905 274.753 314.093 274.748L314.247 273.776C314.048 273.765 313.309 273.669 312.897 273.604C311.864 273.44 311.372 272.919 311.498 272.123L312.152 267.99L315.11 268.459L315.265 267.48L312.294 267.009L312.608 265.024L311.474 264.845ZM107.661 265.754C107.489 267.498 108.637 268.774 110.649 269.092C112.688 269.415 114.181 268.51 114.458 266.761C114.69 265.296 114.023 264.346 112.207 263.581L111.39 263.23C110.171 262.711 109.708 262.14 109.842 261.296C109.999 260.303 110.842 259.828 112.091 260.026C113.239 260.207 113.888 260.919 113.85 261.945L115.011 262.128C115.187 260.495 114.092 259.235 112.256 258.944C110.311 258.636 108.892 259.512 108.629 261.173C108.406 262.584 109.087 263.571 110.824 264.317L111.628 264.659C112.893 265.191 113.38 265.787 113.246 266.631C113.08 267.678 112.123 268.218 110.826 268.013C109.53 267.808 108.775 267.024 108.823 265.938L107.661 265.754ZM121.412 268.651C121.107 269.261 120.363 269.544 119.438 269.398C118.189 269.2 117.53 268.21 117.742 266.866L117.789 266.569L122.779 267.359L122.892 266.643C123.228 264.523 122.307 263.083 120.403 262.782C118.54 262.487 117.103 263.56 116.797 265.491L116.623 266.592C116.293 268.678 117.269 270.072 119.281 270.39C120.821 270.634 122.111 270.001 122.526 268.828L121.412 268.651ZM120.24 263.766C121.422 263.954 122.004 264.911 121.783 266.309L117.927 265.698C118.15 264.294 119.018 263.573 120.24 263.766ZM127.911 268.255C128.206 266.392 129.342 265.423 130.963 265.679C131.361 265.742 131.821 265.898 132.139 266.073L132.344 264.784C132.117 264.644 131.728 264.52 131.309 264.454C129.898 264.23 128.875 264.788 128.39 266.102L128.242 266.079L128.538 264.209L125.804 263.775L125.658 264.694L127.285 264.951L126.416 270.441L124.937 270.206L124.792 271.125L129.66 271.896L129.805 270.977L127.537 270.618L127.911 268.255ZM134.081 265.087L135.601 272.837L136.864 273.037L140.698 266.135L139.476 265.941L136.478 271.716L136.39 271.702L135.31 265.281L134.081 265.087ZM146.35 265.189C146.89 265.274 147.366 264.934 147.452 264.394C147.536 263.861 147.189 263.391 146.648 263.305C146.108 263.219 145.632 263.559 145.548 264.093C145.462 264.633 145.81 265.103 146.35 265.189ZM147.977 274.797L148.128 273.845L145.704 273.461L146.714 267.087L143.088 266.513L142.937 267.465L145.429 267.86L144.57 273.281L142.058 272.884L141.908 273.836L147.977 274.797ZM157.175 271.084C157.225 269.548 156.263 268.454 154.643 268.198C152.651 267.882 151.296 268.92 150.963 271.02L150.812 271.979C150.479 274.079 151.447 275.485 153.438 275.8C155.059 276.057 156.317 275.322 156.736 273.859L155.602 273.679C155.327 274.494 154.527 274.914 153.582 274.764C152.306 274.562 151.734 273.585 151.983 272.012L152.088 271.351C152.337 269.777 153.184 269.019 154.46 269.221C155.405 269.371 156.035 270.024 156.041 270.904L157.175 271.084ZM164.15 275.421C163.846 276.03 163.102 276.313 162.177 276.167C160.928 275.969 160.268 274.979 160.481 273.635L160.528 273.338L165.518 274.128L165.631 273.413C165.967 271.293 165.046 269.852 163.142 269.551C161.279 269.256 159.842 270.329 159.536 272.26L159.362 273.361C159.031 275.447 160.008 276.841 162.02 277.159C163.559 277.403 164.85 276.77 165.264 275.597L164.15 275.421ZM162.979 270.536C164.161 270.723 164.743 271.68 164.521 273.078L160.666 272.467C160.889 271.063 161.757 270.342 162.979 270.536ZM168.6 272.582C168.436 273.621 168.985 274.394 170.26 274.907L171.307 275.329C172.206 275.686 172.515 276.053 172.423 276.634C172.311 277.336 171.605 277.688 170.606 277.53C169.661 277.38 169.074 276.886 169.013 276.184L167.845 275.999C167.774 277.275 168.752 278.226 170.412 278.489C172.148 278.764 173.414 278.064 173.628 276.714C173.796 275.654 173.246 274.93 171.873 274.38L170.877 273.981C169.991 273.633 169.663 273.255 169.752 272.695C169.858 272.026 170.527 271.69 171.459 271.837C172.317 271.973 172.869 272.462 172.902 273.125L174.01 273.3C174.068 272.057 173.156 271.13 171.63 270.888C170.016 270.633 168.801 271.312 168.6 272.582ZM190.034 281.458L191.29 281.657L189.694 271.417L188.424 271.216L183.742 280.461L184.95 280.653L186.244 277.992L189.633 278.529L190.034 281.458ZM188.798 272.742L188.832 272.748L189.484 277.46L186.716 277.022L188.798 272.742ZM193.915 274.563L195.436 282.314L196.698 282.514L200.532 275.611L199.31 275.418L196.312 281.193L196.224 281.179L195.144 274.758L193.915 274.563ZM203.848 283.777C204.915 283.946 205.781 283.634 206.256 282.906L206.371 282.924L206.197 284.025L207.291 284.198L208.085 279.182C208.327 277.656 207.48 276.622 205.758 276.349C204.26 276.112 202.998 276.736 202.677 277.889L203.804 278.068C204.093 277.47 204.744 277.206 205.588 277.339C206.607 277.501 207.088 278.096 206.942 279.014L206.837 279.676L204.809 279.459C203.128 279.282 202.074 279.904 201.869 281.201C201.658 282.531 202.451 283.556 203.848 283.777ZM204.338 282.824C203.413 282.677 202.914 282.114 203.036 281.344C203.157 280.581 203.767 280.228 204.801 280.343L206.698 280.554L206.561 281.418C206.406 282.397 205.446 282.999 204.338 282.824ZM214.732 276.019C215.272 276.105 215.748 275.765 215.834 275.225C215.918 274.691 215.571 274.221 215.03 274.136C214.49 274.05 214.014 274.39 213.93 274.923C213.844 275.463 214.192 275.934 214.732 276.019ZM216.359 285.628L216.51 284.676L214.086 284.292L215.096 277.918L211.47 277.344L211.319 278.296L213.811 278.69L212.952 284.112L210.44 283.714L210.29 284.666L216.359 285.628ZM224.907 286.981L225.058 286.029L222.641 285.647L224.106 276.397L220.473 275.821L220.323 276.773L222.807 277.167L221.493 285.465L218.988 285.068L218.837 286.02L224.907 286.981ZM229.492 287.839C230.558 288.008 231.425 287.695 231.9 286.968L232.014 286.986L231.84 288.086L232.934 288.26L233.728 283.243C233.97 281.717 233.123 280.683 231.402 280.411C229.903 280.173 228.641 280.797 228.32 281.95L229.448 282.129C229.736 281.531 230.387 281.267 231.231 281.401C232.251 281.562 232.731 282.158 232.585 283.076L232.481 283.738L230.452 283.52C228.771 283.344 227.717 283.966 227.512 285.262C227.301 286.592 228.094 287.618 229.492 287.839ZM229.982 286.885C229.057 286.739 228.558 286.175 228.68 285.406C228.8 284.643 229.41 284.289 230.444 284.405L232.341 284.615L232.205 285.479C232.05 286.458 231.089 287.061 229.982 286.885ZM239.242 289.376C240.937 289.645 242.238 288.598 242.536 286.714L242.752 285.351C243.049 283.474 242.136 282.076 240.441 281.808C239.381 281.64 238.533 281.969 238.081 282.721L237.96 282.702L238.595 278.691L237.427 278.506L235.811 288.708L236.939 288.887L237.116 287.766L237.245 287.787C237.494 288.657 238.196 289.211 239.242 289.376ZM239.07 288.276C237.869 288.086 237.236 287.1 237.451 285.743L237.617 284.69C237.831 283.339 238.738 282.597 239.94 282.787C241.155 282.98 241.788 283.966 241.574 285.316L241.407 286.369C241.193 287.72 240.286 288.469 239.07 288.276ZM250.55 291.043L250.701 290.091L248.284 289.708L249.749 280.458L246.117 279.883L245.966 280.835L248.451 281.228L247.136 289.526L244.631 289.13L244.481 290.082L250.55 291.043ZM258.175 290.313C257.871 290.922 257.127 291.206 256.202 291.059C254.953 290.861 254.294 289.871 254.506 288.527L254.553 288.23L259.543 289.02L259.656 288.305C259.992 286.185 259.071 284.745 257.167 284.443C255.304 284.148 253.867 285.221 253.561 287.153L253.387 288.253C253.057 290.339 254.033 291.733 256.045 292.052C257.585 292.295 258.875 291.662 259.29 290.489L258.175 290.313ZM257.004 285.428C258.186 285.615 258.768 286.572 258.547 287.97L254.691 287.359C254.914 285.955 255.782 285.234 257.004 285.428ZM265.26 288.099C265.929 288.205 266.572 287.725 266.68 287.043C266.788 286.361 266.325 285.707 265.656 285.601C264.988 285.495 264.344 285.974 264.236 286.656C264.128 287.338 264.592 287.993 265.26 288.099ZM264.439 293.284C265.108 293.39 265.75 292.917 265.859 292.229C265.967 291.547 265.502 290.899 264.834 290.793C264.165 290.687 263.523 291.16 263.415 291.842C263.306 292.53 263.771 293.178 264.439 293.284ZM280.147 285.743L278.604 295.486L279.799 295.675L280.353 292.178L282.372 292.498C284.276 292.799 285.721 291.762 286.019 289.878C286.318 287.987 285.278 286.556 283.388 286.257L280.147 285.743ZM281.174 286.993L282.923 287.27C284.341 287.494 285.021 288.356 284.81 289.686C284.601 291.01 283.687 291.619 282.27 291.395L280.521 291.118L281.174 286.993ZM290.067 297.44C292.005 297.747 293.441 296.68 293.754 294.702L293.929 293.595C294.243 291.616 293.207 290.158 291.269 289.851C289.332 289.544 287.896 290.611 287.583 292.589L287.407 293.697C287.094 295.675 288.13 297.133 290.067 297.44ZM291.109 290.864C292.365 291.063 293.007 292.078 292.779 293.516L292.637 294.414C292.408 295.859 291.485 296.62 290.229 296.421C288.973 296.222 288.33 295.213 288.559 293.768L288.701 292.87C288.929 291.432 289.853 290.665 291.109 290.864ZM296.817 292.889C296.652 293.929 297.201 294.701 298.476 295.215L299.524 295.637C300.422 295.993 300.731 296.361 300.639 296.941C300.528 297.643 299.821 297.995 298.822 297.837C297.877 297.687 297.291 297.193 297.229 296.491L296.061 296.306C295.99 297.582 296.968 298.533 298.629 298.796C300.364 299.071 301.63 298.372 301.844 297.021C302.012 295.961 301.462 295.238 300.089 294.688L299.094 294.288C298.207 293.94 297.88 293.563 297.968 293.002C298.074 292.334 298.743 291.997 299.675 292.145C300.533 292.28 301.085 292.769 301.119 293.432L302.226 293.607C302.284 292.364 301.372 291.437 299.846 291.196C298.233 290.94 297.018 291.62 296.817 292.889ZM307.407 290.525L307.092 292.51L305.141 292.2L304.986 293.18L306.937 293.489L306.281 297.634C306.039 299.16 306.774 299.982 308.59 300.27C308.941 300.326 309.838 300.433 310.025 300.428L310.179 299.456C309.98 299.445 309.241 299.349 308.829 299.284C307.796 299.12 307.304 298.599 307.431 297.802L308.085 293.67L311.042 294.139L311.197 293.16L308.227 292.689L308.541 290.704L307.407 290.525ZM315.081 304.08C317.066 304.395 318.403 303.555 318.676 301.833L319.836 294.507L318.702 294.328L318.522 295.462L318.394 295.442C318.202 294.601 317.472 294.008 316.412 293.84C314.697 293.569 313.384 294.606 313.085 296.49L312.877 297.807C312.58 299.684 313.5 301.082 315.195 301.351C316.261 301.52 317.145 301.182 317.591 300.464L317.713 300.483L317.532 301.624C317.346 302.799 316.535 303.335 315.252 303.132C314.273 302.977 313.6 302.462 313.548 301.83L312.413 301.651C312.369 302.89 313.386 303.812 315.081 304.08ZM314.057 297.828L314.216 296.822C314.429 295.478 315.35 294.731 316.566 294.924C317.774 295.115 318.414 296.102 318.2 297.453L318.041 298.459C317.827 299.809 316.912 300.557 315.704 300.365C314.488 300.173 313.844 299.171 314.057 297.828ZM324.509 299.393C324.804 297.53 325.941 296.561 327.561 296.817C327.959 296.88 328.419 297.036 328.737 297.211L328.942 295.922C328.715 295.782 328.326 295.658 327.907 295.592C326.496 295.368 325.474 295.926 324.989 297.24L324.84 297.217L325.136 295.347L322.402 294.914L322.256 295.832L323.883 296.09L323.014 301.579L321.535 301.345L321.39 302.263L326.258 303.034L326.403 302.116L324.135 301.756L324.509 299.393ZM335.105 302.497C334.801 303.106 334.057 303.39 333.132 303.244C331.883 303.046 331.223 302.055 331.436 300.712L331.483 300.415L336.473 301.205L336.586 300.489C336.922 298.369 336.001 296.929 334.097 296.627C332.233 296.332 330.797 297.406 330.491 299.337L330.317 300.438C329.986 302.524 330.963 303.917 332.975 304.236C334.514 304.48 335.805 303.847 336.219 302.674L335.105 302.497ZM333.934 297.612C335.116 297.799 335.698 298.757 335.476 300.154L331.621 299.544C331.843 298.139 332.712 297.419 333.934 297.612ZM339.555 299.658C339.391 300.698 339.94 301.47 341.215 301.984L342.262 302.406C343.161 302.763 343.47 303.13 343.378 303.71C343.266 304.413 342.56 304.764 341.561 304.606C340.616 304.456 340.029 303.962 339.968 303.26L338.8 303.075C338.729 304.351 339.706 305.302 341.367 305.565C343.103 305.84 344.369 305.141 344.583 303.791C344.751 302.731 344.201 302.007 342.828 301.457L341.832 301.057C340.946 300.709 340.618 300.332 340.707 299.772C340.813 299.103 341.482 298.766 342.414 298.914C343.271 299.05 343.824 299.538 343.857 300.201L344.965 300.377C345.023 299.133 344.111 298.207 342.585 297.965C340.971 297.709 339.756 298.389 339.555 299.658ZM103.594 291.434C103.422 293.178 104.569 294.453 106.581 294.772C108.62 295.095 110.113 294.19 110.39 292.441C110.622 290.976 109.956 290.026 108.139 289.261L107.323 288.91C106.104 288.391 105.641 287.82 105.774 286.976C105.932 285.983 106.775 285.508 108.024 285.706C109.172 285.887 109.821 286.599 109.783 287.624L110.944 287.808C111.12 286.175 110.025 284.915 108.189 284.624C106.244 284.316 104.825 285.192 104.562 286.853C104.338 288.264 105.019 289.251 106.756 289.997L107.56 290.338C108.826 290.871 109.313 291.467 109.179 292.311C109.013 293.358 108.055 293.898 106.759 293.693C105.463 293.488 104.708 292.704 104.755 291.618L103.594 291.434ZM117.344 294.331C117.04 294.941 116.296 295.224 115.371 295.078C114.122 294.88 113.462 293.889 113.675 292.546L113.722 292.249L118.712 293.039L118.825 292.323C119.161 290.203 118.24 288.763 116.336 288.462C114.473 288.166 113.036 289.24 112.73 291.171L112.556 292.272C112.225 294.358 113.202 295.752 115.214 296.07C116.753 296.314 118.044 295.681 118.458 294.508L117.344 294.331ZM116.173 289.446C117.355 289.633 117.937 290.591 117.715 291.988L113.86 291.378C114.082 289.973 114.951 289.253 116.173 289.446ZM123.844 293.935C124.139 292.071 125.275 291.102 126.896 291.359C127.294 291.422 127.754 291.578 128.072 291.753L128.276 290.464C128.049 290.324 127.661 290.2 127.242 290.134C125.831 289.91 124.808 290.468 124.323 291.782L124.175 291.759L124.471 289.888L121.736 289.455L121.591 290.374L123.218 290.631L122.349 296.121L120.87 295.886L120.725 296.805L125.593 297.576L125.738 296.657L123.469 296.298L123.844 293.935ZM130.014 290.766L131.534 298.517L132.797 298.717L136.631 291.814L135.409 291.621L132.411 297.396L132.323 297.382L131.243 290.961L130.014 290.766ZM142.987 298.393C142.683 299.002 141.939 299.286 141.014 299.139C139.765 298.941 139.105 297.951 139.318 296.607L139.365 296.31L144.355 297.101L144.468 296.385C144.804 294.265 143.883 292.825 141.979 292.523C140.116 292.228 138.679 293.302 138.373 295.233L138.199 296.333C137.869 298.419 138.845 299.813 140.857 300.132C142.397 300.376 143.687 299.742 144.102 298.569L142.987 298.393ZM141.816 293.508C142.998 293.695 143.58 294.652 143.359 296.05L139.503 295.439C139.726 294.035 140.594 293.314 141.816 293.508ZM149.487 297.996C149.782 296.133 150.918 295.164 152.539 295.421C152.937 295.484 153.397 295.64 153.715 295.815L153.92 294.525C153.692 294.385 153.304 294.261 152.885 294.195C151.474 293.972 150.451 294.529 149.966 295.844L149.818 295.82L150.114 293.95L147.38 293.517L147.234 294.435L148.861 294.693L147.992 300.182L146.513 299.948L146.368 300.866L151.236 301.637L151.381 300.719L149.113 300.36L149.487 297.996ZM169.553 304.538L169.704 303.586L167.287 303.203L168.752 293.954L165.12 293.378L164.969 294.33L167.453 294.724L166.139 303.022L163.634 302.625L163.484 303.577L169.553 304.538ZM176.474 296.284C177.014 296.369 177.49 296.03 177.576 295.489C177.66 294.956 177.312 294.486 176.772 294.4C176.232 294.315 175.756 294.654 175.672 295.188C175.586 295.728 175.934 296.198 176.474 296.284ZM178.101 305.892L178.252 304.94L175.828 304.556L176.838 298.183L173.212 297.608L173.061 298.56L175.552 298.955L174.694 304.377L172.182 303.979L172.031 304.931L178.101 305.892ZM181.629 300.969C181.464 302.009 182.013 302.781 183.288 303.295L184.336 303.717C185.234 304.073 185.543 304.441 185.451 305.021C185.34 305.724 184.633 306.075 183.634 305.917C182.689 305.767 182.103 305.273 182.041 304.571L180.873 304.386C180.802 305.662 181.78 306.613 183.441 306.876C185.176 307.151 186.442 306.452 186.656 305.102C186.824 304.042 186.274 303.318 184.901 302.768L183.906 302.368C183.019 302.02 182.692 301.643 182.78 301.082C182.886 300.414 183.555 300.077 184.487 300.225C185.345 300.36 185.897 300.849 185.931 301.512L187.038 301.688C187.096 300.444 186.184 299.518 184.658 299.276C183.045 299.02 181.83 299.7 181.629 300.969ZM192.219 298.605L191.904 300.59L189.953 300.281L189.798 301.26L191.749 301.569L191.093 305.714C190.851 307.24 191.586 308.062 193.402 308.35C193.753 308.406 194.65 308.513 194.837 308.508L194.991 307.536C194.792 307.525 194.053 307.429 193.641 307.364C192.608 307.2 192.116 306.679 192.243 305.883L192.897 301.75L195.854 302.219L196.009 301.24L193.039 300.769L193.353 298.784L192.219 298.605ZM202.822 307.87C202.518 308.479 201.774 308.762 200.849 308.616C199.6 308.418 198.94 307.428 199.153 306.084L199.2 305.787L204.189 306.577L204.302 305.862C204.638 303.742 203.717 302.301 201.813 302C199.95 301.705 198.513 302.778 198.208 304.709L198.033 305.81C197.703 307.896 198.679 309.29 200.691 309.609C202.231 309.852 203.522 309.219 203.936 308.046L202.822 307.87ZM201.651 302.985C202.832 303.172 203.414 304.129 203.193 305.527L199.338 304.916C199.56 303.512 200.429 302.791 201.651 302.985ZM206.094 310.326L207.242 310.508L207.925 306.193C208.123 304.944 209.067 304.228 210.275 304.42C211.416 304.601 211.858 305.307 211.649 306.631L210.942 311.094L212.09 311.275L212.842 306.522C213.12 304.767 212.407 303.678 210.814 303.425C209.7 303.249 208.781 303.629 208.245 304.479L208.151 304.464L208.355 303.174L207.254 303L206.094 310.326ZM219.213 303.053C219.753 303.139 220.229 302.799 220.314 302.259C220.399 301.725 220.051 301.255 219.511 301.169C218.971 301.084 218.495 301.424 218.41 301.957C218.325 302.497 218.672 302.968 219.213 303.053ZM220.84 312.661L220.991 311.709L218.567 311.325L219.576 304.952L215.951 304.377L215.8 305.329L218.291 305.724L217.432 311.146L214.921 310.748L214.77 311.7L220.84 312.661ZM223.189 313.033L224.337 313.215L225.021 308.901C225.218 307.652 226.162 306.936 227.371 307.128C228.512 307.308 228.954 308.015 228.744 309.338L228.037 313.801L229.185 313.983L229.938 309.23C230.216 307.474 229.502 306.385 227.909 306.133C226.795 305.957 225.877 306.337 225.341 307.187L225.246 307.172L225.45 305.882L224.35 305.708L223.189 313.033ZM234.084 317.576C236.069 317.89 237.406 317.05 237.679 315.328L238.839 308.003L237.705 307.823L237.525 308.957L237.397 308.937C237.205 308.097 236.475 307.504 235.415 307.336C233.7 307.064 232.387 308.102 232.088 309.986L231.88 311.302C231.583 313.179 232.503 314.578 234.198 314.846C235.264 315.015 236.148 314.678 236.594 313.959L236.716 313.978L236.535 315.119C236.349 316.294 235.538 316.83 234.255 316.627C233.276 316.472 232.603 315.957 232.551 315.326L231.416 315.146C231.372 316.385 232.389 317.307 234.084 317.576ZM233.06 311.323L233.219 310.317C233.432 308.973 234.353 308.227 235.569 308.419C236.777 308.61 237.417 309.598 237.203 310.948L237.044 311.954C236.83 313.304 235.915 314.052 234.707 313.861C233.491 313.668 232.847 312.667 233.06 311.323ZM251.067 317.58C252.134 317.749 253 317.437 253.476 316.709L253.59 316.727L253.416 317.828L254.51 318.001L255.304 312.984C255.546 311.459 254.699 310.425 252.978 310.152C251.479 309.915 250.217 310.538 249.896 311.692L251.024 311.87C251.312 311.272 251.963 311.009 252.807 311.142C253.826 311.304 254.307 311.899 254.161 312.817L254.056 313.479L252.028 313.261C250.347 313.085 249.293 313.707 249.088 315.004C248.877 316.334 249.67 317.359 251.067 317.58ZM251.558 316.627C250.633 316.48 250.134 315.917 250.256 315.147C250.376 314.384 250.986 314.031 252.02 314.146L253.917 314.357L253.781 315.221C253.625 316.2 252.665 316.802 251.558 316.627ZM260.601 309.435L260.286 311.42L258.335 311.111L258.18 312.09L260.131 312.399L259.475 316.545C259.233 318.071 259.968 318.893 261.784 319.181C262.135 319.236 263.032 319.344 263.219 319.339L263.373 318.367C263.174 318.356 262.435 318.26 262.023 318.194C260.99 318.031 260.498 317.51 260.625 316.713L261.279 312.581L264.236 313.049L264.391 312.07L261.421 311.6L261.735 309.615L260.601 309.435ZM280.674 322.138L280.825 321.186L278.408 320.803L279.873 311.553L276.24 310.978L276.09 311.93L278.574 312.324L277.26 320.621L274.755 320.225L274.604 321.177L280.674 322.138ZM286 323.12C287.938 323.427 289.373 322.36 289.687 320.382L289.862 319.275C290.175 317.296 289.14 315.838 287.202 315.531C285.264 315.224 283.829 316.291 283.515 318.269L283.34 319.377C283.027 321.355 284.062 322.813 286 323.12ZM287.042 316.544C288.298 316.743 288.94 317.758 288.712 319.196L288.57 320.094C288.341 321.539 287.417 322.299 286.162 322.101C284.906 321.902 284.263 320.893 284.491 319.448L284.634 318.55C284.861 317.112 285.786 316.345 287.042 316.544ZM298.42 319.779C298.469 318.243 297.507 317.149 295.887 316.893C293.895 316.577 292.54 317.615 292.208 319.715L292.056 320.674C291.723 322.774 292.691 324.18 294.683 324.495C296.303 324.752 297.562 324.017 297.98 322.554L296.846 322.374C296.572 323.189 295.771 323.609 294.826 323.459C293.55 323.257 292.978 322.28 293.227 320.707L293.332 320.046C293.581 318.472 294.428 317.714 295.704 317.916C296.649 318.066 297.28 318.719 297.286 319.599L298.42 319.779ZM302.354 325.703C303.421 325.872 304.287 325.56 304.762 324.832L304.877 324.85L304.703 325.951L305.796 326.124L306.591 321.107C306.833 319.582 305.986 318.548 304.264 318.275C302.765 318.038 301.504 318.661 301.183 319.815L302.31 319.993C302.599 319.395 303.249 319.132 304.093 319.265C305.113 319.427 305.593 320.022 305.448 320.94L305.343 321.602L303.315 321.384C301.633 321.208 300.58 321.83 300.374 323.127C300.164 324.457 300.956 325.482 302.354 325.703ZM302.844 324.75C301.919 324.603 301.42 324.04 301.542 323.27C301.663 322.507 302.273 322.154 303.306 322.269L305.204 322.48L305.067 323.344C304.912 324.323 303.951 324.925 302.844 324.75ZM314.865 327.553L315.016 326.601L312.599 326.219L314.064 316.969L310.431 316.393L310.281 317.345L312.765 317.739L311.451 326.037L308.946 325.64L308.795 326.592L314.865 327.553ZM317.208 327.924L318.356 328.106L319.038 323.799C319.236 322.55 320.186 321.835 321.395 322.026C322.543 322.208 322.984 322.922 322.775 324.238L322.069 328.694L323.217 328.876L323.969 324.13C324.246 322.381 323.533 321.285 321.94 321.033C320.819 320.855 319.894 321.235 319.365 322.085L319.27 322.071L319.931 317.898L318.824 317.723L317.208 327.924ZM328.739 329.889C330.677 330.196 332.112 329.129 332.425 327.151L332.601 326.044C332.914 324.065 331.879 322.607 329.941 322.3C328.003 321.993 326.568 323.06 326.254 325.038L326.079 326.146C325.765 328.124 326.801 329.582 328.739 329.889ZM329.78 323.313C331.036 323.512 331.678 324.527 331.451 325.965L331.308 326.863C331.079 328.308 330.156 329.069 328.9 328.87C327.644 328.671 327.001 327.662 327.23 326.217L327.372 325.319C327.6 323.881 328.525 323.114 329.78 323.313ZM335.488 325.338C335.323 326.378 335.872 327.15 337.148 327.664L338.195 328.086C339.094 328.442 339.402 328.81 339.31 329.39C339.199 330.093 338.493 330.444 337.494 330.286C336.548 330.136 335.962 329.642 335.9 328.94L334.732 328.755C334.662 330.031 335.639 330.982 337.3 331.245C339.035 331.52 340.302 330.821 340.516 329.471C340.684 328.41 340.134 327.687 338.761 327.137L337.765 326.737C336.879 326.389 336.551 326.012 336.64 325.451C336.746 324.783 337.415 324.446 338.347 324.594C339.204 324.729 339.757 325.218 339.79 325.881L340.897 326.057C340.956 324.813 340.044 323.887 338.518 323.645C336.904 323.389 335.689 324.069 335.488 325.338ZM346.078 322.974L345.764 324.959L343.812 324.65L343.657 325.629L345.609 325.938L344.952 330.083C344.71 331.609 345.445 332.431 347.261 332.719C347.613 332.775 348.509 332.882 348.697 332.877L348.851 331.905C348.652 331.894 347.913 331.798 347.501 331.733C346.468 331.569 345.976 331.048 346.102 330.251L346.756 326.119L349.714 326.588L349.869 325.609L346.898 325.138L347.212 323.153L346.078 322.974ZM355.218 328.671C355.887 328.777 356.53 328.297 356.638 327.615C356.746 326.933 356.282 326.279 355.614 326.173C354.946 326.067 354.302 326.546 354.194 327.228C354.086 327.91 354.55 328.565 355.218 328.671ZM354.397 333.856C355.065 333.962 355.708 333.489 355.817 332.801C355.925 332.119 355.46 331.471 354.792 331.365C354.123 331.259 353.481 331.732 353.373 332.414C353.264 333.102 353.729 333.75 354.397 333.856ZM362.478 330.464L363.592 330.641C364.943 330.855 365.686 331.713 365.506 332.847C365.332 333.948 364.392 334.505 363.055 334.293C361.84 334.101 361.083 333.289 361.139 332.232L360.012 332.053C359.833 333.748 360.995 335.067 362.919 335.372C364.864 335.68 366.442 334.719 366.704 333.065C366.914 331.734 366.289 330.701 365.019 330.327L365.036 330.219C366.124 330.128 366.871 329.388 367.057 328.213C367.291 326.735 366.214 325.491 364.472 325.216C362.67 324.93 361.316 325.788 360.933 327.458L362.075 327.639C362.335 326.607 363.166 326.081 364.259 326.255C365.36 326.429 365.985 327.199 365.828 328.192C365.667 329.211 364.79 329.806 363.697 329.633L362.637 329.465L362.478 330.464ZM371.47 336.747C373.584 337.082 375.045 335.459 375.565 332.177C376.085 328.896 375.196 326.9 373.083 326.566C370.963 326.23 369.508 327.854 368.989 331.136C368.469 334.417 369.35 336.411 371.47 336.747ZM370.17 331.323C370.589 328.676 371.539 327.401 372.916 327.619C373.834 327.764 374.371 328.486 374.497 329.745L370.047 332.404C370.073 332.069 370.109 331.708 370.17 331.323ZM371.637 335.694C370.719 335.548 370.189 334.828 370.061 333.583L374.501 330.894C374.482 331.237 374.439 331.597 374.377 331.989C373.958 334.629 373.015 335.912 371.637 335.694ZM380.018 338.101C382.131 338.436 383.593 336.812 384.113 333.531C384.632 330.25 383.744 328.254 381.631 327.919C379.511 327.584 378.056 329.208 377.536 332.489C377.017 335.771 377.898 337.765 380.018 338.101ZM378.718 332.677C379.137 330.03 380.087 328.754 381.464 328.973C382.382 329.118 382.918 329.84 383.044 331.099L378.595 333.758C378.621 333.422 378.657 333.061 378.718 332.677ZM380.185 337.048C379.267 336.902 378.737 336.182 378.609 334.936L383.049 332.248C383.029 332.591 382.986 332.951 382.924 333.343C382.506 335.983 381.562 337.266 380.185 337.048ZM388.566 339.455C390.679 339.79 392.141 338.166 392.66 334.885C393.18 331.603 392.292 329.608 390.179 329.273C388.058 328.937 386.604 330.562 386.084 333.843C385.564 337.125 386.446 339.119 388.566 339.455ZM387.266 334.03C387.685 331.384 388.634 330.108 390.012 330.326C390.93 330.472 391.466 331.194 391.592 332.452L387.143 335.111C387.168 334.776 387.205 334.415 387.266 334.03ZM388.733 338.402C387.814 338.256 387.285 337.536 387.157 336.29L391.597 333.602C391.577 333.945 391.534 334.305 391.472 334.697C391.054 337.337 390.11 338.62 388.733 338.402ZM96.5824 338.5L100.813 341.807L100.794 341.929L95.7483 343.767L95.5441 345.056L101.893 342.553L102.051 341.553L96.7867 337.211L96.5824 338.5ZM115.709 345.295C116.004 343.431 117.141 342.462 118.761 342.719C119.159 342.782 119.619 342.938 119.937 343.113L120.142 341.823C119.915 341.684 119.526 341.56 119.107 341.493C117.696 341.27 116.673 341.828 116.188 343.142L116.04 343.118L116.336 341.248L113.602 340.815L113.456 341.733L115.083 341.991L114.214 347.48L112.735 347.246L112.59 348.164L117.458 348.935L117.603 348.017L115.335 347.658L115.709 345.295ZM123.264 349.987C124.331 350.155 125.197 349.843 125.673 349.115L125.787 349.133L125.613 350.234L126.707 350.407L127.501 345.391C127.743 343.865 126.896 342.831 125.175 342.558C123.676 342.321 122.414 342.945 122.093 344.098L123.221 344.277C123.509 343.679 124.16 343.415 125.004 343.549C126.023 343.71 126.504 344.305 126.358 345.223L126.253 345.885L124.225 345.668C122.544 345.491 121.49 346.113 121.285 347.41C121.074 348.74 121.867 349.765 123.264 349.987ZM123.755 349.033C122.83 348.886 122.331 348.323 122.452 347.553C122.573 346.79 123.183 346.437 124.217 346.552L126.114 346.763L125.978 347.627C125.822 348.606 124.862 349.208 123.755 349.033ZM134.148 342.228C134.688 342.314 135.164 341.974 135.25 341.434C135.334 340.901 134.987 340.43 134.447 340.345C133.906 340.259 133.43 340.599 133.346 341.132C133.26 341.672 133.608 342.143 134.148 342.228ZM135.776 351.837L135.926 350.885L133.502 350.501L134.512 344.127L130.886 343.553L130.735 344.505L133.227 344.899L132.368 350.321L129.856 349.923L129.706 350.875L135.776 351.837ZM144.323 353.19L144.474 352.238L142.057 351.856L143.522 342.606L139.89 342.03L139.739 342.982L142.223 343.376L140.909 351.674L138.404 351.277L138.253 352.229L144.323 353.19ZM154.788 347.338L153.667 347.161L151.744 352.878L151.622 352.858L151.37 346.804L150.29 346.633L148.179 352.313L148.057 352.294L147.995 346.263L146.874 346.085L147.287 353.66L148.388 353.834L150.535 348.319L150.616 348.332L150.954 354.241L152.054 354.415L154.788 347.338ZM157.455 355.402C158.522 355.571 159.388 355.258 159.864 354.531L159.978 354.549L159.804 355.649L160.898 355.822L161.692 350.806C161.934 349.28 161.087 348.246 159.366 347.973C157.867 347.736 156.605 348.36 156.284 349.513L157.412 349.692C157.7 349.094 158.351 348.83 159.195 348.964C160.214 349.125 160.695 349.72 160.549 350.639L160.444 351.3L158.416 351.083C156.735 350.907 155.681 351.529 155.476 352.825C155.265 354.155 156.058 355.18 157.455 355.402ZM157.946 354.448C157.021 354.302 156.522 353.738 156.643 352.969C156.764 352.206 157.374 351.852 158.408 351.968L160.305 352.178L160.168 353.042C160.013 354.021 159.053 354.624 157.946 354.448ZM164.301 359.026C165.658 359.241 166.357 358.805 167.284 357.104L171.248 349.945L170.026 349.752L167.009 355.559L166.922 355.545L165.84 349.089L164.591 348.891L166.117 356.691L165.926 357.069C165.487 357.871 165.06 358.122 164.371 358.013C164.263 357.996 164.055 357.956 163.971 357.922L163.811 358.928C163.91 358.957 164.132 358.999 164.301 359.026ZM188.02 352.602L186.872 352.42L186.189 356.734C185.991 357.983 185.047 358.699 183.838 358.508C182.697 358.327 182.256 357.62 182.465 356.297L183.172 351.834L182.024 351.652L181.271 356.405C180.993 358.161 181.707 359.25 183.3 359.502C184.414 359.679 185.333 359.298 185.869 358.449L185.963 358.464L185.759 359.753L186.859 359.927L188.02 352.602ZM194.048 353.432C193.002 353.266 192.17 353.578 191.657 354.327L191.535 354.308L191.713 353.187L190.579 353.007L189.027 362.804L190.195 362.989L190.766 359.383L190.894 359.404C191.084 360.258 191.789 360.833 192.849 361.001C194.544 361.269 195.845 360.222 196.142 358.345L196.358 356.982C196.657 355.098 195.743 353.7 194.048 353.432ZM193.55 354.433C194.759 354.624 195.392 355.61 195.178 356.961L195.011 358.014C194.797 359.364 193.89 360.114 192.681 359.922C191.472 359.731 190.84 358.745 191.055 357.387L191.221 356.334C191.435 354.984 192.342 354.241 193.55 354.433ZM96.8353 371.993L98.0912 372.192L96.4947 361.952L95.2254 361.751L90.5427 370.996L91.7513 371.188L93.0447 368.527L96.4341 369.064L96.8353 371.993ZM95.5996 363.277L95.6333 363.283L96.285 367.996L93.5168 367.557L95.5996 363.277ZM104.503 365.574C103.457 365.408 102.625 365.719 102.112 366.468L101.991 366.449L102.168 365.328L101.034 365.149L99.4822 374.946L100.65 375.131L101.221 371.525L101.35 371.545C101.54 372.399 102.245 372.974 103.305 373.142C104.999 373.411 106.3 372.364 106.597 370.487L106.813 369.123C107.112 367.239 106.198 365.842 104.503 365.574ZM104.006 366.574C105.214 366.766 105.847 367.752 105.633 369.102L105.466 370.156C105.252 371.506 104.345 372.255 103.136 372.064C101.928 371.872 101.295 370.886 101.51 369.529L101.677 368.476C101.891 367.125 102.797 366.383 104.006 366.574ZM113.051 366.927C112.005 366.762 111.173 367.073 110.66 367.822L110.538 367.803L110.716 366.682L109.582 366.503L108.03 376.299L109.198 376.484L109.769 372.879L109.897 372.899C110.087 373.753 110.792 374.328 111.852 374.496C113.547 374.765 114.848 373.718 115.145 371.841L115.361 370.477C115.659 368.593 114.746 367.196 113.051 366.927ZM112.553 367.928C113.762 368.12 114.395 369.106 114.181 370.456L114.014 371.51C113.8 372.86 112.893 373.609 111.684 373.418C110.475 373.226 109.843 372.24 110.058 370.883L110.224 369.83C110.438 368.479 111.345 367.737 112.553 367.928ZM128.03 377.058C129.076 377.224 129.914 376.914 130.421 376.164L130.549 376.184L130.371 377.305L131.499 377.483L133.115 367.281L131.947 367.096L131.312 371.107L131.19 371.088C131 370.234 130.288 369.658 129.228 369.49C127.534 369.221 126.233 370.268 125.935 372.145L125.719 373.509C125.421 375.393 126.335 376.79 128.03 377.058ZM128.533 376.065C127.324 375.874 126.686 374.88 126.9 373.53L127.067 372.476C127.28 371.126 128.194 370.385 129.402 370.576C130.604 370.767 131.244 371.754 131.03 373.104L130.863 374.157C130.648 375.514 129.735 376.256 128.533 376.065ZM139.333 376.786C139.029 377.396 138.285 377.679 137.36 377.533C136.111 377.335 135.451 376.344 135.664 375.001L135.711 374.704L140.701 375.494L140.814 374.778C141.15 372.658 140.229 371.218 138.325 370.917C136.462 370.621 135.025 371.695 134.719 373.626L134.545 374.727C134.214 376.813 135.191 378.207 137.203 378.525C138.742 378.769 140.033 378.136 140.447 376.963L139.333 376.786ZM138.162 371.901C139.344 372.088 139.926 373.046 139.704 374.443L135.849 373.833C136.072 372.428 136.94 371.708 138.162 371.901ZM147.242 372.343C146.196 372.177 145.364 372.488 144.851 373.238L144.729 373.218L144.907 372.098L143.773 371.918L142.221 381.715L143.389 381.9L143.96 378.294L144.088 378.315C144.278 379.168 144.983 379.744 146.043 379.912C147.738 380.18 149.039 379.133 149.336 377.256L149.552 375.892C149.85 374.009 148.937 372.611 147.242 372.343ZM146.744 373.344C147.953 373.535 148.586 374.521 148.372 375.872L148.205 376.925C147.991 378.275 147.084 379.024 145.875 378.833C144.666 378.641 144.034 377.655 144.249 376.298L144.415 375.245C144.629 373.895 145.536 373.152 146.744 373.344ZM157.351 381.578L157.502 380.626L155.085 380.243L156.55 370.993L152.918 370.418L152.767 371.37L155.252 371.763L153.937 380.061L151.432 379.665L151.282 380.617L157.351 381.578ZM162.678 382.56C164.615 382.867 166.051 381.8 166.364 379.822L166.54 378.714C166.853 376.736 165.817 375.278 163.879 374.971C161.942 374.664 160.506 375.731 160.193 377.709L160.017 378.816C159.704 380.795 160.74 382.253 162.678 382.56ZM163.719 375.984C164.975 376.183 165.617 377.198 165.389 378.636L165.247 379.534C165.018 380.979 164.095 381.739 162.839 381.54C161.583 381.342 160.94 380.333 161.169 378.888L161.311 377.99C161.539 376.552 162.463 375.785 163.719 375.984ZM168.781 386.06C170.138 386.275 170.837 385.839 171.764 384.138L175.729 376.979L174.507 376.786L171.49 382.592L171.402 382.578L170.321 376.123L169.072 375.925L170.598 383.724L170.406 384.102C169.968 384.905 169.541 385.156 168.852 385.047C168.744 385.03 168.536 384.99 168.451 384.956L168.292 385.962C168.391 385.991 168.613 386.033 168.781 386.06ZM182.072 383.555C181.768 384.165 181.024 384.448 180.099 384.302C178.85 384.104 178.19 383.114 178.403 381.77L178.45 381.473L183.44 382.263L183.553 381.547C183.889 379.427 182.968 377.987 181.064 377.686C179.2 377.391 177.764 378.464 177.458 380.395L177.284 381.496C176.953 383.582 177.93 384.976 179.942 385.294C181.481 385.538 182.772 384.905 183.186 383.732L182.072 383.555ZM180.901 378.67C182.083 378.858 182.665 379.815 182.443 381.213L178.588 380.602C178.81 379.198 179.679 378.477 180.901 378.67ZM187.864 386.535C188.91 386.701 189.748 386.391 190.255 385.64L190.383 385.661L190.206 386.782L191.333 386.96L192.949 376.758L191.781 376.573L191.146 380.584L191.024 380.565C190.834 379.711 190.123 379.134 189.063 378.966C187.368 378.698 186.067 379.745 185.77 381.622L185.554 382.986C185.255 384.869 186.169 386.267 187.864 386.535ZM188.367 385.542C187.159 385.351 186.52 384.357 186.734 383.006L186.901 381.953C187.115 380.603 188.028 379.862 189.237 380.053C190.438 380.243 191.078 381.231 190.864 382.581L190.697 383.634C190.482 384.991 189.569 385.733 188.367 385.542ZM204.675 389.205C205.741 389.374 206.608 389.061 207.083 388.333L207.198 388.352L207.023 389.452L208.117 389.625L208.912 384.609C209.153 383.083 208.307 382.049 206.585 381.776C205.086 381.539 203.824 382.163 203.503 383.316L204.631 383.495C204.919 382.897 205.57 382.633 206.414 382.767C207.434 382.928 207.914 383.523 207.768 384.442L207.664 385.103L205.636 384.886C203.954 384.709 202.9 385.332 202.695 386.628C202.484 387.958 203.277 388.983 204.675 389.205ZM205.165 388.251C204.24 388.105 203.741 387.541 203.863 386.771C203.984 386.008 204.593 385.655 205.627 385.77L207.525 385.981L207.388 386.845C207.233 387.824 206.272 388.426 205.165 388.251ZM210.988 390.073L212.135 390.255L212.819 385.941C213.017 384.691 213.96 383.976 215.169 384.167C216.31 384.348 216.752 385.055 216.542 386.378L215.835 390.841L216.983 391.023L217.736 386.269C218.014 384.514 217.301 383.425 215.707 383.173C214.593 382.996 213.675 383.377 213.139 384.226L213.044 384.211L213.248 382.922L212.148 382.747L210.988 390.073ZM222.055 391.951C223.101 392.116 223.939 391.806 224.446 391.056L224.574 391.076L224.397 392.197L225.524 392.375L227.14 382.174L225.972 381.989L225.337 385.999L225.215 385.98C225.025 385.126 224.314 384.55 223.254 384.382C221.559 384.113 220.258 385.16 219.961 387.037L219.745 388.401C219.446 390.285 220.36 391.682 222.055 391.951ZM222.558 390.957C221.35 390.766 220.711 389.772 220.925 388.422L221.092 387.368C221.306 386.018 222.219 385.277 223.428 385.468C224.629 385.659 225.269 386.646 225.055 387.996L224.888 389.049C224.673 390.407 223.76 391.148 222.558 390.957ZM238.866 394.62C239.932 394.789 240.799 394.476 241.274 393.749L241.389 393.767L241.214 394.867L242.308 395.041L243.103 390.024C243.344 388.498 242.497 387.464 240.776 387.192C239.277 386.954 238.015 387.578 237.694 388.731L238.822 388.91C239.11 388.312 239.761 388.048 240.605 388.182C241.625 388.344 242.105 388.939 241.959 389.857L241.855 390.519L239.826 390.301C238.145 390.125 237.091 390.747 236.886 392.043C236.675 393.373 237.468 394.399 238.866 394.62ZM239.356 393.666C238.431 393.52 237.932 392.956 238.054 392.187C238.174 391.424 238.784 391.07 239.818 391.186L241.716 391.396L241.579 392.261C241.424 393.24 240.463 393.842 239.356 393.666ZM246.028 388.114L247.548 395.864L248.811 396.064L252.645 389.162L251.423 388.968L248.425 394.743L248.337 394.729L247.257 388.308L246.028 388.114ZM255.961 397.328C257.028 397.497 257.894 397.184 258.369 396.456L258.484 396.475L258.31 397.575L259.404 397.748L260.198 392.732C260.44 391.206 259.593 390.172 257.871 389.899C256.372 389.662 255.111 390.286 254.79 391.439L255.917 391.618C256.206 391.02 256.857 390.756 257.701 390.89C258.72 391.051 259.2 391.646 259.055 392.565L258.95 393.226L256.922 393.009C255.24 392.832 254.187 393.455 253.981 394.751C253.771 396.081 254.563 397.106 255.961 397.328ZM256.451 396.374C255.526 396.228 255.027 395.664 255.149 394.894C255.27 394.131 255.88 393.778 256.913 393.893L258.811 394.104L258.674 394.968C258.519 395.947 257.559 396.549 256.451 396.374ZM266.845 389.57C267.385 389.655 267.861 389.315 267.947 388.775C268.031 388.242 267.683 387.771 267.143 387.686C266.603 387.6 266.127 387.94 266.043 388.474C265.957 389.014 266.305 389.484 266.845 389.57ZM268.472 399.178L268.623 398.226L266.199 397.842L267.209 391.468L263.583 390.894L263.432 391.846L265.924 392.241L265.065 397.662L262.553 397.264L262.402 398.216L268.472 399.178ZM277.02 400.532L277.171 399.58L274.754 399.197L276.219 389.947L272.586 389.372L272.435 390.324L274.92 390.717L273.606 399.015L271.101 398.618L270.95 399.57L277.02 400.532ZM281.604 401.389C282.671 401.558 283.537 401.245 284.012 400.518L284.127 400.536L283.953 401.637L285.047 401.81L285.841 396.793C286.083 395.267 285.236 394.234 283.515 393.961C282.016 393.723 280.754 394.347 280.433 395.501L281.561 395.679C281.849 395.081 282.5 394.818 283.344 394.951C284.363 395.113 284.844 395.708 284.698 396.626L284.593 397.288L282.565 397.07C280.884 396.894 279.83 397.516 279.625 398.812C279.414 400.143 280.207 401.168 281.604 401.389ZM282.095 400.436C281.17 400.289 280.67 399.726 280.792 398.956C280.913 398.193 281.523 397.84 282.557 397.955L284.454 398.165L284.317 399.03C284.162 400.009 283.202 400.611 282.095 400.436ZM291.355 402.927C293.05 403.195 294.351 402.148 294.649 400.265L294.865 398.901C295.162 397.024 294.248 395.626 292.554 395.358C291.494 395.19 290.646 395.519 290.194 396.272L290.073 396.252L290.708 392.242L289.54 392.057L287.924 402.259L289.052 402.437L289.229 401.316L289.357 401.337C289.607 402.207 290.308 402.761 291.355 402.927ZM291.183 401.827C289.981 401.636 289.349 400.65 289.563 399.293L289.73 398.24C289.944 396.889 290.851 396.147 292.053 396.337C293.268 396.53 293.901 397.516 293.687 398.866L293.52 399.92C293.306 401.27 292.398 402.019 291.183 401.827ZM302.663 404.593L302.814 403.641L300.397 403.258L301.862 394.008L298.229 393.433L298.079 394.385L300.563 394.779L299.249 403.076L296.744 402.68L296.593 403.632L302.663 404.593ZM310.288 403.863C309.984 404.472 309.24 404.756 308.315 404.609C307.066 404.411 306.406 403.421 306.619 402.077L306.666 401.78L311.656 402.571L311.769 401.855C312.105 399.735 311.184 398.295 309.28 397.993C307.417 397.698 305.98 398.772 305.674 400.703L305.5 401.803C305.169 403.89 306.146 405.283 308.158 405.602C309.697 405.846 310.988 405.213 311.402 404.039L310.288 403.863ZM309.117 398.978C310.299 399.165 310.881 400.122 310.659 401.52L306.804 400.909C307.027 399.505 307.895 398.784 309.117 398.978ZM324.343 408.158C325.41 408.327 326.276 408.015 326.751 407.287L326.866 407.305L326.692 408.406L327.785 408.579L328.58 403.562C328.822 402.037 327.975 401.003 326.253 400.73C324.754 400.493 323.493 401.116 323.172 402.27L324.299 402.448C324.588 401.85 325.239 401.587 326.083 401.72C327.102 401.882 327.582 402.477 327.437 403.395L327.332 404.057L325.304 403.839C323.622 403.663 322.569 404.285 322.363 405.582C322.153 406.912 322.945 407.937 324.343 408.158ZM324.833 407.205C323.908 407.058 323.409 406.495 323.531 405.725C323.652 404.962 324.262 404.609 325.295 404.724L327.193 404.935L327.056 405.799C326.901 406.778 325.941 407.38 324.833 407.205ZM333.876 400.013L333.562 401.998L331.611 401.689L331.456 402.668L333.407 402.977L332.75 407.123C332.508 408.649 333.243 409.471 335.06 409.759C335.411 409.814 336.307 409.922 336.495 409.917L336.649 408.945C336.45 408.934 335.711 408.838 335.299 408.772C334.266 408.609 333.774 408.088 333.9 407.291L334.555 403.159L337.512 403.627L337.667 402.648L334.696 402.178L335.011 400.193L333.876 400.013ZM87.2451 396.798L88.3929 396.98L89.0752 392.672C89.273 391.423 90.2236 390.709 91.4322 390.9C92.58 391.082 93.0207 391.795 92.8122 393.112L92.1064 397.568L93.2542 397.75L94.0059 393.004C94.2829 391.255 93.5705 390.159 91.9771 389.907C90.8563 389.729 89.9311 390.109 89.4019 390.959L89.3073 390.944L89.9682 386.772L88.8609 386.596L87.2451 396.798ZM99.0198 389.14L98.7054 391.125L96.7541 390.816L96.599 391.795L98.5503 392.104L97.8937 396.249C97.652 397.775 98.3869 398.598 100.203 398.885C100.554 398.941 101.451 399.048 101.638 399.043L101.792 398.071C101.593 398.06 100.854 397.964 100.442 397.899C99.4094 397.735 98.9175 397.214 99.0436 396.418L99.6981 392.286L102.655 392.754L102.81 391.775L99.8397 391.304L100.154 389.319L99.0198 389.14ZM107.568 390.494L107.253 392.479L105.302 392.17L105.147 393.149L107.098 393.458L106.441 397.603C106.2 399.129 106.935 399.951 108.751 400.239C109.102 400.295 109.999 400.402 110.186 400.397L110.34 399.425C110.141 399.414 109.402 399.318 108.99 399.253C107.957 399.089 107.465 398.568 107.591 397.771L108.246 393.639L111.203 394.108L111.358 393.129L108.387 392.658L108.702 390.673L107.568 390.494ZM117.532 393.961C116.485 393.795 115.654 394.107 115.14 394.856L115.019 394.837L115.196 393.716L114.062 393.536L112.51 403.333L113.679 403.518L114.25 399.913L114.378 399.933C114.568 400.787 115.273 401.362 116.333 401.53C118.027 401.798 119.328 400.752 119.626 398.875L119.842 397.511C120.14 395.627 119.226 394.23 117.532 393.961ZM117.034 394.962C118.242 395.153 118.875 396.14 118.661 397.49L118.495 398.543C118.281 399.894 117.373 400.643 116.164 400.451C114.956 400.26 114.323 399.274 114.538 397.917L114.705 396.863C114.919 395.513 115.825 394.771 117.034 394.962ZM122.621 396.92C122.456 397.959 123.005 398.732 124.28 399.245L125.328 399.667C126.226 400.024 126.535 400.391 126.443 400.972C126.332 401.674 125.625 402.026 124.626 401.868C123.681 401.718 123.095 401.224 123.033 400.522L121.865 400.337C121.794 401.613 122.772 402.564 124.433 402.827C126.168 403.101 127.435 402.402 127.648 401.052C127.816 399.992 127.266 399.268 125.893 398.718L124.898 398.318C124.011 397.971 123.684 397.593 123.772 397.033C123.878 396.364 124.548 396.028 125.479 396.175C126.337 396.311 126.889 396.8 126.923 397.463L128.03 397.638C128.088 396.395 127.176 395.468 125.65 395.226C124.037 394.971 122.822 395.65 122.621 396.92ZM133.803 398.898C134.472 399.004 135.115 398.525 135.223 397.843C135.331 397.161 134.867 396.506 134.199 396.4C133.53 396.294 132.887 396.774 132.779 397.456C132.671 398.138 133.135 398.793 133.803 398.898ZM132.982 404.084C133.65 404.19 134.293 403.717 134.402 403.028C134.51 402.346 134.045 401.698 133.377 401.592C132.708 401.487 132.066 401.959 131.958 402.641C131.849 403.33 132.314 403.978 132.982 404.084ZM139.573 406.034L146.163 395.195L145.035 395.016L138.453 405.857L139.573 406.034ZM148.121 407.388L154.71 396.548L153.583 396.37L147 407.211L148.121 407.388ZM159.071 408.299C160.766 408.567 162.067 407.521 162.365 405.637L162.581 404.273C162.879 402.396 161.965 400.999 160.27 400.73C159.21 400.562 158.362 400.892 157.911 401.644L157.789 401.625L158.424 397.614L157.256 397.429L155.641 407.631L156.768 407.81L156.946 406.689L157.074 406.709C157.324 407.579 158.025 408.133 159.071 408.299ZM158.9 407.199C157.698 407.009 157.065 406.023 157.28 404.665L157.447 403.612C157.661 402.262 158.567 401.52 159.769 401.71C160.984 401.902 161.617 402.888 161.403 404.239L161.236 405.292C161.023 406.642 160.115 407.392 158.9 407.199ZM167.179 409.68C169.204 410.001 170.793 409.062 171.056 407.401C171.25 406.172 170.606 405.039 169.464 404.602L169.481 404.494C170.518 404.374 171.25 403.639 171.418 402.579C171.659 401.06 170.566 399.786 168.79 399.505C167.015 399.224 165.575 400.096 165.335 401.616C165.167 402.676 165.649 403.61 166.585 404.035L166.568 404.143C165.32 404.243 164.381 405.105 164.189 406.313C163.926 407.974 165.153 409.359 167.179 409.68ZM168.101 403.86C166.973 403.681 166.328 402.901 166.487 401.902C166.644 400.909 167.498 400.366 168.626 400.545C169.753 400.723 170.391 401.503 170.234 402.495C170.076 403.495 169.228 404.039 168.101 403.86ZM167.343 408.647C166.019 408.437 165.23 407.523 165.406 406.409C165.582 405.295 166.616 404.67 167.939 404.88C169.263 405.089 170.052 406.003 169.876 407.117C169.699 408.231 168.666 408.857 167.343 408.647ZM178.005 409.235C177.701 409.845 176.957 410.128 176.032 409.982C174.783 409.784 174.123 408.793 174.336 407.45L174.383 407.153L179.372 407.943L179.486 407.227C179.821 405.107 178.901 403.667 176.997 403.366C175.133 403.071 173.696 404.144 173.391 406.075L173.216 407.176C172.886 409.262 173.862 410.656 175.875 410.974C177.414 411.218 178.705 410.585 179.119 409.412L178.005 409.235ZM176.834 404.35C178.015 404.537 178.597 405.495 178.376 406.892L174.521 406.282C174.743 404.877 175.612 404.157 176.834 404.35ZM184.715 412.361C186.409 412.629 187.71 411.582 188.009 409.699L188.225 408.335C188.522 406.458 187.608 405.06 185.913 404.792C184.853 404.624 184.005 404.953 183.554 405.705L183.432 405.686L184.068 401.676L182.9 401.491L181.284 411.693L182.411 411.871L182.589 410.75L182.717 410.771C182.967 411.641 183.668 412.195 184.715 412.361ZM184.543 411.261C183.341 411.07 182.708 410.084 182.923 408.727L183.09 407.674C183.304 406.323 184.21 405.581 185.412 405.771C186.628 405.964 187.26 406.95 187.047 408.3L186.88 409.354C186.666 410.704 185.758 411.453 184.543 411.261ZM191.742 413.349L192.89 413.531L193.892 407.204L197.113 407.715L197.268 406.735L194.034 406.223L194.153 405.467C194.27 404.731 194.87 404.439 195.89 404.6C196.301 404.665 197.242 404.842 197.554 404.926L197.703 403.988C197.465 403.915 196.451 403.72 196.026 403.653C194.223 403.367 193.241 403.89 193.016 405.308L192.899 406.044L190.935 405.732L190.78 406.711L192.744 407.023L191.742 413.349ZM202.511 415.055L203.598 415.227L203.925 413.168L205.417 413.404L205.582 412.357L204.097 412.122L204.536 409.354L203.455 409.183L203.015 411.965L199.821 411.459L199.835 411.371L204.136 405.325L202.92 405.132L198.548 411.326L198.395 412.292L202.838 412.995L202.511 415.055ZM213.769 411.668C213.818 410.132 212.856 409.038 211.236 408.782C209.244 408.466 207.889 409.504 207.557 411.604L207.405 412.563C207.072 414.663 208.04 416.069 210.032 416.384C211.652 416.641 212.911 415.906 213.329 414.443L212.195 414.263C211.921 415.078 211.12 415.498 210.175 415.348C208.899 415.146 208.327 414.169 208.576 412.596L208.681 411.935C208.93 410.361 209.777 409.603 211.053 409.805C211.998 409.954 212.628 410.608 212.634 411.488L213.769 411.668ZM217.993 412.876L219.107 413.053C220.457 413.267 221.2 414.125 221.021 415.259C220.846 416.36 219.907 416.917 218.57 416.705C217.355 416.513 216.597 415.701 216.654 414.644L215.527 414.465C215.348 416.16 216.509 417.479 218.434 417.784C220.378 418.092 221.956 417.131 222.218 415.477C222.429 414.147 221.804 413.113 220.534 412.739L220.551 412.631C221.638 412.54 222.385 411.8 222.571 410.626C222.806 409.147 221.729 407.904 219.987 407.628C218.184 407.342 216.83 408.2 216.448 409.87L217.589 410.051C217.849 409.019 218.68 408.494 219.774 408.667C220.875 408.841 221.5 409.611 221.343 410.604C221.181 411.623 220.305 412.218 219.211 412.045L218.151 411.877L217.993 412.876ZM226.902 419.118C228.88 419.432 230.435 418.308 230.747 416.336C231.051 414.419 230.008 412.876 228.205 412.591C227.348 412.455 226.604 412.649 226.033 413.153L225.925 413.136L226.699 409.999L231.087 410.694L231.257 409.62L225.93 408.777L224.566 414.201L225.693 414.38C226.187 413.752 226.973 413.468 227.844 413.606C229.093 413.804 229.794 414.842 229.582 416.179C229.372 417.503 228.395 418.254 227.139 418.056C225.998 417.875 225.238 417.035 225.292 415.998L224.144 415.816C223.98 417.507 225.085 418.831 226.902 419.118ZM233.225 419.919L234.495 420.12L240.232 412.17L240.406 411.069L233.904 410.04L233.735 411.106L239.022 411.944L239.008 412.031L233.225 419.919ZM244.081 421.867C246.194 422.202 247.655 420.578 248.175 417.297C248.695 414.016 247.806 412.02 245.693 411.685C243.573 411.35 242.118 412.974 241.599 416.255C241.079 419.537 241.96 421.531 244.081 421.867ZM242.78 416.443C243.199 413.796 244.149 412.52 245.526 412.739C246.445 412.884 246.981 413.606 247.107 414.865L242.658 417.524C242.683 417.188 242.719 416.827 242.78 416.443ZM244.247 420.814C243.329 420.668 242.8 419.948 242.672 418.702L247.112 416.014C247.092 416.357 247.049 416.717 246.987 417.109C246.569 419.749 245.625 421.032 244.247 420.814ZM252.65 423.037C253.319 423.143 253.961 422.671 254.07 421.982C254.178 421.3 253.713 420.652 253.045 420.546C252.377 420.44 251.734 420.913 251.626 421.595C251.517 422.283 251.982 422.932 252.65 423.037ZM261.434 421.023C261.729 419.16 262.865 418.191 264.486 418.448C264.884 418.511 265.344 418.667 265.662 418.842L265.867 417.552C265.64 417.412 265.251 417.288 264.832 417.222C263.421 416.999 262.398 417.556 261.913 418.871L261.765 418.847L262.061 416.977L259.327 416.544L259.181 417.462L260.808 417.72L259.939 423.209L258.46 422.975L258.315 423.893L263.183 424.664L263.328 423.746L261.06 423.387L261.434 421.023ZM268.989 425.715C270.056 425.884 270.922 425.572 271.397 424.844L271.512 424.862L271.338 425.963L272.432 426.136L273.226 421.119C273.468 419.593 272.621 418.56 270.899 418.287C269.401 418.049 268.139 418.673 267.818 419.827L268.945 420.005C269.234 419.407 269.885 419.144 270.729 419.277C271.748 419.439 272.228 420.034 272.083 420.952L271.978 421.614L269.95 421.396C268.269 421.22 267.215 421.842 267.01 423.138C266.799 424.469 267.592 425.494 268.989 425.715ZM269.479 424.762C268.554 424.615 268.055 424.052 268.177 423.282C268.298 422.519 268.908 422.166 269.942 422.281L271.839 422.492L271.702 423.356C271.547 424.335 270.587 424.937 269.479 424.762ZM279.873 417.957C280.413 418.043 280.889 417.703 280.975 417.163C281.059 416.629 280.712 416.159 280.171 416.073C279.631 415.988 279.155 416.328 279.071 416.861C278.985 417.401 279.333 417.872 279.873 417.957ZM281.5 427.565L281.651 426.613L279.227 426.229L280.237 419.856L276.611 419.281L276.46 420.233L278.952 420.628L278.093 426.05L275.581 425.652L275.431 426.604L281.5 427.565ZM290.048 428.919L290.199 427.967L287.782 427.584L289.247 418.334L285.614 417.759L285.464 418.711L287.948 419.105L286.634 427.403L284.129 427.006L283.978 427.958L290.048 428.919ZM300.512 423.067L299.392 422.89L297.469 428.606L297.347 428.587L297.095 422.533L296.015 422.362L293.904 428.042L293.782 428.023L293.72 421.991L292.599 421.814L293.012 429.389L294.113 429.563L296.26 424.048L296.341 424.061L296.678 429.969L297.779 430.144L300.512 423.067ZM303.18 431.131C304.247 431.3 305.113 430.987 305.588 430.259L305.703 430.277L305.529 431.378L306.623 431.551L307.417 426.535C307.659 425.009 306.812 423.975 305.09 423.702C303.592 423.465 302.33 424.089 302.009 425.242L303.136 425.421C303.425 424.823 304.076 424.559 304.92 424.693C305.939 424.854 306.419 425.449 306.274 426.367L306.169 427.029L304.141 426.812C302.46 426.635 301.406 427.257 301.201 428.554C300.99 429.884 301.783 430.909 303.18 431.131ZM303.67 430.177C302.745 430.03 302.246 429.467 302.368 428.697C302.489 427.934 303.099 427.581 304.133 427.696L306.03 427.907L305.893 428.771C305.738 429.75 304.778 430.352 303.67 430.177ZM310.026 434.755C311.383 434.97 312.082 434.534 313.009 432.833L316.973 425.674L315.751 425.481L312.734 431.287L312.647 431.273L311.565 424.818L310.316 424.62L311.842 432.419L311.651 432.797C311.212 433.6 310.785 433.851 310.096 433.742C309.988 433.725 309.78 433.685 309.695 433.651L309.536 434.657C309.635 434.686 309.857 434.728 310.026 434.755ZM321.032 433.868C321.701 433.974 322.343 433.501 322.452 432.813C322.56 432.131 322.095 431.483 321.427 431.377C320.759 431.271 320.116 431.744 320.008 432.425C319.899 433.114 320.364 433.762 321.032 433.868ZM328.824 435.192C329.89 435.361 330.757 435.048 331.232 434.321L331.346 434.339L331.172 435.439L332.266 435.613L333.06 430.596C333.302 429.07 332.455 428.036 330.734 427.764C329.235 427.526 327.973 428.15 327.652 429.304L328.78 429.482C329.068 428.884 329.719 428.62 330.563 428.754C331.583 428.916 332.063 429.511 331.917 430.429L331.812 431.091L329.784 430.873C328.103 430.697 327.049 431.319 326.844 432.615C326.633 433.945 327.426 434.971 328.824 435.192ZM329.314 434.238C328.389 434.092 327.89 433.528 328.012 432.759C328.132 431.996 328.742 431.642 329.776 431.758L331.673 431.968L331.537 432.833C331.382 433.812 330.421 434.414 329.314 434.238ZM339.773 429.161C338.726 428.995 337.895 429.306 337.382 430.056L337.26 430.036L337.438 428.915L336.304 428.736L334.752 438.533L335.92 438.718L336.491 435.112L336.619 435.133C336.809 435.986 337.514 436.562 338.574 436.729C340.269 436.998 341.57 435.951 341.867 434.074L342.083 432.71C342.381 430.827 341.468 429.429 339.773 429.161ZM339.275 430.162C340.484 430.353 341.117 431.339 340.903 432.69L340.736 433.743C340.522 435.093 339.614 435.842 338.406 435.651C337.197 435.459 336.564 434.473 336.779 433.116L336.946 432.063C337.16 430.713 338.067 429.97 339.275 430.162ZM348.321 430.515C347.274 430.349 346.443 430.66 345.93 431.409L345.808 431.39L345.986 430.269L344.851 430.09L343.3 439.886L344.468 440.071L345.039 436.466L345.167 436.486C345.357 437.34 346.062 437.915 347.122 438.083C348.817 438.352 350.117 437.305 350.415 435.428L350.631 434.064C350.929 432.18 350.015 430.783 348.321 430.515ZM347.823 431.515C349.032 431.707 349.664 432.693 349.451 434.043L349.284 435.097C349.07 436.447 348.162 437.196 346.954 437.005C345.745 436.813 345.112 435.827 345.327 434.47L345.494 433.417C345.708 432.066 346.614 431.324 347.823 431.515Z" fill="white"/>
</svg>
