<svg width="434" height="260" viewBox="0 0 434 260" fill="none" xmlns="http://www.w3.org/2000/svg">
<path d="M92.5389 23.3116C95.898 10.7752 108.784 3.33549 121.32 6.69462L485.474 104.269C498.011 107.629 505.451 120.514 502.091 133.051L416.422 452.772C413.063 465.309 400.177 472.748 387.641 469.389L23.4868 371.815C10.9503 368.455 3.51065 355.57 6.86978 343.033L92.5389 23.3116Z" stroke="white"/>
<path d="M107.442 28.7601C108.514 24.7591 112.626 22.3848 116.627 23.4568L480.781 121.032C484.782 122.104 487.157 126.216 486.085 130.217L400.262 450.513C399.19 454.514 395.077 456.888 391.076 455.816L26.9221 358.241C22.9211 357.169 20.5467 353.057 21.6188 349.056L107.442 28.7601Z" fill="white" fill-opacity="0.05" stroke="white"/>
<path d="M125.616 55.1811L129.478 58.9123L129.447 59.0311L124.236 60.3314L123.898 61.5926L130.474 59.7664L130.736 58.7892L125.954 53.9199L125.616 55.1811ZM143.928 63.9376C144.416 62.1152 145.648 61.2703 147.232 61.6949C147.622 61.7993 148.063 62.0024 148.361 62.2097L148.699 60.9485C148.488 60.7858 148.114 60.622 147.705 60.5123C146.325 60.1425 145.25 60.5904 144.63 61.8468L144.485 61.8079L144.975 59.9789L142.3 59.2623L142.06 60.1603L143.651 60.5867L142.213 65.9549L140.767 65.5675L140.526 66.4655L145.287 67.7411L145.527 66.8431L143.309 66.2486L143.928 63.9376ZM150.952 69.3935C151.995 69.673 152.889 69.4526 153.438 68.7786L153.55 68.8087L153.261 69.885L154.331 70.1716L155.646 65.2656C156.046 63.7733 155.312 62.6566 153.628 62.2054C152.162 61.8127 150.842 62.3012 150.402 63.4147L151.505 63.7102C151.854 63.1457 152.529 62.9514 153.354 63.1726C154.352 63.4397 154.767 64.0818 154.526 64.9798L154.353 65.6269L152.359 65.1987C150.705 64.8475 149.592 65.3561 149.252 66.6239C148.904 67.9247 149.585 69.0272 150.952 69.3935ZM151.539 68.4963C150.634 68.2539 150.197 67.6413 150.398 66.8886C150.598 66.1424 151.242 65.8548 152.258 66.0775L154.123 66.4853L153.896 67.3305C153.64 68.2879 152.622 68.7865 151.539 68.4963ZM162.587 62.8155C163.115 62.957 163.624 62.6688 163.765 62.1405C163.905 61.6189 163.609 61.1148 163.08 60.9732C162.552 60.8317 162.043 61.12 161.903 61.6416C161.762 62.1698 162.058 62.6739 162.587 62.8155ZM163.201 72.5412L163.45 71.6101L161.08 70.975L162.75 64.7417L159.204 63.7916L158.955 64.7227L161.391 65.3755L159.97 70.6777L157.514 70.0196L157.265 70.9506L163.201 72.5412ZM171.56 74.7811L171.81 73.85L169.446 73.2166L171.87 64.1705L168.317 63.2186L168.068 64.1497L170.498 64.8008L168.323 72.9159L165.873 72.2595L165.624 73.1905L171.56 74.7811ZM182.579 70.0548L181.483 69.7611L178.973 75.2457L178.854 75.2138L179.236 69.1662L178.179 68.8831L175.486 74.3115L175.367 74.2797L175.936 68.275L174.84 67.9813L174.459 75.5578L175.535 75.8462L178.247 70.5856L178.326 70.6068L178.044 76.5185L179.121 76.8069L182.579 70.0548ZM184.389 78.3531C185.432 78.6326 186.327 78.4122 186.875 77.7382L186.987 77.7683L186.699 78.8446L187.769 79.1312L189.083 74.2252C189.483 72.7329 188.749 71.6162 187.065 71.165C185.6 70.7723 184.28 71.2608 183.84 72.3743L184.942 72.6698C185.292 72.1052 185.967 71.911 186.792 72.1321C187.789 72.3993 188.204 73.0414 187.964 73.9394L187.79 74.5865L185.796 74.1583C184.142 73.8071 183.029 74.3157 182.69 75.5835C182.341 76.8843 183.022 77.9868 184.389 78.3531ZM184.976 77.4559C184.072 77.2135 183.634 76.6009 183.836 75.8482C184.036 75.102 184.679 74.8144 185.695 75.0371L187.56 75.4449L187.334 76.2901C187.077 77.2475 186.059 77.7461 184.976 77.4559ZM190.818 82.673C192.145 83.0286 192.886 82.668 193.986 81.0731L198.677 74.3683L197.482 74.0481L193.875 79.5075L193.789 79.4845L193.388 72.9511L192.166 72.6238L192.869 80.5403L192.639 80.8962C192.119 81.6486 191.668 81.8532 190.994 81.6728C190.889 81.6445 190.686 81.583 190.605 81.5402L190.342 82.524C190.437 82.5638 190.653 82.6288 190.818 82.673ZM213.357 85.9805L213.607 85.0495L211.243 84.4161L213.667 75.37L210.114 74.4181L209.865 75.3492L212.295 76.0002L210.12 84.1153L207.671 83.4589L207.421 84.39L213.357 85.9805ZM218.551 87.5139C220.446 88.0216 221.986 87.1107 222.504 85.176L222.794 84.0931C223.313 82.1584 222.435 80.5999 220.54 80.0921C218.645 79.5843 217.106 80.4953 216.587 82.43L216.297 83.5129C215.779 85.4475 216.656 87.0061 218.551 87.5139ZM220.275 81.0825C221.503 81.4116 222.035 82.4884 221.658 83.8949L221.423 84.7731C221.044 86.1861 220.047 86.8459 218.819 86.5168C217.59 86.1877 217.056 85.1175 217.435 83.7045L217.67 82.8263C218.047 81.4198 219.046 80.7534 220.275 81.0825ZM226.015 92.2525C227.956 92.7727 229.374 92.0769 229.825 90.3931L231.745 83.2288L230.635 82.9316L230.338 84.0409L230.213 84.0073C230.109 83.1516 229.446 82.4854 228.409 82.2077C226.732 81.7583 225.317 82.6531 224.824 84.4953L224.479 85.7829C223.987 87.6186 224.756 89.1056 226.413 89.5497C227.457 89.8293 228.371 89.586 228.89 88.9182L229.009 88.95L228.71 90.0659C228.402 91.2148 227.539 91.663 226.284 91.3268C225.327 91.0702 224.711 90.4878 224.725 89.8546L223.616 89.5574C223.443 90.7849 224.357 91.8084 226.015 92.2525ZM225.65 85.927L225.914 84.9432C226.266 83.6292 227.26 82.9826 228.449 83.3011C229.631 83.6178 230.164 84.6664 229.81 85.987L229.546 86.9709C229.192 88.2915 228.205 88.9398 227.023 88.6231C225.834 88.3046 225.298 87.241 225.65 85.927ZM237.821 82.9745C238.35 83.1161 238.858 82.8278 239 82.2996C239.14 81.778 238.843 81.2739 238.315 81.1323C237.787 80.9908 237.278 81.279 237.138 81.8007C236.996 82.3289 237.293 82.833 237.821 82.9745ZM238.435 92.7002L238.685 91.7692L236.314 91.134L237.985 84.9008L234.439 83.9507L234.189 84.8817L236.626 85.5346L235.205 90.8368L232.749 90.1786L232.499 91.1097L238.435 92.7002ZM240.733 93.3159L241.856 93.6167L242.986 89.3974C243.314 88.1758 244.327 87.5628 245.509 87.8795C246.625 88.1785 246.99 88.9275 246.644 90.2217L245.474 94.5863L246.597 94.887L247.842 90.2385C248.302 88.5217 247.707 87.3643 246.148 86.9467C245.059 86.6548 244.106 86.9372 243.484 87.726L243.391 87.7012L243.729 86.4401L242.653 86.1517L240.733 93.3159ZM123.073 88.7063L125.626 79.1781L124.471 78.8685L123.365 82.9954L119.337 81.9161L120.443 77.7892L119.288 77.4796L116.735 87.0078L117.89 87.3174L119.051 82.9858L123.079 84.0651L121.918 88.3966L123.073 88.7063ZM130.693 88.7665C130.327 89.3407 129.558 89.5449 128.653 89.3026C127.432 88.9752 126.879 87.9213 127.231 86.6073L127.309 86.3168L132.188 87.6242L132.376 86.9243C132.932 84.851 132.166 83.3225 130.304 82.8236C128.482 82.3353 126.941 83.2529 126.435 85.1413L126.146 86.2176C125.6 88.2579 126.425 89.746 128.393 90.2732C129.899 90.6766 131.248 90.1819 131.783 89.0584L130.693 88.7665ZM130.039 83.7859C131.195 84.0955 131.674 85.1084 131.307 86.4752L127.537 85.465C127.905 84.0915 128.844 83.4656 130.039 83.7859ZM139.753 93.1754L140.002 92.2444L137.638 91.611L140.062 82.5649L136.51 81.613L136.26 82.544L138.69 83.1951L136.516 91.3102L134.066 90.6538L133.817 91.5849L139.753 93.1754ZM148.112 95.4153L148.361 94.4843L145.998 93.8509L148.422 84.8048L144.869 83.8529L144.62 84.7839L147.05 85.435L144.875 93.5501L142.425 92.8937L142.176 93.8248L148.112 95.4153ZM153.306 96.9487C155.201 97.4564 156.74 96.5455 157.259 94.6108L157.549 93.5279C158.067 91.5932 157.19 90.0347 155.295 89.5269C153.4 89.0191 151.861 89.9301 151.342 91.8648L151.052 92.9477C150.534 94.8823 151.411 96.4409 153.306 96.9487ZM155.029 90.5173C156.258 90.8464 156.79 91.9232 156.413 93.3297L156.178 94.2079C155.799 95.6209 154.802 96.2807 153.573 95.9516C152.345 95.6225 151.811 94.5523 152.19 93.1392L152.425 92.261C152.802 90.8546 153.801 90.1882 155.029 90.5173ZM169.73 101.42C171.493 101.893 172.863 101.085 173.35 99.269L175.175 92.4547L170.732 91.264L170.454 92.3007L173.729 93.1782L172.19 98.9229C171.875 100.098 171.09 100.596 170.014 100.307C169.07 100.054 168.562 99.2814 168.764 98.3943L167.622 98.0882C167.216 99.6285 168.073 100.976 169.73 101.42ZM177.66 103.467C178.703 103.747 179.597 103.526 180.146 102.852L180.258 102.882L179.97 103.959L181.039 104.245L182.354 99.3393C182.754 97.847 182.02 96.7303 180.336 96.2791C178.87 95.8863 177.55 96.3748 177.11 97.4884L178.213 97.7839C178.563 97.2193 179.237 97.0251 180.063 97.2462C181.06 97.5134 181.475 98.1554 181.235 99.0535L181.061 99.7005L179.067 99.2724C177.413 98.9212 176.3 99.4298 175.96 100.698C175.612 101.998 176.293 103.101 177.66 103.467ZM178.247 102.57C177.342 102.328 176.905 101.715 177.107 100.962C177.307 100.216 177.95 99.9284 178.966 100.151L180.831 100.559L180.605 101.404C180.348 102.362 179.33 102.86 178.247 102.57ZM186.642 101.507L186.556 101.484L188.172 95.4558L187.049 95.155L184.376 105.132L185.498 105.433L186.197 102.825L187.442 102.139L188.932 106.353L190.266 106.71L188.447 101.587L191.987 99.493L190.627 99.1285L186.642 101.507ZM197.569 106.686C197.203 107.26 196.433 107.464 195.528 107.222C194.307 106.894 193.754 105.84 194.106 104.526L194.184 104.236L199.064 105.543L199.251 104.843C199.807 102.77 199.042 101.242 197.18 100.743C195.357 100.254 193.816 101.172 193.31 103.06L193.022 104.137C192.475 106.177 193.301 107.665 195.268 108.192C196.774 108.596 198.124 108.101 198.658 106.978L197.569 106.686ZM196.915 101.705C198.07 102.015 198.549 103.028 198.183 104.394L194.412 103.384C194.78 102.011 195.719 101.385 196.915 101.705ZM105.428 130.523L109.291 134.254L109.259 134.373L104.048 135.674L103.71 136.935L110.286 135.109L110.548 134.131L105.766 129.262L105.428 130.523ZM123.74 139.28C124.228 137.457 125.46 136.613 127.045 137.037C127.434 137.142 127.875 137.345 128.173 137.552L128.511 136.291C128.3 136.128 127.926 135.964 127.517 135.855C126.137 135.485 125.062 135.933 124.442 137.189L124.297 137.15L124.787 135.321L122.113 134.605L121.872 135.503L123.463 135.929L122.025 141.297L120.579 140.91L120.338 141.808L125.099 143.083L125.34 142.185L123.121 141.591L123.74 139.28ZM130.764 144.736C131.807 145.015 132.701 144.795 133.25 144.121L133.362 144.151L133.074 145.227L134.143 145.514L135.458 140.608C135.858 139.116 135.124 137.999 133.44 137.548C131.974 137.155 130.654 137.643 130.214 138.757L131.317 139.052C131.666 138.488 132.341 138.294 133.167 138.515C134.164 138.782 134.579 139.424 134.338 140.322L134.165 140.969L132.171 140.541C130.517 140.19 129.404 140.698 129.064 141.966C128.716 143.267 129.397 144.369 130.764 144.736ZM131.351 143.839C130.446 143.596 130.009 142.984 130.211 142.231C130.41 141.485 131.054 141.197 132.07 141.42L133.935 141.827L133.708 142.673C133.452 143.63 132.434 144.129 131.351 143.839ZM142.399 138.158C142.927 138.299 143.436 138.011 143.577 137.483C143.717 136.961 143.421 136.457 142.892 136.315C142.364 136.174 141.855 136.462 141.715 136.984C141.574 137.512 141.871 138.016 142.399 138.158ZM143.013 147.883L143.262 146.952L140.892 146.317L142.562 140.084L139.016 139.134L138.767 140.065L141.203 140.718L139.783 146.02L137.326 145.362L137.077 146.293L143.013 147.883ZM151.372 150.123L151.622 149.192L149.258 148.559L151.682 139.513L148.129 138.561L147.88 139.492L150.31 140.143L148.135 148.258L145.686 147.602L145.436 148.533L151.372 150.123ZM162.391 145.397L161.295 145.103L158.785 150.588L158.666 150.556L159.048 144.508L157.991 144.225L155.298 149.654L155.18 149.622L155.748 143.617L154.652 143.323L154.271 150.9L155.347 151.188L158.059 145.928L158.138 145.949L157.856 151.861L158.933 152.149L162.391 145.397ZM164.201 153.695C165.245 153.975 166.139 153.754 166.687 153.08L166.8 153.111L166.511 154.187L167.581 154.473L168.895 149.567C169.295 148.075 168.561 146.958 166.877 146.507C165.412 146.114 164.092 146.603 163.652 147.717L164.755 148.012C165.104 147.447 165.779 147.253 166.604 147.474C167.601 147.742 168.017 148.384 167.776 149.282L167.603 149.929L165.608 149.5C163.954 149.149 162.842 149.658 162.502 150.926C162.153 152.226 162.834 153.329 164.201 153.695ZM164.788 152.798C163.884 152.556 163.446 151.943 163.648 151.19C163.848 150.444 164.491 150.157 165.507 150.379L167.373 150.787L167.146 151.632C166.89 152.59 165.871 153.088 164.788 152.798ZM170.63 158.015C171.958 158.371 172.698 158.01 173.798 156.415L178.489 149.711L177.294 149.39L173.687 154.85L173.601 154.827L173.2 148.293L171.978 147.966L172.681 155.882L172.451 156.238C171.931 156.991 171.48 157.195 170.806 157.015C170.701 156.987 170.498 156.925 170.417 156.882L170.154 157.866C170.249 157.906 170.465 157.971 170.63 158.015ZM192.555 151.597C193.083 151.739 193.592 151.45 193.734 150.922C193.874 150.4 193.577 149.896 193.049 149.755C192.521 149.613 192.012 149.902 191.872 150.423C191.73 150.951 192.027 151.456 192.555 151.597ZM193.169 161.323L193.419 160.392L191.048 159.757L192.718 153.523L189.173 152.573L188.923 153.504L191.36 154.157L189.939 159.459L187.483 158.801L187.233 159.732L193.169 161.323ZM195.467 161.938L196.59 162.239L197.72 158.02C198.048 156.798 199.061 156.185 200.243 156.502C201.359 156.801 201.724 157.55 201.378 158.844L200.208 163.209L201.331 163.51L202.576 158.861C203.036 157.144 202.44 155.987 200.882 155.569C199.793 155.277 198.839 155.56 198.218 156.349L198.125 156.324L198.463 155.063L197.387 154.774L195.467 161.938ZM209.274 156.077C209.802 156.218 210.311 155.93 210.453 155.402C210.593 154.88 210.296 154.376 209.768 154.235C209.239 154.093 208.73 154.381 208.591 154.903C208.449 155.431 208.746 155.935 209.274 156.077ZM209.888 165.803L210.138 164.872L207.767 164.236L209.437 158.003L205.891 157.053L205.642 157.984L208.079 158.637L206.658 163.939L204.201 163.281L203.952 164.212L209.888 165.803ZM216.331 157.791L215.81 159.732L213.902 159.221L213.646 160.178L215.554 160.689L214.468 164.744C214.068 166.236 214.713 167.131 216.489 167.607C216.832 167.699 217.713 167.899 217.9 167.914L218.155 166.963C217.958 166.932 217.233 166.759 216.83 166.651C215.82 166.38 215.385 165.81 215.594 165.031L216.676 160.99L219.569 161.765L219.825 160.808L216.92 160.029L217.44 158.088L216.331 157.791ZM100.176 162.353C98.6313 161.939 98.1035 160.686 98.6325 158.712L99.0872 157.015C99.6162 155.041 100.7 154.22 102.238 154.632C103.46 154.96 104.08 156.053 103.774 157.351L104.956 157.668C105.461 155.623 104.547 154.069 102.54 153.531C100.302 152.932 98.5957 154.095 97.8987 156.697L97.444 158.394C96.7469 160.995 97.6425 162.856 99.8809 163.456C101.829 163.978 103.497 163.087 103.991 161.245L102.815 160.93C102.453 162.149 101.444 162.693 100.176 162.353ZM108.04 165.571C109.935 166.079 111.474 165.168 111.993 163.233L112.283 162.15C112.801 160.216 111.924 158.657 110.029 158.149C108.134 157.642 106.595 158.553 106.076 160.487L105.786 161.57C105.268 163.505 106.145 165.063 108.04 165.571ZM109.763 159.14C110.992 159.469 111.524 160.546 111.147 161.952L110.912 162.83C110.533 164.243 109.535 164.903 108.307 164.574C107.079 164.245 106.545 163.175 106.924 161.762L107.159 160.884C107.536 159.477 108.535 158.811 109.763 159.14ZM113.503 166.893L114.626 167.194L115.756 162.975C116.084 161.753 117.097 161.14 118.279 161.457C119.395 161.756 119.76 162.505 119.414 163.799L118.244 168.164L119.367 168.465L120.612 163.816C121.072 162.099 120.477 160.942 118.918 160.524C117.829 160.232 116.875 160.515 116.254 161.304L116.161 161.279L116.499 160.018L115.423 159.729L113.503 166.893ZM121.863 169.133L122.985 169.434L124.116 165.215C124.443 163.993 125.456 163.38 126.638 163.697C127.754 163.996 128.12 164.745 127.773 166.039L126.604 170.404L127.726 170.704L128.972 166.056C129.432 164.339 128.836 163.182 127.278 162.764C126.188 162.472 125.235 162.755 124.613 163.543L124.521 163.519L124.859 162.257L123.782 161.969L121.863 169.133ZM135.584 170.828C135.218 171.403 134.448 171.607 133.543 171.364C132.322 171.037 131.769 169.983 132.121 168.669L132.199 168.379L137.079 169.686L137.266 168.986C137.822 166.913 137.057 165.384 135.195 164.885C133.372 164.397 131.831 165.315 131.325 167.203L131.037 168.28C130.49 170.32 131.316 171.808 133.283 172.335C134.789 172.738 136.139 172.244 136.673 171.12L135.584 170.828ZM134.93 165.848C136.085 166.157 136.564 167.17 136.198 168.537L132.427 167.527C132.795 166.153 133.735 165.528 134.93 165.848ZM145.819 170.266C146.029 168.744 145.187 167.556 143.602 167.131C141.654 166.609 140.198 167.5 139.648 169.554L139.397 170.491C138.846 172.545 139.662 174.044 141.61 174.566C143.195 174.991 144.523 174.391 145.092 172.98L143.983 172.683C143.625 173.464 142.785 173.798 141.861 173.551C140.613 173.216 140.146 172.185 140.558 170.647L140.732 170C141.144 168.461 142.065 167.795 143.313 168.13C144.238 168.377 144.796 169.093 144.71 169.969L145.819 170.266ZM151.085 167.226L150.565 169.167L148.657 168.656L148.401 169.613L150.309 170.124L149.222 174.179C148.823 175.671 149.468 176.565 151.244 177.041C151.587 177.133 152.468 177.334 152.655 177.349L152.909 176.398C152.713 176.366 151.988 176.193 151.585 176.085C150.575 175.815 150.14 175.245 150.349 174.466L151.431 170.425L154.323 171.2L154.58 170.243L151.675 169.464L152.195 167.523L151.085 167.226ZM160.662 177.548C160.296 178.122 159.526 178.327 158.622 178.084C157.4 177.757 156.847 176.703 157.2 175.389L157.277 175.098L162.157 176.406L162.345 175.706C162.9 173.633 162.135 172.104 160.273 171.605C158.45 171.117 156.909 172.034 156.403 173.923L156.115 174.999C155.568 177.04 156.394 178.528 158.362 179.055C159.867 179.458 161.217 178.964 161.752 177.84L160.662 177.548ZM160.008 172.567C161.163 172.877 161.642 173.89 161.276 175.257L157.506 174.247C157.874 172.873 158.813 172.247 160.008 172.567ZM166.111 181.117C167.134 181.391 168 181.17 168.582 180.477L168.707 180.511L168.414 181.607L169.516 181.902L172.19 171.925L171.048 171.619L169.997 175.541L169.878 175.509C169.778 174.64 169.131 173.993 168.094 173.715C166.437 173.271 165.033 174.176 164.542 176.011L164.184 177.345C163.69 179.188 164.453 180.673 166.111 181.117ZM166.715 180.182C165.533 179.865 165.002 178.81 165.356 177.489L165.632 176.459C165.986 175.139 166.971 174.497 168.153 174.814C169.329 175.129 169.862 176.177 169.508 177.498L169.232 178.528C168.876 179.855 167.89 180.497 166.715 180.182ZM184.523 176.185L184.003 178.126L182.095 177.615L181.838 178.573L183.746 179.084L182.66 183.138C182.26 184.63 182.905 185.525 184.681 186.001C185.025 186.093 185.905 186.294 186.092 186.308L186.347 185.357C186.15 185.326 185.425 185.153 185.022 185.045C184.012 184.774 183.577 184.205 183.786 183.426L184.869 179.385L187.761 180.16L188.018 179.202L185.112 178.424L185.632 176.482L184.523 176.185ZM191.634 187.97C193.529 188.478 195.068 187.567 195.587 185.632L195.877 184.549C196.395 182.615 195.518 181.056 193.623 180.548C191.728 180.041 190.189 180.952 189.67 182.886L189.38 183.969C188.862 185.904 189.739 187.462 191.634 187.97ZM193.357 181.539C194.586 181.868 195.118 182.945 194.741 184.351L194.506 185.229C194.127 186.642 193.13 187.302 191.901 186.973C190.673 186.644 190.139 185.574 190.518 184.161L190.753 183.283C191.13 181.876 192.129 181.21 193.357 181.539ZM210.789 185.155C209.765 184.881 208.906 185.103 208.317 185.795L208.199 185.763L208.492 184.667L207.383 184.37L204.816 193.951L205.958 194.257L206.903 190.731L207.028 190.764C207.128 191.633 207.769 192.279 208.806 192.557C210.463 193.001 211.866 192.096 212.358 190.261L212.715 188.927C213.209 187.084 212.446 185.599 210.789 185.155ZM210.189 186.098C211.371 186.415 211.898 187.462 211.544 188.783L211.268 189.813C210.914 191.133 209.933 191.783 208.751 191.467C207.569 191.15 207.043 190.103 207.398 188.776L207.674 187.746C208.028 186.425 209.007 185.782 210.189 186.098ZM217.324 191.273C217.812 189.45 219.043 188.605 220.628 189.03C221.018 189.134 221.459 189.337 221.757 189.545L222.095 188.284C221.884 188.121 221.51 187.957 221.101 187.847C219.721 187.478 218.645 187.925 218.026 189.182L217.88 189.143L218.37 187.314L215.696 186.597L215.455 187.495L217.047 187.922L215.608 193.29L214.162 192.903L213.922 193.801L218.682 195.076L218.923 194.178L216.704 193.584L217.324 191.273ZM225.072 196.93C226.967 197.438 228.506 196.527 229.024 194.592L229.315 193.509C229.833 191.574 228.956 190.016 227.06 189.508C225.165 189 223.626 189.911 223.108 191.846L222.818 192.929C222.299 194.863 223.177 196.422 225.072 196.93ZM226.795 190.498C228.023 190.827 228.556 191.904 228.179 193.311L227.943 194.189C227.565 195.602 226.567 196.262 225.339 195.933C224.111 195.604 223.577 194.533 223.955 193.12L224.191 192.242C224.567 190.836 225.567 190.169 226.795 190.498ZM236.801 190.37C237.329 190.511 237.838 190.223 237.98 189.695C238.12 189.173 237.823 188.669 237.295 188.528C236.767 188.386 236.258 188.674 236.118 189.196C235.976 189.724 236.273 190.228 236.801 190.37ZM236.978 192.3L232.6 191.127L232.35 192.058L235.625 192.935L234.001 198.997C233.727 200.02 233.239 200.229 231.905 199.872C231.47 199.755 230.551 199.488 230.216 199.363L229.947 200.366C230.412 200.533 231.174 200.752 231.67 200.884C233.664 201.419 234.644 201.009 235.069 199.424L236.978 192.3ZM244.256 199.947C243.89 200.521 243.12 200.726 242.216 200.483C240.994 200.156 240.442 199.102 240.794 197.788L240.871 197.497L245.751 198.805L245.939 198.105C246.494 196.032 245.729 194.503 243.867 194.004C242.044 193.516 240.504 194.433 239.997 196.322L239.709 197.398C239.162 199.438 239.988 200.927 241.956 201.454C243.461 201.857 244.811 201.362 245.346 200.239L244.256 199.947ZM243.602 194.966C244.758 195.276 245.236 196.289 244.87 197.656L241.1 196.646C241.468 195.272 242.407 194.646 243.602 194.966ZM254.492 199.385C254.701 197.863 253.859 196.674 252.274 196.25C250.326 195.728 248.87 196.619 248.32 198.672L248.069 199.61C247.519 201.663 248.334 203.163 250.282 203.685C251.867 204.109 253.195 203.51 253.764 202.098L252.655 201.801C252.297 202.583 251.457 202.917 250.533 202.669C249.285 202.335 248.818 201.304 249.23 199.765L249.404 199.118C249.816 197.58 250.738 196.914 251.986 197.248C252.91 197.496 253.468 198.212 253.382 199.087L254.492 199.385ZM259.758 196.344L259.238 198.285L257.329 197.774L257.073 198.732L258.981 199.243L257.895 203.297C257.495 204.789 258.14 205.684 259.916 206.16C260.259 206.252 261.14 206.453 261.327 206.467L261.582 205.516C261.385 205.485 260.66 205.312 260.257 205.204C259.247 204.933 258.812 204.364 259.021 203.585L260.104 199.544L262.996 200.319L263.252 199.361L260.347 198.583L260.867 196.641L259.758 196.344ZM272.332 209.451L273.454 209.752L274.585 205.533C274.912 204.311 275.926 203.698 277.108 204.015C278.224 204.314 278.589 205.063 278.242 206.357L277.073 210.722L278.195 211.023L279.441 206.374C279.901 204.657 279.305 203.5 277.747 203.082C276.657 202.79 275.704 203.073 275.082 203.862L274.99 203.837L275.328 202.576L274.252 202.287L272.332 209.451ZM286.053 211.146C285.687 211.721 284.917 211.925 284.013 211.683C282.791 211.355 282.239 210.301 282.591 208.987L282.669 208.697L287.548 210.004L287.736 209.304C288.291 207.231 287.526 205.703 285.664 205.204C283.842 204.715 282.301 205.633 281.795 207.521L281.506 208.598C280.959 210.638 281.785 212.126 283.753 212.653C285.258 213.057 286.608 212.562 287.143 211.438L286.053 211.146ZM285.399 206.166C286.555 206.476 287.033 207.488 286.667 208.855L282.897 207.845C283.265 206.472 284.204 205.846 285.399 206.166ZM292.748 211.964L293.812 215.207L295.112 215.555L293.616 211.262L297.012 208.386L295.751 208.048L293.248 210.286L293.155 210.261L292.1 207.07L290.772 206.714L292.289 210.956L288.872 213.884L290.114 214.216L292.663 211.941L292.748 211.964ZM301.555 207.544L301.035 209.485L299.126 208.974L298.87 209.931L300.778 210.442L299.692 214.497C299.292 215.989 299.937 216.884 301.713 217.36C302.056 217.452 302.937 217.652 303.124 217.667L303.379 216.716C303.182 216.684 302.457 216.511 302.054 216.404C301.044 216.133 300.609 215.563 300.818 214.784L301.901 210.743L304.793 211.518L305.049 210.561L302.144 209.782L302.664 207.841L301.555 207.544ZM312.036 210.529C312.564 210.671 313.073 210.382 313.215 209.854C313.354 209.332 313.058 208.828 312.529 208.687C312.001 208.545 311.492 208.833 311.352 209.355C311.211 209.883 311.508 210.387 312.036 210.529ZM312.212 212.459L307.834 211.286L307.585 212.217L310.86 213.094L309.236 219.156C308.962 220.179 308.474 220.388 307.14 220.031C306.704 219.914 305.785 219.647 305.451 219.522L305.182 220.525C305.647 220.692 306.409 220.911 306.904 221.043C308.898 221.578 309.879 221.168 310.303 219.583L312.212 212.459ZM315.854 215.508C315.581 216.525 316.047 217.35 317.261 217.994L318.259 218.523C319.115 218.972 319.384 219.37 319.232 219.938C319.048 220.624 318.308 220.9 317.331 220.639C316.407 220.391 315.875 219.838 315.887 219.133L314.745 218.827C314.541 220.089 315.414 221.137 317.039 221.572C318.735 222.027 320.068 221.464 320.422 220.143C320.7 219.107 320.229 218.329 318.92 217.639L317.972 217.137C317.127 216.699 316.841 216.289 316.987 215.741C317.163 215.087 317.863 214.822 318.775 215.066C319.613 215.291 320.111 215.835 320.075 216.498L321.158 216.788C321.347 215.557 320.536 214.541 319.044 214.141C317.466 213.718 316.186 214.267 315.854 215.508ZM329.906 220.908L330.185 219.865L323.199 217.993L322.92 219.036L329.906 220.908ZM336.18 218.754C335.157 218.479 334.297 218.702 333.709 219.393L333.59 219.362L333.883 218.266L332.774 217.968L330.207 227.549L331.349 227.855L332.294 224.329L332.419 224.363C332.519 225.232 333.16 225.878 334.197 226.155C335.854 226.6 337.257 225.695 337.749 223.859L338.106 222.525C338.6 220.683 337.837 219.198 336.18 218.754ZM335.58 219.697C336.762 220.014 337.289 221.06 336.935 222.381L336.659 223.411C336.305 224.732 335.324 225.382 334.142 225.065C332.96 224.748 332.434 223.702 332.789 222.374L333.065 221.344C333.419 220.024 334.399 219.38 335.58 219.697ZM341.208 230.787C343.149 231.307 344.567 230.611 345.018 228.928L346.937 221.763L345.828 221.466L345.531 222.575L345.405 222.542C345.302 221.686 344.638 221.02 343.602 220.742C341.925 220.293 340.51 221.188 340.016 223.03L339.671 224.317C339.18 226.153 339.949 227.64 341.606 228.084C342.649 228.364 343.564 228.12 344.083 227.453L344.201 227.485L343.902 228.6C343.595 229.749 342.731 230.197 341.477 229.861C340.519 229.605 339.904 229.022 339.918 228.389L338.809 228.092C338.635 229.319 339.55 230.343 341.208 230.787ZM340.843 224.462L341.107 223.478C341.459 222.164 342.453 221.517 343.641 221.836C344.823 222.152 345.356 223.201 345.002 224.522L344.739 225.505C344.385 226.826 343.397 227.474 342.215 227.158C341.027 226.839 340.491 225.776 340.843 224.462ZM85.2406 205.865L89.1027 209.597L89.0709 209.716L83.8605 211.016L83.5226 212.277L90.0982 210.451L90.3601 209.474L85.5785 204.604L85.2406 205.865ZM103.552 214.622C104.041 212.8 105.272 211.955 106.857 212.379C107.246 212.484 107.687 212.687 107.985 212.894L108.323 211.633C108.112 211.47 107.739 211.306 107.329 211.197C105.949 210.827 104.874 211.275 104.254 212.531L104.109 212.492L104.599 210.663L101.925 209.947L101.684 210.845L103.275 211.271L101.837 216.639L100.391 216.252L100.15 217.15L104.911 218.426L105.152 217.528L102.933 216.933L103.552 214.622ZM110.576 220.078C111.619 220.357 112.513 220.137 113.062 219.463L113.174 219.493L112.886 220.569L113.955 220.856L115.27 215.95C115.67 214.458 114.936 213.341 113.252 212.89C111.786 212.497 110.466 212.986 110.026 214.099L111.129 214.395C111.478 213.83 112.153 213.636 112.979 213.857C113.976 214.124 114.391 214.766 114.15 215.664L113.977 216.311L111.983 215.883C110.329 215.532 109.216 216.041 108.876 217.308C108.528 218.609 109.209 219.712 110.576 220.078ZM111.163 219.181C110.258 218.938 109.821 218.326 110.023 217.573C110.223 216.827 110.866 216.539 111.882 216.762L113.747 217.17L113.521 218.015C113.264 218.972 112.246 219.471 111.163 219.181ZM122.211 213.5C122.739 213.641 123.248 213.353 123.39 212.825C123.529 212.303 123.233 211.799 122.705 211.658C122.176 211.516 121.667 211.804 121.528 212.326C121.386 212.854 121.683 213.358 122.211 213.5ZM122.825 223.226L123.074 222.295L120.704 221.659L122.374 215.426L118.828 214.476L118.579 215.407L121.015 216.06L119.595 221.362L117.138 220.704L116.889 221.635L122.825 223.226ZM131.184 225.465L131.434 224.534L129.07 223.901L131.494 214.855L127.941 213.903L127.692 214.834L130.122 215.485L127.947 223.6L125.498 222.944L125.248 223.875L131.184 225.465ZM142.203 220.739L141.107 220.446L138.597 225.93L138.478 225.898L138.86 219.851L137.804 219.568L135.111 224.996L134.992 224.964L135.56 218.959L134.464 218.666L134.083 226.242L135.159 226.531L137.871 221.27L137.95 221.291L137.669 227.203L138.745 227.491L142.203 220.739ZM144.013 229.037C145.057 229.317 145.951 229.097 146.499 228.423L146.612 228.453L146.323 229.529L147.393 229.816L148.708 224.91C149.107 223.417 148.373 222.301 146.69 221.849C145.224 221.457 143.904 221.945 143.464 223.059L144.567 223.354C144.916 222.79 145.591 222.595 146.416 222.817C147.413 223.084 147.829 223.726 147.588 224.624L147.415 225.271L145.42 224.843C143.767 224.492 142.654 225 142.314 226.268C141.965 227.569 142.647 228.671 144.013 229.037ZM144.601 228.14C143.696 227.898 143.259 227.285 143.46 226.533C143.66 225.786 144.303 225.499 145.319 225.721L147.185 226.129L146.958 226.974C146.702 227.932 145.683 228.43 144.601 228.14ZM150.443 233.357C151.77 233.713 152.51 233.352 153.61 231.757L158.301 225.053L157.106 224.733L153.499 230.192L153.413 230.169L153.012 223.636L151.791 223.308L152.493 231.225L152.263 231.581C151.743 232.333 151.292 232.538 150.619 232.357C150.513 232.329 150.31 232.267 150.229 232.225L149.966 233.208C150.061 233.248 150.277 233.313 150.443 233.357ZM170.428 232.541C170.916 230.719 172.147 229.874 173.732 230.299C174.121 230.403 174.562 230.606 174.861 230.813L175.199 229.552C174.988 229.389 174.614 229.226 174.204 229.116C172.824 228.746 171.749 229.194 171.129 230.45L170.984 230.411L171.474 228.582L168.8 227.866L168.559 228.764L170.151 229.19L168.712 234.559L167.266 234.171L167.025 235.069L171.786 236.345L172.027 235.447L169.808 234.852L170.428 232.541ZM183.062 231.688L181.94 231.387L180.809 235.606C180.482 236.828 179.468 237.441 178.287 237.124C177.171 236.825 176.805 236.076 177.152 234.782L178.321 230.417L177.199 230.116L175.953 234.765C175.493 236.482 176.089 237.639 177.647 238.057C178.737 238.349 179.69 238.066 180.312 237.277L180.404 237.302L180.066 238.563L181.143 238.852L183.062 231.688ZM183.639 239.521L184.761 239.821L185.892 235.602C186.219 234.38 187.233 233.767 188.415 234.084C189.53 234.383 189.896 235.132 189.549 236.426L188.38 240.791L189.502 241.092L190.748 236.443C191.208 234.726 190.612 233.569 189.054 233.151C187.964 232.859 187.011 233.142 186.389 233.931L186.297 233.906L186.635 232.645L185.558 232.356L183.639 239.521ZM200.599 246.797C201.926 247.152 202.667 246.792 203.766 245.197L208.458 238.492L207.262 238.172L203.655 243.631L203.569 243.608L203.169 237.075L201.947 236.748L202.65 244.664L202.42 245.02C201.9 245.772 201.448 245.977 200.775 245.797C200.669 245.768 200.466 245.707 200.386 245.664L200.122 246.648C200.218 246.688 200.434 246.753 200.599 246.797ZM210.889 246.957C211.932 247.236 212.826 247.016 213.375 246.342L213.487 246.372L213.199 247.448L214.268 247.735L215.583 242.829C215.983 241.336 215.249 240.22 213.565 239.769C212.099 239.376 210.779 239.864 210.339 240.978L211.442 241.273C211.791 240.709 212.466 240.515 213.292 240.736C214.289 241.003 214.704 241.645 214.463 242.543L214.29 243.19L212.296 242.762C210.642 242.411 209.529 242.919 209.189 244.187C208.841 245.488 209.522 246.59 210.889 246.957ZM211.476 246.059C210.571 245.817 210.134 245.205 210.336 244.452C210.535 243.706 211.179 243.418 212.195 243.641L214.06 244.048L213.834 244.894C213.577 245.851 212.559 246.35 211.476 246.059ZM220.584 245.981C221.072 244.158 222.304 243.313 223.888 243.738C224.278 243.842 224.719 244.045 225.017 244.253L225.355 242.992C225.144 242.829 224.77 242.665 224.361 242.555C222.981 242.185 221.905 242.633 221.286 243.89L221.14 243.851L221.631 242.022L218.956 241.305L218.716 242.203L220.307 242.63L218.869 247.998L217.423 247.61L217.182 248.508L221.943 249.784L222.183 248.886L219.965 248.292L220.584 245.981ZM225.436 250.72L226.558 251.021L227.689 246.801C228.016 245.58 229.03 244.967 230.212 245.284C231.327 245.583 231.693 246.332 231.346 247.626L230.177 251.99L231.299 252.291L232.545 247.643C233.005 245.926 232.409 244.768 230.851 244.351C229.761 244.059 228.808 244.341 228.186 245.13L228.094 245.105L228.432 243.844L227.355 243.556L225.436 250.72ZM243.879 250.057C243.607 251.074 244.072 251.899 245.287 252.543L246.284 253.072C247.141 253.521 247.409 253.919 247.257 254.486C247.073 255.173 246.334 255.449 245.357 255.187C244.432 254.94 243.901 254.387 243.913 253.682L242.771 253.376C242.567 254.638 243.44 255.686 245.064 256.121C246.761 256.576 248.094 256.013 248.448 254.692C248.725 253.655 248.254 252.878 246.946 252.188L245.998 251.686C245.153 251.247 244.866 250.838 245.013 250.29C245.188 249.636 245.889 249.371 246.8 249.615C247.639 249.84 248.137 250.384 248.101 251.047L249.184 251.337C249.372 250.106 248.562 249.089 247.069 248.69C245.491 248.267 244.212 248.816 243.879 250.057ZM254.659 248.812L254.138 250.754L252.23 250.242L251.974 251.2L253.882 251.711L252.796 255.765C252.396 257.257 253.041 258.152 254.817 258.628C255.16 258.72 256.041 258.921 256.228 258.935L256.483 257.985C256.286 257.953 255.561 257.78 255.158 257.672C254.148 257.401 253.713 256.832 253.922 256.053L255.004 252.012L257.897 252.787L258.153 251.829L255.248 251.051L255.768 249.109L254.659 248.812ZM261.045 260.396C262.088 260.676 262.983 260.455 263.531 259.781L263.643 259.811L263.355 260.888L264.425 261.174L265.739 256.268C266.139 254.776 265.405 253.659 263.721 253.208C262.255 252.815 260.936 253.304 260.496 254.417L261.598 254.713C261.948 254.148 262.623 253.954 263.448 254.175C264.445 254.442 264.86 255.084 264.62 255.982L264.446 256.629L262.452 256.201C260.798 255.85 259.685 256.359 259.346 257.626C258.997 258.927 259.678 260.03 261.045 260.396ZM261.632 259.499C260.728 259.256 260.29 258.644 260.492 257.891C260.692 257.145 261.335 256.857 262.351 257.08L264.216 257.488L263.99 258.333C263.733 259.29 262.715 259.789 261.632 259.499ZM270.74 259.42C271.229 257.598 272.46 256.753 274.045 257.177C274.434 257.282 274.875 257.485 275.174 257.692L275.512 256.431C275.3 256.268 274.927 256.104 274.517 255.995C273.137 255.625 272.062 256.073 271.442 257.329L271.297 257.29L271.787 255.461L269.113 254.745L268.872 255.643L270.463 256.069L269.025 261.437L267.579 261.05L267.338 261.948L272.099 263.223L272.34 262.325L270.121 261.731L270.74 259.42ZM279.737 255.532L279.217 257.473L277.308 256.962L277.052 257.919L278.96 258.431L277.874 262.485C277.474 263.977 278.119 264.872 279.895 265.348C280.238 265.44 281.119 265.64 281.306 265.655L281.561 264.704C281.364 264.673 280.639 264.5 280.236 264.392C279.226 264.121 278.791 263.552 279 262.772L280.083 258.731L282.975 259.506L283.231 258.549L280.326 257.77L280.846 255.829L279.737 255.532ZM76.9457 235.132C76.5918 236.849 77.5999 238.237 79.5676 238.764C81.5617 239.299 83.1412 238.554 83.5994 236.844C83.9834 235.411 83.4201 234.397 81.6933 233.446L80.9179 233.012C79.7597 232.369 79.3589 231.752 79.58 230.926C79.8401 229.956 80.7287 229.571 81.9503 229.898C83.0728 230.199 83.6434 230.975 83.4987 231.99L84.6344 232.295C84.9798 230.689 84.0228 229.321 82.2268 228.84C80.3251 228.33 78.8222 229.053 78.387 230.677C78.0172 232.057 78.5915 233.11 80.2408 234.033L81.0047 234.457C82.2074 235.119 82.6293 235.763 82.4082 236.588C82.1339 237.612 81.125 238.049 79.8573 237.71C78.5895 237.37 77.9207 236.511 78.0814 235.436L76.9457 235.132ZM90.3177 239.451C89.9515 240.025 89.182 240.229 88.2774 239.987C87.0558 239.66 86.5031 238.606 86.8552 237.292L86.9331 237.001L91.8127 238.309L92.0002 237.609C92.5558 235.535 91.7905 234.007 89.9285 233.508C88.1061 233.02 86.5651 233.937 86.0591 235.826L85.7707 236.902C85.224 238.942 86.0496 240.43 88.0173 240.958C89.5228 241.361 90.8726 240.866 91.4072 239.743L90.3177 239.451ZM89.6636 234.47C90.8191 234.78 91.2979 235.793 90.9316 237.16L87.1613 236.149C87.5293 234.776 88.4684 234.15 89.6636 234.47ZM96.823 239.736C97.3113 237.914 98.5426 237.069 100.127 237.493C100.517 237.598 100.958 237.801 101.256 238.008L101.594 236.747C101.383 236.584 101.009 236.42 100.6 236.311C99.2199 235.941 98.1445 236.389 97.5247 237.645L97.3795 237.606L97.8695 235.777L95.1953 235.061L94.9547 235.959L96.546 236.385L95.1076 241.753L93.6616 241.366L93.4209 242.264L98.1817 243.54L98.4223 242.642L96.2037 242.047L96.823 239.736ZM103.291 237.23L103.992 245.097L105.227 245.427L109.762 238.964L108.566 238.644L104.981 244.074L104.895 244.051L104.492 237.552L103.291 237.23ZM115.482 238.614C116.01 238.756 116.519 238.467 116.66 237.939C116.8 237.417 116.503 236.913 115.975 236.772C115.447 236.63 114.938 236.918 114.798 237.44C114.657 237.968 114.953 238.472 115.482 238.614ZM116.096 248.34L116.345 247.409L113.975 246.773L115.645 240.54L112.099 239.59L111.85 240.521L114.286 241.174L112.865 246.476L110.409 245.818L110.16 246.749L116.096 248.34ZM125.631 245.608C125.841 244.086 124.999 242.898 123.414 242.473C121.466 241.951 120.01 242.842 119.46 244.896L119.209 245.833C118.659 247.887 119.474 249.386 121.422 249.908C123.007 250.333 124.335 249.734 124.904 248.322L123.795 248.025C123.437 248.806 122.597 249.14 121.673 248.893C120.425 248.558 119.958 247.527 120.37 245.989L120.544 245.342C120.956 243.803 121.877 243.137 123.125 243.472C124.05 243.719 124.608 244.435 124.522 245.311L125.631 245.608ZM132.115 250.65C131.749 251.225 130.979 251.429 130.074 251.186C128.853 250.859 128.3 249.805 128.652 248.491L128.73 248.201L133.61 249.508L133.797 248.808C134.353 246.735 133.588 245.206 131.726 244.707C129.903 244.219 128.362 245.137 127.856 247.025L127.568 248.102C127.021 250.142 127.847 251.63 129.814 252.157C131.32 252.56 132.67 252.066 133.204 250.942L132.115 250.65ZM131.461 245.67C132.616 245.979 133.095 246.992 132.729 248.359L128.958 247.349C129.326 245.975 130.265 245.35 131.461 245.67ZM136.837 248.292C136.565 249.309 137.03 250.134 138.245 250.778L139.242 251.308C140.099 251.756 140.367 252.154 140.215 252.722C140.031 253.408 139.292 253.685 138.315 253.423C137.39 253.175 136.859 252.622 136.871 251.918L135.728 251.612C135.525 252.873 136.398 253.921 138.022 254.356C139.719 254.811 141.052 254.248 141.405 252.927C141.683 251.891 141.212 251.113 139.904 250.423L138.955 249.921C138.111 249.483 137.824 249.073 137.971 248.525C138.146 247.872 138.847 247.606 139.758 247.851C140.597 248.075 141.095 248.619 141.059 249.282L142.142 249.572C142.33 248.342 141.52 247.325 140.027 246.925C138.449 246.502 137.17 247.051 136.837 248.292ZM157.226 259.36L158.454 259.69L157.937 249.339L156.695 249.006L151.072 257.711L152.254 258.028L153.818 255.517L157.133 256.406L157.226 259.36ZM156.908 250.563L156.941 250.572L157.096 255.327L154.389 254.602L156.908 250.563ZM161.806 252.909L162.508 260.776L163.743 261.107L168.277 254.643L167.082 254.323L163.497 259.753L163.411 259.73L163.008 253.231L161.806 252.909ZM170.722 263.111C171.765 263.391 172.659 263.17 173.208 262.496L173.32 262.526L173.032 263.603L174.101 263.889L175.416 258.983C175.816 257.491 175.082 256.374 173.398 255.923C171.932 255.53 170.612 256.019 170.172 257.132L171.275 257.428C171.624 256.863 172.299 256.669 173.125 256.89C174.122 257.157 174.537 257.799 174.296 258.697L174.123 259.345L172.129 258.916C170.475 258.565 169.362 259.074 169.022 260.342C168.674 261.642 169.355 262.745 170.722 263.111ZM171.309 262.214C170.404 261.972 169.967 261.359 170.169 260.606C170.369 259.86 171.012 259.572 172.028 259.795L173.893 260.203L173.667 261.048C173.41 262.006 172.392 262.504 171.309 262.214ZM182.357 256.533C182.885 256.675 183.394 256.386 183.536 255.858C183.675 255.337 183.379 254.832 182.85 254.691C182.322 254.549 181.813 254.838 181.674 255.359C181.532 255.887 181.829 256.392 182.357 256.533ZM182.971 266.259L183.22 265.328L180.85 264.693L182.52 258.459L178.974 257.509L178.725 258.44L181.161 259.093L179.741 264.395L177.284 263.737L177.035 264.668L182.971 266.259ZM191.33 268.499L191.58 267.568L189.216 266.934L191.64 257.888L188.087 256.936L187.838 257.867L190.268 258.518L188.093 266.634L185.644 265.977L185.394 266.908L191.33 268.499ZM195.8 269.831C196.843 270.11 197.737 269.89 198.286 269.216L198.398 269.246L198.11 270.322L199.18 270.609L200.494 265.703C200.894 264.211 200.16 263.094 198.476 262.643C197.01 262.25 195.69 262.739 195.251 263.852L196.353 264.148C196.703 263.583 197.378 263.389 198.203 263.61C199.2 263.877 199.615 264.519 199.375 265.417L199.201 266.064L197.207 265.636C195.553 265.285 194.44 265.793 194.1 267.061C193.752 268.362 194.433 269.465 195.8 269.831ZM196.387 268.934C195.483 268.691 195.045 268.079 195.247 267.326C195.447 266.58 196.09 266.292 197.106 266.515L198.971 266.923L198.745 267.768C198.488 268.725 197.47 269.224 196.387 268.934ZM205.336 272.379C206.994 272.823 208.397 271.918 208.891 270.076L209.248 268.742C209.74 266.906 208.977 265.421 207.32 264.977C206.283 264.699 205.405 264.938 204.878 265.639L204.759 265.607L205.81 261.685L204.668 261.379L201.994 271.356L203.097 271.652L203.391 270.555L203.516 270.589C203.674 271.481 204.313 272.105 205.336 272.379ZM205.281 271.267C204.105 270.952 203.579 269.905 203.935 268.578L204.211 267.548C204.564 266.227 205.544 265.584 206.719 265.899C207.908 266.217 208.434 267.264 208.08 268.585L207.804 269.615C207.45 270.935 206.469 271.586 205.281 271.267ZM216.409 275.218L216.658 274.287L214.294 273.654L216.718 264.608L213.166 263.656L212.916 264.587L215.346 265.238L213.172 273.353L210.722 272.697L210.472 273.628L216.409 275.218ZM224.068 275.289C223.702 275.863 222.933 276.068 222.028 275.825C220.806 275.498 220.254 274.444 220.606 273.13L220.684 272.84L225.563 274.147L225.751 273.447C226.306 271.374 225.541 269.845 223.679 269.346C221.857 268.858 220.316 269.776 219.81 271.664L219.521 272.74C218.975 274.781 219.8 276.269 221.768 276.796C223.273 277.199 224.623 276.705 225.158 275.581L224.068 275.289ZM223.414 270.309C224.57 270.618 225.048 271.631 224.682 272.998L220.912 271.988C221.28 270.614 222.219 269.988 223.414 270.309ZM231.346 273.828C231.999 274.003 232.69 273.594 232.868 272.927C233.047 272.26 232.654 271.56 232 271.385C231.347 271.21 230.657 271.619 230.478 272.286C230.299 272.953 230.692 273.653 231.346 273.828ZM229.987 278.899C230.641 279.074 231.329 278.671 231.509 277.998C231.688 277.331 231.293 276.638 230.64 276.463C229.986 276.288 229.298 276.69 229.119 277.357C228.939 278.031 229.333 278.724 229.987 278.899ZM246.397 273.042L243.844 282.57L245.013 282.883L245.929 279.463L247.904 279.992C249.766 280.49 251.311 279.609 251.805 277.767C252.3 275.918 251.415 274.386 249.567 273.891L246.397 273.042ZM247.288 274.391L248.998 274.85C250.385 275.221 250.971 276.15 250.623 277.451C250.276 278.745 249.304 279.256 247.917 278.884L246.207 278.426L247.288 274.391ZM255.04 285.711C256.935 286.219 258.475 285.308 258.993 283.373L259.283 282.291C259.802 280.356 258.924 278.797 257.029 278.29C255.134 277.782 253.595 278.693 253.076 280.627L252.786 281.71C252.268 283.645 253.145 285.204 255.04 285.711ZM256.764 279.28C257.992 279.609 258.524 280.686 258.147 282.092L257.912 282.971C257.533 284.384 256.536 285.043 255.308 284.714C254.079 284.385 253.545 283.315 253.924 281.902L254.159 281.024C254.536 279.617 255.536 278.951 256.764 279.28ZM262.228 281.891C261.956 282.908 262.421 283.733 263.636 284.377L264.633 284.906C265.49 285.355 265.758 285.752 265.606 286.32C265.422 287.007 264.683 287.283 263.706 287.021C262.781 286.773 262.25 286.221 262.262 285.516L261.119 285.21C260.916 286.472 261.789 287.52 263.413 287.955C265.11 288.409 266.443 287.847 266.797 286.526C267.074 285.489 266.603 284.712 265.295 284.022L264.347 283.52C263.502 283.081 263.215 282.672 263.362 282.124C263.537 281.47 264.238 281.205 265.149 281.449C265.988 281.674 266.486 282.218 266.45 282.88L267.533 283.171C267.721 281.94 266.911 280.923 265.418 280.523C263.84 280.1 262.561 280.649 262.228 281.891ZM273.008 280.646L272.487 282.587L270.579 282.076L270.323 283.033L272.231 283.545L271.145 287.599C270.745 289.091 271.39 289.986 273.166 290.462C273.509 290.554 274.39 290.754 274.577 290.769L274.831 289.818C274.635 289.787 273.91 289.614 273.507 289.506C272.497 289.235 272.062 288.666 272.271 287.887L273.353 283.845L276.245 284.62L276.502 283.663L273.597 282.885L274.117 280.943L273.008 280.646ZM279.223 294.93C281.164 295.45 282.582 294.754 283.033 293.07L284.953 285.906L283.843 285.609L283.546 286.718L283.421 286.685C283.317 285.829 282.654 285.163 281.617 284.885C279.94 284.436 278.525 285.33 278.032 287.173L277.687 288.46C277.195 290.296 277.964 291.783 279.621 292.227C280.665 292.507 281.579 292.263 282.098 291.595L282.216 291.627L281.917 292.743C281.61 293.892 280.746 294.34 279.492 294.004C278.534 293.747 277.919 293.165 277.933 292.532L276.824 292.235C276.651 293.462 277.565 294.486 279.223 294.93ZM278.858 288.604L279.122 287.62C279.474 286.306 280.468 285.66 281.657 285.978C282.838 286.295 283.371 287.344 283.017 288.664L282.754 289.648C282.4 290.969 281.412 291.617 280.23 291.3C279.042 290.982 278.506 289.918 278.858 288.604ZM289.089 291.254C289.578 289.431 290.809 288.586 292.394 289.011C292.783 289.115 293.224 289.319 293.523 289.526L293.861 288.265C293.649 288.102 293.276 287.938 292.866 287.828C291.486 287.459 290.411 287.906 289.791 289.163L289.646 289.124L290.136 287.295L287.462 286.578L287.221 287.476L288.812 287.903L287.374 293.271L285.928 292.884L285.687 293.782L290.448 295.057L290.689 294.159L288.47 293.565L289.089 291.254ZM299.303 295.448C298.937 296.022 298.167 296.227 297.263 295.984C296.041 295.657 295.488 294.603 295.84 293.289L295.918 292.999L300.798 294.306L300.985 293.606C301.541 291.533 300.776 290.004 298.914 289.505C297.091 289.017 295.55 289.935 295.044 291.823L294.756 292.899C294.209 294.94 295.035 296.428 297.003 296.955C298.508 297.358 299.858 296.864 300.392 295.74L299.303 295.448ZM298.649 290.468C299.804 290.777 300.283 291.79 299.917 293.157L296.147 292.147C296.515 290.773 297.454 290.147 298.649 290.468ZM304.025 293.09C303.753 294.107 304.218 294.932 305.433 295.576L306.43 296.105C307.287 296.554 307.555 296.952 307.403 297.52C307.219 298.206 306.48 298.482 305.503 298.221C304.578 297.973 304.047 297.42 304.059 296.716L302.917 296.409C302.713 297.671 303.586 298.719 305.21 299.154C306.907 299.609 308.24 299.046 308.594 297.725C308.871 296.689 308.4 295.911 307.092 295.221L306.144 294.719C305.299 294.281 305.012 293.871 305.159 293.323C305.334 292.669 306.035 292.404 306.946 292.649C307.785 292.873 308.283 293.417 308.247 294.08L309.33 294.37C309.518 293.139 308.708 292.123 307.215 291.723C305.637 291.3 304.358 291.849 304.025 293.09ZM70.2164 260.246C69.8625 261.963 70.8706 263.351 72.8383 263.878C74.8324 264.413 76.4119 263.668 76.8701 261.958C77.2541 260.525 76.6908 259.511 74.964 258.56L74.1886 258.126C73.0304 257.483 72.6296 256.866 72.8507 256.04C73.1108 255.07 73.9995 254.685 75.221 255.012C76.3435 255.313 76.9142 256.089 76.7694 257.104L77.9051 257.409C78.2505 255.803 77.2935 254.435 75.4975 253.954C73.5958 253.444 72.093 254.167 71.6577 255.791C71.2879 257.171 71.8622 258.224 73.5115 259.147L74.2754 259.571C75.4781 260.233 75.9 260.877 75.6789 261.703C75.4046 262.726 74.3957 263.163 73.128 262.824C71.8602 262.484 71.1915 261.625 71.3521 260.55L70.2164 260.246ZM83.5884 264.565C83.2222 265.139 82.4527 265.343 81.5481 265.101C80.3265 264.774 79.7738 263.72 80.1259 262.406L80.2038 262.115L85.0834 263.423L85.2709 262.723C85.8265 260.649 85.0613 259.121 83.1992 258.622C81.3768 258.134 79.8358 259.051 79.3298 260.94L79.0414 262.016C78.4947 264.056 79.3203 265.544 81.288 266.072C82.7935 266.475 84.1433 265.98 84.6779 264.857L83.5884 264.565ZM82.9343 259.584C84.0898 259.894 84.5686 260.907 84.2023 262.274L80.432 261.263C80.8 259.89 81.7391 259.264 82.9343 259.584ZM90.0937 264.85C90.582 263.028 91.8133 262.183 93.398 262.607C93.7876 262.712 94.2286 262.915 94.5269 263.122L94.8648 261.861C94.6537 261.698 94.28 261.535 93.8706 261.425C92.4906 261.055 91.4152 261.503 90.7954 262.759L90.6502 262.72L91.1403 260.891L88.466 260.175L88.2254 261.073L89.8167 261.499L88.3783 266.868L86.9323 266.48L86.6916 267.378L91.4524 268.654L91.693 267.756L89.4744 267.161L90.0937 264.85ZM96.5613 262.344L97.2631 270.211L98.4978 270.541L103.032 264.078L101.837 263.758L98.252 269.188L98.1661 269.165L97.7631 262.666L96.5613 262.344ZM108.667 271.285C108.3 271.859 107.531 272.063 106.626 271.821C105.405 271.493 104.852 270.439 105.204 269.125L105.282 268.835L110.162 270.142L110.349 269.442C110.905 267.369 110.139 265.841 108.277 265.342C106.455 264.853 104.914 265.771 104.408 267.659L104.12 268.736C103.573 270.776 104.399 272.264 106.366 272.791C107.872 273.195 109.222 272.7 109.756 271.577L108.667 271.285ZM108.013 266.304C109.168 266.614 109.647 267.627 109.281 268.993L105.51 267.983C105.878 266.61 106.817 265.984 108.013 266.304ZM115.172 271.57C115.66 269.747 116.892 268.903 118.476 269.327C118.866 269.432 119.307 269.635 119.605 269.842L119.943 268.581C119.732 268.418 119.358 268.254 118.949 268.145C117.569 267.775 116.493 268.223 115.874 269.479L115.728 269.44L116.218 267.611L113.544 266.895L113.304 267.793L114.895 268.219L113.457 273.587L112.01 273.2L111.77 274.098L116.531 275.373L116.771 274.475L114.553 273.881L115.172 271.57ZM134.445 280.173L134.694 279.242L132.33 278.609L134.754 269.563L131.202 268.611L130.952 269.542L133.382 270.193L131.208 278.308L128.758 277.652L128.508 278.583L134.445 280.173ZM142.19 272.688C142.718 272.829 143.227 272.541 143.369 272.013C143.508 271.491 143.212 270.987 142.684 270.845C142.155 270.704 141.646 270.992 141.507 271.514C141.365 272.042 141.662 272.546 142.19 272.688ZM142.804 282.413L143.053 281.482L140.683 280.847L142.353 274.614L138.807 273.664L138.558 274.595L140.994 275.248L139.574 280.55L137.117 279.892L136.868 280.823L142.804 282.413ZM146.827 277.886C146.554 278.903 147.02 279.728 148.234 280.372L149.232 280.901C150.088 281.35 150.357 281.748 150.205 282.316C150.02 283.002 149.281 283.278 148.304 283.017C147.38 282.769 146.848 282.216 146.86 281.511L145.718 281.205C145.514 282.467 146.387 283.515 148.011 283.95C149.708 284.405 151.041 283.842 151.395 282.521C151.673 281.485 151.202 280.707 149.893 280.017L148.945 279.515C148.1 279.077 147.813 278.667 147.96 278.119C148.135 277.465 148.836 277.2 149.748 277.444C150.586 277.669 151.084 278.213 151.048 278.876L152.131 279.166C152.319 277.935 151.509 276.919 150.017 276.519C148.439 276.096 147.159 276.645 146.827 277.886ZM157.606 276.641L157.086 278.583L155.178 278.071L154.921 279.029L156.829 279.54L155.743 283.594C155.343 285.087 155.988 285.981 157.764 286.457C158.108 286.549 158.988 286.75 159.175 286.765L159.43 285.814C159.233 285.782 158.508 285.609 158.105 285.501C157.095 285.231 156.66 284.661 156.869 283.882L157.952 279.841L160.844 280.616L161.1 279.658L158.195 278.88L158.715 276.939L157.606 276.641ZM167.182 286.964C166.816 287.538 166.047 287.742 165.142 287.5C163.921 287.173 163.368 286.119 163.72 284.805L163.798 284.514L168.677 285.822L168.865 285.122C169.421 283.048 168.655 281.52 166.793 281.021C164.971 280.533 163.43 281.45 162.924 283.339L162.635 284.415C162.089 286.455 162.914 287.943 164.882 288.471C166.388 288.874 167.737 288.379 168.272 287.256L167.182 286.964ZM166.528 281.983C167.684 282.293 168.163 283.306 167.796 284.673L164.026 283.662C164.394 282.289 165.333 281.663 166.528 281.983ZM170.18 289.749L171.303 290.049L172.433 285.83C172.76 284.609 173.774 283.996 174.956 284.312C176.072 284.611 176.437 285.36 176.091 286.654L174.921 291.019L176.044 291.32L177.289 286.671C177.749 284.955 177.153 283.797 175.595 283.379C174.506 283.088 173.552 283.37 172.931 284.159L172.838 284.134L173.176 282.873L172.1 282.584L170.18 289.749ZM183.987 283.887C184.515 284.029 185.024 283.74 185.166 283.212C185.305 282.691 185.009 282.186 184.481 282.045C183.952 281.903 183.443 282.192 183.304 282.713C183.162 283.241 183.459 283.746 183.987 283.887ZM184.601 293.613L184.851 292.682L182.48 292.047L184.15 285.813L180.604 284.863L180.355 285.794L182.791 286.447L181.371 291.749L178.914 291.091L178.665 292.022L184.601 293.613ZM186.899 294.228L188.021 294.529L189.152 290.31C189.479 289.088 190.493 288.475 191.675 288.792C192.791 289.091 193.156 289.84 192.809 291.134L191.64 295.499L192.762 295.8L194.008 291.151C194.468 289.434 193.872 288.277 192.314 287.859C191.224 287.567 190.271 287.85 189.649 288.639L189.557 288.614L189.895 287.353L188.819 287.064L186.899 294.228ZM197.259 299.885C199.2 300.405 200.618 299.709 201.069 298.025L202.989 290.861L201.879 290.564L201.582 291.673L201.457 291.64C201.353 290.784 200.69 290.118 199.653 289.84C197.976 289.391 196.561 290.285 196.068 292.128L195.723 293.415C195.231 295.251 196 296.738 197.657 297.182C198.701 297.462 199.615 297.218 200.134 296.55L200.253 296.582L199.954 297.698C199.646 298.847 198.782 299.295 197.528 298.959C196.57 298.702 195.955 298.12 195.969 297.487L194.86 297.19C194.687 298.417 195.601 299.441 197.259 299.885ZM196.894 293.559L197.158 292.575C197.51 291.261 198.504 290.615 199.693 290.933C200.874 291.25 201.407 292.299 201.054 293.619L200.79 294.603C200.436 295.924 199.448 296.572 198.267 296.255C197.078 295.937 196.542 294.873 196.894 293.559ZM214.149 301.665C215.192 301.944 216.086 301.724 216.635 301.05L216.747 301.08L216.459 302.156L217.528 302.443L218.843 297.537C219.243 296.044 218.509 294.928 216.825 294.477C215.359 294.084 214.039 294.572 213.599 295.686L214.702 295.981C215.052 295.417 215.726 295.223 216.552 295.444C217.549 295.711 217.964 296.353 217.724 297.251L217.55 297.898L215.556 297.47C213.902 297.119 212.789 297.627 212.449 298.895C212.101 300.196 212.782 301.298 214.149 301.665ZM214.736 300.767C213.831 300.525 213.394 299.912 213.596 299.16C213.796 298.414 214.439 298.126 215.455 298.349L217.32 298.756L217.094 299.602C216.837 300.559 215.819 301.058 214.736 300.767ZM224.481 294.561L223.961 296.502L222.053 295.991L221.796 296.948L223.705 297.459L222.618 301.514C222.218 303.006 222.863 303.9 224.639 304.376C224.983 304.468 225.863 304.669 226.05 304.684L226.305 303.733C226.108 303.701 225.383 303.528 224.981 303.42C223.97 303.15 223.535 302.58 223.744 301.801L224.827 297.76L227.719 298.535L227.976 297.578L225.07 296.799L225.591 294.858L224.481 294.561ZM243.117 309.292L243.366 308.361L241.002 307.728L243.426 298.682L239.874 297.73L239.625 298.661L242.054 299.312L239.88 307.427L237.43 306.77L237.181 307.701L243.117 309.292ZM248.311 310.825C250.206 311.333 251.745 310.422 252.264 308.487L252.554 307.405C253.072 305.47 252.195 303.911 250.3 303.404C248.405 302.896 246.865 303.807 246.347 305.741L246.057 306.824C245.539 308.759 246.416 310.318 248.311 310.825ZM250.034 304.394C251.263 304.723 251.795 305.8 251.418 307.206L251.183 308.085C250.804 309.498 249.806 310.157 248.578 309.828C247.35 309.499 246.816 308.429 247.195 307.016L247.43 306.138C247.807 304.731 248.806 304.065 250.034 304.394ZM261.012 308.8C261.222 307.278 260.379 306.09 258.795 305.666C256.847 305.144 255.391 306.035 254.841 308.088L254.589 309.026C254.039 311.079 254.855 312.579 256.803 313.101C258.387 313.525 259.716 312.926 260.285 311.514L259.176 311.217C258.818 311.999 257.978 312.333 257.053 312.085C255.805 311.751 255.339 310.72 255.751 309.181L255.924 308.534C256.337 306.996 257.258 306.33 258.506 306.664C259.43 306.912 259.989 307.628 259.903 308.503L261.012 308.8ZM264.305 315.104C265.349 315.384 266.243 315.163 266.791 314.489L266.904 314.519L266.615 315.595L267.685 315.882L268.999 310.976C269.399 309.484 268.665 308.367 266.982 307.916C265.516 307.523 264.196 308.012 263.756 309.125L264.859 309.421C265.208 308.856 265.883 308.662 266.708 308.883C267.705 309.15 268.121 309.792 267.88 310.69L267.707 311.337L265.712 310.909C264.058 310.558 262.946 311.067 262.606 312.334C262.257 313.635 262.939 314.738 264.305 315.104ZM264.893 314.207C263.988 313.964 263.551 313.352 263.752 312.599C263.952 311.853 264.595 311.565 265.611 311.788L267.477 312.196L267.25 313.041C266.994 313.998 265.975 314.497 264.893 314.207ZM276.555 318.252L276.804 317.321L274.44 316.687L276.864 307.641L273.312 306.689L273.062 307.62L275.492 308.271L273.318 316.386L270.868 315.73L270.618 316.661L276.555 318.252ZM278.846 318.866L279.968 319.166L281.097 314.954C281.424 313.732 282.445 313.121 283.626 313.437C284.749 313.738 285.113 314.494 284.768 315.781L283.6 320.139L284.722 320.44L285.966 315.798C286.424 314.088 285.831 312.924 284.272 312.507C283.176 312.213 282.216 312.493 281.601 313.284L281.509 313.259L282.602 309.179L281.519 308.888L278.846 318.866ZM290.108 322.025C292.003 322.533 293.542 321.622 294.061 319.687L294.351 318.604C294.869 316.669 293.992 315.111 292.097 314.603C290.202 314.095 288.663 315.006 288.144 316.941L287.854 318.024C287.336 319.959 288.213 321.517 290.108 322.025ZM291.831 315.594C293.06 315.923 293.592 316.999 293.215 318.406L292.98 319.284C292.601 320.697 291.603 321.357 290.375 321.028C289.147 320.699 288.613 319.628 288.992 318.215L289.227 317.337C289.604 315.931 290.603 315.264 291.831 315.594ZM297.296 318.204C297.024 319.221 297.489 320.046 298.703 320.69L299.701 321.22C300.557 321.668 300.826 322.066 300.674 322.634C300.49 323.32 299.751 323.597 298.773 323.335C297.849 323.087 297.318 322.534 297.33 321.83L296.187 321.524C295.984 322.785 296.856 323.833 298.481 324.268C300.178 324.723 301.51 324.16 301.864 322.839C302.142 321.803 301.671 321.025 300.363 320.335L299.414 319.833C298.569 319.395 298.283 318.985 298.43 318.437C298.605 317.784 299.306 317.518 300.217 317.763C301.055 317.987 301.554 318.531 301.518 319.194L302.601 319.484C302.789 318.254 301.978 317.237 300.486 316.837C298.908 316.414 297.629 316.963 297.296 318.204ZM308.075 316.96L307.555 318.901L305.647 318.39L305.39 319.347L307.299 319.858L306.212 323.913C305.812 325.405 306.457 326.299 308.234 326.775C308.577 326.867 309.457 327.068 309.644 327.083L309.899 326.132C309.702 326.1 308.977 325.927 308.575 325.819C307.564 325.549 307.13 324.979 307.338 324.2L308.421 320.159L311.313 320.934L311.57 319.977L308.664 319.198L309.185 317.257L308.075 316.96ZM316.57 323.581C317.224 323.756 317.914 323.347 318.092 322.68C318.271 322.013 317.878 321.313 317.225 321.138C316.571 320.963 315.881 321.372 315.702 322.039C315.523 322.706 315.916 323.406 316.57 323.581ZM315.211 328.652C315.865 328.827 316.553 328.424 316.734 327.751C316.912 327.084 316.518 326.391 315.864 326.216C315.21 326.04 314.522 326.443 314.343 327.11C314.163 327.784 314.557 328.477 315.211 328.652ZM323.603 326.124L324.692 326.416C326.013 326.769 326.662 327.701 326.365 328.81C326.076 329.886 325.084 330.342 323.776 329.992C322.588 329.673 321.92 328.787 322.086 327.741L320.984 327.446C320.629 329.113 321.646 330.546 323.528 331.05C325.43 331.56 327.1 330.769 327.533 329.151C327.882 327.85 327.368 326.757 326.144 326.253L326.172 326.147C327.263 326.17 328.083 325.512 328.391 324.364C328.779 322.917 327.838 321.568 326.134 321.112C324.371 320.64 322.935 321.352 322.381 322.972L323.496 323.271C323.863 322.273 324.744 321.836 325.814 322.123C326.89 322.411 327.432 323.243 327.172 324.214C326.905 325.211 325.971 325.711 324.901 325.424L323.865 325.146L323.603 326.124ZM331.889 333.312C333.956 333.866 335.579 332.404 336.438 329.195C337.298 325.986 336.624 323.908 334.557 323.355C332.483 322.799 330.867 324.263 330.007 327.472C329.147 330.681 329.815 332.756 331.889 333.312ZM331.163 327.781C331.856 325.193 332.934 324.024 334.281 324.385C335.179 324.625 335.637 325.399 335.63 326.664L330.928 328.844C330.988 328.513 331.062 328.158 331.163 327.781ZM332.165 332.282C331.267 332.041 330.815 331.269 330.818 330.017L335.515 327.808C335.46 328.147 335.379 328.501 335.276 328.884C334.585 331.465 333.512 332.643 332.165 332.282ZM340.248 335.552C342.315 336.106 343.938 334.644 344.798 331.435C345.658 328.226 344.983 326.148 342.916 325.595C340.843 325.039 339.226 326.502 338.367 329.712C337.507 332.921 338.175 334.996 340.248 335.552ZM339.522 330.021C340.216 327.433 341.293 326.264 342.64 326.625C343.538 326.865 343.996 327.639 343.99 328.904L339.287 331.083C339.347 330.753 339.421 330.398 339.522 330.021ZM340.524 334.522C339.626 334.281 339.175 333.509 339.178 332.257L343.874 330.048C343.819 330.387 343.738 330.74 343.636 331.123C342.944 333.705 341.871 334.883 340.524 334.522ZM348.608 337.792C350.674 338.346 352.297 336.884 353.157 333.675C354.017 330.466 353.342 328.388 351.276 327.834C349.202 327.279 347.586 328.742 346.726 331.951C345.866 335.161 346.534 337.236 348.608 337.792ZM347.881 332.261C348.575 329.673 349.653 328.504 351 328.864C351.898 329.105 352.356 329.879 352.349 331.144L347.646 333.323C347.707 332.993 347.781 332.637 347.881 332.261ZM348.884 336.762C347.986 336.521 347.534 335.749 347.537 334.497L352.234 332.288C352.178 332.627 352.098 332.98 351.995 333.363C351.303 335.945 350.231 337.123 348.884 336.762ZM58.3234 306.322L62.1856 310.053L62.1537 310.172L56.9433 311.472L56.6054 312.733L63.181 310.907L63.4429 309.93L58.6613 305.061L58.3234 306.322ZM76.6351 315.078C77.1234 313.256 78.3547 312.411 79.9394 312.836C80.329 312.94 80.77 313.143 81.0683 313.35L81.4062 312.089C81.1951 311.926 80.8214 311.763 80.412 311.653C79.032 311.283 77.9566 311.731 77.3368 312.988L77.1916 312.949L77.6817 311.12L75.0074 310.403L74.7668 311.301L76.3581 311.727L74.9197 317.096L73.4737 316.708L73.2331 317.606L77.9938 318.882L78.2344 317.984L76.0158 317.389L76.6351 315.078ZM83.6586 320.534C84.7019 320.814 85.596 320.593 86.1446 319.919L86.2569 319.949L85.9685 321.026L87.0382 321.312L88.3527 316.406C88.7526 314.914 88.0186 313.797 86.3348 313.346C84.8689 312.953 83.5491 313.442 83.1092 314.555L84.2119 314.851C84.5613 314.286 85.2361 314.092 86.0615 314.313C87.0586 314.58 87.4739 315.222 87.2333 316.12L87.0599 316.768L85.0657 316.339C83.4117 315.988 82.2988 316.497 81.9591 317.765C81.6106 319.065 82.2918 320.168 83.6586 320.534ZM84.2458 319.637C83.3412 319.395 82.9038 318.782 83.1054 318.029C83.3054 317.283 83.9486 316.995 84.9647 317.218L86.8299 317.626L86.6034 318.471C86.3469 319.429 85.3287 319.927 84.2458 319.637ZM95.2937 313.956C95.8219 314.098 96.3309 313.809 96.4724 313.281C96.6122 312.76 96.3156 312.255 95.7873 312.114C95.2591 311.972 94.7501 312.261 94.6104 312.782C94.4688 313.311 94.7655 313.815 95.2937 313.956ZM95.9078 323.682L96.1572 322.751L93.7868 322.116L95.457 315.882L91.9111 314.932L91.6617 315.863L94.0982 316.516L92.6775 321.818L90.2211 321.16L89.9717 322.091L95.9078 323.682ZM104.267 325.922L104.517 324.991L102.153 324.357L104.577 315.311L101.024 314.359L100.775 315.29L103.205 315.941L101.03 324.057L98.5806 323.4L98.3311 324.331L104.267 325.922ZM115.286 321.196L114.19 320.902L111.68 326.386L111.561 326.355L111.943 320.307L110.886 320.024L108.193 325.452L108.075 325.42L108.643 319.416L107.547 319.122L107.166 326.698L108.242 326.987L110.954 321.726L111.033 321.747L110.751 327.659L111.828 327.948L115.286 321.196ZM117.096 329.494C118.14 329.773 119.034 329.553 119.582 328.879L119.695 328.909L119.406 329.985L120.476 330.272L121.79 325.366C122.19 323.874 121.456 322.757 119.772 322.306C118.307 321.913 116.987 322.401 116.547 323.515L117.65 323.81C117.999 323.246 118.674 323.052 119.499 323.273C120.496 323.54 120.912 324.182 120.671 325.08L120.498 325.727L118.503 325.299C116.849 324.948 115.736 325.456 115.397 326.724C115.048 328.025 115.729 329.128 117.096 329.494ZM117.683 328.597C116.779 328.354 116.341 327.742 116.543 326.989C116.743 326.243 117.386 325.955 118.402 326.178L120.268 326.586L120.041 327.431C119.785 328.388 118.766 328.887 117.683 328.597ZM123.525 333.814C124.853 334.169 125.593 333.809 126.693 332.214L131.384 325.509L130.189 325.189L126.582 330.648L126.496 330.625L126.095 324.092L124.873 323.765L125.576 331.681L125.346 332.037C124.826 332.789 124.375 332.994 123.701 332.813C123.596 332.785 123.393 332.724 123.312 332.681L123.049 333.665C123.144 333.704 123.36 333.769 123.525 333.814ZM147.786 329.904L146.663 329.603L145.533 333.822C145.205 335.044 144.192 335.657 143.01 335.34C141.894 335.041 141.529 334.292 141.875 332.998L143.045 328.634L141.922 328.333L140.677 332.981C140.217 334.698 140.812 335.856 142.371 336.273C143.46 336.565 144.414 336.283 145.035 335.494L145.128 335.519L144.79 336.78L145.866 337.068L147.786 329.904ZM153.694 331.36C152.671 331.085 151.811 331.308 151.223 332L151.104 331.968L151.398 330.872L150.288 330.574L147.721 340.155L148.863 340.461L149.808 336.935L149.934 336.969C150.033 337.838 150.674 338.484 151.711 338.762C153.368 339.206 154.771 338.301 155.263 336.465L155.621 335.131C156.114 333.289 155.352 331.804 153.694 331.36ZM153.095 332.303C154.277 332.62 154.803 333.667 154.449 334.987L154.173 336.017C153.819 337.338 152.838 337.988 151.656 337.671C150.474 337.355 149.948 336.308 150.304 334.981L150.58 333.95C150.934 332.63 151.913 331.986 153.095 332.303ZM55.074 339.658L56.3021 339.987L55.7848 329.636L54.5434 329.303L48.9199 338.009L50.1019 338.325L51.6663 335.815L54.9811 336.703L55.074 339.658ZM54.756 330.861L54.789 330.869L54.9445 335.624L52.2372 334.899L54.756 330.861ZM63.3709 334.075C62.3475 333.801 61.4881 334.023 60.8994 334.715L60.7806 334.683L61.0743 333.587L59.965 333.29L57.3978 342.871L58.5401 343.177L59.4849 339.651L59.6103 339.684C59.7101 340.553 60.3509 341.199 61.3876 341.477C63.0449 341.921 64.4481 341.016 64.9399 339.18L65.2973 337.846C65.791 336.004 65.0283 334.519 63.3709 334.075ZM62.7714 335.018C63.9533 335.335 64.4796 336.382 64.1258 337.702L63.8497 338.732C63.4959 340.053 62.5149 340.703 61.333 340.386C60.151 340.07 59.6248 339.023 59.9804 337.696L60.2564 336.666C60.6102 335.345 61.5895 334.701 62.7714 335.018ZM71.7304 336.315C70.7069 336.04 69.8475 336.263 69.2588 336.955L69.14 336.923L69.4337 335.827L68.3244 335.529L65.7572 345.11L66.8995 345.416L67.8443 341.89L67.9697 341.924C68.0695 342.793 68.7103 343.439 69.747 343.717C71.4044 344.161 72.8075 343.256 73.2993 341.42L73.6567 340.086C74.1504 338.244 73.3877 336.759 71.7304 336.315ZM71.1308 337.258C72.3127 337.575 72.839 338.622 72.4852 339.942L72.2092 340.972C71.8553 342.293 70.8743 342.943 69.6924 342.626C68.5104 342.31 67.9842 341.263 68.3398 339.936L68.6158 338.905C68.9697 337.585 69.9489 336.941 71.1308 337.258ZM85.5678 347.956C86.5913 348.23 87.4573 348.009 88.0393 347.316L88.1648 347.35L87.8711 348.446L88.9738 348.741L91.6472 338.764L90.5048 338.458L89.4539 342.38L89.335 342.348C89.2352 341.479 88.5878 340.832 87.5512 340.554C85.8938 340.11 84.4907 341.015 83.9988 342.85L83.6414 344.184C83.1478 346.026 83.9105 347.512 85.5678 347.956ZM86.1722 347.021C84.9903 346.704 84.4591 345.649 84.813 344.328L85.089 343.298C85.4429 341.978 86.4287 341.336 87.6106 341.653C88.7859 341.968 89.3188 343.016 88.965 344.337L88.689 345.367C88.3333 346.694 87.3475 347.336 86.1722 347.021ZM96.8381 348.867C96.472 349.441 95.7025 349.645 94.7978 349.403C93.5763 349.076 93.0236 348.022 93.3757 346.708L93.4535 346.417L98.3332 347.725L98.5207 347.025C99.0762 344.951 98.311 343.423 96.449 342.924C94.6265 342.436 93.0855 343.353 92.5795 345.242L92.2911 346.318C91.7444 348.358 92.5701 349.846 94.5378 350.373C96.0432 350.777 97.393 350.282 97.9276 349.159L96.8381 348.867ZM96.184 343.886C97.3396 344.196 97.8183 345.209 97.4521 346.575L93.6818 345.565C94.0498 344.192 94.9889 343.566 96.184 343.886ZM105.168 345.274C104.145 345 103.285 345.223 102.696 345.914L102.578 345.882L102.871 344.786L101.762 344.489L99.1948 354.07L100.337 354.376L101.282 350.85L101.407 350.884C101.507 351.753 102.148 352.398 103.185 352.676C104.842 353.12 106.245 352.215 106.737 350.38L107.094 349.046C107.588 347.204 106.825 345.718 105.168 345.274ZM104.568 346.218C105.75 346.534 106.277 347.581 105.923 348.902L105.647 349.932C105.293 351.253 104.312 351.903 103.13 351.586C101.948 351.269 101.422 350.222 101.777 348.895L102.053 347.865C102.407 346.544 103.386 345.901 104.568 346.218ZM114.257 355.516L114.506 354.585L112.142 353.951L114.566 344.905L111.014 343.953L110.764 344.884L113.194 345.535L111.02 353.65L108.57 352.994L108.321 353.925L114.257 355.516ZM119.451 357.049C121.346 357.557 122.885 356.646 123.404 354.711L123.694 353.628C124.212 351.693 123.335 350.135 121.44 349.627C119.545 349.119 118.005 350.03 117.487 351.965L117.197 353.048C116.678 354.983 117.556 356.541 119.451 357.049ZM121.174 350.618C122.402 350.947 122.935 352.024 122.558 353.43L122.323 354.308C121.944 355.721 120.946 356.381 119.718 356.052C118.49 355.723 117.956 354.653 118.334 353.24L118.57 352.361C118.947 350.955 119.946 350.289 121.174 350.618ZM125.155 361.168C126.483 361.523 127.223 361.163 128.323 359.568L133.014 352.863L131.819 352.543L128.212 358.002L128.126 357.979L127.725 351.446L126.503 351.118L127.206 359.035L126.976 359.391C126.456 360.143 126.005 360.348 125.331 360.167C125.226 360.139 125.023 360.078 124.942 360.035L124.679 361.019C124.774 361.058 124.99 361.123 125.155 361.168ZM138.635 360.066C138.269 360.64 137.499 360.845 136.595 360.602C135.373 360.275 134.821 359.221 135.173 357.907L135.251 357.617L140.13 358.924L140.318 358.224C140.873 356.151 140.108 354.622 138.246 354.123C136.424 353.635 134.883 354.553 134.377 356.441L134.088 357.517C133.541 359.558 134.367 361.046 136.335 361.573C137.84 361.976 139.19 361.482 139.725 360.358L138.635 360.066ZM137.981 355.086C139.137 355.395 139.615 356.408 139.249 357.775L135.479 356.765C135.847 355.391 136.786 354.765 137.981 355.086ZM144.084 363.635C145.107 363.909 145.973 363.688 146.555 362.995L146.681 363.029L146.387 364.125L147.49 364.42L150.163 354.443L149.021 354.137L147.97 358.059L147.851 358.027C147.751 357.159 147.104 356.511 146.067 356.233C144.41 355.789 143.007 356.694 142.515 358.53L142.157 359.863C141.664 361.706 142.426 363.191 144.084 363.635ZM144.688 362.7C143.506 362.383 142.975 361.328 143.329 360.008L143.605 358.977C143.959 357.657 144.945 357.015 146.126 357.332C147.302 357.647 147.835 358.695 147.481 360.016L147.205 361.046C146.849 362.373 145.863 363.015 144.688 362.7ZM160.523 368.047C161.567 368.327 162.461 368.106 163.009 367.432L163.122 367.462L162.833 368.539L163.903 368.825L165.218 363.919C165.617 362.427 164.883 361.31 163.2 360.859C161.734 360.466 160.414 360.955 159.974 362.068L161.077 362.364C161.426 361.799 162.101 361.605 162.926 361.826C163.923 362.093 164.339 362.736 164.098 363.634L163.925 364.281L161.93 363.852C160.277 363.501 159.164 364.01 158.824 365.278C158.475 366.578 159.157 367.681 160.523 368.047ZM161.111 367.15C160.206 366.908 159.769 366.295 159.97 365.542C160.17 364.796 160.813 364.509 161.829 364.731L163.695 365.139L163.468 365.984C163.212 366.942 162.193 367.44 161.111 367.15ZM166.711 369.571L167.834 369.871L168.964 365.652C169.291 364.431 170.305 363.818 171.487 364.134C172.603 364.433 172.968 365.182 172.621 366.476L171.452 370.841L172.574 371.142L173.82 366.493C174.28 364.777 173.684 363.619 172.126 363.201C171.037 362.91 170.083 363.192 169.461 363.981L169.369 363.956L169.707 362.695L168.631 362.406L166.711 369.571ZM177.521 372.595C178.545 372.869 179.411 372.648 179.993 371.955L180.118 371.988L179.825 373.084L180.927 373.38L183.601 363.403L182.458 363.097L181.407 367.019L181.289 366.987C181.189 366.118 180.541 365.471 179.505 365.193C177.847 364.749 176.444 365.654 175.952 367.489L175.595 368.823C175.101 370.665 175.864 372.151 177.521 372.595ZM178.126 371.66C176.944 371.343 176.413 370.288 176.766 368.967L177.042 367.937C177.396 366.616 178.382 365.975 179.564 366.291C180.739 366.606 181.272 367.655 180.918 368.976L180.642 370.006C180.287 371.333 179.301 371.975 178.126 371.66ZM193.961 377.007C195.004 377.286 195.898 377.066 196.447 376.392L196.559 376.422L196.271 377.498L197.341 377.785L198.655 372.879C199.055 371.387 198.321 370.27 196.637 369.819C195.171 369.426 193.851 369.915 193.412 371.028L194.514 371.324C194.864 370.759 195.539 370.565 196.364 370.786C197.361 371.053 197.776 371.695 197.536 372.593L197.362 373.24L195.368 372.812C193.714 372.461 192.601 372.969 192.262 374.237C191.913 375.538 192.594 376.641 193.961 377.007ZM194.548 376.11C193.644 375.867 193.206 375.255 193.408 374.502C193.608 373.756 194.251 373.468 195.267 373.691L197.132 374.099L196.906 374.944C196.649 375.901 195.631 376.4 194.548 376.11ZM201.765 371.285L202.466 379.151L203.701 379.482L208.236 373.019L207.04 372.698L203.455 378.128L203.369 378.105L202.966 371.607L201.765 371.285ZM210.68 381.487C211.723 381.766 212.617 381.546 213.166 380.872L213.278 380.902L212.99 381.978L214.059 382.265L215.374 377.359C215.774 375.866 215.04 374.75 213.356 374.299C211.89 373.906 210.57 374.394 210.13 375.508L211.233 375.803C211.583 375.239 212.257 375.045 213.083 375.266C214.08 375.533 214.495 376.175 214.255 377.073L214.081 377.72L212.087 377.292C210.433 376.941 209.32 377.449 208.98 378.717C208.632 380.018 209.313 381.12 210.68 381.487ZM211.267 380.589C210.362 380.347 209.925 379.734 210.127 378.982C210.327 378.236 210.97 377.948 211.986 378.171L213.851 378.578L213.625 379.424C213.368 380.381 212.35 380.88 211.267 380.589ZM222.315 374.909C222.843 375.05 223.352 374.762 223.494 374.234C223.633 373.712 223.337 373.208 222.809 373.066C222.28 372.925 221.771 373.213 221.632 373.735C221.49 374.263 221.787 374.767 222.315 374.909ZM222.929 384.634L223.178 383.703L220.808 383.068L222.478 376.835L218.932 375.885L218.683 376.816L221.119 377.469L219.699 382.771L217.242 382.113L216.993 383.044L222.929 384.634ZM231.288 386.874L231.538 385.943L229.174 385.31L231.598 376.264L228.045 375.312L227.796 376.243L230.226 376.894L228.052 385.009L225.602 384.353L225.352 385.284L231.288 386.874ZM235.758 388.206C236.801 388.486 237.695 388.265 238.244 387.591L238.356 387.622L238.068 388.698L239.138 388.984L240.452 384.078C240.852 382.586 240.118 381.469 238.434 381.018C236.968 380.625 235.649 381.114 235.209 382.228L236.311 382.523C236.661 381.958 237.336 381.764 238.161 381.985C239.158 382.253 239.573 382.895 239.333 383.793L239.159 384.44L237.165 384.011C235.511 383.66 234.398 384.169 234.059 385.437C233.71 386.737 234.391 387.84 235.758 388.206ZM236.345 387.309C235.441 387.067 235.003 386.454 235.205 385.701C235.405 384.955 236.048 384.668 237.064 384.89L238.929 385.298L238.703 386.143C238.446 387.101 237.428 387.599 236.345 387.309ZM245.295 390.754C246.952 391.199 248.355 390.294 248.849 388.451L249.206 387.118C249.698 385.282 248.935 383.797 247.278 383.353C246.241 383.075 245.363 383.314 244.836 384.015L244.717 383.983L245.768 380.06L244.626 379.754L241.952 389.732L243.055 390.027L243.349 388.931L243.474 388.965C243.632 389.856 244.271 390.48 245.295 390.754ZM245.239 389.643C244.063 389.328 243.537 388.281 243.893 386.954L244.169 385.923C244.523 384.603 245.502 383.959 246.677 384.274C247.866 384.593 248.392 385.64 248.038 386.96L247.762 387.99C247.408 389.311 246.427 389.961 245.239 389.643ZM256.367 393.594L256.616 392.663L254.252 392.029L256.676 382.983L253.124 382.031L252.874 382.962L255.304 383.614L253.13 391.729L250.68 391.072L250.431 392.003L256.367 393.594ZM264.026 393.665C263.66 394.239 262.891 394.443 261.986 394.201C260.764 393.873 260.212 392.819 260.564 391.505L260.642 391.215L265.521 392.522L265.709 391.823C266.264 389.749 265.499 388.221 263.637 387.722C261.815 387.233 260.274 388.151 259.768 390.04L259.479 391.116C258.933 393.156 259.758 394.644 261.726 395.171C263.231 395.575 264.581 395.08 265.116 393.957L264.026 393.665ZM263.372 388.684C264.528 388.994 265.006 390.007 264.64 391.373L260.87 390.363C261.238 388.99 262.177 388.364 263.372 388.684ZM277.555 399.406C278.598 399.685 279.493 399.465 280.041 398.791L280.153 398.821L279.865 399.897L280.935 400.184L282.249 395.278C282.649 393.786 281.915 392.669 280.231 392.218C278.765 391.825 277.446 392.313 277.006 393.427L278.108 393.722C278.458 393.158 279.133 392.964 279.958 393.185C280.955 393.452 281.37 394.094 281.13 394.992L280.956 395.639L278.962 395.211C277.308 394.86 276.195 395.368 275.856 396.636C275.507 397.937 276.188 399.04 277.555 399.406ZM278.142 398.509C277.238 398.266 276.8 397.654 277.002 396.901C277.202 396.155 277.845 395.867 278.861 396.09L280.726 396.498L280.5 397.343C280.243 398.3 279.225 398.799 278.142 398.509ZM287.887 392.302L287.367 394.243L285.459 393.732L285.202 394.689L287.111 395.2L286.024 399.255C285.625 400.747 286.269 401.642 288.046 402.118C288.389 402.21 289.269 402.41 289.457 402.425L289.711 401.474C289.515 401.443 288.79 401.27 288.387 401.162C287.376 400.891 286.942 400.321 287.15 399.542L288.233 395.501L291.125 396.276L291.382 395.319L288.477 394.54L288.997 392.599L287.887 392.302ZM42.9434 363.324L44.0659 363.625L45.1947 359.413C45.522 358.191 46.5421 357.58 47.7241 357.896C48.8466 358.197 49.2103 358.953 48.8653 360.24L47.6976 364.598L48.8201 364.899L50.0639 360.257C50.5221 358.547 49.9282 357.383 48.3699 356.965C47.2738 356.672 46.3139 356.952 45.6987 357.743L45.6062 357.718L46.6997 353.637L45.6168 353.347L42.9434 363.324ZM55.4541 356.939L54.9339 358.88L53.0257 358.369L52.7691 359.326L54.6774 359.837L53.5911 363.892C53.1912 365.384 53.8361 366.279 55.6123 366.754C55.9557 366.846 56.8361 367.047 57.0233 367.062L57.278 366.111C57.0812 366.079 56.3562 365.906 55.9534 365.798C54.9432 365.528 54.5083 364.958 54.7171 364.179L55.7999 360.138L58.692 360.913L58.9486 359.956L56.0432 359.177L56.5634 357.236L55.4541 356.939ZM63.8135 359.179L63.2933 361.12L61.3851 360.608L61.1285 361.566L63.0368 362.077L61.9505 366.131C61.5506 367.624 62.1955 368.518 63.9717 368.994C64.3151 369.086 65.1955 369.287 65.3827 369.302L65.6374 368.351C65.4406 368.319 64.7156 368.146 64.3128 368.038C63.3026 367.768 62.8677 367.198 63.0765 366.419L64.1593 362.378L67.0514 363.153L67.308 362.196L64.4027 361.417L64.9228 359.476L63.8135 359.179ZM73.3605 363.669C72.337 363.394 71.4776 363.617 70.8889 364.309L70.7701 364.277L71.0638 363.181L69.9545 362.883L67.3873 372.464L68.5296 372.77L69.4744 369.244L69.5998 369.278C69.6996 370.147 70.3404 370.793 71.3771 371.071C73.0345 371.515 74.4376 370.61 74.9295 368.774L75.2869 367.44C75.7805 365.598 75.0178 364.113 73.3605 363.669ZM72.7609 364.612C73.9429 364.929 74.4691 365.976 74.1153 367.296L73.8393 368.326C73.4854 369.647 72.5044 370.297 71.3225 369.98C70.1406 369.664 69.6143 368.617 69.9699 367.289L70.2459 366.259C70.5998 364.939 71.579 364.295 72.7609 364.612ZM78.1124 367.143C77.84 368.16 78.3053 368.985 79.5199 369.629L80.5175 370.158C81.3739 370.607 81.6424 371.005 81.4903 371.572C81.3063 372.259 80.5671 372.535 79.5898 372.273C78.6654 372.026 78.1341 371.473 78.146 370.768L77.0037 370.462C76.8 371.724 77.6728 372.772 79.2972 373.207C80.9942 373.662 82.3269 373.099 82.6807 371.778C82.9585 370.741 82.4874 369.964 81.1791 369.274L80.2307 368.772C79.3858 368.333 79.0992 367.924 79.246 367.376C79.4212 366.722 80.1221 366.457 81.0333 366.701C81.8719 366.926 82.3702 367.47 82.3341 368.133L83.417 368.423C83.6052 367.192 82.7949 366.175 81.3026 365.776C79.7245 365.353 78.4451 365.902 78.1124 367.143ZM89.027 370.28C89.6807 370.455 90.3707 370.045 90.5494 369.378C90.7281 368.712 90.3353 368.012 89.6816 367.837C89.0279 367.661 88.3378 368.071 88.1591 368.738C87.9804 369.405 88.3733 370.105 89.027 370.28ZM87.6682 375.351C88.3219 375.526 89.0102 375.123 89.1906 374.45C89.3693 373.783 88.9747 373.09 88.321 372.914C87.6673 372.739 86.979 373.142 86.8003 373.809C86.6199 374.483 87.0145 375.176 87.6682 375.351ZM94.0196 377.98L101.706 367.888L100.603 367.593L92.9235 377.686L94.0196 377.98ZM102.379 380.22L110.065 370.128L108.963 369.832L101.283 379.926L102.379 380.22ZM113.174 382.27C114.832 382.714 116.235 381.809 116.728 379.967L117.086 378.633C117.578 376.798 116.815 375.312 115.158 374.868C114.121 374.59 113.243 374.829 112.715 375.53L112.597 375.498L113.648 371.576L112.505 371.27L109.832 381.247L110.935 381.543L111.228 380.447L111.354 380.48C111.511 381.372 112.151 381.996 113.174 382.27ZM113.118 381.158C111.943 380.843 111.417 379.796 111.772 378.469L112.048 377.439C112.402 376.118 113.381 375.475 114.557 375.79C115.745 376.108 116.271 377.155 115.918 378.476L115.642 379.506C115.288 380.827 114.307 381.477 113.118 381.158ZM121.093 384.491C123.074 385.022 124.751 384.254 125.187 382.63C125.509 381.428 124.987 380.234 123.896 379.68L123.925 379.574C124.968 379.563 125.773 378.909 126.051 377.872C126.449 376.386 125.496 375.006 123.759 374.54C122.023 374.075 120.5 374.792 120.102 376.278C119.824 377.315 120.205 378.294 121.092 378.815L121.064 378.921C119.812 378.89 118.788 379.648 118.471 380.83C118.036 382.455 119.112 383.96 121.093 384.491ZM122.618 378.799C121.515 378.504 120.956 377.66 121.218 376.683C121.478 375.712 122.384 375.262 123.487 375.557C124.589 375.853 125.142 376.694 124.882 377.665C124.62 378.642 123.721 379.095 122.618 378.799ZM121.364 383.481C120.069 383.134 119.38 382.142 119.672 381.053C119.963 379.963 121.057 379.449 122.351 379.796C123.645 380.143 124.335 381.135 124.043 382.224C123.751 383.314 122.658 383.828 121.364 383.481ZM131.906 385.18C131.54 385.755 130.77 385.959 129.866 385.716C128.644 385.389 128.091 384.335 128.443 383.021L128.521 382.731L133.401 384.038L133.588 383.338C134.144 381.265 133.379 379.736 131.517 379.237C129.694 378.749 128.153 379.667 127.647 381.555L127.359 382.631C126.812 384.672 127.638 386.16 129.606 386.687C131.111 387.09 132.461 386.596 132.995 385.472L131.906 385.18ZM131.252 380.2C132.407 380.509 132.886 381.522 132.52 382.889L128.75 381.879C129.118 380.505 130.057 379.879 131.252 380.2ZM138.252 388.99C139.91 389.434 141.313 388.529 141.806 386.687L142.164 385.353C142.656 383.517 141.893 382.032 140.236 381.588C139.199 381.31 138.321 381.549 137.794 382.25L137.675 382.218L138.726 378.296L137.583 377.99L134.91 387.967L136.013 388.262L136.306 387.166L136.432 387.2C136.589 388.091 137.229 388.716 138.252 388.99ZM138.196 387.878C137.021 387.563 136.495 386.516 136.85 385.189L137.126 384.159C137.48 382.838 138.46 382.195 139.635 382.51C140.823 382.828 141.35 383.875 140.996 385.196L140.72 386.226C140.366 387.546 139.385 388.196 138.196 387.878ZM145.138 390.707L146.261 391.008L147.918 384.821L151.068 385.665L151.325 384.708L148.162 383.86L148.36 383.121C148.553 382.401 149.18 382.173 150.177 382.44C150.58 382.548 151.497 382.822 151.799 382.938L152.045 382.02C151.816 381.924 150.828 381.623 150.412 381.512C148.649 381.04 147.617 381.457 147.245 382.843L147.053 383.563L145.131 383.048L144.874 384.006L146.796 384.52L145.138 390.707ZM155.67 393.529L156.733 393.814L157.273 391.8L158.732 392.191L159.006 391.168L157.554 390.779L158.279 388.071L157.222 387.788L156.493 390.509L153.37 389.672L153.393 389.586L158.302 384.023L157.114 383.704L152.118 389.407L151.865 390.351L156.21 391.516L155.67 393.529ZM167.22 391.338C167.429 389.816 166.587 388.627 165.002 388.203C163.054 387.681 161.598 388.572 161.048 390.625L160.797 391.563C160.247 393.616 161.062 395.116 163.01 395.638C164.595 396.062 165.923 395.463 166.492 394.051L165.383 393.754C165.025 394.536 164.185 394.87 163.261 394.622C162.013 394.288 161.546 393.257 161.958 391.718L162.132 391.071C162.544 389.533 163.466 388.867 164.714 389.201C165.638 389.449 166.196 390.165 166.11 391.04L167.22 391.338ZM171.294 392.981L172.384 393.273C173.704 393.627 174.354 394.558 174.057 395.668C173.768 396.744 172.775 397.2 171.468 396.85C170.28 396.531 169.611 395.644 169.778 394.599L168.675 394.304C168.321 395.971 169.338 397.404 171.22 397.908C173.121 398.418 174.791 397.627 175.225 396.009C175.573 394.708 175.059 393.615 173.836 393.11L173.864 393.005C174.955 393.028 175.775 392.37 176.083 391.221C176.47 389.775 175.53 388.426 173.826 387.97C172.063 387.497 170.627 388.21 170.072 389.83L171.188 390.129C171.555 389.131 172.436 388.694 173.506 388.981C174.582 389.269 175.124 390.101 174.863 391.072C174.596 392.069 173.663 392.569 172.593 392.282L171.556 392.004L171.294 392.981ZM179.502 400.12C181.436 400.639 183.101 399.683 183.617 397.755C184.12 395.88 183.244 394.237 181.481 393.765C180.642 393.54 179.882 393.655 179.261 394.097L179.156 394.069L180.253 391.03L184.545 392.18L184.827 391.13L179.617 389.734L177.693 394.986L178.795 395.281C179.352 394.709 180.163 394.509 181.015 394.737C182.237 395.064 182.825 396.17 182.475 397.477C182.128 398.772 181.077 399.417 179.849 399.088C178.733 398.789 178.065 397.874 178.227 396.849L177.104 396.548C176.765 398.212 177.726 399.644 179.502 400.12ZM185.707 401.578L186.948 401.91L193.485 394.603L193.774 393.527L187.415 391.823L187.135 392.867L192.306 394.252L192.283 394.338L185.707 401.578ZM196.299 404.65C198.366 405.203 199.989 403.742 200.849 400.533C201.709 397.323 201.034 395.246 198.967 394.692C196.894 394.137 195.278 395.6 194.418 398.809C193.558 402.018 194.226 404.094 196.299 404.65ZM195.573 399.119C196.267 396.531 197.344 395.361 198.691 395.722C199.589 395.963 200.047 396.737 200.041 398.002L195.338 400.181C195.398 399.851 195.472 399.495 195.573 399.119ZM196.575 403.62C195.677 403.379 195.226 402.607 195.229 401.355L199.925 399.146C199.87 399.485 199.789 399.838 199.687 400.221C198.995 402.803 197.922 403.98 196.575 403.62ZM204.7 406.709C205.354 406.885 206.042 406.482 206.222 405.808C206.401 405.141 206.006 404.448 205.353 404.273C204.699 404.098 204.011 404.501 203.832 405.168C203.652 405.841 204.046 406.534 204.7 406.709ZM213.646 405.625C214.134 403.802 215.365 402.957 216.95 403.382C217.34 403.486 217.781 403.689 218.079 403.897L218.417 402.636C218.206 402.473 217.832 402.309 217.423 402.199C216.043 401.829 214.967 402.277 214.348 403.534L214.202 403.495L214.692 401.666L212.018 400.949L211.778 401.847L213.369 402.274L211.93 407.642L210.484 407.254L210.244 408.152L215.005 409.428L215.245 408.53L213.027 407.936L213.646 405.625ZM220.669 411.08C221.713 411.36 222.607 411.14 223.155 410.466L223.268 410.496L222.979 411.572L224.049 411.859L225.363 406.953C225.763 405.46 225.029 404.344 223.346 403.892C221.88 403.5 220.56 403.988 220.12 405.102L221.223 405.397C221.572 404.833 222.247 404.638 223.072 404.86C224.069 405.127 224.485 405.769 224.244 406.667L224.071 407.314L222.076 406.886C220.422 406.534 219.31 407.043 218.97 408.311C218.621 409.612 219.303 410.714 220.669 411.08ZM221.257 410.183C220.352 409.941 219.915 409.328 220.116 408.576C220.316 407.829 220.959 407.542 221.975 407.764L223.841 408.172L223.614 409.017C223.358 409.975 222.339 410.473 221.257 410.183ZM232.304 404.502C232.833 404.644 233.342 404.356 233.483 403.827C233.623 403.306 233.326 402.802 232.798 402.66C232.27 402.519 231.761 402.807 231.621 403.329C231.48 403.857 231.776 404.361 232.304 404.502ZM232.919 414.228L233.168 413.297L230.798 412.662L232.468 406.429L228.922 405.479L228.672 406.41L231.109 407.062L229.688 412.365L227.232 411.707L226.982 412.638L232.919 414.228ZM241.278 416.468L241.527 415.537L239.164 414.904L241.587 405.857L238.035 404.906L237.786 405.837L240.215 406.488L238.041 414.603L235.591 413.946L235.342 414.877L241.278 416.468ZM252.297 411.742L251.2 411.448L248.691 416.933L248.572 416.901L248.954 410.853L247.897 410.57L245.204 415.998L245.085 415.967L245.654 409.962L244.558 409.668L244.177 417.245L245.253 417.533L247.965 412.273L248.044 412.294L247.762 418.205L248.838 418.494L252.297 411.742ZM254.107 420.04C255.15 420.32 256.044 420.099 256.593 419.425L256.705 419.455L256.417 420.532L257.487 420.818L258.801 415.912C259.201 414.42 258.467 413.303 256.783 412.852C255.317 412.459 253.997 412.948 253.558 414.061L254.66 414.357C255.01 413.792 255.685 413.598 256.51 413.819C257.507 414.086 257.922 414.728 257.682 415.626L257.508 416.273L255.514 415.845C253.86 415.494 252.747 416.003 252.408 417.27C252.059 418.571 252.74 419.674 254.107 420.04ZM254.694 419.143C253.79 418.9 253.352 418.288 253.554 417.535C253.754 416.789 254.397 416.501 255.413 416.724L257.278 417.132L257.052 417.977C256.795 418.934 255.777 419.433 254.694 419.143ZM260.536 424.36C261.863 424.716 262.604 424.355 263.704 422.76L268.395 416.055L267.2 415.735L263.592 421.195L263.506 421.172L263.106 414.638L261.884 414.311L262.587 422.227L262.357 422.583C261.837 423.336 261.386 423.54 260.712 423.36C260.606 423.331 260.404 423.27 260.323 423.227L260.059 424.211C260.155 424.251 260.371 424.316 260.536 424.36ZM271.575 424.629C272.229 424.804 272.917 424.401 273.098 423.727C273.276 423.06 272.882 422.367 272.228 422.192C271.574 422.017 270.886 422.42 270.707 423.087C270.527 423.76 270.921 424.453 271.575 424.629ZM279.185 426.76C280.228 427.039 281.123 426.819 281.671 426.145L281.783 426.175L281.495 427.251L282.565 427.538L283.879 422.632C284.279 421.14 283.545 420.023 281.861 419.572C280.396 419.179 279.076 419.667 278.636 420.781L279.738 421.076C280.088 420.512 280.763 420.318 281.588 420.539C282.585 420.806 283.001 421.448 282.76 422.346L282.587 422.993L280.592 422.565C278.938 422.214 277.825 422.722 277.486 423.99C277.137 425.291 277.818 426.393 279.185 426.76ZM279.772 425.863C278.868 425.62 278.43 425.008 278.632 424.255C278.832 423.509 279.475 423.221 280.491 423.444L282.357 423.852L282.13 424.697C281.874 425.654 280.855 426.153 279.772 425.863ZM290.705 421.906C289.682 421.632 288.822 421.854 288.234 422.546L288.115 422.514L288.408 421.418L287.299 421.121L284.732 430.702L285.874 431.008L286.819 427.482L286.944 427.515C287.044 428.384 287.685 429.03 288.722 429.308C290.379 429.752 291.782 428.847 292.274 427.011L292.631 425.678C293.125 423.835 292.362 422.35 290.705 421.906ZM290.106 422.849C291.287 423.166 291.814 424.213 291.46 425.534L291.184 426.564C290.83 427.884 289.849 428.534 288.667 428.218C287.485 427.901 286.959 426.854 287.315 425.527L287.591 424.497C287.944 423.176 288.924 422.533 290.106 422.849ZM299.064 424.146C298.041 423.872 297.182 424.094 296.593 424.786L296.474 424.754L296.768 423.658L295.659 423.361L293.091 432.942L294.234 433.248L295.178 429.722L295.304 429.755C295.404 430.624 296.044 431.27 297.081 431.548C298.738 431.992 300.142 431.087 300.633 429.251L300.991 427.917C301.485 426.075 300.722 424.59 299.064 424.146ZM298.465 425.089C299.647 425.406 300.173 426.453 299.819 427.773L299.543 428.803C299.189 430.124 298.208 430.774 297.027 430.457C295.845 430.141 295.318 429.094 295.674 427.767L295.95 426.737C296.304 425.416 297.283 424.773 298.465 425.089Z" fill="white"/>
</svg>
