<svg width="417" height="631" viewBox="0 0 417 631" fill="none" xmlns="http://www.w3.org/2000/svg">
<g clip-path="url(#clip0_521_6)">
<path d="M416.973 343.827C416.973 342.251 416.76 340.674 416.653 339.097L416.466 336.745L416.119 334.394C415.878 332.844 415.691 331.267 415.397 329.744C414.184 323.56 412.395 317.503 410.055 311.652C407.651 305.835 404.7 300.26 401.241 295.003C394.209 284.382 385.05 275.337 374.344 268.44L372.314 267.13C371.646 266.703 370.925 266.328 370.23 265.954C368.841 265.179 367.559 264.404 366.037 263.656L361.683 261.652C360.935 261.331 360.214 260.957 359.466 260.69L357.222 259.861C351.27 257.629 345.103 256.017 338.819 255.051L334.145 254.49L331.794 254.223H329.471L324.796 253.875H321.03H306.393L247.871 253.581L189.322 253.18L172.041 253.02L270.868 99.1717C271.472 98.2164 271.708 97.0736 271.531 95.9571C271.354 94.8406 270.777 93.8268 269.907 93.1054C268.947 92.3642 267.741 92.0178 266.534 92.1371C265.328 92.2563 264.212 92.8321 263.416 93.7468L112.69 261.572C110.651 263.878 109.122 266.588 108.201 269.526C107.281 272.464 106.99 275.563 107.348 278.621C108.015 284.066 110.674 289.071 114.813 292.669C118.952 296.267 124.276 298.203 129.758 298.103H130.88L189.429 297.568L247.978 297.168L306.5 296.9H321.137H324.716H327.387H328.723L330.005 297.061L332.676 297.328C336.043 297.885 339.345 298.78 342.532 300L343.734 300.428C344.134 300.562 344.482 300.775 344.882 300.936L347.179 301.951L349.396 303.18C349.77 303.367 350.144 303.555 350.492 303.768L351.56 304.463C357.322 308.152 362.259 312.992 366.064 318.68C367.957 321.592 369.601 324.658 370.978 327.846C372.256 331.076 373.248 334.411 373.943 337.814C374.13 338.67 374.21 339.525 374.344 340.487L374.557 341.769V343.052C374.557 343.907 374.744 344.763 374.771 345.725V348.397C374.724 351.798 374.312 355.185 373.542 358.498L373.302 359.728L372.928 360.957C372.661 361.759 372.447 362.561 372.18 363.362C371.539 364.912 371.058 366.542 370.257 368.039C368.773 371.14 366.983 374.085 364.915 376.831L363.259 378.862C362.992 379.183 362.752 379.557 362.431 379.877L361.523 380.84L359.707 382.764L357.036 385.436L346.619 395.725L325.785 416.302L284.17 456.975L200.647 538.99L179.76 559.514L169.289 569.749L163.947 574.88L162.639 576.136L161.997 576.778L161.837 576.938H161.704L161.49 577.125L159.7 578.729C159.118 579.249 158.502 579.731 157.857 580.172L156.923 580.866L156.468 581.214L155.988 581.508L154.091 582.684C153.785 582.879 153.464 583.049 153.13 583.191L152.141 583.646L151.18 584.153L150.192 584.528C149.497 584.741 148.856 585.062 148.188 585.276C147.521 585.49 146.826 585.623 146.158 585.837C145.817 585.936 145.469 586.008 145.117 586.051L144.102 586.238C143.754 586.238 143.407 586.398 143.06 586.425H142.018C141.318 586.517 140.614 586.571 139.908 586.585H137.771L135.608 586.398C132.684 586.043 129.814 585.334 127.061 584.287C121.415 582.068 116.405 578.488 112.477 573.865C108.729 569.526 106.252 564.237 105.318 558.579C104.956 555.811 104.956 553.008 105.318 550.241C105.318 549.52 105.585 548.798 105.666 548.076L105.853 547.008L106.146 545.912C106.36 545.19 106.547 544.469 106.734 543.721C106.921 542.972 107.295 542.277 107.562 541.556L107.936 540.433L108.657 538.75L110.073 535.383L112.931 528.622C114.801 524.132 116.777 519.642 118.7 515.26C126.428 497.319 134.441 479.503 142.739 461.812C149.31 447.809 156.095 433.859 163.146 420.07C163.515 419.338 163.69 418.524 163.656 417.705C163.622 416.886 163.38 416.09 162.951 415.391C162.523 414.693 161.924 414.115 161.21 413.713C160.496 413.311 159.691 413.098 158.872 413.095H115.094C112.622 413.091 110.21 413.862 108.198 415.3C106.186 416.738 104.674 418.771 103.876 421.112C101.419 428.381 98.9168 435.632 96.3705 442.865C89.8354 461.269 83.0243 479.575 75.9371 497.782C74.1476 502.352 72.4114 506.895 70.5951 511.438L67.9241 518.226L66.5886 521.647L65.8941 523.33L65.0661 525.682L63.4101 530.385C62.956 531.989 62.5553 533.646 62.128 535.276C61.941 536.078 61.7273 536.906 61.5403 537.734L61.113 540.273C60.8459 541.957 60.5254 543.64 60.3384 545.351C59.6531 552.289 59.8776 559.288 61.0061 566.168C63.3995 579.873 69.5065 592.657 78.6616 603.127C83.0557 608.261 88.1022 612.798 93.6727 616.623C104.782 624.485 117.74 629.328 131.281 630.679L136.436 631.027C138.172 631.027 139.908 631.027 141.618 631.027C143.327 631.027 145.09 630.679 146.906 630.679L149.577 630.385L152.248 629.904L154.919 629.397C155.777 629.255 156.624 629.058 157.457 628.809C159.139 628.354 160.796 627.847 162.452 627.339C164.108 626.831 165.683 626.136 167.313 625.495C168.114 625.174 168.915 624.88 169.69 624.506L172.014 623.384L174.284 622.208C175.058 621.837 175.807 621.418 176.528 620.952L180.855 618.28L181.629 617.318L182.644 616.569L184.648 615.046C185.935 614.083 187.174 613.058 188.36 611.973L191.993 608.632L192.447 608.232L192.661 608.018L192.821 607.857L193.489 607.216L194.771 605.907L199.953 600.722L210.29 590.38L231.043 569.723L314.085 487.12L355.673 445.885L376.481 425.308L386.871 414.992L389.542 412.32L392.747 408.926L394.35 407.216C394.857 406.655 395.338 406.013 395.845 405.399L398.784 401.737C404.464 394.068 408.965 385.592 412.139 376.59C412.646 375.067 413.074 373.544 413.528 372.021L414.195 369.722L414.73 367.371C415.05 365.821 415.424 364.271 415.691 362.694L416.359 357.964C416.626 356.387 416.679 354.811 416.813 353.207C416.947 351.604 417.08 350.054 417.027 348.45L416.973 343.827Z" stroke="white" stroke-width="2"/>
<path d="M82.8017 376.537L85.1255 376.777H87.476L92.1503 376.964H95.8897H110.527L169.076 377.232L227.598 377.633L244.879 377.793L146.158 531.802C145.554 532.757 145.319 533.9 145.496 535.016C145.673 536.133 146.25 537.147 147.12 537.868C148.081 538.617 149.294 538.968 150.507 538.849C151.719 538.729 152.84 538.149 153.637 537.227L304.31 369.402C306.342 367.097 307.868 364.391 308.788 361.458C309.709 358.526 310.003 355.432 309.652 352.379C308.98 346.929 306.316 341.921 302.173 338.319C298.031 334.717 292.702 332.776 287.215 332.87H286.093L227.544 333.405L169.022 333.806L110.473 334.073H95.8363H92.3907H89.7196H88.4108L87.102 333.939L84.431 333.645C81.1389 333.129 77.9081 332.279 74.7886 331.107L73.5867 330.706L72.4381 330.171L70.141 329.156L67.9241 327.953L66.829 327.339L65.7606 326.644C60.0046 322.948 55.0682 318.109 51.2569 312.427C49.3619 309.521 47.7262 306.454 46.3689 303.261C45.07 300.036 44.0687 296.7 43.3774 293.293C43.1904 292.464 43.1103 291.582 42.9767 290.62L42.7631 289.337V288.055C42.7631 287.173 42.5761 286.318 42.5494 285.382V282.71C42.5739 279.309 42.977 275.921 43.7513 272.608L44.0184 271.379L44.3924 270.177C44.6328 269.375 44.8465 268.546 45.1136 267.745C45.7546 266.195 46.2354 264.565 47.0367 263.068C48.5269 259.97 50.3161 257.026 52.3787 254.276L54.0348 252.245C54.3019 251.924 54.5423 251.55 54.8628 251.23L55.7709 250.294L57.5872 248.343L60.2583 245.671L70.6752 235.382L91.4825 214.805L132.83 174.105L216.353 92.0097L237.24 71.4859L247.711 61.2507L253.053 56.1465L254.361 54.8638L255.029 54.2224L255.189 54.062L255.403 53.875C256.017 53.3405 256.605 52.8328 257.193 52.2716C257.791 51.7312 258.425 51.2312 259.089 50.775L260.024 50.0802L260.478 49.7328L260.959 49.4388C261.6 49.0647 262.241 48.6906 262.855 48.2897C263.152 48.0794 263.476 47.9088 263.817 47.782L264.805 47.301L265.767 46.7932L266.782 46.4191C267.449 46.2053 268.091 45.8846 268.758 45.6708C269.426 45.457 270.12 45.3234 270.788 45.1096C271.456 44.8958 271.483 44.976 271.83 44.8958L272.872 44.7087L273.887 44.5217H274.955C275.654 44.4232 276.359 44.3785 277.065 44.3881H279.175L281.339 44.5751C290.378 45.6485 298.664 50.1427 304.497 57.1353C308.165 61.4153 310.619 66.6019 311.601 72.154C311.936 74.9321 311.936 77.7404 311.601 80.5185C311.601 81.2133 311.334 81.9349 311.227 82.6564L311.041 83.7254L310.747 84.821C310.533 85.5426 310.346 86.2641 310.159 87.0124C309.972 87.7606 309.598 88.4554 309.331 89.2037L308.957 90.2994L308.236 91.983L306.82 95.3769L303.962 102.111C302.093 106.601 300.143 111.09 298.193 115.473C290.465 133.289 282.452 151.105 274.154 168.921C267.583 182.924 260.799 196.874 253.747 210.663C253.378 211.395 253.203 212.209 253.237 213.028C253.271 213.846 253.514 214.643 253.942 215.342C254.37 216.04 254.969 216.618 255.683 217.02C256.397 217.422 257.202 217.634 258.021 217.638H301.826C304.298 217.642 306.71 216.871 308.722 215.433C310.734 213.995 312.246 211.962 313.044 209.621C315.501 202.352 318.003 195.101 320.549 187.868C327.084 169.446 333.896 151.14 340.983 132.95C342.772 128.407 344.508 123.838 346.325 119.321L348.996 112.507L350.331 109.113L351.026 107.403L351.854 105.078L353.51 100.347C353.964 98.7441 354.365 97.1139 354.792 95.4571C355.006 94.6553 355.219 93.8269 355.38 92.9985L355.834 90.4864C356.074 88.7761 356.394 87.1193 356.581 85.3822C357.293 78.4444 357.068 71.4424 355.914 64.5645C353.51 50.8637 347.404 38.0824 338.258 27.6056C333.858 22.4773 328.812 17.9411 323.247 14.1101C317.708 10.2835 311.726 7.1428 305.431 4.75682C299.093 2.48523 292.5 1.00425 285.799 0.347408L280.457 0H275.382C273.646 0 271.91 0.267237 270.201 0.427579L267.53 0.72154C266.675 0.72154 265.82 1.0155 264.859 1.17584L262.188 1.68359C261.333 1.87066 260.478 2.00428 259.517 2.27151L254.522 3.74132C252.866 4.27579 251.29 4.94388 249.66 5.58525L247.283 6.57403L244.986 7.72315L243.063 8.95244C242.29 9.31403 241.54 9.72462 240.819 10.1817L236.519 12.8541L235.451 13.5489L234.436 14.2972L232.459 15.8204C231.129 16.8005 229.854 17.8533 228.639 18.9738L225.007 22.3143L224.553 22.7151L224.366 22.9289L224.206 23.0893L223.538 23.7574L222.256 25.0401L217.074 30.2245L206.737 40.5666L185.983 61.224L102.914 143.827L61.4335 185.062L40.5194 205.772L30.1291 216.061L27.4581 218.733L24.3063 221.94L22.7304 223.651C22.1962 224.239 21.7154 224.853 21.2079 225.468L18.2698 229.129C12.5898 236.798 8.08834 245.274 4.91468 254.276C4.40719 255.799 3.97982 257.323 3.52575 258.872L2.85799 261.171L2.32379 263.496C2.00327 265.046 1.62932 266.622 1.36222 268.172L0.694466 272.902C0.427364 274.479 0.373943 276.083 0.240392 277.659C0.106841 279.236 0 280.839 0 282.416V287.173C0 288.75 0.213682 290.326 0.320523 291.903L0.507494 294.255L0.854727 296.606C1.09512 298.156 1.28209 299.733 1.60261 301.283C2.80707 307.46 4.5958 313.509 6.94466 319.348C9.34287 325.168 12.2946 330.743 15.759 335.997C22.7829 346.669 31.9413 355.768 42.6562 362.721L44.6862 364.004C45.354 364.431 46.0751 364.805 46.7696 365.206C48.1585 365.981 49.4406 366.756 50.9631 367.504L55.3436 369.482C56.0648 369.803 56.7859 370.177 57.5338 370.444L59.7775 371.272C65.7295 373.513 71.8965 375.134 78.1808 376.109L82.8017 376.537Z" stroke="white" stroke-width="2"/>
</g>
<defs>
<clipPath id="clip0_521_6">
<rect width="417" height="631" fill="white"/>
</clipPath>
</defs>
</svg>
