<svg width="978" height="444" viewBox="0 0 978 444" fill="none" xmlns="http://www.w3.org/2000/svg">
<g opacity="0.17">
<path d="M0.875094 0H2.12509V443.75H0.875094V0Z" fill="url(#paint0_radial_789_8887)"/>
<path d="M82.1251 0H83.3751V443.75H82.1251V0Z" fill="url(#paint1_radial_789_8887)"/>
<path d="M163.375 0H164.625V443.75H163.375V0Z" fill="url(#paint2_radial_789_8887)"/>
<path d="M244.625 0H245.875V443.75H244.625V0Z" fill="url(#paint3_radial_789_8887)"/>
<path d="M325.875 0H327.125V443.75H325.875V0Z" fill="url(#paint4_radial_789_8887)"/>
<path d="M407.125 0H408.375V443.75H407.125V0Z" fill="url(#paint5_radial_789_8887)"/>
<path d="M488.375 0H489.625V443.75H488.375V0Z" fill="url(#paint6_radial_789_8887)"/>
<path d="M569.625 0H570.875V443.75H569.625V0Z" fill="url(#paint7_radial_789_8887)"/>
<path d="M650.875 0H652.125V443.75H650.875V0Z" fill="url(#paint8_radial_789_8887)"/>
<path d="M650.875 0V1.25004L0.875018 1.25002L0.875094 0H650.875Z" fill="url(#paint9_radial_789_8887)"/>
<path d="M650.875 81.25V82.5L0.875014 82.5L0.875014 81.25L650.875 81.25Z" fill="url(#paint10_radial_789_8887)"/>
<path d="M650.875 162.5V163.75L0.875011 163.75L0.875011 162.5L650.875 162.5Z" fill="url(#paint11_radial_789_8887)"/>
<path d="M650.875 243.75V245L0.875007 245L0.875007 243.75L650.875 243.75Z" fill="url(#paint12_radial_789_8887)"/>
<path d="M650.875 325V326.25L0.875004 326.25L0.875004 325L650.875 325Z" fill="url(#paint13_radial_789_8887)"/>
<path d="M650.875 406.25V407.5L0.875 407.5L0.875 406.25L650.875 406.25Z" fill="url(#paint14_radial_789_8887)"/>
<path d="M325.875 0H327.125V443.75H325.875V0Z" fill="url(#paint15_radial_789_8887)"/>
<path d="M407.125 0H408.375V443.75H407.125V0Z" fill="url(#paint16_radial_789_8887)"/>
<path d="M488.375 0H489.625V443.75H488.375V0Z" fill="url(#paint17_radial_789_8887)"/>
<path d="M569.625 0H570.875V443.75H569.625V0Z" fill="url(#paint18_radial_789_8887)"/>
<path d="M650.875 0H652.125V443.75H650.875V0Z" fill="url(#paint19_radial_789_8887)"/>
<path d="M732.125 0H733.375V443.75H732.125V0Z" fill="url(#paint20_radial_789_8887)"/>
<path d="M813.375 0H814.625V443.75H813.375V0Z" fill="url(#paint21_radial_789_8887)"/>
<path d="M894.625 0H895.875V443.75H894.625V0Z" fill="url(#paint22_radial_789_8887)"/>
<path d="M975.875 0H977.125V443.75H975.875V0Z" fill="url(#paint23_radial_789_8887)"/>
<path d="M975.875 0V1.25004L325.875 1.25002V0H975.875Z" fill="url(#paint24_radial_789_8887)"/>
<path d="M975.875 81.25V82.5L325.875 82.5V81.25L975.875 81.25Z" fill="url(#paint25_radial_789_8887)"/>
<path d="M975.875 162.5V163.75L325.875 163.75V162.5L975.875 162.5Z" fill="url(#paint26_radial_789_8887)"/>
<path d="M975.875 243.75V245L325.875 245V243.75L975.875 243.75Z" fill="url(#paint27_radial_789_8887)"/>
<path d="M975.875 325V326.25L325.875 326.25V325L975.875 325Z" fill="url(#paint28_radial_789_8887)"/>
<path d="M975.875 406.25V407.5L325.875 407.5V406.25L975.875 406.25Z" fill="url(#paint29_radial_789_8887)"/>
</g>
<defs>
<radialGradient id="paint0_radial_789_8887" cx="0" cy="0" r="1" gradientUnits="userSpaceOnUse" gradientTransform="translate(397.5 -142) rotate(46.2462) scale(503.933 441.041)">
<stop stop-color="#2E1FD8"/>
<stop offset="1" stop-color="white" stop-opacity="0"/>
</radialGradient>
<radialGradient id="paint1_radial_789_8887" cx="0" cy="0" r="1" gradientUnits="userSpaceOnUse" gradientTransform="translate(397.5 -142) rotate(46.2462) scale(503.933 441.041)">
<stop stop-color="#2E1FD8"/>
<stop offset="1" stop-color="white" stop-opacity="0"/>
</radialGradient>
<radialGradient id="paint2_radial_789_8887" cx="0" cy="0" r="1" gradientUnits="userSpaceOnUse" gradientTransform="translate(397.5 -142) rotate(46.2462) scale(503.933 441.041)">
<stop stop-color="#2E1FD8"/>
<stop offset="1" stop-color="white" stop-opacity="0"/>
</radialGradient>
<radialGradient id="paint3_radial_789_8887" cx="0" cy="0" r="1" gradientUnits="userSpaceOnUse" gradientTransform="translate(397.5 -142) rotate(46.2462) scale(503.933 441.041)">
<stop stop-color="#2E1FD8"/>
<stop offset="1" stop-color="white" stop-opacity="0"/>
</radialGradient>
<radialGradient id="paint4_radial_789_8887" cx="0" cy="0" r="1" gradientUnits="userSpaceOnUse" gradientTransform="translate(397.5 -142) rotate(46.2462) scale(503.933 441.041)">
<stop stop-color="#2E1FD8"/>
<stop offset="1" stop-color="white" stop-opacity="0"/>
</radialGradient>
<radialGradient id="paint5_radial_789_8887" cx="0" cy="0" r="1" gradientUnits="userSpaceOnUse" gradientTransform="translate(397.5 -142) rotate(46.2462) scale(503.933 441.041)">
<stop stop-color="#2E1FD8"/>
<stop offset="1" stop-color="white" stop-opacity="0"/>
</radialGradient>
<radialGradient id="paint6_radial_789_8887" cx="0" cy="0" r="1" gradientUnits="userSpaceOnUse" gradientTransform="translate(397.5 -142) rotate(46.2462) scale(503.933 441.041)">
<stop stop-color="#2E1FD8"/>
<stop offset="1" stop-color="white" stop-opacity="0"/>
</radialGradient>
<radialGradient id="paint7_radial_789_8887" cx="0" cy="0" r="1" gradientUnits="userSpaceOnUse" gradientTransform="translate(397.5 -142) rotate(46.2462) scale(503.933 441.041)">
<stop stop-color="#2E1FD8"/>
<stop offset="1" stop-color="white" stop-opacity="0"/>
</radialGradient>
<radialGradient id="paint8_radial_789_8887" cx="0" cy="0" r="1" gradientUnits="userSpaceOnUse" gradientTransform="translate(397.5 -142) rotate(46.2462) scale(503.933 441.041)">
<stop stop-color="#2E1FD8"/>
<stop offset="1" stop-color="white" stop-opacity="0"/>
</radialGradient>
<radialGradient id="paint9_radial_789_8887" cx="0" cy="0" r="1" gradientUnits="userSpaceOnUse" gradientTransform="translate(397.5 -142) rotate(46.2462) scale(503.933 441.041)">
<stop stop-color="#2E1FD8"/>
<stop offset="1" stop-color="white" stop-opacity="0"/>
</radialGradient>
<radialGradient id="paint10_radial_789_8887" cx="0" cy="0" r="1" gradientUnits="userSpaceOnUse" gradientTransform="translate(397.5 -142) rotate(46.2462) scale(503.933 441.041)">
<stop stop-color="#2E1FD8"/>
<stop offset="1" stop-color="white" stop-opacity="0"/>
</radialGradient>
<radialGradient id="paint11_radial_789_8887" cx="0" cy="0" r="1" gradientUnits="userSpaceOnUse" gradientTransform="translate(397.5 -142) rotate(46.2462) scale(503.933 441.041)">
<stop stop-color="#2E1FD8"/>
<stop offset="1" stop-color="white" stop-opacity="0"/>
</radialGradient>
<radialGradient id="paint12_radial_789_8887" cx="0" cy="0" r="1" gradientUnits="userSpaceOnUse" gradientTransform="translate(397.5 -142) rotate(46.2462) scale(503.933 441.041)">
<stop stop-color="#2E1FD8"/>
<stop offset="1" stop-color="white" stop-opacity="0"/>
</radialGradient>
<radialGradient id="paint13_radial_789_8887" cx="0" cy="0" r="1" gradientUnits="userSpaceOnUse" gradientTransform="translate(397.5 -142) rotate(46.2462) scale(503.933 441.041)">
<stop stop-color="#2E1FD8"/>
<stop offset="1" stop-color="white" stop-opacity="0"/>
</radialGradient>
<radialGradient id="paint14_radial_789_8887" cx="0" cy="0" r="1" gradientUnits="userSpaceOnUse" gradientTransform="translate(397.5 -142) rotate(46.2462) scale(503.933 441.041)">
<stop stop-color="#2E1FD8"/>
<stop offset="1" stop-color="white" stop-opacity="0"/>
</radialGradient>
<radialGradient id="paint15_radial_789_8887" cx="0" cy="0" r="1" gradientUnits="userSpaceOnUse" gradientTransform="translate(397.5 -142) rotate(46.2462) scale(503.933 441.041)">
<stop stop-color="#2E1FD8"/>
<stop offset="1" stop-color="white" stop-opacity="0"/>
</radialGradient>
<radialGradient id="paint16_radial_789_8887" cx="0" cy="0" r="1" gradientUnits="userSpaceOnUse" gradientTransform="translate(397.5 -142) rotate(46.2462) scale(503.933 441.041)">
<stop stop-color="#2E1FD8"/>
<stop offset="1" stop-color="white" stop-opacity="0"/>
</radialGradient>
<radialGradient id="paint17_radial_789_8887" cx="0" cy="0" r="1" gradientUnits="userSpaceOnUse" gradientTransform="translate(397.5 -142) rotate(46.2462) scale(503.933 441.041)">
<stop stop-color="#2E1FD8"/>
<stop offset="1" stop-color="white" stop-opacity="0"/>
</radialGradient>
<radialGradient id="paint18_radial_789_8887" cx="0" cy="0" r="1" gradientUnits="userSpaceOnUse" gradientTransform="translate(397.5 -142) rotate(46.2462) scale(503.933 441.041)">
<stop stop-color="#2E1FD8"/>
<stop offset="1" stop-color="white" stop-opacity="0"/>
</radialGradient>
<radialGradient id="paint19_radial_789_8887" cx="0" cy="0" r="1" gradientUnits="userSpaceOnUse" gradientTransform="translate(397.5 -142) rotate(46.2462) scale(503.933 441.041)">
<stop stop-color="#2E1FD8"/>
<stop offset="1" stop-color="white" stop-opacity="0"/>
</radialGradient>
<radialGradient id="paint20_radial_789_8887" cx="0" cy="0" r="1" gradientUnits="userSpaceOnUse" gradientTransform="translate(397.5 -142) rotate(46.2462) scale(503.933 441.041)">
<stop stop-color="#2E1FD8"/>
<stop offset="1" stop-color="white" stop-opacity="0"/>
</radialGradient>
<radialGradient id="paint21_radial_789_8887" cx="0" cy="0" r="1" gradientUnits="userSpaceOnUse" gradientTransform="translate(397.5 -142) rotate(46.2462) scale(503.933 441.041)">
<stop stop-color="#2E1FD8"/>
<stop offset="1" stop-color="white" stop-opacity="0"/>
</radialGradient>
<radialGradient id="paint22_radial_789_8887" cx="0" cy="0" r="1" gradientUnits="userSpaceOnUse" gradientTransform="translate(397.5 -142) rotate(46.2462) scale(503.933 441.041)">
<stop stop-color="#2E1FD8"/>
<stop offset="1" stop-color="white" stop-opacity="0"/>
</radialGradient>
<radialGradient id="paint23_radial_789_8887" cx="0" cy="0" r="1" gradientUnits="userSpaceOnUse" gradientTransform="translate(397.5 -142) rotate(46.2462) scale(503.933 441.041)">
<stop stop-color="#2E1FD8"/>
<stop offset="1" stop-color="white" stop-opacity="0"/>
</radialGradient>
<radialGradient id="paint24_radial_789_8887" cx="0" cy="0" r="1" gradientUnits="userSpaceOnUse" gradientTransform="translate(397.5 -142) rotate(46.2462) scale(503.933 441.041)">
<stop stop-color="#2E1FD8"/>
<stop offset="1" stop-color="white" stop-opacity="0"/>
</radialGradient>
<radialGradient id="paint25_radial_789_8887" cx="0" cy="0" r="1" gradientUnits="userSpaceOnUse" gradientTransform="translate(397.5 -142) rotate(46.2462) scale(503.933 441.041)">
<stop stop-color="#2E1FD8"/>
<stop offset="1" stop-color="white" stop-opacity="0"/>
</radialGradient>
<radialGradient id="paint26_radial_789_8887" cx="0" cy="0" r="1" gradientUnits="userSpaceOnUse" gradientTransform="translate(397.5 -142) rotate(46.2462) scale(503.933 441.041)">
<stop stop-color="#2E1FD8"/>
<stop offset="1" stop-color="white" stop-opacity="0"/>
</radialGradient>
<radialGradient id="paint27_radial_789_8887" cx="0" cy="0" r="1" gradientUnits="userSpaceOnUse" gradientTransform="translate(397.5 -142) rotate(46.2462) scale(503.933 441.041)">
<stop stop-color="#2E1FD8"/>
<stop offset="1" stop-color="white" stop-opacity="0"/>
</radialGradient>
<radialGradient id="paint28_radial_789_8887" cx="0" cy="0" r="1" gradientUnits="userSpaceOnUse" gradientTransform="translate(397.5 -142) rotate(46.2462) scale(503.933 441.041)">
<stop stop-color="#2E1FD8"/>
<stop offset="1" stop-color="white" stop-opacity="0"/>
</radialGradient>
<radialGradient id="paint29_radial_789_8887" cx="0" cy="0" r="1" gradientUnits="userSpaceOnUse" gradientTransform="translate(397.5 -142) rotate(46.2462) scale(503.933 441.041)">
<stop stop-color="#2E1FD8"/>
<stop offset="1" stop-color="white" stop-opacity="0"/>
</radialGradient>
</defs>
</svg>
