<svg xmlns="http://www.w3.org/2000/svg" viewBox="0 0 24 24" width="24" height="24" fill="none" stroke="currentColor" stroke-width="1.5" stroke-linecap="round" stroke-linejoin="round">
    <path d="M12.0045 11.5C12.5568 11.5 13.0045 11.9477 13.0045 12.5C13.0045 13.0523 12.5568 13.5 12.0045 13.5C11.4522 13.5 11.0045 13.0523 11.0045 12.5C11.0045 11.9477 11.4522 11.5 12.0045 11.5Z" />
    <path d="M18.0045 11.5C18.5568 11.5 19.0045 11.9477 19.0045 12.5C19.0045 13.0523 18.5568 13.5 18.0045 13.5C17.4522 13.5 17.0045 13.0523 17.0045 12.5C17.0045 11.9477 17.4522 11.5 18.0045 11.5Z" />
    <path d="M6.00449 11.5C6.55677 11.5 7.00449 11.9477 7.00449 12.5C7.00449 13.0523 6.55677 13.5 6.00449 13.5C5.4522 13.5 5.00449 13.0523 5.00449 12.5C5.00449 11.9477 5.4522 11.5 6.00449 11.5Z" />
</svg>