<svg xmlns="http://www.w3.org/2000/svg" viewBox="0 0 24 24" width="24" height="24" color="currentColor" fill="none"
  stroke="currentColor" stroke-width="1.5" stroke-linejoin="round">
  <path
    d="M2.5 12.0001C2.5 7.52178 2.5 5.28261 3.89124 3.89136C5.28249 2.50012 7.52166 2.50012 12 2.50012C16.4783 2.50012 18.7175 2.50012 20.1088 3.89136C21.5 5.28261 21.5 7.52178 21.5 12.0001C21.5 16.4785 21.5 18.7176 20.1088 20.1089C18.7175 21.5001 16.4783 21.5001 12 21.5001C7.52166 21.5001 5.28249 21.5001 3.89124 20.1089C2.5 18.7176 2.5 16.4785 2.5 12.0001Z" />
  <path
    d="M18 12.0001H16.2C15.5373 12.0001 15 12.5374 15 13.2001V13.8001C15 14.4629 15.5373 15.0001 16.2 15.0001H16.8C17.4627 15.0001 18 15.5374 18 16.2001V16.8001C18 17.4629 17.4627 18.0001 16.8 18.0001H15" />
  <path d="M8.5 12.0001H10.5M12.5 12.0001H10.5M10.5 12.0001V18.0001" />
</svg>