<?xml version="1.0" encoding="UTF-8"?>
<svg xmlns="http://www.w3.org/2000/svg" xmlns:xlink="http://www.w3.org/1999/xlink" width="0" height="0">
<defs>
<symbol id="ArrowRight" viewBox="0 0 24 24" stroke="currentColor" stroke-width="1.5" stroke-linecap="round" stroke-linejoin="round" color="currentColor">
  <path d="M18.5 12L4.99997 12" />
  <path d="M13 18C13 18 19 13.5811 19 12C19 10.4188 13 6 13 6" />
</symbol>
<symbol id="ArrowUpRight" viewBox="0 0 24 24" stroke="currentColor" stroke-width="1.5" stroke-linecap="round" stroke-linejoin="round" color="currentColor">
    <path d="M9 6.65032C9 6.65032 15.9383 6.10759 16.9154 7.08463C17.8924 8.06167 17.3496 15 17.3496 15M16.5 7.5L6.5 17.5" />
</symbol>
<symbol id="ArrowUp" viewBox="0 0 24 24" stroke="currentColor" stroke-width="1.5" stroke-linecap="round" stroke-linejoin="round" color="currentColor">
  <path d="M17.9998 15C17.9998 15 13.5809 9.00001 11.9998 9C10.4187 8.99999 5.99985 15 5.99985 15" />
</symbol>
<symbol id="Bash" viewBox="0 0 24 24" stroke="currentColor" stroke-width="1.5" stroke-linecap="round" stroke-linejoin="round" color="currentColor">
  <path d="M7 7L8.22654 8.05719C8.74218 8.50163 9 8.72386 9 9C9 9.27614 8.74218 9.49836 8.22654 9.94281L7 11" />
  <path d="M11 11H14" />
  <path
    d="M12 21C15.7497 21 17.6246 21 18.9389 20.0451C19.3634 19.7367 19.7367 19.3634 20.0451 18.9389C21 17.6246 21 15.7497 21 12C21 8.25027 21 6.3754 20.0451 5.06107C19.7367 4.6366 19.3634 4.26331 18.9389 3.95491C17.6246 3 15.7497 3 12 3C8.25027 3 6.3754 3 5.06107 3.95491C4.6366 4.26331 4.26331 4.6366 3.95491 5.06107C3 6.3754 3 8.25027 3 12C3 15.7497 3 17.6246 3.95491 18.9389C4.26331 19.3634 4.6366 19.7367 5.06107 20.0451C6.3754 21 8.25027 21 12 21Z" />
</symbol>
<symbol id="Book" viewBox="0 0 24 24" stroke="currentColor" stroke-width="1.5" stroke-linecap="round" stroke-linejoin="round" color="currentColor">
  <path d="M15.5 7H8.5M12.499 11H8.49902" />
  <path
    d="M20 22H6C4.89543 22 4 21.1046 4 20M4 20C4 18.8954 4.89543 18 6 18H20V6C20 4.11438 20 3.17157 19.4142 2.58579C18.8284 2 17.8856 2 16 2H10C7.17157 2 5.75736 2 4.87868 2.87868C4 3.75736 4 5.17157 4 8V20Z" />
  <path d="M19.5 18C19.5 18 18.5 18.7628 18.5 20C18.5 21.2372 19.5 22 19.5 22" />
</symbol>
<symbol id="Chatgpt" viewBox="0 0 24 24" stroke="currentColor" stroke-width="1.5" stroke-linecap="round" stroke-linejoin="round" color="currentColor">
  <path d="M11.7453 14.85L6.90436 12V7C6.90436 4.79086 8.72949 3 10.9809 3C12.3782 3 13.6113 3.6898 14.3458 4.74128" />
  <path
    d="M9.59961 19.1791C10.3266 20.2757 11.5866 21.0008 13.0192 21.0008C15.2707 21.0008 17.0958 19.21 17.0958 17.0008V12.0008L12.1612 9.0957" />
  <path
    d="M9.45166 13.5L9.45123 7.66938L13.8642 5.16938C15.814 4.06481 18.3072 4.72031 19.4329 6.63348C20.1593 7.86806 20.1388 9.32466 19.5089 10.4995" />
  <path
    d="M4.48963 13.4993C3.8595 14.6742 3.83887 16.131 4.56539 17.3657C5.6911 19.2789 8.18428 19.9344 10.1341 18.8298L14.5471 16.3298L14.643 10.7344" />
  <path
    d="M17.0959 17.6309C18.4415 17.5734 19.7295 16.8634 20.4529 15.634C21.5786 13.7209 20.9106 11.2745 18.9608 10.1699L14.5478 7.66992L9.48907 10.4255" />
  <path
    d="M6.90454 6.36938C5.55865 6.42662 4.27032 7.13672 3.54684 8.3663C2.42113 10.2795 3.08917 12.7258 5.03896 13.8304L9.45196 16.3304L14.5 13.5807" />
</symbol>
<symbol id="CheckCircle" viewBox="0 0 24 24" stroke="currentColor" stroke-width="1.5" color="currentColor">
    <path d="M22 12C22 6.47715 17.5228 2 12 2C6.47715 2 2 6.47715 2 12C2 17.5228 6.47715 22 12 22C17.5228 22 22 17.5228 22 12Z" />
    <path d="M8 12.75C8 12.75 9.6 13.6625 10.4 15C10.4 15 12.8 9.75 16 8" />
</symbol>
<symbol id="Check" viewBox="0 0 24 24" color="currentColor">
    <defs />
    <path fill="currentColor" d="M19.518,5.957 C19.817,6.243 19.829,6.718 19.542,7.018 L9.043,18.018 C8.903,18.164 8.711,18.248 8.509,18.25 C8.307,18.252 8.112,18.173 7.97,18.03 L4.47,14.53 C4.177,14.237 4.177,13.763 4.47,13.47 C4.763,13.177 5.237,13.177 5.53,13.47 L8.488,16.427 L18.458,5.982 C18.743,5.683 19.218,5.671 19.518,5.957 Z" />
</symbol>
<symbol id="ChevronDown" viewBox="0 0 24 24" stroke="currentColor" stroke-width="1.5" stroke-linecap="round" stroke-linejoin="round">
    <path d="M18 9.00005C18 9.00005 13.5811 15 12 15C10.4188 15 6 9 6 9" />
</symbol>
<symbol id="ChevronRight" viewBox="0 0 24 24" stroke="currentColor" stroke-width="1.5" stroke-linecap="round" stroke-linejoin="round">
    <path d="M9.00005 6C9.00005 6 15 10.4189 15 12C15 13.5812 9 18 9 18" />
</symbol>
<symbol id="ChevronUp" viewBox="0 0 24 24" stroke="currentColor" stroke-width="1.5" stroke-linecap="round" stroke-linejoin="round">
    <path d="M17.9998 15C17.9998 15 13.5809 9.00001 11.9998 9C10.4187 8.99999 5.99985 15 5.99985 15" />
</symbol>
<symbol id="Claude" viewBox="0 0 24 24" stroke="currentColor" stroke-width="1.5" stroke-linecap="round" stroke-linejoin="round" color="currentColor">
  <path
    d="M13 12L18.5 5M7.63965 3L12.5 12L13.6865 3M4.48381 6.71679L11.9872 12M3 12L11.9872 12.473M12.2244 13.177L7 20M4.84194 16.8682L11.2824 12.9758M11.5 21L12.665 13.177M21 14L13.1846 12.668M21 10.5788L13 12.3223M16.779 19.646L12.8876 13.3772M19.3566 18.207L13.313 12.9893" />
</symbol>
<symbol id="Copy" viewBox="0 0 24 24" stroke="currentColor" stroke-width="1.5" stroke-linecap="round" stroke-linejoin="round" color="currentColor">
  <path
    d="M9 15C9 12.1716 9 10.7574 9.87868 9.87868C10.7574 9 12.1716 9 15 9L16 9C18.8284 9 20.2426 9 21.1213 9.87868C22 10.7574 22 12.1716 22 15V16C22 18.8284 22 20.2426 21.1213 21.1213C20.2426 22 18.8284 22 16 22H15C12.1716 22 10.7574 22 9.87868 21.1213C9 20.2426 9 18.8284 9 16L9 15Z" />
  <path
    d="M16.9999 9C16.9975 6.04291 16.9528 4.51121 16.092 3.46243C15.9258 3.25989 15.7401 3.07418 15.5376 2.90796C14.4312 2 12.7875 2 9.5 2C6.21252 2 4.56878 2 3.46243 2.90796C3.25989 3.07417 3.07418 3.25989 2.90796 3.46243C2 4.56878 2 6.21252 2 9.5C2 12.7875 2 14.4312 2.90796 15.5376C3.07417 15.7401 3.25989 15.9258 3.46243 16.092C4.51121 16.9528 6.04291 16.9975 9 16.9999" />
</symbol>
<symbol id="CrossCircle" viewBox="0 0 24 24" stroke="currentColor" stroke-width="1.5" stroke-linecap="round" stroke-linejoin="round" color="currentColor">
    <path d="M22 12C22 6.47715 17.5228 2 12 2C6.47715 2 2 6.47715 2 12C2 17.5228 6.47715 22 12 22C17.5228 22 22 17.5228 22 12Z" />
    <path d="M14.9994 15L9 9M9.00064 15L15 9" />
</symbol>
<symbol id="Cross" viewBox="0 0 24 24" stroke="currentColor" stroke-width="1.5" stroke-linecap="round" stroke-linejoin="round">
    <path d="M18 6L6.00081 17.9992M17.9992 18L6 6.00085" />
</symbol>
<symbol id="CursorAi" viewBox="0 0 466.73 532.09">
  <defs>
    <style>
      .st0 {
        fill: currentColor;
      }
    </style>
  </defs>
  <path class="st0"
    d="M457.43,125.94L244.42,2.96c-6.84-3.95-15.28-3.95-22.12,0L9.3,125.94c-5.75,3.32-9.3,9.46-9.3,16.11v247.99c0,6.65,3.55,12.79,9.3,16.11l213.01,122.98c6.84,3.95,15.28,3.95,22.12,0l213.01-122.98c5.75-3.32,9.3-9.46,9.3-16.11v-247.99c0-6.65-3.55-12.79-9.3-16.11h-.01ZM444.05,151.99l-205.63,356.16c-1.39,2.4-5.06,1.42-5.06-1.36v-233.21c0-4.66-2.49-8.97-6.53-11.31L24.87,145.67c-2.4-1.39-1.42-5.06,1.36-5.06h411.26c5.84,0,9.49,6.33,6.57,11.39h-.01Z" />
</symbol>
<symbol id="Discord" viewBox="0 0 24 24" stroke="currentColor" stroke-width="1.5" stroke-linecap="round" stroke-linejoin="round" color="currentColor">
  <path
    d="M15.5008 17.75L16.7942 19.5205C16.9156 19.7127 17.1489 19.7985 17.3619 19.7224C18.1657 19.4353 20.158 18.6572 21.7984 17.4725C21.9263 17.3801 22.0002 17.2261 21.9992 17.0673C21.9992 8.25 19.5008 5.75 19.5008 5.75C19.5008 5.75 17.5008 4.60213 15.3547 4.25602C15.1436 4.22196 14.9368 4.33509 14.8429 4.52891L14.3979 5.44677C14.3979 5.44677 13.2853 5.21397 12 5.21397C10.7147 5.21397 9.6021 5.44677 9.6021 5.44677L9.15711 4.52891C9.06314 4.33509 8.85644 4.22196 8.64529 4.25602C6.50079 4.60187 4.50079 5.75 4.50079 5.75C4.50079 5.75 2.0008 8.25 2.0008 17.0673C1.9998 17.2261 2.07365 17.3801 2.20159 17.4725C3.84196 18.6572 5.8343 19.4353 6.63806 19.7224C6.85105 19.7985 7.08437 19.7127 7.20582 19.5205L8.50079 17.75" />
  <path d="M17.5008 16.75C17.5008 16.75 15.2057 18.25 12.0008 18.25C8.79587 18.25 6.50079 16.75 6.50079 16.75" />
  <path
    d="M17.2508 12.25C17.2508 13.3546 16.4673 14.25 15.5008 14.25C14.5343 14.25 13.7508 13.3546 13.7508 12.25C13.7508 11.1454 14.5343 10.25 15.5008 10.25C16.4673 10.25 17.2508 11.1454 17.2508 12.25Z" />
  <path
    d="M10.2508 12.25C10.2508 13.3546 9.46729 14.25 8.50079 14.25C7.5343 14.25 6.75079 13.3546 6.75079 12.25C6.75079 11.1454 7.5343 10.25 8.50079 10.25C9.46729 10.25 10.2508 11.1454 10.2508 12.25Z" />
</symbol>
<symbol id="FileText" viewBox="0 0 24 24" stroke="currentColor" stroke-width="1.5" stroke-linecap="round" stroke-linejoin="round" color="currentColor">
  <path d="M8 17H16" />
  <path d="M8 13H12" />
  <path
    d="M13 2.5V3C13 5.82843 13 7.24264 13.8787 8.12132C14.7574 9 16.1716 9 19 9H19.5M20 10.6569V14C20 17.7712 20 19.6569 18.8284 20.8284C17.6569 22 15.7712 22 12 22C8.22876 22 6.34315 22 5.17157 20.8284C4 19.6569 4 17.7712 4 14V9.45584C4 6.21082 4 4.58831 4.88607 3.48933C5.06508 3.26731 5.26731 3.06508 5.48933 2.88607C6.58831 2 8.21082 2 11.4558 2C12.1614 2 12.5141 2 12.8372 2.11401C12.9044 2.13772 12.9702 2.165 13.0345 2.19575C13.3436 2.34355 13.593 2.593 14.0919 3.09188L18.8284 7.82843C19.4065 8.40649 19.6955 8.69552 19.8478 9.06306C20 9.4306 20 9.83935 20 10.6569Z" />
</symbol>
<symbol id="File" viewBox="0 0 24 24" stroke="currentColor" stroke-width="1.5" stroke-linecap="round" stroke-linejoin="round" color="currentColor">
    <path d="M13 2.5V3C13 5.82843 13 7.24264 13.8787 8.12132C14.7574 9 16.1716 9 19 9H19.5M20 10.6569V14C20 17.7712 20 19.6569 18.8284 20.8284C17.6569 22 15.7712 22 12 22C8.22876 22 6.34315 22 5.17157 20.8284C4 19.6569 4 17.7712 4 14V9.45584C4 6.21082 4 4.58831 4.88607 3.48933C5.06508 3.26731 5.26731 3.06508 5.48933 2.88607C6.58831 2 8.21082 2 11.4558 2C12.1614 2 12.5141 2 12.8372 2.11401C12.9044 2.13772 12.9702 2.165 13.0345 2.19575C13.3436 2.34355 13.593 2.593 14.0919 3.09188L18.8284 7.82843C19.4065 8.40649 19.6955 8.69552 19.8478 9.06306C20 9.4306 20 9.83935 20 10.6569Z" />
</symbol>
<symbol id="Folder" viewBox="0 0 24 24" stroke="currentColor" stroke-width="1.5" stroke-linecap="round" color="currentColor">
    <path d="M8 7H16.75C18.8567 7 19.91 7 20.6667 7.50559C20.9943 7.72447 21.2755 8.00572 21.4944 8.33329C22 9.08996 22 10.1433 22 12.25C22 15.7612 22 17.5167 21.1573 18.7779C20.7926 19.3238 20.3238 19.7926 19.7779 20.1573C18.5167 21 16.7612 21 13.25 21H12C7.28595 21 4.92893 21 3.46447 19.5355C2 18.0711 2 15.714 2 11V7.94427C2 6.1278 2 5.21956 2.38032 4.53806C2.65142 4.05227 3.05227 3.65142 3.53806 3.38032C4.21956 3 5.1278 3 6.94427 3C8.10802 3 8.6899 3 9.19926 3.19101C10.3622 3.62712 10.8418 4.68358 11.3666 5.73313L12 7" />
</symbol>
<symbol id="Github" viewBox="0 0 24 24" stroke="currentColor" stroke-width="1.5" stroke-linecap="round" stroke-linejoin="round" color="currentColor">
  <path d="M10 20.5675C6.57143 21.7248 3.71429 20.5675 2 17" />
  <path
    d="M10 22V18.7579C10 18.1596 10.1839 17.6396 10.4804 17.1699C10.6838 16.8476 10.5445 16.3904 10.1771 16.2894C7.13394 15.4528 5 14.1077 5 9.64606C5 8.48611 5.38005 7.39556 6.04811 6.4464C6.21437 6.21018 6.29749 6.09208 6.31748 5.9851C6.33746 5.87813 6.30272 5.73852 6.23322 5.45932C5.95038 4.32292 5.96871 3.11619 6.39322 2.02823C6.39322 2.02823 7.27042 1.74242 9.26698 2.98969C9.72282 3.27447 9.95075 3.41686 10.1515 3.44871C10.3522 3.48056 10.6206 3.41384 11.1573 3.28041C11.8913 3.09795 12.6476 3 13.5 3C14.3524 3 15.1087 3.09795 15.8427 3.28041C16.3794 3.41384 16.6478 3.48056 16.8485 3.44871C17.0493 3.41686 17.2772 3.27447 17.733 2.98969C19.7296 1.74242 20.6068 2.02823 20.6068 2.02823C21.0313 3.11619 21.0496 4.32292 20.7668 5.45932C20.6973 5.73852 20.6625 5.87813 20.6825 5.9851C20.7025 6.09207 20.7856 6.21019 20.9519 6.4464C21.6199 7.39556 22 8.48611 22 9.64606C22 14.1077 19.8661 15.4528 16.8229 16.2894C16.4555 16.3904 16.3162 16.8476 16.5196 17.1699C16.8161 17.6396 17 18.1596 17 18.7579V22" />
</symbol>
<symbol id="Home" viewBox="0 0 24 24" stroke="currentColor" stroke-width="1.5" stroke-linecap="round" stroke-linejoin="round" color="currentColor">
  <path
    d="M3 11.9896V14.5C3 17.7998 3 19.4497 4.02513 20.4749C5.05025 21.5 6.70017 21.5 10 21.5H14C17.2998 21.5 18.9497 21.5 19.9749 20.4749C21 19.4497 21 17.7998 21 14.5V11.9896C21 10.3083 21 9.46773 20.6441 8.74005C20.2882 8.01237 19.6247 7.49628 18.2976 6.46411L16.2976 4.90855C14.2331 3.30285 13.2009 2.5 12 2.5C10.7991 2.5 9.76689 3.30285 7.70242 4.90855L5.70241 6.46411C4.37533 7.49628 3.71179 8.01237 3.3559 8.74005C3 9.46773 3 10.3083 3 11.9896Z" />
  <path d="M16 17H8" />
</symbol>
<symbol id="InfoCircle" viewBox="0 0 24 24" stroke="currentColor" stroke-width="1.5" stroke-linecap="round" stroke-linejoin="round" color="currentColor">
    <circle cx="12" cy="12" r="10" />
    <path d="M12 16V11.5" />
    <path d="M12 8.01172V8.00172" />
</symbol>
<symbol id="LinkSquare" viewBox="0 0 24 24" stroke="currentColor" stroke-width="1.5" stroke-linecap="round" stroke-linejoin="round" color="currentColor">
  <path
    d="M11.0991 3.00012C7.45013 3.00669 5.53932 3.09629 4.31817 4.31764C3.00034 5.63568 3.00034 7.75704 3.00034 11.9997C3.00034 16.2424 3.00034 18.3638 4.31817 19.6818C5.63599 20.9999 7.75701 20.9999 11.9991 20.9999C16.241 20.9999 18.3621 20.9999 19.6799 19.6818C20.901 18.4605 20.9906 16.5493 20.9972 12.8998" />
  <path
    d="M20.556 3.49612L11.0487 13.0586M20.556 3.49612C20.062 3.00151 16.7343 3.04761 16.0308 3.05762M20.556 3.49612C21.05 3.99074 21.0039 7.32273 20.9939 8.02714" />
</symbol>
<symbol id="Link" viewBox="0 0 24 24" stroke="currentColor" stroke-width="1.5" stroke-linecap="round" color="currentColor">
  <path d="M9.5 14.5L14.5 9.49995" />
  <path
    d="M16.8463 14.6095L19.4558 12C21.5147 9.94108 21.5147 6.60298 19.4558 4.54411C17.397 2.48524 14.0589 2.48524 12 4.54411L9.39045 7.15366M14.6095 16.8463L12 19.4558C9.94113 21.5147 6.60303 21.5147 4.54416 19.4558C2.48528 17.3969 2.48528 14.0588 4.54416 12L7.1537 9.39041" />
</symbol>
<symbol id="Menu" viewBox="0 0 24 24" stroke="currentColor" stroke-width="1.5" stroke-linecap="round" stroke-linejoin="round">
    <path d="M3 12H21" />
    <path d="M3 6H21" />
    <path d="M3 18H21" />
</symbol>
<symbol id="Monitor" viewBox="0 0 24 24" stroke="currentColor" stroke-width="1.5" stroke-linecap="round" stroke-linejoin="round">
    <path d="M14 21H16M14 21C13.1716 21 12.5 20.3284 12.5 19.5V17L12 17M14 21H10M10 21H8M10 21C10.8284 21 11.5 20.3284 11.5 19.5V17L12 17M12 17V21" />
    <path d="M16 3H8C5.17157 3 3.75736 3 2.87868 3.87868C2 4.75736 2 6.17157 2 9V11C2 13.8284 2 15.2426 2.87868 16.1213C3.75736 17 5.17157 17 8 17H16C18.8284 17 20.2426 17 21.1213 16.1213C22 15.2426 22 13.8284 22 11V9C22 6.17157 22 4.75736 21.1213 3.87868C20.2426 3 18.8284 3 16 3Z" />
</symbol>
<symbol id="Moon" viewBox="0 0 24 24" stroke="currentColor" stroke-width="1.5" stroke-linecap="round" stroke-linejoin="round">
    <path d="M21.5 14.0784C20.3003 14.7189 18.9301 15.0821 17.4751 15.0821C12.7491 15.0821 8.91792 11.2509 8.91792 6.52485C8.91792 5.06986 9.28105 3.69968 9.92163 2.5C5.66765 3.49698 2.5 7.31513 2.5 11.8731C2.5 17.1899 6.8101 21.5 12.1269 21.5C16.6849 21.5 20.503 18.3324 21.5 14.0784Z" />
</symbol>
<symbol id="Plus" viewBox="0 0 24 24" stroke="currentColor" stroke-width="1.5" stroke-linecap="round" stroke-linejoin="round" color="currentColor">
  <path d="M12 4V20M20 12H4" />
</symbol>
<symbol id="Railway" viewBox="0 0 65.99939578809374 66.0" fill="currentColor">
  <g data-v-423bf9ae="" id="6f639fe5-02e1-4640-a1fb-f4b22b64e5ef"
    transform="matrix(0.5999641134746578,0,0,0.5999641134746578,-437.5538206497148,-266.68705118956507)" stroke="none">
    <path
      d="M729.872 487.327a50.86 50.86 0 0 0-.464 5.033h75.879c-.265-.518-.621-.985-.98-1.442-12.972-16.769-19.95-15.315-29.932-15.741-3.328-.137-5.585-.192-18.832-.192-7.09 0-14.798.018-22.304.038.737-1.746 1.6-3.419 2.525-5.061-2.885 5.106-4.865 10.771-5.805 16.789l.891-4.397c.007-.031.018-.063.024-.094h38.883v5.067h-39.885zM805.885 497.432h-76.438c.08 1.352.206 2.686.388 4.002h70.571c3.146 0 4.907-1.786 5.479-4.002zM733.851 515.257a52.226 52.226 0 0 1-1.98-4.997c6.608 19.89 25.328 34.251 47.433 34.251 20.205 0 37.566-12.007 45.452-29.254h-90.905zM729.38 492.915c-.018.531-.08 1.055-.08 1.589 0 .538.063 1.059.08 1.59v-3.179zM824.77 515.229z">
    </path>
    <path
      d="M779.303 444.505c-18.682 0-34.939 10.265-43.524 25.439 6.709-.014 19.775-.022 19.775-.022h.003v-.005c15.444 0 16.018.069 19.035.195l1.868.069c6.507.217 14.505.916 20.798 5.68 3.416 2.584 8.348 8.287 11.288 12.35 2.718 3.758 3.5 8.078 1.652 12.217-1.701 3.804-5.361 6.073-9.793 6.073H730.85l-.884-4.201c.426 2.707 1.037 5.344 1.879 7.886h94.914a49.863 49.863 0 0 0 2.546-15.682c.001-27.611-22.386-49.999-50.002-49.999z">
    </path>
  </g>
</symbol>
<symbol id="React" viewBox="0 0 24 24" stroke="currentColor" stroke-width="1.5" color="currentColor">
  <path
    d="M8.00002 12C8.00002 6.47715 9.79088 2 12 2C14.2092 2 16 6.47715 16 12C16 17.5228 14.2092 22 12 22C9.79088 22 8.00002 17.5228 8.00002 12Z" />
  <path
    d="M9.97531 8.61921C14.8173 5.85779 19.649 5.17014 20.7673 7.08331C21.8855 8.99648 18.8667 12.786 14.0247 15.5474C9.18271 18.3088 4.35098 18.9965 3.23277 17.0833C2.11455 15.1701 5.13329 11.3806 9.97531 8.61921Z" />
  <path
    d="M14.0247 8.61921C18.8667 11.3806 21.8855 15.1701 20.7673 17.0833C19.649 18.9965 14.8173 18.3088 9.97531 15.5474C5.13329 12.786 2.11455 8.99648 3.23277 7.08331C4.35098 5.17014 9.18271 5.85779 14.0247 8.61921Z" />
  <path
    d="M13.5 12C13.5 12.8284 12.8284 13.5 12 13.5C11.1716 13.5 10.5 12.8284 10.5 12C10.5 11.1716 11.1716 10.5 12 10.5C12.8284 10.5 13.5 11.1716 13.5 12Z" />
</symbol>
<symbol id="Rss" viewBox="0 0 24 24" stroke="currentColor" stroke-width="1.5" stroke-linecap="round" stroke-linejoin="round" color="currentColor">
  <path
    d="M12.9915 20.5C13.7121 20.5 13.9925 20.4956 13.9925 20.4956C17.4088 20.471 19.2922 20.3099 20.5342 19.2552C22 18.0104 22 16.0069 22 12C22 7.99306 22 5.98959 20.5342 4.7448C19.0683 3.5 16.7091 3.5 11.9906 3.5C7.27213 3.5 4.91289 3.5 3.44705 4.7448C2.32426 5.69827 2.0615 7.09687 2 9.5" />
  <path d="M2.98242 19.5H2.9914" />
  <path d="M2 15.7349C4.49328 15.7349 6.77053 18 6.77053 20.4996M10 20.4996C10 16 5.99511 12.5 2.04522 12.5" />
</symbol>
<symbol id="Search" viewBox="0 0 24 24" stroke="currentColor" stroke-width="1.5" stroke-linecap="round" stroke-linejoin="round" color="currentColor">
  <path d="M17 17L21 21" />
  <path
    d="M19 11C19 6.58172 15.4183 3 11 3C6.58172 3 3 6.58172 3 11C3 15.4183 6.58172 19 11 19C15.4183 19 19 15.4183 19 11Z" />
</symbol>
<symbol id="Spinner" viewBox="0 0 24 24" stroke="currentColor" stroke-width="2" stroke-linecap="round" stroke-linejoin="round">
  <path d="M12 2v4m0 12v4M6 12H2m20 0h-4m1.078 7.078L16.25 16.25M19.078 5 16.25 7.828M4.922 19.078 7.75 16.25M4.922 5 7.75 7.828" />
</symbol>
<symbol id="Square" viewBox="0 0 24 24" stroke="currentColor" stroke-width="1.5" color="currentColor">
  <path
    d="M4 12C4 8.72077 4 7.08116 4.81382 5.91891C5.1149 5.48891 5.48891 5.1149 5.91891 4.81382C7.08116 4 8.72077 4 12 4C15.2792 4 16.9188 4 18.0811 4.81382C18.5111 5.1149 18.8851 5.48891 19.1862 5.91891C20 7.08116 20 8.72077 20 12C20 15.2792 20 16.9188 19.1862 18.0811C18.8851 18.5111 18.5111 18.8851 18.0811 19.1862C16.9188 20 15.2792 20 12 20C8.72077 20 7.08116 20 5.91891 19.1862C5.48891 18.8851 5.1149 18.5111 4.81382 18.0811C4 16.9188 4 15.2792 4 12Z" />
</symbol>
<symbol id="Star" viewBox="0 0 24 24" stroke="currentColor" stroke-width="1.5" stroke-linecap="round" stroke-linejoin="round" color="currentColor">
  <path
    d="M13.7276 3.44418L15.4874 6.99288C15.7274 7.48687 16.3673 7.9607 16.9073 8.05143L20.0969 8.58575C22.1367 8.92853 22.6167 10.4206 21.1468 11.8925L18.6671 14.3927C18.2471 14.8161 18.0172 15.6327 18.1471 16.2175L18.8571 19.3125C19.417 21.7623 18.1271 22.71 15.9774 21.4296L12.9877 19.6452C12.4478 19.3226 11.5579 19.3226 11.0079 19.6452L8.01827 21.4296C5.8785 22.71 4.57865 21.7522 5.13859 19.3125L5.84851 16.2175C5.97849 15.6327 5.74852 14.8161 5.32856 14.3927L2.84884 11.8925C1.389 10.4206 1.85895 8.92853 3.89872 8.58575L7.08837 8.05143C7.61831 7.9607 8.25824 7.48687 8.49821 6.99288L10.258 3.44418C11.2179 1.51861 12.7777 1.51861 13.7276 3.44418Z" />
</symbol>
<symbol id="Sun" viewBox="0 0 24 24" stroke="currentColor" stroke-width="1.5">
    <path d="M17 12C17 14.7614 14.7614 17 12 17C9.23858 17 7 14.7614 7 12C7 9.23858 9.23858 7 12 7C14.7614 7 17 9.23858 17 12Z" />
    <path d="M12 2V3.5M12 20.5V22M19.0708 19.0713L18.0101 18.0106M5.98926 5.98926L4.9286 4.9286M22 12H20.5M3.5 12H2M19.0713 4.92871L18.0106 5.98937M5.98975 18.0107L4.92909 19.0714" />
</symbol>
<symbol id="ThreeDotsHorizontal" viewBox="0 0 24 24" stroke="currentColor" stroke-width="1.5" stroke-linecap="round" stroke-linejoin="round">
    <path d="M12.0045 11.5C12.5568 11.5 13.0045 11.9477 13.0045 12.5C13.0045 13.0523 12.5568 13.5 12.0045 13.5C11.4522 13.5 11.0045 13.0523 11.0045 12.5C11.0045 11.9477 11.4522 11.5 12.0045 11.5Z" />
    <path d="M18.0045 11.5C18.5568 11.5 19.0045 11.9477 19.0045 12.5C19.0045 13.0523 18.5568 13.5 18.0045 13.5C17.4522 13.5 17.0045 13.0523 17.0045 12.5C17.0045 11.9477 17.4522 11.5 18.0045 11.5Z" />
    <path d="M6.00449 11.5C6.55677 11.5 7.00449 11.9477 7.00449 12.5C7.00449 13.0523 6.55677 13.5 6.00449 13.5C5.4522 13.5 5.00449 13.0523 5.00449 12.5C5.00449 11.9477 5.4522 11.5 6.00449 11.5Z" />
</symbol>
<symbol id="TriangleAlert" viewBox="0 0 24 24" stroke="currentColor" stroke-width="1.5" stroke-linecap="round" stroke-linejoin="round" color="currentColor">
    <path d="M13.9248 21H10.0752C5.44476 21 3.12955 21 2.27636 19.4939C1.42317 17.9879 2.60736 15.9914 4.97574 11.9985L6.90057 8.75333C9.17559 4.91778 10.3131 3 12 3C13.6869 3 14.8244 4.91777 17.0994 8.75332L19.0243 11.9985C21.3926 15.9914 22.5768 17.9879 21.7236 19.4939C20.8704 21 18.5552 21 13.9248 21Z" />
    <path d="M12 9V13.5" />
    <path d="M12 16.9922V17.0022" />
</symbol>
<symbol id="Typescript" viewBox="0 0 24 24" stroke="currentColor" stroke-width="1.5" stroke-linejoin="round" color="currentColor">
  <path
    d="M2.5 12.0001C2.5 7.52178 2.5 5.28261 3.89124 3.89136C5.28249 2.50012 7.52166 2.50012 12 2.50012C16.4783 2.50012 18.7175 2.50012 20.1088 3.89136C21.5 5.28261 21.5 7.52178 21.5 12.0001C21.5 16.4785 21.5 18.7176 20.1088 20.1089C18.7175 21.5001 16.4783 21.5001 12 21.5001C7.52166 21.5001 5.28249 21.5001 3.89124 20.1089C2.5 18.7176 2.5 16.4785 2.5 12.0001Z" />
  <path
    d="M18 12.0001H16.2C15.5373 12.0001 15 12.5374 15 13.2001V13.8001C15 14.4629 15.5373 15.0001 16.2 15.0001H16.8C17.4627 15.0001 18 15.5374 18 16.2001V16.8001C18 17.4629 17.4627 18.0001 16.8 18.0001H15" />
  <path d="M8.5 12.0001H10.5M12.5 12.0001H10.5M10.5 12.0001V18.0001" />
</symbol>
<symbol id="Vscode" viewBox="0 0 24 24" stroke="currentColor" stroke-width="1.5" stroke-linecap="round" stroke-linejoin="round" color="currentColor">
  <path
    d="M17.0158 16.5V21.282C17.0158 21.6025 16.8064 21.874 16.5174 21.9663M17.0158 16.5L10.8772 12M17.0158 16.5V7.5M7.74691 9.7053L4.25118 7.03035C3.85429 6.72665 3.29466 6.76425 2.94169 7.11833L2.2921 7.76997C1.89399 8.16933 1.90433 8.81995 2.31494 9.20638L5.28343 12M7.74691 9.7053L10.8772 12M7.74691 9.7053L15.8129 2.19186C15.9453 2.06854 16.1193 2 16.3 2C16.3758 2 16.4488 2.01181 16.5174 2.0337M10.8772 12L17.0158 7.5M17.0158 7.5V2.71803C17.0158 2.39749 16.8064 2.126 16.5174 2.0337M7.74691 14.2947L4.25118 16.9696C3.85429 17.2733 3.29466 17.2357 2.94169 16.8817L2.2921 16.23C1.89399 15.8307 1.90433 15.18 2.31494 14.7936L5.28343 12M7.74691 14.2947L15.8129 21.8081C15.9453 21.9315 16.1193 22 16.3 22C16.3758 22 16.4488 21.9882 16.5174 21.9663M7.74691 14.2947L5.28343 12M16.5174 2.0337L21.4111 4.23506C21.7695 4.39626 22.0001 4.75353 22.0001 5.14752V18.8525C22.0001 19.2465 21.7695 19.6037 21.4111 19.7649L16.5174 21.9663" />
</symbol>
<symbol id="XIcon" viewBox="0 0 24 24" stroke="currentColor" stroke-width="1.5" stroke-linecap="round" stroke-linejoin="round" color="currentColor">
  <path
    d="M3 21L10.5484 13.4516M21 3L13.4516 10.5484M13.4516 10.5484L8 3H3L10.5484 13.4516M13.4516 10.5484L21 21H16L10.5484 13.4516" />
</symbol>
<symbol id="Youtube" viewBox="0 0 24 24" stroke="currentColor" stroke-width="1.5" color="currentColor">
  <path
    d="M12 20.5C13.8097 20.5 15.5451 20.3212 17.1534 19.9934C19.1623 19.5839 20.1668 19.3791 21.0834 18.2006C22 17.0221 22 15.6693 22 12.9635V11.0365C22 8.33073 22 6.97787 21.0834 5.79937C20.1668 4.62088 19.1623 4.41613 17.1534 4.00662C15.5451 3.67877 13.8097 3.5 12 3.5C10.1903 3.5 8.45489 3.67877 6.84656 4.00662C4.83766 4.41613 3.83321 4.62088 2.9166 5.79937C2 6.97787 2 8.33073 2 11.0365V12.9635C2 15.6693 2 17.0221 2.9166 18.2006C3.83321 19.3791 4.83766 19.5839 6.84656 19.9934C8.45489 20.3212 10.1903 20.5 12 20.5Z" />
  <path
    d="M15.9621 12.3129C15.8137 12.9187 15.0241 13.3538 13.4449 14.2241C11.7272 15.1705 10.8684 15.6438 10.1728 15.4615C9.9372 15.3997 9.7202 15.2911 9.53799 15.1438C9 14.7089 9 13.8059 9 12C9 10.1941 9 9.29112 9.53799 8.85618C9.7202 8.70886 9.9372 8.60029 10.1728 8.53854C10.8684 8.35621 11.7272 8.82945 13.4449 9.77593C15.0241 10.6462 15.8137 11.0813 15.9621 11.6871C16.0126 11.8933 16.0126 12.1067 15.9621 12.3129Z" />
</symbol>
</defs>
</svg>